%TF.GenerationSoftware,KiCad,Pcbnew,(6.0.5-0)*%
%TF.CreationDate,2022-08-13T19:22:48-07:00*%
%TF.ProjectId,max3100-uart-adpt,6d617833-3130-4302-9d75-6172742d6164,P1.1*%
%TF.SameCoordinates,PX6b4f310PY74ffa90*%
%TF.FileFunction,Paste,Bot*%
%TF.FilePolarity,Positive*%
%FSLAX46Y46*%
G04 Gerber Fmt 4.6, Leading zero omitted, Abs format (unit mm)*
G04 Created by KiCad (PCBNEW (6.0.5-0)) date 2022-08-13 19:22:48*
%MOMM*%
%LPD*%
G01*
G04 APERTURE LIST*
G04 Aperture macros list*
%AMRoundRect*
0 Rectangle with rounded corners*
0 $1 Rounding radius*
0 $2 $3 $4 $5 $6 $7 $8 $9 X,Y pos of 4 corners*
0 Add a 4 corners polygon primitive as box body*
4,1,4,$2,$3,$4,$5,$6,$7,$8,$9,$2,$3,0*
0 Add four circle primitives for the rounded corners*
1,1,$1+$1,$2,$3*
1,1,$1+$1,$4,$5*
1,1,$1+$1,$6,$7*
1,1,$1+$1,$8,$9*
0 Add four rect primitives between the rounded corners*
20,1,$1+$1,$2,$3,$4,$5,0*
20,1,$1+$1,$4,$5,$6,$7,0*
20,1,$1+$1,$6,$7,$8,$9,0*
20,1,$1+$1,$8,$9,$2,$3,0*%
G04 Aperture macros list end*
%ADD10RoundRect,0.150000X-0.150000X0.512500X-0.150000X-0.512500X0.150000X-0.512500X0.150000X0.512500X0*%
%ADD11RoundRect,0.250000X0.450000X-0.262500X0.450000X0.262500X-0.450000X0.262500X-0.450000X-0.262500X0*%
%ADD12RoundRect,0.250000X-0.450000X0.262500X-0.450000X-0.262500X0.450000X-0.262500X0.450000X0.262500X0*%
%ADD13R,4.000000X1.500000*%
%ADD14R,0.800000X0.500000*%
%ADD15R,0.800000X0.400000*%
%ADD16R,1.550000X0.435000*%
%ADD17RoundRect,0.218750X-0.218750X-0.256250X0.218750X-0.256250X0.218750X0.256250X-0.218750X0.256250X0*%
%ADD18RoundRect,0.250000X-0.475000X0.250000X-0.475000X-0.250000X0.475000X-0.250000X0.475000X0.250000X0*%
G04 APERTURE END LIST*
D10*
%TO.C,Q1*%
X48528000Y34919500D03*
X49478000Y34919500D03*
X50428000Y34919500D03*
X50428000Y32644500D03*
X49478000Y32644500D03*
X48528000Y32644500D03*
%TD*%
D11*
%TO.C,R2*%
X57678000Y32869500D03*
X57678000Y34694500D03*
%TD*%
D12*
%TO.C,R1*%
X55078000Y34694500D03*
X55078000Y32869500D03*
%TD*%
D13*
%TO.C,Y1*%
X57978000Y42682000D03*
X57978000Y40182000D03*
X57978000Y37682000D03*
%TD*%
D14*
%TO.C,RN1*%
X46278000Y40382000D03*
D15*
X46278000Y39582000D03*
X46278000Y38782000D03*
D14*
X46278000Y37982000D03*
X44478000Y37982000D03*
D15*
X44478000Y38782000D03*
X44478000Y39582000D03*
D14*
X44478000Y40382000D03*
%TD*%
D16*
%TO.C,IC1*%
X48253000Y36960000D03*
X48253000Y37594000D03*
X48253000Y38230000D03*
X48253000Y38864000D03*
X48253000Y39500000D03*
X48253000Y40134000D03*
X48253000Y40770000D03*
X48253000Y41404000D03*
X53703000Y41404000D03*
X53703000Y40770000D03*
X53703000Y40134000D03*
X53703000Y39500000D03*
X53703000Y38864000D03*
X53703000Y38230000D03*
X53703000Y37594000D03*
X53703000Y36960000D03*
%TD*%
D17*
%TO.C,D3*%
X46165500Y42882000D03*
X44590500Y42882000D03*
%TD*%
%TO.C,D2*%
X44490500Y33382000D03*
X46065500Y33382000D03*
%TD*%
%TO.C,D1*%
X46065500Y36182000D03*
X44490500Y36182000D03*
%TD*%
D18*
%TO.C,C1*%
X52578000Y32832000D03*
X52578000Y34732000D03*
%TD*%
M02*
