%TF.GenerationSoftware,KiCad,Pcbnew,(6.0.5-0)*%
%TF.CreationDate,2022-08-13T19:22:48-07:00*%
%TF.ProjectId,max3100-uart-adpt,6d617833-3130-4302-9d75-6172742d6164,P1.1*%
%TF.SameCoordinates,PX6b4f310PY74ffa90*%
%TF.FileFunction,Legend,Bot*%
%TF.FilePolarity,Positive*%
%FSLAX46Y46*%
G04 Gerber Fmt 4.6, Leading zero omitted, Abs format (unit mm)*
G04 Created by KiCad (PCBNEW (6.0.5-0)) date 2022-08-13 19:22:48*
%MOMM*%
%LPD*%
G01*
G04 APERTURE LIST*
%ADD10C,0.120000*%
%ADD11C,0.150000*%
%ADD12C,0.100000*%
%ADD13C,0.200000*%
G04 APERTURE END LIST*
D10*
X59978000Y39182000D02*
X59978000Y38682000D01*
X59978000Y41682000D02*
X59978000Y41382000D01*
X56078000Y41182000D02*
X56078000Y41682000D01*
X56078000Y38682000D02*
X56078000Y39182000D01*
D11*
X45794666Y31124858D02*
X45828000Y31077239D01*
X45928000Y31029620D01*
X45994666Y31029620D01*
X46094666Y31077239D01*
X46161333Y31172477D01*
X46194666Y31267715D01*
X46228000Y31458191D01*
X46228000Y31601048D01*
X46194666Y31791524D01*
X46161333Y31886762D01*
X46094666Y31982000D01*
X45994666Y32029620D01*
X45928000Y32029620D01*
X45828000Y31982000D01*
X45794666Y31934381D01*
X45528000Y31077239D02*
X45428000Y31029620D01*
X45261333Y31029620D01*
X45194666Y31077239D01*
X45161333Y31124858D01*
X45128000Y31220096D01*
X45128000Y31315334D01*
X45161333Y31410572D01*
X45194666Y31458191D01*
X45261333Y31505810D01*
X45394666Y31553429D01*
X45461333Y31601048D01*
X45494666Y31648667D01*
X45528000Y31743905D01*
X45528000Y31839143D01*
X45494666Y31934381D01*
X45461333Y31982000D01*
X45394666Y32029620D01*
X45228000Y32029620D01*
X45128000Y31982000D01*
X48644666Y44029620D02*
X48211333Y44029620D01*
X48444666Y43648667D01*
X48344666Y43648667D01*
X48278000Y43601048D01*
X48244666Y43553429D01*
X48211333Y43458191D01*
X48211333Y43220096D01*
X48244666Y43124858D01*
X48278000Y43077239D01*
X48344666Y43029620D01*
X48544666Y43029620D01*
X48611333Y43077239D01*
X48644666Y43124858D01*
X48011333Y44029620D02*
X47778000Y43029620D01*
X47544666Y44029620D01*
X47378000Y44029620D02*
X46944666Y44029620D01*
X47178000Y43648667D01*
X47078000Y43648667D01*
X47011333Y43601048D01*
X46978000Y43553429D01*
X46944666Y43458191D01*
X46944666Y43220096D01*
X46978000Y43124858D01*
X47011333Y43077239D01*
X47078000Y43029620D01*
X47278000Y43029620D01*
X47344666Y43077239D01*
X47378000Y43124858D01*
X44594666Y34329620D02*
X44828000Y34805810D01*
X44994666Y34329620D02*
X44994666Y35329620D01*
X44728000Y35329620D01*
X44661333Y35282000D01*
X44628000Y35234381D01*
X44594666Y35139143D01*
X44594666Y34996286D01*
X44628000Y34901048D01*
X44661333Y34853429D01*
X44728000Y34805810D01*
X44994666Y34805810D01*
X44361333Y35329620D02*
X43894666Y34329620D01*
X43894666Y35329620D02*
X44361333Y34329620D01*
X44911333Y32429620D02*
X44511333Y32429620D01*
X44711333Y31429620D02*
X44711333Y32429620D01*
X44344666Y32429620D02*
X43878000Y31429620D01*
X43878000Y32429620D02*
X44344666Y31429620D01*
X48478000Y31077239D02*
X48378000Y31029620D01*
X48211333Y31029620D01*
X48144666Y31077239D01*
X48111333Y31124858D01*
X48078000Y31220096D01*
X48078000Y31315334D01*
X48111333Y31410572D01*
X48144666Y31458191D01*
X48211333Y31505810D01*
X48344666Y31553429D01*
X48411333Y31601048D01*
X48444666Y31648667D01*
X48478000Y31743905D01*
X48478000Y31839143D01*
X48444666Y31934381D01*
X48411333Y31982000D01*
X48344666Y32029620D01*
X48178000Y32029620D01*
X48078000Y31982000D01*
X47378000Y31124858D02*
X47411333Y31077239D01*
X47511333Y31029620D01*
X47578000Y31029620D01*
X47678000Y31077239D01*
X47744666Y31172477D01*
X47778000Y31267715D01*
X47811333Y31458191D01*
X47811333Y31601048D01*
X47778000Y31791524D01*
X47744666Y31886762D01*
X47678000Y31982000D01*
X47578000Y32029620D01*
X47511333Y32029620D01*
X47411333Y31982000D01*
X47378000Y31934381D01*
X47078000Y31029620D02*
X47078000Y32029620D01*
X46678000Y31029620D02*
X46978000Y31601048D01*
X46678000Y32029620D02*
X47078000Y31458191D01*
X50935142Y31029620D02*
X50935142Y32029620D01*
X50601809Y31315334D01*
X50268476Y32029620D01*
X50268476Y31029620D01*
X49601809Y32029620D02*
X49411333Y32029620D01*
X49316095Y31982000D01*
X49220857Y31886762D01*
X49173238Y31696286D01*
X49173238Y31362953D01*
X49220857Y31172477D01*
X49316095Y31077239D01*
X49411333Y31029620D01*
X49601809Y31029620D01*
X49697047Y31077239D01*
X49792285Y31172477D01*
X49839904Y31362953D01*
X49839904Y31696286D01*
X49792285Y31886762D01*
X49697047Y31982000D01*
X49601809Y32029620D01*
X53149428Y31029620D02*
X53149428Y32029620D01*
X52816095Y31315334D01*
X52482761Y32029620D01*
X52482761Y31029620D01*
X52006571Y31029620D02*
X52006571Y32029620D01*
X55244666Y31029620D02*
X55578000Y31505810D01*
X55816095Y31029620D02*
X55816095Y32029620D01*
X55435142Y32029620D01*
X55339904Y31982000D01*
X55292285Y31934381D01*
X55244666Y31839143D01*
X55244666Y31696286D01*
X55292285Y31601048D01*
X55339904Y31553429D01*
X55435142Y31505810D01*
X55816095Y31505810D01*
X54911333Y32029620D02*
X54244666Y31029620D01*
X54244666Y32029620D02*
X54911333Y31029620D01*
X58439904Y32029620D02*
X57868476Y32029620D01*
X58154190Y31029620D02*
X58154190Y32029620D01*
X57630380Y32029620D02*
X56963714Y31029620D01*
X56963714Y32029620D02*
X57630380Y31029620D01*
%TO.C,Q1*%
X51573238Y35334381D02*
X51668476Y35382000D01*
X51763714Y35477239D01*
X51906571Y35620096D01*
X52001809Y35667715D01*
X52097047Y35667715D01*
X52049428Y35429620D02*
X52144666Y35477239D01*
X52239904Y35572477D01*
X52287523Y35762953D01*
X52287523Y36096286D01*
X52239904Y36286762D01*
X52144666Y36382000D01*
X52049428Y36429620D01*
X51858952Y36429620D01*
X51763714Y36382000D01*
X51668476Y36286762D01*
X51620857Y36096286D01*
X51620857Y35762953D01*
X51668476Y35572477D01*
X51763714Y35477239D01*
X51858952Y35429620D01*
X52049428Y35429620D01*
X50668476Y35429620D02*
X51239904Y35429620D01*
X50954190Y35429620D02*
X50954190Y36429620D01*
X51049428Y36286762D01*
X51144666Y36191524D01*
X51239904Y36143905D01*
%TO.C,R2*%
X57844666Y35429620D02*
X58178000Y35905810D01*
X58416095Y35429620D02*
X58416095Y36429620D01*
X58035142Y36429620D01*
X57939904Y36382000D01*
X57892285Y36334381D01*
X57844666Y36239143D01*
X57844666Y36096286D01*
X57892285Y36001048D01*
X57939904Y35953429D01*
X58035142Y35905810D01*
X58416095Y35905810D01*
X57463714Y36334381D02*
X57416095Y36382000D01*
X57320857Y36429620D01*
X57082761Y36429620D01*
X56987523Y36382000D01*
X56939904Y36334381D01*
X56892285Y36239143D01*
X56892285Y36143905D01*
X56939904Y36001048D01*
X57511333Y35429620D01*
X56892285Y35429620D01*
%TO.C,R1*%
X55244666Y35429620D02*
X55578000Y35905810D01*
X55816095Y35429620D02*
X55816095Y36429620D01*
X55435142Y36429620D01*
X55339904Y36382000D01*
X55292285Y36334381D01*
X55244666Y36239143D01*
X55244666Y36096286D01*
X55292285Y36001048D01*
X55339904Y35953429D01*
X55435142Y35905810D01*
X55816095Y35905810D01*
X54292285Y35429620D02*
X54863714Y35429620D01*
X54578000Y35429620D02*
X54578000Y36429620D01*
X54673238Y36286762D01*
X54768476Y36191524D01*
X54863714Y36143905D01*
%TO.C,Y1*%
X55354190Y42605810D02*
X55354190Y42129620D01*
X55687523Y43129620D02*
X55354190Y42605810D01*
X55020857Y43129620D01*
X54163714Y42129620D02*
X54735142Y42129620D01*
X54449428Y42129620D02*
X54449428Y43129620D01*
X54544666Y42986762D01*
X54639904Y42891524D01*
X54735142Y42843905D01*
%TO.C,RN1*%
X45968476Y41029620D02*
X46301809Y41505810D01*
X46539904Y41029620D02*
X46539904Y42029620D01*
X46158952Y42029620D01*
X46063714Y41982000D01*
X46016095Y41934381D01*
X45968476Y41839143D01*
X45968476Y41696286D01*
X46016095Y41601048D01*
X46063714Y41553429D01*
X46158952Y41505810D01*
X46539904Y41505810D01*
X45539904Y41029620D02*
X45539904Y42029620D01*
X44968476Y41029620D01*
X44968476Y42029620D01*
X43968476Y41029620D02*
X44539904Y41029620D01*
X44254190Y41029620D02*
X44254190Y42029620D01*
X44349428Y41886762D01*
X44444666Y41791524D01*
X44539904Y41743905D01*
%TO.C,IC1*%
X51954190Y42129620D02*
X51954190Y43129620D01*
X50906571Y42224858D02*
X50954190Y42177239D01*
X51097047Y42129620D01*
X51192285Y42129620D01*
X51335142Y42177239D01*
X51430380Y42272477D01*
X51478000Y42367715D01*
X51525619Y42558191D01*
X51525619Y42701048D01*
X51478000Y42891524D01*
X51430380Y42986762D01*
X51335142Y43082000D01*
X51192285Y43129620D01*
X51097047Y43129620D01*
X50954190Y43082000D01*
X50906571Y43034381D01*
X49954190Y42129620D02*
X50525619Y42129620D01*
X50239904Y42129620D02*
X50239904Y43129620D01*
X50335142Y42986762D01*
X50430380Y42891524D01*
X50525619Y42843905D01*
%TO.C,D3*%
X48516095Y41729620D02*
X48516095Y42729620D01*
X48278000Y42729620D01*
X48135142Y42682000D01*
X48039904Y42586762D01*
X47992285Y42491524D01*
X47944666Y42301048D01*
X47944666Y42158191D01*
X47992285Y41967715D01*
X48039904Y41872477D01*
X48135142Y41777239D01*
X48278000Y41729620D01*
X48516095Y41729620D01*
X47611333Y42729620D02*
X46992285Y42729620D01*
X47325619Y42348667D01*
X47182761Y42348667D01*
X47087523Y42301048D01*
X47039904Y42253429D01*
X46992285Y42158191D01*
X46992285Y41920096D01*
X47039904Y41824858D01*
X47087523Y41777239D01*
X47182761Y41729620D01*
X47468476Y41729620D01*
X47563714Y41777239D01*
X47611333Y41824858D01*
%TO.C,D2*%
X47730380Y34120096D02*
X46730380Y34120096D01*
X46730380Y33882000D01*
X46778000Y33739143D01*
X46873238Y33643905D01*
X46968476Y33596286D01*
X47158952Y33548667D01*
X47301809Y33548667D01*
X47492285Y33596286D01*
X47587523Y33643905D01*
X47682761Y33739143D01*
X47730380Y33882000D01*
X47730380Y34120096D01*
X46825619Y33167715D02*
X46778000Y33120096D01*
X46730380Y33024858D01*
X46730380Y32786762D01*
X46778000Y32691524D01*
X46825619Y32643905D01*
X46920857Y32596286D01*
X47016095Y32596286D01*
X47158952Y32643905D01*
X47730380Y33215334D01*
X47730380Y32596286D01*
%TO.C,D1*%
X47730380Y36120096D02*
X46730380Y36120096D01*
X46730380Y35882000D01*
X46778000Y35739143D01*
X46873238Y35643905D01*
X46968476Y35596286D01*
X47158952Y35548667D01*
X47301809Y35548667D01*
X47492285Y35596286D01*
X47587523Y35643905D01*
X47682761Y35739143D01*
X47730380Y35882000D01*
X47730380Y36120096D01*
X47730380Y34596286D02*
X47730380Y35167715D01*
X47730380Y34882000D02*
X46730380Y34882000D01*
X46873238Y34977239D01*
X46968476Y35072477D01*
X47016095Y35167715D01*
%TO.C,C1*%
X53144666Y35524858D02*
X53192285Y35477239D01*
X53335142Y35429620D01*
X53430380Y35429620D01*
X53573238Y35477239D01*
X53668476Y35572477D01*
X53716095Y35667715D01*
X53763714Y35858191D01*
X53763714Y36001048D01*
X53716095Y36191524D01*
X53668476Y36286762D01*
X53573238Y36382000D01*
X53430380Y36429620D01*
X53335142Y36429620D01*
X53192285Y36382000D01*
X53144666Y36334381D01*
X52192285Y35429620D02*
X52763714Y35429620D01*
X52478000Y35429620D02*
X52478000Y36429620D01*
X52573238Y36286762D01*
X52668476Y36191524D01*
X52763714Y36143905D01*
D10*
%TO.C,Q1*%
X51038000Y33782000D02*
X51038000Y34582000D01*
X47918000Y33782000D02*
X47918000Y32982000D01*
X51038000Y33782000D02*
X51038000Y32982000D01*
X47918000Y33782000D02*
X47918000Y35582000D01*
%TO.C,R2*%
X58413000Y33554936D02*
X58413000Y34009064D01*
X56943000Y33554936D02*
X56943000Y34009064D01*
%TO.C,R1*%
X54343000Y34009064D02*
X54343000Y33554936D01*
X55813000Y34009064D02*
X55813000Y33554936D01*
D12*
%TO.C,Y1*%
X57978000Y36382000D02*
G75*
G03*
X57978000Y36482000I0J50000D01*
G01*
X57978000Y36482000D02*
G75*
G03*
X57978000Y36382000I0J-50000D01*
G01*
X57978000Y36482000D02*
X57978000Y36482000D01*
X57978000Y36382000D02*
X57978000Y36382000D01*
D10*
%TO.C,RN1*%
X44878000Y40862000D02*
X45878000Y40862000D01*
X44878000Y37502000D02*
X45878000Y37502000D01*
D13*
%TO.C,IC1*%
X49378000Y36737000D02*
X52578000Y36737000D01*
X52578000Y36737000D02*
X52578000Y41627000D01*
X52578000Y41627000D02*
X49378000Y41627000D01*
X49378000Y41627000D02*
X49378000Y36737000D01*
X47478000Y36392000D02*
X49028000Y36392000D01*
D10*
%TO.C,D3*%
X46178000Y42147000D02*
X43893000Y42147000D01*
X43893000Y42147000D02*
X43893000Y43617000D01*
X43893000Y43617000D02*
X46178000Y43617000D01*
%TO.C,D2*%
X43793000Y34117000D02*
X46078000Y34117000D01*
X43793000Y32647000D02*
X43793000Y34117000D01*
X46078000Y32647000D02*
X43793000Y32647000D01*
%TO.C,D1*%
X46078000Y35447000D02*
X43793000Y35447000D01*
X43793000Y35447000D02*
X43793000Y36917000D01*
X43793000Y36917000D02*
X46078000Y36917000D01*
%TO.C,C1*%
X51843000Y34043252D02*
X51843000Y33520748D01*
X53313000Y34043252D02*
X53313000Y33520748D01*
%TD*%
M02*
