M48
; DRILL file {KiCad (6.0.5-0)} date Saturday, August 13, 2022 at 07:22:59 PM
; FORMAT={-:-/ absolute / metric / decimal}
; #@! TF.CreationDate,2022-08-13T19:22:59-07:00
; #@! TF.GenerationSoftware,Kicad,Pcbnew,(6.0.5-0)
; #@! TF.FileFunction,Plated,1,2,PTH
FMAT,2
METRIC
; #@! TA.AperFunction,Plated,PTH,ViaDrill
T1C0.305
; #@! TA.AperFunction,Plated,PTH,ComponentDrill
T2C1.000
%
G90
G05
T1
X45.878Y35.082
X47.378Y34.482
X47.416Y36.082
X48.378Y42.282
X49.377Y38.278
X49.387Y36.882
X49.878Y38.982
X49.878Y37.582
X50.878Y41.282
X50.878Y40.482
X51.678Y31.982
X53.478Y31.982
X55.278Y41.182
X55.278Y37.782
X60.078Y41.182
T2
X44.958Y45.212
X44.958Y29.972
X47.498Y45.212
X47.498Y29.972
X50.038Y45.212
X50.038Y29.972
X52.578Y45.212
X52.578Y29.972
X55.118Y45.212
X55.118Y29.972
X57.658Y45.212
X57.658Y29.972
T0
M30
