%TF.GenerationSoftware,KiCad,Pcbnew,(6.0.5-0)*%
%TF.CreationDate,2022-08-13T19:22:48-07:00*%
%TF.ProjectId,max3100-uart-adpt,6d617833-3130-4302-9d75-6172742d6164,P1.1*%
%TF.SameCoordinates,PX6b4f310PY74ffa90*%
%TF.FileFunction,Copper,L2,Bot*%
%TF.FilePolarity,Positive*%
%FSLAX46Y46*%
G04 Gerber Fmt 4.6, Leading zero omitted, Abs format (unit mm)*
G04 Created by KiCad (PCBNEW (6.0.5-0)) date 2022-08-13 19:22:48*
%MOMM*%
%LPD*%
G01*
G04 APERTURE LIST*
G04 Aperture macros list*
%AMRoundRect*
0 Rectangle with rounded corners*
0 $1 Rounding radius*
0 $2 $3 $4 $5 $6 $7 $8 $9 X,Y pos of 4 corners*
0 Add a 4 corners polygon primitive as box body*
4,1,4,$2,$3,$4,$5,$6,$7,$8,$9,$2,$3,0*
0 Add four circle primitives for the rounded corners*
1,1,$1+$1,$2,$3*
1,1,$1+$1,$4,$5*
1,1,$1+$1,$6,$7*
1,1,$1+$1,$8,$9*
0 Add four rect primitives between the rounded corners*
20,1,$1+$1,$2,$3,$4,$5,0*
20,1,$1+$1,$4,$5,$6,$7,0*
20,1,$1+$1,$6,$7,$8,$9,0*
20,1,$1+$1,$8,$9,$2,$3,0*%
G04 Aperture macros list end*
%TA.AperFunction,SMDPad,CuDef*%
%ADD10RoundRect,0.150000X-0.150000X0.512500X-0.150000X-0.512500X0.150000X-0.512500X0.150000X0.512500X0*%
%TD*%
%TA.AperFunction,SMDPad,CuDef*%
%ADD11RoundRect,0.250000X0.450000X-0.262500X0.450000X0.262500X-0.450000X0.262500X-0.450000X-0.262500X0*%
%TD*%
%TA.AperFunction,SMDPad,CuDef*%
%ADD12RoundRect,0.250000X-0.450000X0.262500X-0.450000X-0.262500X0.450000X-0.262500X0.450000X0.262500X0*%
%TD*%
%TA.AperFunction,SMDPad,CuDef*%
%ADD13R,4.000000X1.500000*%
%TD*%
%TA.AperFunction,SMDPad,CuDef*%
%ADD14R,0.800000X0.500000*%
%TD*%
%TA.AperFunction,SMDPad,CuDef*%
%ADD15R,0.800000X0.400000*%
%TD*%
%TA.AperFunction,ComponentPad*%
%ADD16R,1.700000X1.700000*%
%TD*%
%TA.AperFunction,ComponentPad*%
%ADD17O,1.700000X1.700000*%
%TD*%
%TA.AperFunction,SMDPad,CuDef*%
%ADD18R,1.550000X0.435000*%
%TD*%
%TA.AperFunction,SMDPad,CuDef*%
%ADD19RoundRect,0.218750X-0.218750X-0.256250X0.218750X-0.256250X0.218750X0.256250X-0.218750X0.256250X0*%
%TD*%
%TA.AperFunction,SMDPad,CuDef*%
%ADD20RoundRect,0.250000X-0.475000X0.250000X-0.475000X-0.250000X0.475000X-0.250000X0.475000X0.250000X0*%
%TD*%
%TA.AperFunction,ViaPad*%
%ADD21C,0.609600*%
%TD*%
%TA.AperFunction,Conductor*%
%ADD22C,0.203200*%
%TD*%
%TA.AperFunction,Conductor*%
%ADD23C,0.304800*%
%TD*%
G04 APERTURE END LIST*
D10*
%TO.P,Q1,1,S*%
%TO.N,GND*%
X48528000Y34919500D03*
%TO.P,Q1,2,G*%
%TO.N,/UART_TXD*%
X49478000Y34919500D03*
%TO.P,Q1,3,D*%
%TO.N,/UART_RXD_K*%
X50428000Y34919500D03*
%TO.P,Q1,4,S*%
%TO.N,GND*%
X50428000Y32644500D03*
%TO.P,Q1,5,G*%
%TO.N,/UART_RXD*%
X49478000Y32644500D03*
%TO.P,Q1,6,D*%
%TO.N,/UART_TXD_K*%
X48528000Y32644500D03*
%TD*%
D11*
%TO.P,R2,1*%
%TO.N,/UART_TXD*%
X57678000Y32869500D03*
%TO.P,R2,2*%
%TO.N,/UART_TXD_R*%
X57678000Y34694500D03*
%TD*%
D12*
%TO.P,R1,1*%
%TO.N,+3V3*%
X55078000Y34694500D03*
%TO.P,R1,2*%
%TO.N,/UART_RXD*%
X55078000Y32869500D03*
%TD*%
D13*
%TO.P,Y1,3,3*%
%TO.N,/IC1_X2*%
X57978000Y42682000D03*
%TO.P,Y1,2,2*%
%TO.N,GND*%
X57978000Y40182000D03*
%TO.P,Y1,1,1*%
%TO.N,/IC1_X1*%
X57978000Y37682000D03*
%TD*%
D14*
%TO.P,RN1,1,R1.1*%
%TO.N,/P3V3_A*%
X46278000Y40382000D03*
D15*
%TO.P,RN1,2,R1.1*%
%TO.N,/UART_RXD_A*%
X46278000Y39582000D03*
%TO.P,RN1,3,R1.1*%
%TO.N,/UART_TXD_A*%
X46278000Y38782000D03*
D14*
%TO.P,RN1,4,R1.1*%
%TO.N,unconnected-(RN1-Pad4)*%
X46278000Y37982000D03*
%TO.P,RN1,5,R1.2*%
%TO.N,unconnected-(RN1-Pad5)*%
X44478000Y37982000D03*
D15*
%TO.P,RN1,6,R1.2*%
%TO.N,+3V3*%
X44478000Y38782000D03*
%TO.P,RN1,7,R1.2*%
X44478000Y39582000D03*
D14*
%TO.P,RN1,8,R1.2*%
X44478000Y40382000D03*
%TD*%
D16*
%TO.P,J3,1,Pin_1*%
%TO.N,/IC1_IRQ_L*%
X50038000Y45212000D03*
D17*
%TO.P,J3,2,Pin_2*%
%TO.N,/IC1_SHDN_L*%
X52578000Y45212000D03*
%TO.P,J3,3,Pin_3*%
%TO.N,/UART_RTS_L*%
X55118000Y45212000D03*
%TO.P,J3,4,Pin_4*%
%TO.N,/UART_CTS_L*%
X57658000Y45212000D03*
%TD*%
D16*
%TO.P,J2,1,Pin_1*%
%TO.N,/SPI_CS_IC1_L*%
X44958000Y29972000D03*
D17*
%TO.P,J2,2,Pin_2*%
%TO.N,/SPI_SCK*%
X47498000Y29972000D03*
%TO.P,J2,3,Pin_3*%
%TO.N,/SPI_MOSI*%
X50038000Y29972000D03*
%TO.P,J2,4,Pin_4*%
%TO.N,/SPI_MISO*%
X52578000Y29972000D03*
%TO.P,J2,5,Pin_5*%
%TO.N,/UART_RXD*%
X55118000Y29972000D03*
%TO.P,J2,6,Pin_6*%
%TO.N,/UART_TXD*%
X57658000Y29972000D03*
%TD*%
D16*
%TO.P,J1,1,Pin_1*%
%TO.N,GND*%
X44958000Y45212000D03*
D17*
%TO.P,J1,2,Pin_2*%
%TO.N,+3V3*%
X47498000Y45212000D03*
%TD*%
D18*
%TO.P,IC1,1,DIN*%
%TO.N,/SPI_MOSI*%
X48253000Y36960000D03*
%TO.P,IC1,2,DOUT*%
%TO.N,/SPI_MISO*%
X48253000Y37594000D03*
%TO.P,IC1,3,SCLK*%
%TO.N,/SPI_SCK*%
X48253000Y38230000D03*
%TO.P,IC1,4,~{CS}*%
%TO.N,/SPI_CS_IC1_L*%
X48253000Y38864000D03*
%TO.P,IC1,5,N.C._1*%
%TO.N,unconnected-(IC1-Pad5)*%
X48253000Y39500000D03*
%TO.P,IC1,6,~{IRQ}*%
%TO.N,/IC1_IRQ_L*%
X48253000Y40134000D03*
%TO.P,IC1,7,~{SHDN}*%
%TO.N,/IC1_SHDN_L*%
X48253000Y40770000D03*
%TO.P,IC1,8,GND*%
%TO.N,GND*%
X48253000Y41404000D03*
%TO.P,IC1,9,X2*%
%TO.N,/IC1_X2*%
X53703000Y41404000D03*
%TO.P,IC1,10,X1*%
%TO.N,/IC1_X1*%
X53703000Y40770000D03*
%TO.P,IC1,11,~{CTS}*%
%TO.N,/UART_CTS_L*%
X53703000Y40134000D03*
%TO.P,IC1,12,N.C._2*%
%TO.N,unconnected-(IC1-Pad12)*%
X53703000Y39500000D03*
%TO.P,IC1,13,~{RTS}*%
%TO.N,/UART_RTS_L*%
X53703000Y38864000D03*
%TO.P,IC1,14,RX*%
%TO.N,/UART_RXD*%
X53703000Y38230000D03*
%TO.P,IC1,15,TX*%
%TO.N,/UART_TXD_R*%
X53703000Y37594000D03*
%TO.P,IC1,16,VCC*%
%TO.N,+3V3*%
X53703000Y36960000D03*
%TD*%
D19*
%TO.P,D3,2,A*%
%TO.N,/P3V3_A*%
X46165500Y42882000D03*
%TO.P,D3,1,K*%
%TO.N,GND*%
X44590500Y42882000D03*
%TD*%
%TO.P,D2,1,K*%
%TO.N,/UART_TXD_K*%
X44490500Y33382000D03*
%TO.P,D2,2,A*%
%TO.N,/UART_TXD_A*%
X46065500Y33382000D03*
%TD*%
%TO.P,D1,2,A*%
%TO.N,/UART_RXD_A*%
X46065500Y36182000D03*
%TO.P,D1,1,K*%
%TO.N,/UART_RXD_K*%
X44490500Y36182000D03*
%TD*%
D20*
%TO.P,C1,2*%
%TO.N,GND*%
X52578000Y32832000D03*
%TO.P,C1,1*%
%TO.N,+3V3*%
X52578000Y34732000D03*
%TD*%
D21*
%TO.N,/SPI_CS_IC1_L*%
X49878000Y38982000D03*
%TO.N,/SPI_SCK*%
X49376606Y38277675D03*
%TO.N,GND*%
X47378000Y34482000D03*
%TO.N,/UART_RXD_K*%
X45878000Y35082000D03*
X47416420Y36082000D03*
%TO.N,+3V3*%
X50878000Y40482000D03*
X50878000Y41282000D03*
%TO.N,GND*%
X53478000Y31982000D03*
%TO.N,/UART_RXD*%
X55278000Y37782000D03*
%TO.N,GND*%
X48378000Y42282000D03*
X51678000Y31982000D03*
%TO.N,/SPI_MISO*%
X49878000Y37582000D03*
%TO.N,/SPI_MOSI*%
X49387100Y36882000D03*
%TO.N,GND*%
X60078000Y41182000D03*
X55278000Y41182000D03*
%TD*%
D22*
%TO.N,/UART_RXD_A*%
X45765500Y36182000D02*
X45371750Y36575750D01*
X45371750Y36575750D02*
X45371750Y39384372D01*
X45371750Y39384372D02*
X45569378Y39582000D01*
X45569378Y39582000D02*
X46278000Y39582000D01*
%TO.N,/UART_RXD_K*%
X49620505Y36082000D02*
X47416420Y36082000D01*
%TO.N,/UART_TXD_A*%
X47078000Y37182000D02*
X47078000Y38585200D01*
%TO.N,/UART_RXD_K*%
X50428000Y34919500D02*
X50428000Y35274505D01*
X50428000Y35274505D02*
X49620505Y36082000D01*
%TO.N,/UART_TXD_A*%
X46065500Y33382000D02*
X46678000Y33994500D01*
X46678000Y33994500D02*
X46678000Y35382000D01*
X46678000Y35382000D02*
X46807320Y35511320D01*
X46807320Y35511320D02*
X46807320Y36911320D01*
X46807320Y36911320D02*
X47078000Y37182000D01*
X47078000Y38585200D02*
X46881200Y38782000D01*
X46881200Y38782000D02*
X46278000Y38782000D01*
%TO.N,/SPI_CS_IC1_L*%
X48367189Y38978189D02*
X48253000Y38864000D01*
X49878000Y38982000D02*
X49874189Y38978189D01*
X49874189Y38978189D02*
X48367189Y38978189D01*
%TO.N,/SPI_MOSI*%
X48031000Y36882000D02*
X49387100Y36882000D01*
X47953000Y36960000D02*
X48031000Y36882000D01*
%TO.N,/SPI_SCK*%
X49376606Y38277675D02*
X48300675Y38277675D01*
X48300675Y38277675D02*
X48253000Y38230000D01*
%TO.N,/UART_RXD*%
X49478000Y32644500D02*
X49478000Y32289495D01*
X49478000Y32289495D02*
X50485495Y31282000D01*
X50485495Y31282000D02*
X53808000Y31282000D01*
X53808000Y31282000D02*
X55118000Y29972000D01*
%TO.N,GND*%
X51015500Y32644500D02*
X51678000Y31982000D01*
X50428000Y32644500D02*
X51015500Y32644500D01*
X48528000Y34919500D02*
X47815500Y34919500D01*
X47815500Y34919500D02*
X47378000Y34482000D01*
%TO.N,/UART_RXD_K*%
X45878000Y35082000D02*
X45590500Y35082000D01*
X45590500Y35082000D02*
X44490500Y36182000D01*
%TO.N,/UART_TXD*%
X49478000Y34919500D02*
X49478000Y35274505D01*
X57678000Y32869500D02*
X56669820Y33877680D01*
X49478000Y34564495D02*
X49478000Y34919500D01*
X56669820Y33877680D02*
X50164815Y33877680D01*
X50164815Y33877680D02*
X49478000Y34564495D01*
%TO.N,+3V3*%
X55078000Y34694500D02*
X52615500Y34694500D01*
X52615500Y34694500D02*
X52578000Y34732000D01*
D23*
X52623200Y36960000D02*
X52623200Y34777200D01*
X52623200Y34777200D02*
X52578000Y34732000D01*
X53703000Y36960000D02*
X52623200Y36960000D01*
X52623200Y36960000D02*
X50878000Y38705200D01*
X50878000Y38705200D02*
X50878000Y41282000D01*
D22*
%TO.N,GND*%
X52578000Y32832000D02*
X52628000Y32832000D01*
X52628000Y32832000D02*
X53478000Y31982000D01*
%TO.N,/UART_TXD_R*%
X55078000Y36982000D02*
X56028000Y36032000D01*
X57678000Y34694500D02*
X56340500Y36032000D01*
X56340500Y36032000D02*
X56028000Y36032000D01*
X54604600Y37594000D02*
X55078000Y37120600D01*
X55078000Y37120600D02*
X55078000Y36982000D01*
X53703000Y37594000D02*
X54604600Y37594000D01*
%TO.N,/UART_RXD*%
X55278000Y37782000D02*
X54830000Y38230000D01*
X54830000Y38230000D02*
X53703000Y38230000D01*
X55118000Y29972000D02*
X55118000Y32829500D01*
X55118000Y32829500D02*
X55078000Y32869500D01*
%TO.N,/UART_TXD*%
X57658000Y29972000D02*
X57658000Y32849500D01*
X57658000Y32849500D02*
X57678000Y32869500D01*
%TO.N,/UART_CTS_L*%
X52177400Y40381400D02*
X52424800Y40134000D01*
X54256134Y43776090D02*
X52170022Y41689978D01*
X52177400Y40381400D02*
X52177400Y41682600D01*
X52177400Y41682600D02*
X52170022Y41689978D01*
%TO.N,/UART_RTS_L*%
X53403000Y38864000D02*
X52424800Y38864000D01*
X54283000Y44377000D02*
X55118000Y45212000D01*
X52424800Y38864000D02*
X51578000Y39710800D01*
X51578000Y39710800D02*
X51578000Y42082000D01*
X51578000Y42082000D02*
X53873000Y44377000D01*
X53873000Y44377000D02*
X54283000Y44377000D01*
%TO.N,/IC1_SHDN_L*%
X48253000Y40770000D02*
X49231200Y40770000D01*
X49231200Y40770000D02*
X52578000Y44116800D01*
X52578000Y44116800D02*
X52578000Y45212000D01*
%TO.N,/IC1_IRQ_L*%
X48253000Y40134000D02*
X47274800Y40134000D01*
X47274800Y40134000D02*
X47078000Y40330800D01*
X47078000Y42252000D02*
X50038000Y45212000D01*
X47078000Y40330800D02*
X47078000Y42252000D01*
%TO.N,GND*%
X48253000Y41404000D02*
X48253000Y42157000D01*
X48253000Y42157000D02*
X48378000Y42282000D01*
%TO.N,+3V3*%
X43878000Y40382000D02*
X43878000Y40682000D01*
X43878000Y40682000D02*
X45378000Y42182000D01*
X45378000Y43309232D02*
X47280768Y45212000D01*
X45378000Y42182000D02*
X45378000Y43309232D01*
X47280768Y45212000D02*
X47498000Y45212000D01*
X43878000Y39582000D02*
X43878000Y40382000D01*
X44478000Y40382000D02*
X43878000Y40382000D01*
X44478000Y38782000D02*
X43978000Y38782000D01*
X43978000Y38782000D02*
X43878000Y38882000D01*
X43878000Y39582000D02*
X44478000Y39582000D01*
X43878000Y38882000D02*
X43878000Y39582000D01*
%TO.N,/UART_TXD_K*%
X44490500Y33382000D02*
X44490500Y32869500D01*
X44490500Y32869500D02*
X45078000Y32282000D01*
X45078000Y32282000D02*
X48165500Y32282000D01*
X48165500Y32282000D02*
X48528000Y32644500D01*
X44190500Y33382000D02*
X44190500Y33269500D01*
%TO.N,GND*%
X52578000Y32832000D02*
X52528000Y32832000D01*
X52528000Y32832000D02*
X51678000Y31982000D01*
%TO.N,/SPI_MISO*%
X49878000Y37582000D02*
X47965000Y37582000D01*
X47965000Y37582000D02*
X47953000Y37594000D01*
%TO.N,GND*%
X44958000Y45212000D02*
X44278000Y44532000D01*
X44278000Y44532000D02*
X44278000Y42894500D01*
X44278000Y42894500D02*
X44290500Y42882000D01*
%TO.N,/P3V3_A*%
X45978000Y40382000D02*
X45978000Y42769500D01*
X45978000Y42769500D02*
X45865500Y42882000D01*
%TO.N,/UART_CTS_L*%
X52424800Y40134000D02*
X53403000Y40134000D01*
X57658000Y45212000D02*
X56222090Y43776090D01*
X56222090Y43776090D02*
X54256134Y43776090D01*
%TO.N,GND*%
X57678000Y40182000D02*
X59078000Y40182000D01*
X59078000Y40182000D02*
X60078000Y41182000D01*
X57678000Y40182000D02*
X56278000Y40182000D01*
X56278000Y40182000D02*
X55278000Y41182000D01*
%TO.N,/IC1_X2*%
X53403000Y41404000D02*
X54400000Y41404000D01*
X55078000Y42082000D02*
X55078000Y42482000D01*
X54400000Y41404000D02*
X55078000Y42082000D01*
X55278000Y42682000D02*
X57678000Y42682000D01*
X55078000Y42482000D02*
X55278000Y42682000D01*
%TO.N,/IC1_X1*%
X53403000Y40770000D02*
X54381200Y40770000D01*
X54381200Y40770000D02*
X55078000Y40073200D01*
X55078000Y40073200D02*
X55078000Y38882000D01*
X55078000Y38882000D02*
X56278000Y37682000D01*
X56278000Y37682000D02*
X57678000Y37682000D01*
%TD*%
M02*
