%TF.GenerationSoftware,KiCad,Pcbnew,(6.0.5-0)*%
%TF.CreationDate,2022-08-13T19:22:48-07:00*%
%TF.ProjectId,max3100-uart-adpt,6d617833-3130-4302-9d75-6172742d6164,P1.1*%
%TF.SameCoordinates,PX6b4f310PY74ffa90*%
%TF.FileFunction,Copper,L1,Top*%
%TF.FilePolarity,Positive*%
%FSLAX46Y46*%
G04 Gerber Fmt 4.6, Leading zero omitted, Abs format (unit mm)*
G04 Created by KiCad (PCBNEW (6.0.5-0)) date 2022-08-13 19:22:48*
%MOMM*%
%LPD*%
G01*
G04 APERTURE LIST*
%TA.AperFunction,ComponentPad*%
%ADD10R,1.700000X1.700000*%
%TD*%
%TA.AperFunction,ComponentPad*%
%ADD11O,1.700000X1.700000*%
%TD*%
%TA.AperFunction,ViaPad*%
%ADD12C,0.609600*%
%TD*%
%TA.AperFunction,Conductor*%
%ADD13C,0.203200*%
%TD*%
%TA.AperFunction,Conductor*%
%ADD14C,0.304800*%
%TD*%
G04 APERTURE END LIST*
D10*
%TO.P,J3,1,Pin_1*%
%TO.N,/IC1_IRQ_L*%
X50038000Y45212000D03*
D11*
%TO.P,J3,2,Pin_2*%
%TO.N,/IC1_SHDN_L*%
X52578000Y45212000D03*
%TO.P,J3,3,Pin_3*%
%TO.N,/UART_RTS_L*%
X55118000Y45212000D03*
%TO.P,J3,4,Pin_4*%
%TO.N,/UART_CTS_L*%
X57658000Y45212000D03*
%TD*%
D10*
%TO.P,J2,1,Pin_1*%
%TO.N,/SPI_CS_IC1_L*%
X44958000Y29972000D03*
D11*
%TO.P,J2,2,Pin_2*%
%TO.N,/SPI_SCK*%
X47498000Y29972000D03*
%TO.P,J2,3,Pin_3*%
%TO.N,/SPI_MOSI*%
X50038000Y29972000D03*
%TO.P,J2,4,Pin_4*%
%TO.N,/SPI_MISO*%
X52578000Y29972000D03*
%TO.P,J2,5,Pin_5*%
%TO.N,/UART_RXD*%
X55118000Y29972000D03*
%TO.P,J2,6,Pin_6*%
%TO.N,/UART_TXD*%
X57658000Y29972000D03*
%TD*%
D10*
%TO.P,J1,1,Pin_1*%
%TO.N,GND*%
X44958000Y45212000D03*
D11*
%TO.P,J1,2,Pin_2*%
%TO.N,+3V3*%
X47498000Y45212000D03*
%TD*%
D12*
%TO.N,/SPI_CS_IC1_L*%
X49878000Y38982000D03*
%TO.N,/SPI_SCK*%
X49376606Y38277675D03*
%TO.N,GND*%
X47378000Y34482000D03*
%TO.N,/UART_RXD_K*%
X45878000Y35082000D03*
X47416420Y36082000D03*
%TO.N,+3V3*%
X50878000Y40482000D03*
X50878000Y41282000D03*
%TO.N,GND*%
X53478000Y31982000D03*
%TO.N,/UART_RXD*%
X55278000Y37782000D03*
%TO.N,GND*%
X48378000Y42282000D03*
X51678000Y31982000D03*
%TO.N,/SPI_MISO*%
X49878000Y37582000D03*
%TO.N,/SPI_MOSI*%
X49387100Y36882000D03*
%TO.N,GND*%
X60078000Y41182000D03*
X55278000Y41182000D03*
%TD*%
D13*
%TO.N,/UART_RXD_K*%
X45878000Y35082000D02*
X46878000Y36082000D01*
X46878000Y36082000D02*
X47416420Y36082000D01*
%TO.N,/SPI_CS_IC1_L*%
X44958000Y29972000D02*
X48078000Y33092000D01*
X48078000Y33092000D02*
X48078000Y38182000D01*
X48078000Y38182000D02*
X48878000Y38982000D01*
X48878000Y38982000D02*
X49878000Y38982000D01*
%TO.N,/SPI_SCK*%
X49078000Y36182000D02*
X48778000Y36482000D01*
X47498000Y29972000D02*
X49078000Y31552000D01*
X48778000Y37679069D02*
X49376606Y38277675D01*
%TO.N,/SPI_MOSI*%
X50038000Y36231100D02*
X49387100Y36882000D01*
X50038000Y29972000D02*
X50038000Y36231100D01*
%TO.N,/SPI_SCK*%
X49078000Y33582000D02*
X49078000Y36182000D01*
X48778000Y36482000D02*
X48778000Y37679069D01*
X49078000Y31552000D02*
X49078000Y33582000D01*
D14*
%TO.N,+3V3*%
X50878000Y41282000D02*
X50878000Y40482000D01*
X50878000Y41282000D02*
X50878000Y41832000D01*
X50878000Y41832000D02*
X47498000Y45212000D01*
D13*
%TO.N,/UART_RXD*%
X55118000Y37622000D02*
X55278000Y37782000D01*
X55118000Y29972000D02*
X55118000Y37622000D01*
%TO.N,/SPI_MISO*%
X50928000Y36532000D02*
X49878000Y37582000D01*
X52578000Y29972000D02*
X50928000Y31622000D01*
X50928000Y31622000D02*
X50928000Y36532000D01*
%TD*%
%TA.AperFunction,Conductor*%
%TO.N,GND*%
G36*
X46905906Y46308287D02*
G01*
X46942451Y46257987D01*
X46942451Y46195813D01*
X46905906Y46145513D01*
X46898229Y46140455D01*
X46846010Y46109388D01*
X46842544Y46106349D01*
X46842542Y46106347D01*
X46696859Y45978586D01*
X46696856Y45978583D01*
X46693392Y45975545D01*
X46567720Y45816131D01*
X46473203Y45636485D01*
X46413007Y45442622D01*
X46412466Y45438048D01*
X46397160Y45308726D01*
X46389148Y45241036D01*
X46402424Y45038478D01*
X46403557Y45034017D01*
X46434615Y44911729D01*
X46452392Y44841731D01*
X46537377Y44657384D01*
X46654533Y44491611D01*
X46799938Y44349965D01*
X46803774Y44347402D01*
X46803775Y44347401D01*
X46826628Y44332131D01*
X46968720Y44237188D01*
X46972956Y44235368D01*
X46972958Y44235367D01*
X47150989Y44158879D01*
X47155228Y44157058D01*
X47248128Y44136037D01*
X47348716Y44113276D01*
X47348719Y44113276D01*
X47353216Y44112258D01*
X47449748Y44108465D01*
X47551444Y44104469D01*
X47551445Y44104469D01*
X47556053Y44104288D01*
X47560610Y44104949D01*
X47560615Y44104949D01*
X47666713Y44120333D01*
X47756945Y44133416D01*
X47880019Y44175194D01*
X47942186Y44176008D01*
X47983489Y44151068D01*
X50405672Y41728885D01*
X50433898Y41673487D01*
X50424172Y41612079D01*
X50414349Y41596510D01*
X50393467Y41569296D01*
X50393463Y41569289D01*
X50389453Y41564063D01*
X50333096Y41428007D01*
X50313874Y41282000D01*
X50333096Y41135993D01*
X50389453Y40999937D01*
X50393467Y40994706D01*
X50393468Y40994704D01*
X50432957Y40943242D01*
X50453712Y40884634D01*
X50432957Y40820758D01*
X50389453Y40764063D01*
X50333096Y40628007D01*
X50313874Y40482000D01*
X50333096Y40335993D01*
X50389453Y40199937D01*
X50479103Y40083103D01*
X50595937Y39993453D01*
X50668768Y39963285D01*
X50725901Y39939619D01*
X50725904Y39939618D01*
X50731993Y39937096D01*
X50738529Y39936236D01*
X50738531Y39936235D01*
X50871460Y39918735D01*
X50878000Y39917874D01*
X50884540Y39918735D01*
X51017469Y39936235D01*
X51017471Y39936236D01*
X51024007Y39937096D01*
X51030096Y39939618D01*
X51030099Y39939619D01*
X51087232Y39963285D01*
X51160063Y39993453D01*
X51276897Y40083103D01*
X51366547Y40199937D01*
X51422904Y40335993D01*
X51442126Y40482000D01*
X51422904Y40628007D01*
X51366547Y40764063D01*
X51323043Y40820759D01*
X51302288Y40879366D01*
X51323043Y40943242D01*
X51362532Y40994704D01*
X51362533Y40994706D01*
X51366547Y40999937D01*
X51422904Y41135993D01*
X51442126Y41282000D01*
X51422904Y41428007D01*
X51366547Y41564063D01*
X51341650Y41596510D01*
X51305689Y41643374D01*
X51284900Y41704616D01*
X51284900Y41896446D01*
X51277327Y41919752D01*
X51273643Y41935098D01*
X51271047Y41951489D01*
X51269809Y41959306D01*
X51258683Y41981142D01*
X51252644Y41995721D01*
X51245070Y42019032D01*
X51230664Y42038859D01*
X51222419Y42052313D01*
X51211292Y42074151D01*
X49349678Y43935765D01*
X49321452Y43991163D01*
X49331178Y44052571D01*
X49375142Y44096535D01*
X49420813Y44107500D01*
X50878491Y44107501D01*
X50913066Y44107501D01*
X50948548Y44114558D01*
X50977584Y44120333D01*
X50977586Y44120334D01*
X50987301Y44122266D01*
X51007911Y44136037D01*
X51063247Y44173012D01*
X51071484Y44178516D01*
X51127734Y44262699D01*
X51142500Y44336933D01*
X51142500Y45212000D01*
X51142499Y46082128D01*
X51142499Y46087066D01*
X51127734Y46161301D01*
X51121248Y46171008D01*
X51120450Y46173836D01*
X51118437Y46178697D01*
X51119012Y46178935D01*
X51104370Y46230847D01*
X51125889Y46289179D01*
X51177584Y46323722D01*
X51204893Y46327500D01*
X51926775Y46327500D01*
X51985906Y46308287D01*
X52022451Y46257987D01*
X52022451Y46195813D01*
X51985906Y46145513D01*
X51978229Y46140455D01*
X51926010Y46109388D01*
X51922544Y46106349D01*
X51922542Y46106347D01*
X51776859Y45978586D01*
X51776856Y45978583D01*
X51773392Y45975545D01*
X51647720Y45816131D01*
X51553203Y45636485D01*
X51493007Y45442622D01*
X51492466Y45438048D01*
X51477160Y45308726D01*
X51469148Y45241036D01*
X51482424Y45038478D01*
X51483557Y45034017D01*
X51514615Y44911729D01*
X51532392Y44841731D01*
X51617377Y44657384D01*
X51734533Y44491611D01*
X51879938Y44349965D01*
X51883774Y44347402D01*
X51883775Y44347401D01*
X51906628Y44332131D01*
X52048720Y44237188D01*
X52052956Y44235368D01*
X52052958Y44235367D01*
X52230989Y44158879D01*
X52235228Y44157058D01*
X52328128Y44136037D01*
X52428716Y44113276D01*
X52428719Y44113276D01*
X52433216Y44112258D01*
X52529748Y44108465D01*
X52631444Y44104469D01*
X52631445Y44104469D01*
X52636053Y44104288D01*
X52640610Y44104949D01*
X52640615Y44104949D01*
X52746713Y44120333D01*
X52836945Y44133416D01*
X53029165Y44198666D01*
X53206276Y44297853D01*
X53247431Y44332081D01*
X53358798Y44424705D01*
X53362345Y44427655D01*
X53373737Y44441352D01*
X53489199Y44580179D01*
X53489201Y44580182D01*
X53492147Y44583724D01*
X53591334Y44760835D01*
X53656584Y44953055D01*
X53685712Y45153947D01*
X53686189Y45172131D01*
X53687155Y45209044D01*
X53687155Y45209051D01*
X53687232Y45212000D01*
X53677122Y45322027D01*
X53669080Y45409553D01*
X53669079Y45409558D01*
X53668658Y45414141D01*
X53613557Y45609513D01*
X53523776Y45791572D01*
X53402320Y45954221D01*
X53253258Y46092013D01*
X53249362Y46094471D01*
X53249357Y46094475D01*
X53174319Y46141820D01*
X53134563Y46189622D01*
X53130496Y46251663D01*
X53163674Y46304246D01*
X53221422Y46327285D01*
X53228001Y46327500D01*
X54466775Y46327500D01*
X54525906Y46308287D01*
X54562451Y46257987D01*
X54562451Y46195813D01*
X54525906Y46145513D01*
X54518229Y46140455D01*
X54466010Y46109388D01*
X54462544Y46106349D01*
X54462542Y46106347D01*
X54316859Y45978586D01*
X54316856Y45978583D01*
X54313392Y45975545D01*
X54187720Y45816131D01*
X54093203Y45636485D01*
X54033007Y45442622D01*
X54032466Y45438048D01*
X54017160Y45308726D01*
X54009148Y45241036D01*
X54022424Y45038478D01*
X54023557Y45034017D01*
X54054615Y44911729D01*
X54072392Y44841731D01*
X54157377Y44657384D01*
X54274533Y44491611D01*
X54419938Y44349965D01*
X54423774Y44347402D01*
X54423775Y44347401D01*
X54446628Y44332131D01*
X54588720Y44237188D01*
X54592956Y44235368D01*
X54592958Y44235367D01*
X54770989Y44158879D01*
X54775228Y44157058D01*
X54868128Y44136037D01*
X54968716Y44113276D01*
X54968719Y44113276D01*
X54973216Y44112258D01*
X55069748Y44108465D01*
X55171444Y44104469D01*
X55171445Y44104469D01*
X55176053Y44104288D01*
X55180610Y44104949D01*
X55180615Y44104949D01*
X55286713Y44120333D01*
X55376945Y44133416D01*
X55569165Y44198666D01*
X55746276Y44297853D01*
X55787431Y44332081D01*
X55898798Y44424705D01*
X55902345Y44427655D01*
X55913737Y44441352D01*
X56029199Y44580179D01*
X56029201Y44580182D01*
X56032147Y44583724D01*
X56131334Y44760835D01*
X56196584Y44953055D01*
X56225712Y45153947D01*
X56226189Y45172131D01*
X56227155Y45209044D01*
X56227155Y45209051D01*
X56227232Y45212000D01*
X56217122Y45322027D01*
X56209080Y45409553D01*
X56209079Y45409558D01*
X56208658Y45414141D01*
X56153557Y45609513D01*
X56063776Y45791572D01*
X55942320Y45954221D01*
X55793258Y46092013D01*
X55789362Y46094471D01*
X55789357Y46094475D01*
X55714319Y46141820D01*
X55674563Y46189622D01*
X55670496Y46251663D01*
X55703674Y46304246D01*
X55761422Y46327285D01*
X55768001Y46327500D01*
X57006775Y46327500D01*
X57065906Y46308287D01*
X57102451Y46257987D01*
X57102451Y46195813D01*
X57065906Y46145513D01*
X57058229Y46140455D01*
X57006010Y46109388D01*
X57002544Y46106349D01*
X57002542Y46106347D01*
X56856859Y45978586D01*
X56856856Y45978583D01*
X56853392Y45975545D01*
X56727720Y45816131D01*
X56633203Y45636485D01*
X56573007Y45442622D01*
X56572466Y45438048D01*
X56557160Y45308726D01*
X56549148Y45241036D01*
X56562424Y45038478D01*
X56563557Y45034017D01*
X56594615Y44911729D01*
X56612392Y44841731D01*
X56697377Y44657384D01*
X56814533Y44491611D01*
X56959938Y44349965D01*
X56963774Y44347402D01*
X56963775Y44347401D01*
X56986628Y44332131D01*
X57128720Y44237188D01*
X57132956Y44235368D01*
X57132958Y44235367D01*
X57310989Y44158879D01*
X57315228Y44157058D01*
X57408128Y44136037D01*
X57508716Y44113276D01*
X57508719Y44113276D01*
X57513216Y44112258D01*
X57609748Y44108465D01*
X57711444Y44104469D01*
X57711445Y44104469D01*
X57716053Y44104288D01*
X57720610Y44104949D01*
X57720615Y44104949D01*
X57826713Y44120333D01*
X57916945Y44133416D01*
X58109165Y44198666D01*
X58286276Y44297853D01*
X58327431Y44332081D01*
X58438798Y44424705D01*
X58442345Y44427655D01*
X58453737Y44441352D01*
X58569199Y44580179D01*
X58569201Y44580182D01*
X58572147Y44583724D01*
X58671334Y44760835D01*
X58736584Y44953055D01*
X58765712Y45153947D01*
X58766189Y45172131D01*
X58767155Y45209044D01*
X58767155Y45209051D01*
X58767232Y45212000D01*
X58757122Y45322027D01*
X58749080Y45409553D01*
X58749079Y45409558D01*
X58748658Y45414141D01*
X58693557Y45609513D01*
X58603776Y45791572D01*
X58482320Y45954221D01*
X58333258Y46092013D01*
X58329362Y46094471D01*
X58329357Y46094475D01*
X58254319Y46141820D01*
X58214563Y46189622D01*
X58210496Y46251663D01*
X58243674Y46304246D01*
X58301422Y46327285D01*
X58308001Y46327500D01*
X59043025Y46327500D01*
X59062650Y46325567D01*
X59068281Y46324447D01*
X59068282Y46324447D01*
X59078000Y46322514D01*
X59087719Y46324447D01*
X59094599Y46324447D01*
X59107729Y46323586D01*
X59128406Y46320864D01*
X59153775Y46314067D01*
X59188514Y46299677D01*
X59211254Y46286548D01*
X59227802Y46273851D01*
X59237697Y46265174D01*
X59242564Y46260307D01*
X59248069Y46252069D01*
X59261078Y46243377D01*
X59276320Y46230868D01*
X60426865Y45080324D01*
X60439376Y45065079D01*
X60448069Y45052069D01*
X60456308Y45046564D01*
X60461173Y45041699D01*
X60469842Y45031814D01*
X60482548Y45015255D01*
X60495676Y44992517D01*
X60510067Y44957775D01*
X60516864Y44932406D01*
X60519586Y44911729D01*
X60520447Y44898599D01*
X60520447Y44891719D01*
X60518514Y44882000D01*
X60520447Y44872282D01*
X60520447Y44872281D01*
X60521567Y44866650D01*
X60523500Y44847025D01*
X60523500Y35516975D01*
X60521567Y35497350D01*
X60518514Y35482000D01*
X60520447Y35472281D01*
X60520447Y35465401D01*
X60519586Y35452271D01*
X60516864Y35431594D01*
X60510067Y35406225D01*
X60495677Y35371486D01*
X60482548Y35348746D01*
X60469851Y35332198D01*
X60461174Y35322303D01*
X60456307Y35317436D01*
X60448069Y35311931D01*
X60442564Y35303692D01*
X60442563Y35303691D01*
X60439882Y35299679D01*
X60427009Y35284073D01*
X59069610Y33940385D01*
X59054730Y33928236D01*
X59040963Y33919037D01*
X59035458Y33910798D01*
X59035149Y33910489D01*
X59030308Y33903961D01*
X58947620Y33803206D01*
X58877560Y33672132D01*
X58876126Y33667406D01*
X58876126Y33667405D01*
X58847421Y33572775D01*
X58834417Y33529908D01*
X58833934Y33525000D01*
X58833933Y33524997D01*
X58821642Y33400208D01*
X58820446Y33392151D01*
X58820446Y33391715D01*
X58818514Y33382000D01*
X58820447Y33372282D01*
X58821567Y33366650D01*
X58823500Y33347025D01*
X58823500Y30537466D01*
X58804287Y30478335D01*
X58753987Y30441790D01*
X58691813Y30441790D01*
X58641513Y30478335D01*
X58632674Y30492972D01*
X58605813Y30547441D01*
X58603776Y30551572D01*
X58482320Y30714221D01*
X58333258Y30852013D01*
X58329362Y30854471D01*
X58329357Y30854475D01*
X58223443Y30921301D01*
X58161581Y30960333D01*
X57973039Y31035554D01*
X57773946Y31075156D01*
X57671351Y31076499D01*
X57575585Y31077753D01*
X57575581Y31077753D01*
X57570971Y31077813D01*
X57370910Y31043436D01*
X57366588Y31041842D01*
X57366586Y31041841D01*
X57184791Y30974773D01*
X57184788Y30974772D01*
X57180463Y30973176D01*
X57006010Y30869388D01*
X57002544Y30866349D01*
X57002542Y30866347D01*
X56856859Y30738586D01*
X56856856Y30738583D01*
X56853392Y30735545D01*
X56727720Y30576131D01*
X56633203Y30396485D01*
X56573007Y30202622D01*
X56549148Y30001036D01*
X56562424Y29798478D01*
X56563557Y29794017D01*
X56585228Y29708690D01*
X56612392Y29601731D01*
X56697377Y29417384D01*
X56814533Y29251611D01*
X56959938Y29109965D01*
X56963774Y29107402D01*
X56963775Y29107401D01*
X57093463Y29020746D01*
X57131954Y28971919D01*
X57134395Y28909793D01*
X57099853Y28858097D01*
X57037572Y28836500D01*
X55736541Y28836500D01*
X55677410Y28855713D01*
X55640865Y28906013D01*
X55640865Y28968187D01*
X55677410Y29018487D01*
X55687386Y29024873D01*
X55742253Y29055600D01*
X55746276Y29057853D01*
X55758531Y29068045D01*
X55898798Y29184705D01*
X55902345Y29187655D01*
X55913737Y29201352D01*
X56029199Y29340179D01*
X56029201Y29340182D01*
X56032147Y29343724D01*
X56131334Y29520835D01*
X56196584Y29713055D01*
X56225712Y29913947D01*
X56227232Y29972000D01*
X56208658Y30174141D01*
X56153557Y30369513D01*
X56063776Y30551572D01*
X55942320Y30714221D01*
X55793258Y30852013D01*
X55789362Y30854471D01*
X55789357Y30854475D01*
X55683443Y30921301D01*
X55621581Y30960333D01*
X55537422Y30993909D01*
X55489620Y31033665D01*
X55474100Y31087347D01*
X55474100Y37190627D01*
X55493313Y37249758D01*
X55536202Y37283569D01*
X55553966Y37290927D01*
X55553969Y37290929D01*
X55560063Y37293453D01*
X55676897Y37383103D01*
X55766547Y37499937D01*
X55822904Y37635993D01*
X55842126Y37782000D01*
X55822904Y37928007D01*
X55803165Y37975662D01*
X55769072Y38057966D01*
X55766547Y38064063D01*
X55676897Y38180897D01*
X55560063Y38270547D01*
X55487232Y38300715D01*
X55430099Y38324381D01*
X55430096Y38324382D01*
X55424007Y38326904D01*
X55417471Y38327764D01*
X55417469Y38327765D01*
X55284540Y38345265D01*
X55278000Y38346126D01*
X55271460Y38345265D01*
X55138531Y38327765D01*
X55138529Y38327764D01*
X55131993Y38326904D01*
X55125904Y38324382D01*
X55125901Y38324381D01*
X55068768Y38300715D01*
X54995937Y38270547D01*
X54879103Y38180897D01*
X54789453Y38064063D01*
X54786928Y38057966D01*
X54752836Y37975662D01*
X54733096Y37928007D01*
X54713874Y37782000D01*
X54733096Y37635993D01*
X54754242Y37584942D01*
X54761900Y37546445D01*
X54761900Y31088091D01*
X54742687Y31028960D01*
X54696119Y30993709D01*
X54644794Y30974774D01*
X54644792Y30974773D01*
X54640463Y30973176D01*
X54466010Y30869388D01*
X54462544Y30866349D01*
X54462542Y30866347D01*
X54316859Y30738586D01*
X54316856Y30738583D01*
X54313392Y30735545D01*
X54187720Y30576131D01*
X54093203Y30396485D01*
X54033007Y30202622D01*
X54009148Y30001036D01*
X54022424Y29798478D01*
X54023557Y29794017D01*
X54045228Y29708690D01*
X54072392Y29601731D01*
X54157377Y29417384D01*
X54274533Y29251611D01*
X54419938Y29109965D01*
X54423774Y29107402D01*
X54423775Y29107401D01*
X54553463Y29020746D01*
X54591954Y28971919D01*
X54594395Y28909793D01*
X54559853Y28858097D01*
X54497572Y28836500D01*
X53196541Y28836500D01*
X53137410Y28855713D01*
X53100865Y28906013D01*
X53100865Y28968187D01*
X53137410Y29018487D01*
X53147386Y29024873D01*
X53202253Y29055600D01*
X53206276Y29057853D01*
X53218531Y29068045D01*
X53358798Y29184705D01*
X53362345Y29187655D01*
X53373737Y29201352D01*
X53489199Y29340179D01*
X53489201Y29340182D01*
X53492147Y29343724D01*
X53591334Y29520835D01*
X53656584Y29713055D01*
X53685712Y29913947D01*
X53687232Y29972000D01*
X53668658Y30174141D01*
X53613557Y30369513D01*
X53523776Y30551572D01*
X53402320Y30714221D01*
X53253258Y30852013D01*
X53249362Y30854471D01*
X53249357Y30854475D01*
X53143443Y30921301D01*
X53081581Y30960333D01*
X52893039Y31035554D01*
X52693946Y31075156D01*
X52591351Y31076499D01*
X52495585Y31077753D01*
X52495581Y31077753D01*
X52490971Y31077813D01*
X52290910Y31043436D01*
X52286589Y31041842D01*
X52286582Y31041840D01*
X52146243Y30990066D01*
X52084117Y30987625D01*
X52040289Y31013313D01*
X51313565Y31740037D01*
X51285339Y31795435D01*
X51284100Y31811172D01*
X51284100Y36483276D01*
X51286354Y36504451D01*
X51286874Y36506866D01*
X51288624Y36514994D01*
X51284797Y36547327D01*
X51284445Y36553293D01*
X51284442Y36553293D01*
X51284100Y36557428D01*
X51284100Y36561584D01*
X51281062Y36579835D01*
X51280393Y36584529D01*
X51275666Y36624467D01*
X51274689Y36632723D01*
X51271283Y36639817D01*
X51270853Y36641174D01*
X51269560Y36648942D01*
X51246510Y36691662D01*
X51244376Y36695850D01*
X51226113Y36733883D01*
X51226111Y36733886D01*
X51223372Y36739590D01*
X51220001Y36743600D01*
X51218461Y36745140D01*
X51217278Y36746430D01*
X51216390Y36747482D01*
X51213265Y36753274D01*
X51207160Y36758917D01*
X51207158Y36758920D01*
X51175862Y36787849D01*
X51173014Y36790587D01*
X50470164Y37493438D01*
X50441938Y37548836D01*
X50441676Y37568869D01*
X50441265Y37568869D01*
X50441265Y37575460D01*
X50442126Y37582000D01*
X50424034Y37719426D01*
X50423765Y37721469D01*
X50423764Y37721471D01*
X50422904Y37728007D01*
X50366547Y37864063D01*
X50276897Y37980897D01*
X50160063Y38070547D01*
X50087232Y38100715D01*
X50030099Y38124381D01*
X50030096Y38124382D01*
X50024007Y38126904D01*
X50017470Y38127765D01*
X50011101Y38129471D01*
X50011821Y38132158D01*
X49966276Y38153871D01*
X49936598Y38208504D01*
X49935770Y38239986D01*
X49937094Y38250042D01*
X49940732Y38277675D01*
X49934651Y38323864D01*
X49945981Y38384997D01*
X49991080Y38427795D01*
X50011300Y38433786D01*
X50011101Y38434529D01*
X50017470Y38436235D01*
X50024007Y38437096D01*
X50160063Y38493453D01*
X50276897Y38583103D01*
X50366547Y38699937D01*
X50422904Y38835993D01*
X50442126Y38982000D01*
X50422904Y39128007D01*
X50366547Y39264063D01*
X50290942Y39362594D01*
X50280914Y39375662D01*
X50276897Y39380897D01*
X50160063Y39470547D01*
X50087232Y39500715D01*
X50030099Y39524381D01*
X50030096Y39524382D01*
X50024007Y39526904D01*
X50017471Y39527764D01*
X50017469Y39527765D01*
X49884540Y39545265D01*
X49878000Y39546126D01*
X49871460Y39545265D01*
X49738531Y39527765D01*
X49738529Y39527764D01*
X49731993Y39526904D01*
X49725904Y39524382D01*
X49725901Y39524381D01*
X49668768Y39500715D01*
X49595937Y39470547D01*
X49479103Y39380897D01*
X49475089Y39375665D01*
X49470424Y39371001D01*
X49469057Y39372368D01*
X49425226Y39342243D01*
X49396653Y39338100D01*
X48926725Y39338100D01*
X48905550Y39340354D01*
X48903135Y39340874D01*
X48895007Y39342624D01*
X48886752Y39341647D01*
X48862673Y39338797D01*
X48856702Y39338445D01*
X48856702Y39338442D01*
X48852563Y39338100D01*
X48848416Y39338100D01*
X48844328Y39337420D01*
X48844321Y39337419D01*
X48830159Y39335062D01*
X48825469Y39334394D01*
X48785538Y39329668D01*
X48785536Y39329667D01*
X48777278Y39328690D01*
X48770174Y39325279D01*
X48768830Y39324853D01*
X48761058Y39323560D01*
X48718367Y39300525D01*
X48714145Y39298374D01*
X48676115Y39280112D01*
X48676112Y39280110D01*
X48670410Y39277372D01*
X48666400Y39274001D01*
X48664860Y39272461D01*
X48663570Y39271278D01*
X48662518Y39270390D01*
X48656726Y39267265D01*
X48651083Y39261160D01*
X48651080Y39261158D01*
X48622151Y39229862D01*
X48619413Y39227014D01*
X47860651Y38468252D01*
X47844086Y38454875D01*
X47835026Y38449025D01*
X47823013Y38433786D01*
X47814873Y38423461D01*
X47810897Y38418987D01*
X47810899Y38418985D01*
X47808214Y38415816D01*
X47805280Y38412882D01*
X47794486Y38397778D01*
X47791693Y38394057D01*
X47761632Y38355925D01*
X47759022Y38348493D01*
X47758371Y38347240D01*
X47753790Y38340829D01*
X47739877Y38294306D01*
X47738432Y38289862D01*
X47722352Y38244071D01*
X47721900Y38238852D01*
X47721900Y38236685D01*
X47721824Y38234925D01*
X47721708Y38233550D01*
X47719823Y38227248D01*
X47721486Y38184914D01*
X47721822Y38176366D01*
X47721900Y38172417D01*
X47721900Y36711406D01*
X47702687Y36652275D01*
X47652387Y36615730D01*
X47590213Y36615730D01*
X47582825Y36618455D01*
X47562427Y36626904D01*
X47555891Y36627764D01*
X47555889Y36627765D01*
X47422960Y36645265D01*
X47416420Y36646126D01*
X47409880Y36645265D01*
X47276951Y36627765D01*
X47276949Y36627764D01*
X47270413Y36626904D01*
X47264324Y36624382D01*
X47264321Y36624381D01*
X47207188Y36600715D01*
X47134357Y36570547D01*
X47017523Y36480897D01*
X47013509Y36475665D01*
X47008844Y36471001D01*
X47007477Y36472368D01*
X46963646Y36442243D01*
X46935073Y36438100D01*
X46926729Y36438100D01*
X46905555Y36440354D01*
X46903137Y36440875D01*
X46903129Y36440875D01*
X46895007Y36442624D01*
X46862673Y36438797D01*
X46856702Y36438445D01*
X46856702Y36438442D01*
X46852563Y36438100D01*
X46848416Y36438100D01*
X46844328Y36437420D01*
X46844321Y36437419D01*
X46830159Y36435062D01*
X46825469Y36434394D01*
X46785538Y36429668D01*
X46785536Y36429667D01*
X46777278Y36428690D01*
X46770174Y36425279D01*
X46768830Y36424853D01*
X46761058Y36423560D01*
X46718367Y36400525D01*
X46714145Y36398374D01*
X46676115Y36380112D01*
X46676112Y36380110D01*
X46670410Y36377372D01*
X46666400Y36374001D01*
X46664860Y36372461D01*
X46663570Y36371278D01*
X46662518Y36370390D01*
X46656726Y36367265D01*
X46651083Y36361160D01*
X46651080Y36361158D01*
X46622151Y36329862D01*
X46619413Y36327014D01*
X45966562Y35674164D01*
X45911164Y35645938D01*
X45891131Y35645676D01*
X45891131Y35645265D01*
X45884540Y35645265D01*
X45878000Y35646126D01*
X45871460Y35645265D01*
X45738531Y35627765D01*
X45738529Y35627764D01*
X45731993Y35626904D01*
X45725904Y35624382D01*
X45725901Y35624381D01*
X45668768Y35600715D01*
X45595937Y35570547D01*
X45479103Y35480897D01*
X45389453Y35364063D01*
X45333096Y35228007D01*
X45332236Y35221471D01*
X45332235Y35221469D01*
X45320915Y35135484D01*
X45313874Y35082000D01*
X45333096Y34935993D01*
X45389453Y34799937D01*
X45479103Y34683103D01*
X45595937Y34593453D01*
X45668768Y34563285D01*
X45725901Y34539619D01*
X45725904Y34539618D01*
X45731993Y34537096D01*
X45738529Y34536236D01*
X45738531Y34536235D01*
X45871460Y34518735D01*
X45878000Y34517874D01*
X45884540Y34518735D01*
X46017469Y34536235D01*
X46017471Y34536236D01*
X46024007Y34537096D01*
X46030096Y34539618D01*
X46030099Y34539619D01*
X46087232Y34563285D01*
X46160063Y34593453D01*
X46276897Y34683103D01*
X46366547Y34799937D01*
X46422904Y34935993D01*
X46442126Y35082000D01*
X46441265Y35088540D01*
X46441265Y35095130D01*
X46443197Y35095130D01*
X46452888Y35147427D01*
X46470164Y35170563D01*
X46935438Y35635837D01*
X46990836Y35664063D01*
X47052244Y35654337D01*
X47067814Y35644513D01*
X47134357Y35593453D01*
X47207188Y35563285D01*
X47264321Y35539619D01*
X47264324Y35539618D01*
X47270413Y35537096D01*
X47276949Y35536236D01*
X47276951Y35536235D01*
X47409880Y35518735D01*
X47416420Y35517874D01*
X47422960Y35518735D01*
X47555889Y35536235D01*
X47555891Y35536236D01*
X47562427Y35537096D01*
X47582803Y35545536D01*
X47644783Y35550415D01*
X47697796Y35517930D01*
X47721590Y35460489D01*
X47721900Y35452594D01*
X47721900Y33281172D01*
X47702687Y33222041D01*
X47692435Y33210037D01*
X45588363Y31105965D01*
X45532965Y31077739D01*
X45517228Y31076500D01*
X44239309Y31076499D01*
X44082934Y31076499D01*
X44047452Y31069442D01*
X44018416Y31063667D01*
X44018414Y31063666D01*
X44008699Y31061734D01*
X44000464Y31056231D01*
X44000463Y31056231D01*
X43988992Y31048566D01*
X43929152Y31031688D01*
X43870821Y31053207D01*
X43836278Y31104902D01*
X43832500Y31132211D01*
X43832500Y44052390D01*
X43851713Y44111521D01*
X43902013Y44148066D01*
X43964187Y44148066D01*
X43988989Y44136037D01*
X44000657Y44128241D01*
X44018611Y44120804D01*
X44078131Y44108965D01*
X44087930Y44108000D01*
X44840417Y44108000D01*
X44853307Y44112188D01*
X44856350Y44116377D01*
X44856350Y44123934D01*
X45059650Y44123934D01*
X45063838Y44111044D01*
X45068027Y44108001D01*
X45828078Y44108001D01*
X45837861Y44108965D01*
X45897386Y44120804D01*
X45915345Y44128242D01*
X45982885Y44173371D01*
X45996629Y44187115D01*
X46041759Y44254657D01*
X46049196Y44272611D01*
X46061035Y44332131D01*
X46062000Y44341930D01*
X46062000Y45094417D01*
X46057812Y45107307D01*
X46053623Y45110350D01*
X45075583Y45110350D01*
X45062693Y45106162D01*
X45059650Y45101973D01*
X45059650Y44123934D01*
X44856350Y44123934D01*
X44856350Y45213050D01*
X44875563Y45272181D01*
X44925863Y45308726D01*
X44956950Y45313650D01*
X46046066Y45313650D01*
X46058956Y45317838D01*
X46061999Y45322027D01*
X46061999Y46082078D01*
X46061035Y46091861D01*
X46049196Y46151386D01*
X46041757Y46169346D01*
X46040647Y46171008D01*
X46039746Y46174203D01*
X46037966Y46178500D01*
X46038474Y46178711D01*
X46023768Y46230847D01*
X46045287Y46289179D01*
X46096982Y46323722D01*
X46124291Y46327500D01*
X46846775Y46327500D01*
X46905906Y46308287D01*
G37*
%TD.AperFunction*%
%TD*%
M02*
