%TF.GenerationSoftware,KiCad,Pcbnew,(5.1.6-0)*%
%TF.CreationDate,2021-08-25T01:08:22-07:00*%
%TF.ProjectId,mate-net-monitor,6d617465-2d6e-4657-942d-6d6f6e69746f,P1*%
%TF.SameCoordinates,PX6b4f310PY74ffa90*%
%TF.FileFunction,Copper,L1,Top*%
%TF.FilePolarity,Positive*%
%FSLAX46Y46*%
G04 Gerber Fmt 4.6, Leading zero omitted, Abs format (unit mm)*
G04 Created by KiCad (PCBNEW (5.1.6-0)) date 2021-08-25 01:08:22*
%MOMM*%
%LPD*%
G01*
G04 APERTURE LIST*
%TA.AperFunction,NonConductor*%
%ADD10C,0.152400*%
%TD*%
%TA.AperFunction,ComponentPad*%
%ADD11O,1.700000X1.700000*%
%TD*%
%TA.AperFunction,ComponentPad*%
%ADD12R,1.700000X1.700000*%
%TD*%
%TA.AperFunction,ComponentPad*%
%ADD13C,1.500000*%
%TD*%
%TA.AperFunction,ComponentPad*%
%ADD14R,1.500000X1.500000*%
%TD*%
%TA.AperFunction,ComponentPad*%
%ADD15C,0.800000*%
%TD*%
%TA.AperFunction,SMDPad,CuDef*%
%ADD16C,0.100000*%
%TD*%
%TA.AperFunction,SMDPad,CuDef*%
%ADD17R,1.100000X1.100000*%
%TD*%
%TA.AperFunction,SMDPad,CuDef*%
%ADD18R,2.500000X1.800000*%
%TD*%
%TA.AperFunction,SMDPad,CuDef*%
%ADD19R,1.800000X2.500000*%
%TD*%
%TA.AperFunction,ComponentPad*%
%ADD20C,1.520000*%
%TD*%
%TA.AperFunction,ComponentPad*%
%ADD21R,1.520000X1.520000*%
%TD*%
%TA.AperFunction,SMDPad,CuDef*%
%ADD22R,2.800000X5.300000*%
%TD*%
%TA.AperFunction,SMDPad,CuDef*%
%ADD23R,0.800000X0.900000*%
%TD*%
%TA.AperFunction,SMDPad,CuDef*%
%ADD24R,1.850000X1.730000*%
%TD*%
%TA.AperFunction,ViaPad*%
%ADD25C,0.500000*%
%TD*%
%TA.AperFunction,ViaPad*%
%ADD26C,0.609600*%
%TD*%
%TA.AperFunction,Conductor*%
%ADD27C,0.203200*%
%TD*%
%TA.AperFunction,Conductor*%
%ADD28C,0.457200*%
%TD*%
%TA.AperFunction,Conductor*%
%ADD29C,0.304800*%
%TD*%
%TA.AperFunction,Conductor*%
%ADD30C,0.609600*%
%TD*%
G04 APERTURE END LIST*
D10*
X69157980Y30726858D02*
X68157980Y30726858D01*
X68872266Y31060191D01*
X68157980Y31393524D01*
X69157980Y31393524D01*
X68872266Y31822096D02*
X68872266Y32298286D01*
X69157980Y31726858D02*
X68157980Y32060191D01*
X69157980Y32393524D01*
X68157980Y32584000D02*
X68157980Y33155429D01*
X69157980Y32869715D02*
X68157980Y32869715D01*
X68634171Y33488762D02*
X68634171Y33822096D01*
X69157980Y33964953D02*
X69157980Y33488762D01*
X68157980Y33488762D01*
X68157980Y33964953D01*
X69157980Y35155429D02*
X68157980Y35155429D01*
X69157980Y35726858D01*
X68157980Y35726858D01*
X69110361Y36584000D02*
X69157980Y36488762D01*
X69157980Y36298286D01*
X69110361Y36203048D01*
X69015123Y36155429D01*
X68634171Y36155429D01*
X68538933Y36203048D01*
X68491314Y36298286D01*
X68491314Y36488762D01*
X68538933Y36584000D01*
X68634171Y36631620D01*
X68729409Y36631620D01*
X68824647Y36155429D01*
X68491314Y36917334D02*
X68491314Y37298286D01*
X68157980Y37060191D02*
X69015123Y37060191D01*
X69110361Y37107810D01*
X69157980Y37203048D01*
X69157980Y37298286D01*
X69157980Y38393524D02*
X68157980Y38393524D01*
X68872266Y38726858D01*
X68157980Y39060191D01*
X69157980Y39060191D01*
X69157980Y39679239D02*
X69110361Y39584000D01*
X69062742Y39536381D01*
X68967504Y39488762D01*
X68681790Y39488762D01*
X68586552Y39536381D01*
X68538933Y39584000D01*
X68491314Y39679239D01*
X68491314Y39822096D01*
X68538933Y39917334D01*
X68586552Y39964953D01*
X68681790Y40012572D01*
X68967504Y40012572D01*
X69062742Y39964953D01*
X69110361Y39917334D01*
X69157980Y39822096D01*
X69157980Y39679239D01*
X68491314Y40441143D02*
X69157980Y40441143D01*
X68586552Y40441143D02*
X68538933Y40488762D01*
X68491314Y40584000D01*
X68491314Y40726858D01*
X68538933Y40822096D01*
X68634171Y40869715D01*
X69157980Y40869715D01*
X69157980Y41345905D02*
X68491314Y41345905D01*
X68157980Y41345905D02*
X68205600Y41298286D01*
X68253219Y41345905D01*
X68205600Y41393524D01*
X68157980Y41345905D01*
X68253219Y41345905D01*
X68491314Y41679239D02*
X68491314Y42060191D01*
X68157980Y41822096D02*
X69015123Y41822096D01*
X69110361Y41869715D01*
X69157980Y41964953D01*
X69157980Y42060191D01*
X69157980Y42536381D02*
X69110361Y42441143D01*
X69062742Y42393524D01*
X68967504Y42345905D01*
X68681790Y42345905D01*
X68586552Y42393524D01*
X68538933Y42441143D01*
X68491314Y42536381D01*
X68491314Y42679239D01*
X68538933Y42774477D01*
X68586552Y42822096D01*
X68681790Y42869715D01*
X68967504Y42869715D01*
X69062742Y42822096D01*
X69110361Y42774477D01*
X69157980Y42679239D01*
X69157980Y42536381D01*
X69157980Y43298286D02*
X68491314Y43298286D01*
X68681790Y43298286D02*
X68586552Y43345905D01*
X68538933Y43393524D01*
X68491314Y43488762D01*
X68491314Y43584000D01*
X70810380Y31917334D02*
X69810380Y31917334D01*
X70715142Y32964953D02*
X70762761Y32917334D01*
X70810380Y32774477D01*
X70810380Y32679239D01*
X70762761Y32536381D01*
X70667523Y32441143D01*
X70572285Y32393524D01*
X70381809Y32345905D01*
X70238952Y32345905D01*
X70048476Y32393524D01*
X69953238Y32441143D01*
X69858000Y32536381D01*
X69810380Y32679239D01*
X69810380Y32774477D01*
X69858000Y32917334D01*
X69905619Y32964953D01*
X70810380Y33393524D02*
X69810380Y33393524D01*
X70286571Y33393524D02*
X70286571Y33964953D01*
X70810380Y33964953D02*
X69810380Y33964953D01*
X70286571Y35203048D02*
X70286571Y35536381D01*
X70810380Y35679239D02*
X70810380Y35203048D01*
X69810380Y35203048D01*
X69810380Y35679239D01*
X70810380Y36107810D02*
X69810380Y36107810D01*
X70810380Y36679239D01*
X69810380Y36679239D01*
X70286571Y37488762D02*
X70334190Y37631620D01*
X70381809Y37679239D01*
X70477047Y37726858D01*
X70619904Y37726858D01*
X70715142Y37679239D01*
X70762761Y37631620D01*
X70810380Y37536381D01*
X70810380Y37155429D01*
X69810380Y37155429D01*
X69810380Y37488762D01*
X69858000Y37584000D01*
X69905619Y37631620D01*
X70000857Y37679239D01*
X70096095Y37679239D01*
X70191333Y37631620D01*
X70238952Y37584000D01*
X70286571Y37488762D01*
X70286571Y37155429D01*
X69905619Y38869715D02*
X69858000Y38917334D01*
X69810380Y39012572D01*
X69810380Y39250667D01*
X69858000Y39345905D01*
X69905619Y39393524D01*
X70000857Y39441143D01*
X70096095Y39441143D01*
X70238952Y39393524D01*
X70810380Y38822096D01*
X70810380Y39441143D01*
X69810380Y40060191D02*
X69810380Y40155429D01*
X69858000Y40250667D01*
X69905619Y40298286D01*
X70000857Y40345905D01*
X70191333Y40393524D01*
X70429428Y40393524D01*
X70619904Y40345905D01*
X70715142Y40298286D01*
X70762761Y40250667D01*
X70810380Y40155429D01*
X70810380Y40060191D01*
X70762761Y39964953D01*
X70715142Y39917334D01*
X70619904Y39869715D01*
X70429428Y39822096D01*
X70191333Y39822096D01*
X70000857Y39869715D01*
X69905619Y39917334D01*
X69858000Y39964953D01*
X69810380Y40060191D01*
X69905619Y40774477D02*
X69858000Y40822096D01*
X69810380Y40917334D01*
X69810380Y41155429D01*
X69858000Y41250667D01*
X69905619Y41298286D01*
X70000857Y41345905D01*
X70096095Y41345905D01*
X70238952Y41298286D01*
X70810380Y40726858D01*
X70810380Y41345905D01*
X70810380Y42298286D02*
X70810380Y41726858D01*
X70810380Y42012572D02*
X69810380Y42012572D01*
X69953238Y41917334D01*
X70048476Y41822096D01*
X70096095Y41726858D01*
X72462780Y29393524D02*
X71462780Y29393524D01*
X72177066Y29726858D01*
X71462780Y30060191D01*
X72462780Y30060191D01*
X72462780Y30679239D02*
X72415161Y30584000D01*
X72367542Y30536381D01*
X72272304Y30488762D01*
X71986590Y30488762D01*
X71891352Y30536381D01*
X71843733Y30584000D01*
X71796114Y30679239D01*
X71796114Y30822096D01*
X71843733Y30917334D01*
X71891352Y30964953D01*
X71986590Y31012572D01*
X72272304Y31012572D01*
X72367542Y30964953D01*
X72415161Y30917334D01*
X72462780Y30822096D01*
X72462780Y30679239D01*
X72462780Y31441143D02*
X71796114Y31441143D01*
X71986590Y31441143D02*
X71891352Y31488762D01*
X71843733Y31536381D01*
X71796114Y31631620D01*
X71796114Y31726858D01*
X71796114Y31917334D02*
X71796114Y32298286D01*
X71462780Y32060191D02*
X72319923Y32060191D01*
X72415161Y32107810D01*
X72462780Y32203048D01*
X72462780Y32298286D01*
X72462780Y32774477D02*
X72415161Y32679239D01*
X72367542Y32631620D01*
X72272304Y32584000D01*
X71986590Y32584000D01*
X71891352Y32631620D01*
X71843733Y32679239D01*
X71796114Y32774477D01*
X71796114Y32917334D01*
X71843733Y33012572D01*
X71891352Y33060191D01*
X71986590Y33107810D01*
X72272304Y33107810D01*
X72367542Y33060191D01*
X72415161Y33012572D01*
X72462780Y32917334D01*
X72462780Y32774477D01*
X71796114Y33536381D02*
X72462780Y33536381D01*
X71891352Y33536381D02*
X71843733Y33584000D01*
X71796114Y33679239D01*
X71796114Y33822096D01*
X71843733Y33917334D01*
X71938971Y33964953D01*
X72462780Y33964953D01*
X71462780Y34488762D02*
X71510400Y34488762D01*
X71605638Y34441143D01*
X71653257Y34393524D01*
X72415161Y34869715D02*
X72462780Y34964953D01*
X72462780Y35155429D01*
X72415161Y35250667D01*
X72319923Y35298286D01*
X72272304Y35298286D01*
X72177066Y35250667D01*
X72129447Y35155429D01*
X72129447Y35012572D01*
X72081828Y34917334D01*
X71986590Y34869715D01*
X71938971Y34869715D01*
X71843733Y34917334D01*
X71796114Y35012572D01*
X71796114Y35155429D01*
X71843733Y35250667D01*
X72462780Y36488762D02*
X71462780Y36488762D01*
X71462780Y36869715D01*
X71510400Y36964953D01*
X71558019Y37012572D01*
X71653257Y37060191D01*
X71796114Y37060191D01*
X71891352Y37012572D01*
X71938971Y36964953D01*
X71986590Y36869715D01*
X71986590Y36488762D01*
X72462780Y37631620D02*
X72415161Y37536381D01*
X72367542Y37488762D01*
X72272304Y37441143D01*
X71986590Y37441143D01*
X71891352Y37488762D01*
X71843733Y37536381D01*
X71796114Y37631620D01*
X71796114Y37774477D01*
X71843733Y37869715D01*
X71891352Y37917334D01*
X71986590Y37964953D01*
X72272304Y37964953D01*
X72367542Y37917334D01*
X72415161Y37869715D01*
X72462780Y37774477D01*
X72462780Y37631620D01*
X72462780Y38393524D02*
X71796114Y38393524D01*
X71462780Y38393524D02*
X71510400Y38345905D01*
X71558019Y38393524D01*
X71510400Y38441143D01*
X71462780Y38393524D01*
X71558019Y38393524D01*
X71796114Y38869715D02*
X72462780Y38869715D01*
X71891352Y38869715D02*
X71843733Y38917334D01*
X71796114Y39012572D01*
X71796114Y39155429D01*
X71843733Y39250667D01*
X71938971Y39298286D01*
X72462780Y39298286D01*
X71796114Y39631620D02*
X71796114Y40012572D01*
X71462780Y39774477D02*
X72319923Y39774477D01*
X72415161Y39822096D01*
X72462780Y39917334D01*
X72462780Y40012572D01*
X72367542Y41679239D02*
X72415161Y41631620D01*
X72462780Y41488762D01*
X72462780Y41393524D01*
X72415161Y41250667D01*
X72319923Y41155429D01*
X72224685Y41107810D01*
X72034209Y41060191D01*
X71891352Y41060191D01*
X71700876Y41107810D01*
X71605638Y41155429D01*
X71510400Y41250667D01*
X71462780Y41393524D01*
X71462780Y41488762D01*
X71510400Y41631620D01*
X71558019Y41679239D01*
X72462780Y42536381D02*
X71938971Y42536381D01*
X71843733Y42488762D01*
X71796114Y42393524D01*
X71796114Y42203048D01*
X71843733Y42107810D01*
X72415161Y42536381D02*
X72462780Y42441143D01*
X72462780Y42203048D01*
X72415161Y42107810D01*
X72319923Y42060191D01*
X72224685Y42060191D01*
X72129447Y42107810D01*
X72081828Y42203048D01*
X72081828Y42441143D01*
X72034209Y42536381D01*
X72462780Y43012572D02*
X71796114Y43012572D01*
X71891352Y43012572D02*
X71843733Y43060191D01*
X71796114Y43155429D01*
X71796114Y43298286D01*
X71843733Y43393524D01*
X71938971Y43441143D01*
X72462780Y43441143D01*
X71938971Y43441143D02*
X71843733Y43488762D01*
X71796114Y43584000D01*
X71796114Y43726858D01*
X71843733Y43822096D01*
X71938971Y43869715D01*
X72462780Y43869715D01*
X71796114Y44345905D02*
X72796114Y44345905D01*
X71843733Y44345905D02*
X71796114Y44441143D01*
X71796114Y44631620D01*
X71843733Y44726858D01*
X71891352Y44774477D01*
X71986590Y44822096D01*
X72272304Y44822096D01*
X72367542Y44774477D01*
X72415161Y44726858D01*
X72462780Y44631620D01*
X72462780Y44441143D01*
X72415161Y44345905D01*
D11*
%TO.P,A1,LI+*%
%TO.N,Net-(A1-PadLI+)*%
X32258000Y50292000D03*
%TO.P,A1,EN*%
%TO.N,Net-(A1-PadEN)*%
X34798000Y50292000D03*
%TO.P,A1,D8*%
%TO.N,Net-(A1-PadD8)*%
X39878000Y50292000D03*
%TO.P,A1,D7*%
%TO.N,Net-(A1-PadD7)*%
X42418000Y50292000D03*
%TO.P,A1,D6*%
%TO.N,Net-(A1-PadD6)*%
X44958000Y50292000D03*
%TO.P,A1,D5*%
%TO.N,/PB_UART2_RX*%
X47498000Y50292000D03*
%TO.P,A1,D4*%
%TO.N,/PB_UART2_TX*%
X50038000Y50292000D03*
%TO.P,A1,D3*%
%TO.N,/PB_D3*%
X52578000Y50292000D03*
%TO.P,A1,D2*%
%TO.N,/PB_D2*%
X55118000Y50292000D03*
%TO.P,A1,SCL*%
%TO.N,/PB_SCL*%
X57658000Y50292000D03*
%TO.P,A1,SDA*%
%TO.N,/PB_SDA*%
X60198000Y50292000D03*
%TO.P,A1,VUSB*%
%TO.N,+5V*%
X37338000Y50292000D03*
%TO.P,A1,NC*%
%TO.N,Net-(A1-PadNC)*%
X60198000Y29972000D03*
%TO.P,A1,TX*%
%TO.N,/PB_UART1_TX*%
X57658000Y29972000D03*
%TO.P,A1,RX*%
%TO.N,/PB_UART1_RX*%
X55118000Y29972000D03*
%TO.P,A1,MI*%
%TO.N,Net-(A1-PadMI)*%
X52578000Y29972000D03*
%TO.P,A1,MO*%
%TO.N,Net-(A1-PadMO)*%
X50038000Y29972000D03*
%TO.P,A1,SCK*%
%TO.N,Net-(A1-PadSCK)*%
X47498000Y29972000D03*
%TO.P,A1,A5*%
%TO.N,Net-(A1-PadA5)*%
X44958000Y29972000D03*
%TO.P,A1,A4*%
%TO.N,/PB_ADC4*%
X42418000Y29972000D03*
%TO.P,A1,A3*%
%TO.N,/PB_ADC3*%
X39878000Y29972000D03*
%TO.P,A1,A2*%
%TO.N,/PB_ADC2*%
X37338000Y29972000D03*
%TO.P,A1,A1*%
%TO.N,/PB_ADC1*%
X34798000Y29972000D03*
%TO.P,A1,A0*%
%TO.N,/PB_PWM2*%
X32258000Y29972000D03*
%TO.P,A1,GND*%
%TO.N,GND*%
X29718000Y29972000D03*
%TO.P,A1,MD*%
%TO.N,Net-(A1-PadMD)*%
X27178000Y29972000D03*
%TO.P,A1,3V3*%
%TO.N,+3V3*%
X24638000Y29972000D03*
D12*
%TO.P,A1,RST*%
%TO.N,Net-(A1-PadRST)*%
X22098000Y29972000D03*
%TD*%
D13*
%TO.P,J5,12*%
%TO.N,/MATE_NET_IND_A*%
X12948000Y14601000D03*
%TO.P,J5,11*%
%TO.N,GND*%
X15238000Y14601000D03*
%TO.P,J5,10*%
%TO.N,+BATT*%
X24378000Y14601000D03*
%TO.P,J5,9*%
%TO.N,/PBATT_K*%
X26668000Y14601000D03*
%TO.P,J5,8*%
%TO.N,Net-(J5-Pad8)*%
X16256000Y9781000D03*
%TO.P,J5,6*%
%TO.N,/MATE_NET_RXD*%
X18288000Y9781000D03*
%TO.P,J5,4*%
%TO.N,Net-(J5-Pad4)*%
X20320000Y9781000D03*
%TO.P,J5,2*%
%TO.N,GND*%
X22352000Y9781000D03*
%TO.P,J5,7*%
%TO.N,Net-(J5-Pad7)*%
X17272000Y8001000D03*
%TO.P,J5,5*%
%TO.N,Net-(J5-Pad5)*%
X19304000Y8001000D03*
%TO.P,J5,3*%
%TO.N,/MATE_NET_TXD*%
X21336000Y8001000D03*
D14*
%TO.P,J5,1*%
%TO.N,/PBATT_CONN*%
X23368000Y8001000D03*
%TD*%
D15*
%TO.P,H3,1*%
%TO.N,Net-(H3-Pad1)*%
X7178000Y27752000D03*
X5588000Y28412000D03*
X3998000Y27752000D03*
X3338000Y26162000D03*
X3998000Y24572000D03*
X5588000Y23912000D03*
X7178000Y24572000D03*
X7838000Y26162000D03*
%TA.AperFunction,SMDPad,CuDef*%
D16*
G36*
X5600210Y28911403D02*
G01*
X5612424Y28911403D01*
X5831986Y28900665D01*
X5831993Y28900665D01*
X5838956Y28900275D01*
X5859732Y28897945D01*
X5880605Y28895898D01*
X6098069Y28863785D01*
X6104968Y28862717D01*
X6125466Y28858360D01*
X6145987Y28854297D01*
X6359278Y28801118D01*
X6359283Y28801117D01*
X6359289Y28801115D01*
X6366044Y28799381D01*
X6385978Y28793057D01*
X6406048Y28786998D01*
X6613128Y28713260D01*
X6613135Y28713258D01*
X6613143Y28713255D01*
X6619694Y28710870D01*
X6638925Y28702627D01*
X6658298Y28694642D01*
X6857184Y28601053D01*
X6857201Y28601046D01*
X6857220Y28601036D01*
X6863497Y28598029D01*
X6881855Y28587937D01*
X6900332Y28578112D01*
X7089144Y28465558D01*
X7089153Y28465553D01*
X7089163Y28465546D01*
X7095123Y28461937D01*
X7112389Y28450115D01*
X7129841Y28438520D01*
X7306776Y28308072D01*
X7312366Y28303890D01*
X7328428Y28290413D01*
X7344631Y28277197D01*
X7507980Y28130117D01*
X7507992Y28130107D01*
X7508004Y28130095D01*
X7513148Y28125399D01*
X7527796Y28110440D01*
X7542654Y28095686D01*
X7690882Y27933356D01*
X7695553Y27928167D01*
X7708656Y27911871D01*
X7722020Y27895716D01*
X7853697Y27719700D01*
X7853702Y27719694D01*
X7853708Y27719686D01*
X7857843Y27714077D01*
X7869304Y27696564D01*
X7881018Y27679196D01*
X7994889Y27491171D01*
X7994891Y27491168D01*
X7994892Y27491166D01*
X7998467Y27485169D01*
X8008158Y27466631D01*
X8018125Y27448198D01*
X8113104Y27249960D01*
X8113109Y27249952D01*
X8113113Y27249941D01*
X8116080Y27243636D01*
X8123915Y27224244D01*
X8132038Y27204920D01*
X8207223Y26998353D01*
X8209564Y26991776D01*
X8215467Y26971722D01*
X8221668Y26951688D01*
X8276336Y26738770D01*
X8278024Y26731996D01*
X8281943Y26711453D01*
X8286158Y26690918D01*
X8319788Y26473682D01*
X8320808Y26466775D01*
X8322706Y26445919D01*
X8324894Y26425100D01*
X8337164Y26205639D01*
X8337166Y26205619D01*
X8337166Y26205595D01*
X8337506Y26198646D01*
X8337360Y26177739D01*
X8337506Y26156771D01*
X8328302Y25937160D01*
X8328302Y25937137D01*
X8328300Y25937110D01*
X8327960Y25930167D01*
X8325777Y25909398D01*
X8323874Y25888489D01*
X8293280Y25670805D01*
X8292260Y25663898D01*
X8288049Y25643385D01*
X8284126Y25622821D01*
X8232440Y25409177D01*
X8232437Y25409162D01*
X8232432Y25409145D01*
X8230747Y25402387D01*
X8224571Y25382437D01*
X8218645Y25362300D01*
X8146353Y25154704D01*
X8144011Y25148127D01*
X8135900Y25128831D01*
X8128052Y25109408D01*
X8035851Y24909867D01*
X8035847Y24909858D01*
X8035846Y24909857D01*
X8032874Y24903540D01*
X8022906Y24885105D01*
X8013215Y24866568D01*
X7901987Y24676983D01*
X7901977Y24676965D01*
X7901964Y24676945D01*
X7898402Y24670970D01*
X7886714Y24653641D01*
X7875228Y24636090D01*
X7746018Y24458248D01*
X7741875Y24452629D01*
X7728538Y24436507D01*
X7715410Y24420179D01*
X7569468Y24255800D01*
X7569462Y24255792D01*
X7569453Y24255783D01*
X7564793Y24250607D01*
X7549928Y24235845D01*
X7535283Y24220891D01*
X7374002Y24071544D01*
X7373992Y24071534D01*
X7373980Y24071524D01*
X7368836Y24066827D01*
X7352623Y24053604D01*
X7336571Y24040135D01*
X7161485Y23907238D01*
X7161476Y23907230D01*
X7161464Y23907222D01*
X7155885Y23903048D01*
X7138437Y23891455D01*
X7121169Y23879632D01*
X6933945Y23764450D01*
X6933939Y23764446D01*
X6933932Y23764442D01*
X6927968Y23760831D01*
X6909516Y23751019D01*
X6891132Y23740913D01*
X6693562Y23644552D01*
X6693554Y23644547D01*
X6693544Y23644543D01*
X6687259Y23641532D01*
X6667923Y23633562D01*
X6648654Y23625304D01*
X6442617Y23548680D01*
X6436057Y23546292D01*
X6416020Y23540242D01*
X6396055Y23533909D01*
X6183524Y23477756D01*
X6176762Y23476020D01*
X6156227Y23471954D01*
X6135742Y23467600D01*
X5918746Y23432454D01*
X5911847Y23431386D01*
X5890998Y23429342D01*
X5870201Y23427009D01*
X5650827Y23413207D01*
X5650809Y23413205D01*
X5650788Y23413205D01*
X5643840Y23412816D01*
X5622908Y23412816D01*
X5601965Y23412524D01*
X5382295Y23420195D01*
X5382275Y23420195D01*
X5382251Y23420197D01*
X5375300Y23420488D01*
X5354495Y23422528D01*
X5333597Y23424283D01*
X5115706Y23453356D01*
X5115703Y23453356D01*
X5115700Y23453357D01*
X5108791Y23454328D01*
X5088253Y23458394D01*
X5067657Y23462175D01*
X4853648Y23512370D01*
X4853639Y23512372D01*
X4853628Y23512375D01*
X4846855Y23514013D01*
X4826781Y23520074D01*
X4806683Y23525837D01*
X4598599Y23596674D01*
X4598587Y23596678D01*
X4598573Y23596683D01*
X4591994Y23598975D01*
X4572683Y23606934D01*
X4553168Y23614661D01*
X4352985Y23705468D01*
X4352977Y23705471D01*
X4352968Y23705476D01*
X4346641Y23708399D01*
X4328176Y23718217D01*
X4309530Y23727800D01*
X4119157Y23837712D01*
X4113136Y23841245D01*
X4095722Y23852815D01*
X4078096Y23864174D01*
X3899356Y23992139D01*
X3893708Y23996243D01*
X3877501Y24009461D01*
X3861072Y24022482D01*
X3695684Y24167270D01*
X3695673Y24167278D01*
X3695662Y24167289D01*
X3690454Y24171913D01*
X3675624Y24186640D01*
X3660534Y24201212D01*
X3510065Y24361446D01*
X3510055Y24361456D01*
X3510044Y24361468D01*
X3505312Y24366579D01*
X3491981Y24382693D01*
X3478395Y24398657D01*
X3344270Y24572820D01*
X3340049Y24578381D01*
X3328341Y24595739D01*
X3316390Y24612935D01*
X3199910Y24799343D01*
X3199900Y24799357D01*
X3199890Y24799375D01*
X3196243Y24805303D01*
X3186298Y24823696D01*
X3176069Y24841999D01*
X3078328Y25038898D01*
X3075268Y25045173D01*
X3067171Y25064434D01*
X3058771Y25083661D01*
X2980710Y25289158D01*
X2978277Y25295702D01*
X2972096Y25315671D01*
X2965615Y25335617D01*
X2907979Y25547750D01*
X2906196Y25554500D01*
X2901987Y25575006D01*
X2897489Y25595463D01*
X2860832Y25812195D01*
X2860830Y25812205D01*
X2860829Y25812216D01*
X2859714Y25819100D01*
X2857531Y25839874D01*
X2855046Y25860710D01*
X2839711Y26080000D01*
X2839273Y26086967D01*
X2839126Y26107915D01*
X2838761Y26125366D01*
X3838981Y26125366D01*
X3850904Y25954860D01*
X3879406Y25786346D01*
X3924219Y25621407D01*
X3984914Y25461627D01*
X4060909Y25308535D01*
X4151480Y25163591D01*
X4255768Y25028172D01*
X4372765Y24903584D01*
X4501359Y24791008D01*
X4640335Y24691511D01*
X4788354Y24606052D01*
X4944005Y24535446D01*
X5105803Y24480365D01*
X5272192Y24441339D01*
X5441620Y24418732D01*
X5612425Y24412767D01*
X5783000Y24423499D01*
X5951717Y24450826D01*
X6116974Y24494488D01*
X6277158Y24554060D01*
X6430781Y24628987D01*
X6576358Y24718547D01*
X6712499Y24821884D01*
X6837898Y24938004D01*
X6951376Y25065818D01*
X7051838Y25204092D01*
X7138329Y25351513D01*
X7210017Y25506659D01*
X7266227Y25668075D01*
X7306415Y25834192D01*
X7330203Y26003452D01*
X7337360Y26174212D01*
X7327819Y26344860D01*
X7301672Y26513760D01*
X7259164Y26679320D01*
X7200712Y26839915D01*
X7126857Y26994061D01*
X7038322Y27140251D01*
X6935941Y27277108D01*
X6820685Y27403329D01*
X6693675Y27517689D01*
X6556100Y27619117D01*
X6409297Y27706630D01*
X6254650Y27779401D01*
X6093630Y27836738D01*
X5927795Y27878085D01*
X5758710Y27903054D01*
X5579266Y27911830D01*
X5547867Y27911391D01*
X5368748Y27897609D01*
X5200419Y27867928D01*
X5035809Y27821968D01*
X4876452Y27760157D01*
X4723898Y27683097D01*
X4579584Y27591512D01*
X4444902Y27486287D01*
X4321132Y27368422D01*
X4209456Y27239044D01*
X4110930Y27099375D01*
X4026508Y26950765D01*
X3956992Y26794631D01*
X3903040Y26632447D01*
X3865175Y26465781D01*
X3843753Y26296213D01*
X3838981Y26125366D01*
X2838761Y26125366D01*
X2838688Y26128841D01*
X2844826Y26348579D01*
X2845070Y26355556D01*
X2846967Y26376399D01*
X2848574Y26397286D01*
X2876124Y26615360D01*
X2876125Y26615373D01*
X2876127Y26615387D01*
X2877049Y26622296D01*
X2880971Y26642854D01*
X2884608Y26663480D01*
X2933309Y26877843D01*
X2934903Y26884639D01*
X2940809Y26904707D01*
X2946446Y26924895D01*
X3015830Y27133469D01*
X3015833Y27133481D01*
X3015839Y27133495D01*
X3018083Y27140088D01*
X3025921Y27159488D01*
X3033499Y27179024D01*
X3122905Y27379832D01*
X3122909Y27379842D01*
X3122914Y27379853D01*
X3125794Y27386201D01*
X3135484Y27404737D01*
X3144934Y27423444D01*
X3253514Y27614580D01*
X3257005Y27620626D01*
X3268459Y27638130D01*
X3279690Y27655827D01*
X3406404Y27835455D01*
X3410468Y27841131D01*
X3423586Y27857447D01*
X3436478Y27873947D01*
X3580101Y28040337D01*
X3580116Y28040356D01*
X3580136Y28040377D01*
X3584713Y28045606D01*
X3599346Y28060549D01*
X3613804Y28075731D01*
X3772995Y28227326D01*
X3778084Y28232105D01*
X3794144Y28245581D01*
X3809973Y28259244D01*
X3983195Y28394581D01*
X3988727Y28398840D01*
X4005961Y28410641D01*
X4023113Y28422740D01*
X4208718Y28540528D01*
X4208719Y28540529D01*
X4208726Y28540533D01*
X4214638Y28544227D01*
X4232969Y28554305D01*
X4251194Y28564658D01*
X4447406Y28663771D01*
X4453659Y28666875D01*
X4472883Y28675114D01*
X4492030Y28683639D01*
X4696977Y28763133D01*
X4703503Y28765612D01*
X4723474Y28771947D01*
X4743330Y28778552D01*
X4955037Y28837662D01*
X4955056Y28837668D01*
X4955078Y28837673D01*
X4961793Y28839497D01*
X4982221Y28843839D01*
X5002692Y28848490D01*
X5219176Y28886662D01*
X5226060Y28887826D01*
X5246857Y28890159D01*
X5267640Y28892784D01*
X5486816Y28909649D01*
X5493780Y28910136D01*
X5505998Y28910307D01*
X5518197Y28911074D01*
X5581021Y28911951D01*
X5588002Y28912000D01*
X5600210Y28911403D01*
G37*
%TD.AperFunction*%
%TD*%
D15*
%TO.P,H4,1*%
%TO.N,Net-(H4-Pad1)*%
X70678000Y27752000D03*
X69088000Y28412000D03*
X67498000Y27752000D03*
X66838000Y26162000D03*
X67498000Y24572000D03*
X69088000Y23912000D03*
X70678000Y24572000D03*
X71338000Y26162000D03*
%TA.AperFunction,SMDPad,CuDef*%
D16*
G36*
X69100210Y28911403D02*
G01*
X69112424Y28911403D01*
X69331986Y28900665D01*
X69331993Y28900665D01*
X69338956Y28900275D01*
X69359732Y28897945D01*
X69380605Y28895898D01*
X69598069Y28863785D01*
X69604968Y28862717D01*
X69625466Y28858360D01*
X69645987Y28854297D01*
X69859278Y28801118D01*
X69859283Y28801117D01*
X69859289Y28801115D01*
X69866044Y28799381D01*
X69885978Y28793057D01*
X69906048Y28786998D01*
X70113128Y28713260D01*
X70113135Y28713258D01*
X70113143Y28713255D01*
X70119694Y28710870D01*
X70138925Y28702627D01*
X70158298Y28694642D01*
X70357184Y28601053D01*
X70357201Y28601046D01*
X70357220Y28601036D01*
X70363497Y28598029D01*
X70381855Y28587937D01*
X70400332Y28578112D01*
X70589144Y28465558D01*
X70589153Y28465553D01*
X70589163Y28465546D01*
X70595123Y28461937D01*
X70612389Y28450115D01*
X70629841Y28438520D01*
X70806776Y28308072D01*
X70812366Y28303890D01*
X70828428Y28290413D01*
X70844631Y28277197D01*
X71007980Y28130117D01*
X71007992Y28130107D01*
X71008004Y28130095D01*
X71013148Y28125399D01*
X71027796Y28110440D01*
X71042654Y28095686D01*
X71190882Y27933356D01*
X71195553Y27928167D01*
X71208656Y27911871D01*
X71222020Y27895716D01*
X71353697Y27719700D01*
X71353702Y27719694D01*
X71353708Y27719686D01*
X71357843Y27714077D01*
X71369304Y27696564D01*
X71381018Y27679196D01*
X71494889Y27491171D01*
X71494891Y27491168D01*
X71494892Y27491166D01*
X71498467Y27485169D01*
X71508158Y27466631D01*
X71518125Y27448198D01*
X71613104Y27249960D01*
X71613109Y27249952D01*
X71613113Y27249941D01*
X71616080Y27243636D01*
X71623915Y27224244D01*
X71632038Y27204920D01*
X71707223Y26998353D01*
X71709564Y26991776D01*
X71715467Y26971722D01*
X71721668Y26951688D01*
X71776336Y26738770D01*
X71778024Y26731996D01*
X71781943Y26711453D01*
X71786158Y26690918D01*
X71819788Y26473682D01*
X71820808Y26466775D01*
X71822706Y26445919D01*
X71824894Y26425100D01*
X71837164Y26205639D01*
X71837166Y26205619D01*
X71837166Y26205595D01*
X71837506Y26198646D01*
X71837360Y26177739D01*
X71837506Y26156771D01*
X71828302Y25937160D01*
X71828302Y25937137D01*
X71828300Y25937110D01*
X71827960Y25930167D01*
X71825777Y25909398D01*
X71823874Y25888489D01*
X71793280Y25670805D01*
X71792260Y25663898D01*
X71788049Y25643385D01*
X71784126Y25622821D01*
X71732440Y25409177D01*
X71732437Y25409162D01*
X71732432Y25409145D01*
X71730747Y25402387D01*
X71724571Y25382437D01*
X71718645Y25362300D01*
X71646353Y25154704D01*
X71644011Y25148127D01*
X71635900Y25128831D01*
X71628052Y25109408D01*
X71535851Y24909867D01*
X71535847Y24909858D01*
X71535846Y24909857D01*
X71532874Y24903540D01*
X71522906Y24885105D01*
X71513215Y24866568D01*
X71401987Y24676983D01*
X71401977Y24676965D01*
X71401964Y24676945D01*
X71398402Y24670970D01*
X71386714Y24653641D01*
X71375228Y24636090D01*
X71246018Y24458248D01*
X71241875Y24452629D01*
X71228538Y24436507D01*
X71215410Y24420179D01*
X71069468Y24255800D01*
X71069462Y24255792D01*
X71069453Y24255783D01*
X71064793Y24250607D01*
X71049928Y24235845D01*
X71035283Y24220891D01*
X70874002Y24071544D01*
X70873992Y24071534D01*
X70873980Y24071524D01*
X70868836Y24066827D01*
X70852623Y24053604D01*
X70836571Y24040135D01*
X70661485Y23907238D01*
X70661476Y23907230D01*
X70661464Y23907222D01*
X70655885Y23903048D01*
X70638437Y23891455D01*
X70621169Y23879632D01*
X70433945Y23764450D01*
X70433939Y23764446D01*
X70433932Y23764442D01*
X70427968Y23760831D01*
X70409516Y23751019D01*
X70391132Y23740913D01*
X70193562Y23644552D01*
X70193554Y23644547D01*
X70193544Y23644543D01*
X70187259Y23641532D01*
X70167923Y23633562D01*
X70148654Y23625304D01*
X69942617Y23548680D01*
X69936057Y23546292D01*
X69916020Y23540242D01*
X69896055Y23533909D01*
X69683524Y23477756D01*
X69676762Y23476020D01*
X69656227Y23471954D01*
X69635742Y23467600D01*
X69418746Y23432454D01*
X69411847Y23431386D01*
X69390998Y23429342D01*
X69370201Y23427009D01*
X69150827Y23413207D01*
X69150809Y23413205D01*
X69150788Y23413205D01*
X69143840Y23412816D01*
X69122908Y23412816D01*
X69101965Y23412524D01*
X68882295Y23420195D01*
X68882275Y23420195D01*
X68882251Y23420197D01*
X68875300Y23420488D01*
X68854495Y23422528D01*
X68833597Y23424283D01*
X68615706Y23453356D01*
X68615703Y23453356D01*
X68615700Y23453357D01*
X68608791Y23454328D01*
X68588253Y23458394D01*
X68567657Y23462175D01*
X68353648Y23512370D01*
X68353639Y23512372D01*
X68353628Y23512375D01*
X68346855Y23514013D01*
X68326781Y23520074D01*
X68306683Y23525837D01*
X68098599Y23596674D01*
X68098587Y23596678D01*
X68098573Y23596683D01*
X68091994Y23598975D01*
X68072683Y23606934D01*
X68053168Y23614661D01*
X67852985Y23705468D01*
X67852977Y23705471D01*
X67852968Y23705476D01*
X67846641Y23708399D01*
X67828176Y23718217D01*
X67809530Y23727800D01*
X67619157Y23837712D01*
X67613136Y23841245D01*
X67595722Y23852815D01*
X67578096Y23864174D01*
X67399356Y23992139D01*
X67393708Y23996243D01*
X67377501Y24009461D01*
X67361072Y24022482D01*
X67195684Y24167270D01*
X67195673Y24167278D01*
X67195662Y24167289D01*
X67190454Y24171913D01*
X67175624Y24186640D01*
X67160534Y24201212D01*
X67010065Y24361446D01*
X67010055Y24361456D01*
X67010044Y24361468D01*
X67005312Y24366579D01*
X66991981Y24382693D01*
X66978395Y24398657D01*
X66844270Y24572820D01*
X66840049Y24578381D01*
X66828341Y24595739D01*
X66816390Y24612935D01*
X66699910Y24799343D01*
X66699900Y24799357D01*
X66699890Y24799375D01*
X66696243Y24805303D01*
X66686298Y24823696D01*
X66676069Y24841999D01*
X66578328Y25038898D01*
X66575268Y25045173D01*
X66567171Y25064434D01*
X66558771Y25083661D01*
X66480710Y25289158D01*
X66478277Y25295702D01*
X66472096Y25315671D01*
X66465615Y25335617D01*
X66407979Y25547750D01*
X66406196Y25554500D01*
X66401987Y25575006D01*
X66397489Y25595463D01*
X66360832Y25812195D01*
X66360830Y25812205D01*
X66360829Y25812216D01*
X66359714Y25819100D01*
X66357531Y25839874D01*
X66355046Y25860710D01*
X66339711Y26080000D01*
X66339273Y26086967D01*
X66339126Y26107915D01*
X66338761Y26125366D01*
X67338981Y26125366D01*
X67350904Y25954860D01*
X67379406Y25786346D01*
X67424219Y25621407D01*
X67484914Y25461627D01*
X67560909Y25308535D01*
X67651480Y25163591D01*
X67755768Y25028172D01*
X67872765Y24903584D01*
X68001359Y24791008D01*
X68140335Y24691511D01*
X68288354Y24606052D01*
X68444005Y24535446D01*
X68605803Y24480365D01*
X68772192Y24441339D01*
X68941620Y24418732D01*
X69112425Y24412767D01*
X69283000Y24423499D01*
X69451717Y24450826D01*
X69616974Y24494488D01*
X69777158Y24554060D01*
X69930781Y24628987D01*
X70076358Y24718547D01*
X70212499Y24821884D01*
X70337898Y24938004D01*
X70451376Y25065818D01*
X70551838Y25204092D01*
X70638329Y25351513D01*
X70710017Y25506659D01*
X70766227Y25668075D01*
X70806415Y25834192D01*
X70830203Y26003452D01*
X70837360Y26174212D01*
X70827819Y26344860D01*
X70801672Y26513760D01*
X70759164Y26679320D01*
X70700712Y26839915D01*
X70626857Y26994061D01*
X70538322Y27140251D01*
X70435941Y27277108D01*
X70320685Y27403329D01*
X70193675Y27517689D01*
X70056100Y27619117D01*
X69909297Y27706630D01*
X69754650Y27779401D01*
X69593630Y27836738D01*
X69427795Y27878085D01*
X69258710Y27903054D01*
X69079266Y27911830D01*
X69047867Y27911391D01*
X68868748Y27897609D01*
X68700419Y27867928D01*
X68535809Y27821968D01*
X68376452Y27760157D01*
X68223898Y27683097D01*
X68079584Y27591512D01*
X67944902Y27486287D01*
X67821132Y27368422D01*
X67709456Y27239044D01*
X67610930Y27099375D01*
X67526508Y26950765D01*
X67456992Y26794631D01*
X67403040Y26632447D01*
X67365175Y26465781D01*
X67343753Y26296213D01*
X67338981Y26125366D01*
X66338761Y26125366D01*
X66338688Y26128841D01*
X66344826Y26348579D01*
X66345070Y26355556D01*
X66346967Y26376399D01*
X66348574Y26397286D01*
X66376124Y26615360D01*
X66376125Y26615373D01*
X66376127Y26615387D01*
X66377049Y26622296D01*
X66380971Y26642854D01*
X66384608Y26663480D01*
X66433309Y26877843D01*
X66434903Y26884639D01*
X66440809Y26904707D01*
X66446446Y26924895D01*
X66515830Y27133469D01*
X66515833Y27133481D01*
X66515839Y27133495D01*
X66518083Y27140088D01*
X66525921Y27159488D01*
X66533499Y27179024D01*
X66622905Y27379832D01*
X66622909Y27379842D01*
X66622914Y27379853D01*
X66625794Y27386201D01*
X66635484Y27404737D01*
X66644934Y27423444D01*
X66753514Y27614580D01*
X66757005Y27620626D01*
X66768459Y27638130D01*
X66779690Y27655827D01*
X66906404Y27835455D01*
X66910468Y27841131D01*
X66923586Y27857447D01*
X66936478Y27873947D01*
X67080101Y28040337D01*
X67080116Y28040356D01*
X67080136Y28040377D01*
X67084713Y28045606D01*
X67099346Y28060549D01*
X67113804Y28075731D01*
X67272995Y28227326D01*
X67278084Y28232105D01*
X67294144Y28245581D01*
X67309973Y28259244D01*
X67483195Y28394581D01*
X67488727Y28398840D01*
X67505961Y28410641D01*
X67523113Y28422740D01*
X67708718Y28540528D01*
X67708719Y28540529D01*
X67708726Y28540533D01*
X67714638Y28544227D01*
X67732969Y28554305D01*
X67751194Y28564658D01*
X67947406Y28663771D01*
X67953659Y28666875D01*
X67972883Y28675114D01*
X67992030Y28683639D01*
X68196977Y28763133D01*
X68203503Y28765612D01*
X68223474Y28771947D01*
X68243330Y28778552D01*
X68455037Y28837662D01*
X68455056Y28837668D01*
X68455078Y28837673D01*
X68461793Y28839497D01*
X68482221Y28843839D01*
X68502692Y28848490D01*
X68719176Y28886662D01*
X68726060Y28887826D01*
X68746857Y28890159D01*
X68767640Y28892784D01*
X68986816Y28909649D01*
X68993780Y28910136D01*
X69005998Y28910307D01*
X69018197Y28911074D01*
X69081021Y28911951D01*
X69088002Y28912000D01*
X69100210Y28911403D01*
G37*
%TD.AperFunction*%
%TD*%
D12*
%TO.P,J4,1*%
%TO.N,+3V3*%
X10668000Y50292000D03*
D11*
%TO.P,J4,2*%
%TO.N,/CONN_ADC1*%
X13208000Y50292000D03*
%TO.P,J4,3*%
%TO.N,GND*%
X15748000Y50292000D03*
%TO.P,J4,4*%
%TO.N,/CONN_ADC2*%
X18288000Y50292000D03*
%TO.P,J4,5*%
%TO.N,GND*%
X20828000Y50292000D03*
%TO.P,J4,6*%
%TO.N,/CONN_ADC3*%
X23368000Y50292000D03*
%TO.P,J4,7*%
%TO.N,GND*%
X25908000Y50292000D03*
%TO.P,J4,8*%
%TO.N,/CONN_ADC4*%
X28448000Y50292000D03*
%TD*%
%TO.P,C1,1*%
%TO.N,+BATT*%
%TA.AperFunction,SMDPad,CuDef*%
G36*
G01*
X9913000Y17213000D02*
X9913000Y19363000D01*
G75*
G02*
X10163000Y19613000I250000J0D01*
G01*
X10913000Y19613000D01*
G75*
G02*
X11163000Y19363000I0J-250000D01*
G01*
X11163000Y17213000D01*
G75*
G02*
X10913000Y16963000I-250000J0D01*
G01*
X10163000Y16963000D01*
G75*
G02*
X9913000Y17213000I0J250000D01*
G01*
G37*
%TD.AperFunction*%
%TO.P,C1,2*%
%TO.N,GND*%
%TA.AperFunction,SMDPad,CuDef*%
G36*
G01*
X12713000Y17213000D02*
X12713000Y19363000D01*
G75*
G02*
X12963000Y19613000I250000J0D01*
G01*
X13713000Y19613000D01*
G75*
G02*
X13963000Y19363000I0J-250000D01*
G01*
X13963000Y17213000D01*
G75*
G02*
X13713000Y16963000I-250000J0D01*
G01*
X12963000Y16963000D01*
G75*
G02*
X12713000Y17213000I0J250000D01*
G01*
G37*
%TD.AperFunction*%
%TD*%
%TO.P,C2,2*%
%TO.N,GND*%
%TA.AperFunction,SMDPad,CuDef*%
G36*
G01*
X12713000Y21404000D02*
X12713000Y23554000D01*
G75*
G02*
X12963000Y23804000I250000J0D01*
G01*
X13713000Y23804000D01*
G75*
G02*
X13963000Y23554000I0J-250000D01*
G01*
X13963000Y21404000D01*
G75*
G02*
X13713000Y21154000I-250000J0D01*
G01*
X12963000Y21154000D01*
G75*
G02*
X12713000Y21404000I0J250000D01*
G01*
G37*
%TD.AperFunction*%
%TO.P,C2,1*%
%TO.N,+BATT*%
%TA.AperFunction,SMDPad,CuDef*%
G36*
G01*
X9913000Y21404000D02*
X9913000Y23554000D01*
G75*
G02*
X10163000Y23804000I250000J0D01*
G01*
X10913000Y23804000D01*
G75*
G02*
X11163000Y23554000I0J-250000D01*
G01*
X11163000Y21404000D01*
G75*
G02*
X10913000Y21154000I-250000J0D01*
G01*
X10163000Y21154000D01*
G75*
G02*
X9913000Y21404000I0J250000D01*
G01*
G37*
%TD.AperFunction*%
%TD*%
%TO.P,C3,2*%
%TO.N,/P5V_VCC*%
%TA.AperFunction,SMDPad,CuDef*%
G36*
G01*
X23546750Y37269000D02*
X24459250Y37269000D01*
G75*
G02*
X24703000Y37025250I0J-243750D01*
G01*
X24703000Y36537750D01*
G75*
G02*
X24459250Y36294000I-243750J0D01*
G01*
X23546750Y36294000D01*
G75*
G02*
X23303000Y36537750I0J243750D01*
G01*
X23303000Y37025250D01*
G75*
G02*
X23546750Y37269000I243750J0D01*
G01*
G37*
%TD.AperFunction*%
%TO.P,C3,1*%
%TO.N,+BATT*%
%TA.AperFunction,SMDPad,CuDef*%
G36*
G01*
X23546750Y39144000D02*
X24459250Y39144000D01*
G75*
G02*
X24703000Y38900250I0J-243750D01*
G01*
X24703000Y38412750D01*
G75*
G02*
X24459250Y38169000I-243750J0D01*
G01*
X23546750Y38169000D01*
G75*
G02*
X23303000Y38412750I0J243750D01*
G01*
X23303000Y38900250D01*
G75*
G02*
X23546750Y39144000I243750J0D01*
G01*
G37*
%TD.AperFunction*%
%TD*%
%TO.P,C4,1*%
%TO.N,+BATT*%
%TA.AperFunction,SMDPad,CuDef*%
G36*
G01*
X24459250Y40104000D02*
X23546750Y40104000D01*
G75*
G02*
X23303000Y40347750I0J243750D01*
G01*
X23303000Y40835250D01*
G75*
G02*
X23546750Y41079000I243750J0D01*
G01*
X24459250Y41079000D01*
G75*
G02*
X24703000Y40835250I0J-243750D01*
G01*
X24703000Y40347750D01*
G75*
G02*
X24459250Y40104000I-243750J0D01*
G01*
G37*
%TD.AperFunction*%
%TO.P,C4,2*%
%TO.N,/P5V_ADJ*%
%TA.AperFunction,SMDPad,CuDef*%
G36*
G01*
X24459250Y41979000D02*
X23546750Y41979000D01*
G75*
G02*
X23303000Y42222750I0J243750D01*
G01*
X23303000Y42710250D01*
G75*
G02*
X23546750Y42954000I243750J0D01*
G01*
X24459250Y42954000D01*
G75*
G02*
X24703000Y42710250I0J-243750D01*
G01*
X24703000Y42222750D01*
G75*
G02*
X24459250Y41979000I-243750J0D01*
G01*
G37*
%TD.AperFunction*%
%TD*%
%TO.P,C5,1*%
%TO.N,/P5V_AC*%
%TA.AperFunction,SMDPad,CuDef*%
G36*
G01*
X20371750Y47780000D02*
X21284250Y47780000D01*
G75*
G02*
X21528000Y47536250I0J-243750D01*
G01*
X21528000Y47048750D01*
G75*
G02*
X21284250Y46805000I-243750J0D01*
G01*
X20371750Y46805000D01*
G75*
G02*
X20128000Y47048750I0J243750D01*
G01*
X20128000Y47536250D01*
G75*
G02*
X20371750Y47780000I243750J0D01*
G01*
G37*
%TD.AperFunction*%
%TO.P,C5,2*%
%TO.N,Net-(C5-Pad2)*%
%TA.AperFunction,SMDPad,CuDef*%
G36*
G01*
X20371750Y45905000D02*
X21284250Y45905000D01*
G75*
G02*
X21528000Y45661250I0J-243750D01*
G01*
X21528000Y45173750D01*
G75*
G02*
X21284250Y44930000I-243750J0D01*
G01*
X20371750Y44930000D01*
G75*
G02*
X20128000Y45173750I0J243750D01*
G01*
X20128000Y45661250D01*
G75*
G02*
X20371750Y45905000I243750J0D01*
G01*
G37*
%TD.AperFunction*%
%TD*%
%TO.P,C6,2*%
%TO.N,/P5V_AC*%
%TA.AperFunction,SMDPad,CuDef*%
G36*
G01*
X16204250Y46805000D02*
X15291750Y46805000D01*
G75*
G02*
X15048000Y47048750I0J243750D01*
G01*
X15048000Y47536250D01*
G75*
G02*
X15291750Y47780000I243750J0D01*
G01*
X16204250Y47780000D01*
G75*
G02*
X16448000Y47536250I0J-243750D01*
G01*
X16448000Y47048750D01*
G75*
G02*
X16204250Y46805000I-243750J0D01*
G01*
G37*
%TD.AperFunction*%
%TO.P,C6,1*%
%TO.N,+5V*%
%TA.AperFunction,SMDPad,CuDef*%
G36*
G01*
X16204250Y44930000D02*
X15291750Y44930000D01*
G75*
G02*
X15048000Y45173750I0J243750D01*
G01*
X15048000Y45661250D01*
G75*
G02*
X15291750Y45905000I243750J0D01*
G01*
X16204250Y45905000D01*
G75*
G02*
X16448000Y45661250I0J-243750D01*
G01*
X16448000Y45173750D01*
G75*
G02*
X16204250Y44930000I-243750J0D01*
G01*
G37*
%TD.AperFunction*%
%TD*%
%TO.P,C7,2*%
%TO.N,GND*%
%TA.AperFunction,SMDPad,CuDef*%
G36*
G01*
X39507000Y44945000D02*
X40757000Y44945000D01*
G75*
G02*
X41007000Y44695000I0J-250000D01*
G01*
X41007000Y43945000D01*
G75*
G02*
X40757000Y43695000I-250000J0D01*
G01*
X39507000Y43695000D01*
G75*
G02*
X39257000Y43945000I0J250000D01*
G01*
X39257000Y44695000D01*
G75*
G02*
X39507000Y44945000I250000J0D01*
G01*
G37*
%TD.AperFunction*%
%TO.P,C7,1*%
%TO.N,+5V*%
%TA.AperFunction,SMDPad,CuDef*%
G36*
G01*
X39507000Y47745000D02*
X40757000Y47745000D01*
G75*
G02*
X41007000Y47495000I0J-250000D01*
G01*
X41007000Y46745000D01*
G75*
G02*
X40757000Y46495000I-250000J0D01*
G01*
X39507000Y46495000D01*
G75*
G02*
X39257000Y46745000I0J250000D01*
G01*
X39257000Y47495000D01*
G75*
G02*
X39507000Y47745000I250000J0D01*
G01*
G37*
%TD.AperFunction*%
%TD*%
%TO.P,C8,1*%
%TO.N,+5V*%
%TA.AperFunction,SMDPad,CuDef*%
G36*
G01*
X36713000Y47745000D02*
X37963000Y47745000D01*
G75*
G02*
X38213000Y47495000I0J-250000D01*
G01*
X38213000Y46745000D01*
G75*
G02*
X37963000Y46495000I-250000J0D01*
G01*
X36713000Y46495000D01*
G75*
G02*
X36463000Y46745000I0J250000D01*
G01*
X36463000Y47495000D01*
G75*
G02*
X36713000Y47745000I250000J0D01*
G01*
G37*
%TD.AperFunction*%
%TO.P,C8,2*%
%TO.N,GND*%
%TA.AperFunction,SMDPad,CuDef*%
G36*
G01*
X36713000Y44945000D02*
X37963000Y44945000D01*
G75*
G02*
X38213000Y44695000I0J-250000D01*
G01*
X38213000Y43945000D01*
G75*
G02*
X37963000Y43695000I-250000J0D01*
G01*
X36713000Y43695000D01*
G75*
G02*
X36463000Y43945000I0J250000D01*
G01*
X36463000Y44695000D01*
G75*
G02*
X36713000Y44945000I250000J0D01*
G01*
G37*
%TD.AperFunction*%
%TD*%
D17*
%TO.P,D1,1*%
%TO.N,/MATE_NET_TXD*%
X2159000Y12189000D03*
%TO.P,D1,2*%
%TO.N,GND*%
X2159000Y14989000D03*
%TD*%
%TO.P,D2,2*%
%TO.N,GND*%
X4953000Y14989000D03*
%TO.P,D2,1*%
%TO.N,/MATE_NET_RXD*%
X4953000Y12189000D03*
%TD*%
%TO.P,D3,1*%
%TO.N,/PBATT_CONN*%
X7747000Y12189000D03*
%TO.P,D3,2*%
%TO.N,GND*%
X7747000Y14989000D03*
%TD*%
D18*
%TO.P,D4,1*%
%TO.N,+BATT*%
X6953000Y20320000D03*
%TO.P,D4,2*%
%TO.N,/PBATT_CONN*%
X2953000Y20320000D03*
%TD*%
D19*
%TO.P,D5,1*%
%TO.N,/P5V_SW*%
X16002000Y37624000D03*
%TO.P,D5,2*%
%TO.N,GND*%
X16002000Y41624000D03*
%TD*%
%TO.P,D6,1*%
%TO.N,/P5V_K*%
%TA.AperFunction,SMDPad,CuDef*%
G36*
G01*
X10811500Y47755000D02*
X11286500Y47755000D01*
G75*
G02*
X11524000Y47517500I0J-237500D01*
G01*
X11524000Y46942500D01*
G75*
G02*
X11286500Y46705000I-237500J0D01*
G01*
X10811500Y46705000D01*
G75*
G02*
X10574000Y46942500I0J237500D01*
G01*
X10574000Y47517500D01*
G75*
G02*
X10811500Y47755000I237500J0D01*
G01*
G37*
%TD.AperFunction*%
%TO.P,D6,2*%
%TO.N,+5V*%
%TA.AperFunction,SMDPad,CuDef*%
G36*
G01*
X10811500Y46005000D02*
X11286500Y46005000D01*
G75*
G02*
X11524000Y45767500I0J-237500D01*
G01*
X11524000Y45192500D01*
G75*
G02*
X11286500Y44955000I-237500J0D01*
G01*
X10811500Y44955000D01*
G75*
G02*
X10574000Y45192500I0J237500D01*
G01*
X10574000Y45767500D01*
G75*
G02*
X10811500Y46005000I237500J0D01*
G01*
G37*
%TD.AperFunction*%
%TD*%
%TO.P,D7,2*%
%TO.N,+3V3*%
%TA.AperFunction,SMDPad,CuDef*%
G36*
G01*
X66150500Y49880000D02*
X65675500Y49880000D01*
G75*
G02*
X65438000Y50117500I0J237500D01*
G01*
X65438000Y50692500D01*
G75*
G02*
X65675500Y50930000I237500J0D01*
G01*
X66150500Y50930000D01*
G75*
G02*
X66388000Y50692500I0J-237500D01*
G01*
X66388000Y50117500D01*
G75*
G02*
X66150500Y49880000I-237500J0D01*
G01*
G37*
%TD.AperFunction*%
%TO.P,D7,1*%
%TO.N,/P3V3_K*%
%TA.AperFunction,SMDPad,CuDef*%
G36*
G01*
X66150500Y48130000D02*
X65675500Y48130000D01*
G75*
G02*
X65438000Y48367500I0J237500D01*
G01*
X65438000Y48942500D01*
G75*
G02*
X65675500Y49180000I237500J0D01*
G01*
X66150500Y49180000D01*
G75*
G02*
X66388000Y48942500I0J-237500D01*
G01*
X66388000Y48367500D01*
G75*
G02*
X66150500Y48130000I-237500J0D01*
G01*
G37*
%TD.AperFunction*%
%TD*%
%TO.P,D8,1*%
%TO.N,/MAG_NET_GND_R*%
%TA.AperFunction,SMDPad,CuDef*%
G36*
G01*
X60068000Y23384500D02*
X60068000Y23859500D01*
G75*
G02*
X60305500Y24097000I237500J0D01*
G01*
X60880500Y24097000D01*
G75*
G02*
X61118000Y23859500I0J-237500D01*
G01*
X61118000Y23384500D01*
G75*
G02*
X60880500Y23147000I-237500J0D01*
G01*
X60305500Y23147000D01*
G75*
G02*
X60068000Y23384500I0J237500D01*
G01*
G37*
%TD.AperFunction*%
%TO.P,D8,2*%
%TO.N,/MAG_NET_P14V_K*%
%TA.AperFunction,SMDPad,CuDef*%
G36*
G01*
X61818000Y23384500D02*
X61818000Y23859500D01*
G75*
G02*
X62055500Y24097000I237500J0D01*
G01*
X62630500Y24097000D01*
G75*
G02*
X62868000Y23859500I0J-237500D01*
G01*
X62868000Y23384500D01*
G75*
G02*
X62630500Y23147000I-237500J0D01*
G01*
X62055500Y23147000D01*
G75*
G02*
X61818000Y23384500I0J237500D01*
G01*
G37*
%TD.AperFunction*%
%TD*%
%TO.P,D9,1*%
%TO.N,/MAG_NET_P14V_R*%
%TA.AperFunction,SMDPad,CuDef*%
G36*
G01*
X60068000Y9414500D02*
X60068000Y9889500D01*
G75*
G02*
X60305500Y10127000I237500J0D01*
G01*
X60880500Y10127000D01*
G75*
G02*
X61118000Y9889500I0J-237500D01*
G01*
X61118000Y9414500D01*
G75*
G02*
X60880500Y9177000I-237500J0D01*
G01*
X60305500Y9177000D01*
G75*
G02*
X60068000Y9414500I0J237500D01*
G01*
G37*
%TD.AperFunction*%
%TO.P,D9,2*%
%TO.N,/MAG_NET_GND_K*%
%TA.AperFunction,SMDPad,CuDef*%
G36*
G01*
X61818000Y9414500D02*
X61818000Y9889500D01*
G75*
G02*
X62055500Y10127000I237500J0D01*
G01*
X62630500Y10127000D01*
G75*
G02*
X62868000Y9889500I0J-237500D01*
G01*
X62868000Y9414500D01*
G75*
G02*
X62630500Y9177000I-237500J0D01*
G01*
X62055500Y9177000D01*
G75*
G02*
X61818000Y9414500I0J237500D01*
G01*
G37*
%TD.AperFunction*%
%TD*%
%TO.P,D10,2*%
%TO.N,+3V3*%
%TA.AperFunction,SMDPad,CuDef*%
G36*
G01*
X61818000Y18304500D02*
X61818000Y18779500D01*
G75*
G02*
X62055500Y19017000I237500J0D01*
G01*
X62630500Y19017000D01*
G75*
G02*
X62868000Y18779500I0J-237500D01*
G01*
X62868000Y18304500D01*
G75*
G02*
X62630500Y18067000I-237500J0D01*
G01*
X62055500Y18067000D01*
G75*
G02*
X61818000Y18304500I0J237500D01*
G01*
G37*
%TD.AperFunction*%
%TO.P,D10,1*%
%TO.N,/PB_D2_R*%
%TA.AperFunction,SMDPad,CuDef*%
G36*
G01*
X60068000Y18304500D02*
X60068000Y18779500D01*
G75*
G02*
X60305500Y19017000I237500J0D01*
G01*
X60880500Y19017000D01*
G75*
G02*
X61118000Y18779500I0J-237500D01*
G01*
X61118000Y18304500D01*
G75*
G02*
X60880500Y18067000I-237500J0D01*
G01*
X60305500Y18067000D01*
G75*
G02*
X60068000Y18304500I0J237500D01*
G01*
G37*
%TD.AperFunction*%
%TD*%
D17*
%TO.P,D11,2*%
%TO.N,/MAG_NET_GND*%
X57661000Y20447000D03*
%TO.P,D11,1*%
%TO.N,/MAG_NET_P14V*%
X54861000Y20447000D03*
%TD*%
D18*
%TO.P,D12,2*%
%TO.N,/MAG_NET_GND*%
X71850000Y13081000D03*
%TO.P,D12,1*%
%TO.N,/MAG_NET_GND_K*%
X67850000Y13081000D03*
%TD*%
%TO.P,D13,2*%
%TO.N,/MAG_NET_P14V*%
X71850000Y19812000D03*
%TO.P,D13,1*%
%TO.N,/MAG_NET_P14V_K*%
X67850000Y19812000D03*
%TD*%
D12*
%TO.P,J3,1*%
%TO.N,+3V3*%
X69088000Y50292000D03*
D11*
%TO.P,J3,2*%
%TO.N,/PB_SDA*%
X69088000Y47752000D03*
%TO.P,J3,3*%
%TO.N,GND*%
X71628000Y50292000D03*
%TO.P,J3,4*%
%TO.N,/PB_SCL*%
X71628000Y47752000D03*
%TD*%
D20*
%TO.P,J2,6*%
%TO.N,Net-(J2-Pad6)*%
X40513000Y14097000D03*
%TO.P,J2,5*%
%TO.N,/MAG_NET_B*%
X39243000Y16637000D03*
%TO.P,J2,4*%
%TO.N,/MAG_NET_P14V*%
X37973000Y14097000D03*
%TO.P,J2,3*%
%TO.N,/MAG_NET_GND*%
X36703000Y16637000D03*
%TO.P,J2,2*%
%TO.N,/MAG_NET_A*%
X35433000Y14097000D03*
D21*
%TO.P,J2,1*%
%TO.N,Net-(J2-Pad1)*%
X34163000Y16637000D03*
%TD*%
%TO.P,J1,1*%
%TO.N,Net-(J1-Pad1)*%
X48768000Y16637000D03*
D20*
%TO.P,J1,2*%
%TO.N,/MAG_NET_B*%
X50038000Y14097000D03*
%TO.P,J1,3*%
%TO.N,/MAG_NET_P14V*%
X51308000Y16637000D03*
%TO.P,J1,4*%
%TO.N,/MAG_NET_GND*%
X52578000Y14097000D03*
%TO.P,J1,5*%
%TO.N,/MAG_NET_A*%
X53848000Y16637000D03*
%TO.P,J1,6*%
%TO.N,Net-(J1-Pad6)*%
X55118000Y14097000D03*
%TD*%
D22*
%TO.P,L1,2*%
%TO.N,+5V*%
X2062000Y36322000D03*
%TO.P,L1,1*%
%TO.N,/P5V_SW*%
X12162000Y36322000D03*
%TD*%
D23*
%TO.P,Q1,1*%
%TO.N,/P5V_PGATE*%
X16952000Y34020000D03*
%TO.P,Q1,2*%
%TO.N,/P5V_ISEN*%
X15052000Y34020000D03*
%TO.P,Q1,3*%
%TO.N,/P5V_SW*%
X16002000Y32020000D03*
%TD*%
%TO.P,R1,1*%
%TO.N,/MATE_NET_IND_R*%
%TA.AperFunction,SMDPad,CuDef*%
G36*
G01*
X21999000Y18236250D02*
X21999000Y17323750D01*
G75*
G02*
X21755250Y17080000I-243750J0D01*
G01*
X21267750Y17080000D01*
G75*
G02*
X21024000Y17323750I0J243750D01*
G01*
X21024000Y18236250D01*
G75*
G02*
X21267750Y18480000I243750J0D01*
G01*
X21755250Y18480000D01*
G75*
G02*
X21999000Y18236250I0J-243750D01*
G01*
G37*
%TD.AperFunction*%
%TO.P,R1,2*%
%TO.N,/MATE_NET_IND_A*%
%TA.AperFunction,SMDPad,CuDef*%
G36*
G01*
X20124000Y18236250D02*
X20124000Y17323750D01*
G75*
G02*
X19880250Y17080000I-243750J0D01*
G01*
X19392750Y17080000D01*
G75*
G02*
X19149000Y17323750I0J243750D01*
G01*
X19149000Y18236250D01*
G75*
G02*
X19392750Y18480000I243750J0D01*
G01*
X19880250Y18480000D01*
G75*
G02*
X20124000Y18236250I0J-243750D01*
G01*
G37*
%TD.AperFunction*%
%TD*%
%TO.P,R2,2*%
%TO.N,GND*%
%TA.AperFunction,SMDPad,CuDef*%
G36*
G01*
X27490000Y18236250D02*
X27490000Y17323750D01*
G75*
G02*
X27246250Y17080000I-243750J0D01*
G01*
X26758750Y17080000D01*
G75*
G02*
X26515000Y17323750I0J243750D01*
G01*
X26515000Y18236250D01*
G75*
G02*
X26758750Y18480000I243750J0D01*
G01*
X27246250Y18480000D01*
G75*
G02*
X27490000Y18236250I0J-243750D01*
G01*
G37*
%TD.AperFunction*%
%TO.P,R2,1*%
%TO.N,/PBATT_K*%
%TA.AperFunction,SMDPad,CuDef*%
G36*
G01*
X29365000Y18236250D02*
X29365000Y17323750D01*
G75*
G02*
X29121250Y17080000I-243750J0D01*
G01*
X28633750Y17080000D01*
G75*
G02*
X28390000Y17323750I0J243750D01*
G01*
X28390000Y18236250D01*
G75*
G02*
X28633750Y18480000I243750J0D01*
G01*
X29121250Y18480000D01*
G75*
G02*
X29365000Y18236250I0J-243750D01*
G01*
G37*
%TD.AperFunction*%
%TD*%
%TO.P,R3,2*%
%TO.N,Net-(R3-Pad2)*%
%TA.AperFunction,SMDPad,CuDef*%
G36*
G01*
X26086750Y37269000D02*
X26999250Y37269000D01*
G75*
G02*
X27243000Y37025250I0J-243750D01*
G01*
X27243000Y36537750D01*
G75*
G02*
X26999250Y36294000I-243750J0D01*
G01*
X26086750Y36294000D01*
G75*
G02*
X25843000Y36537750I0J243750D01*
G01*
X25843000Y37025250D01*
G75*
G02*
X26086750Y37269000I243750J0D01*
G01*
G37*
%TD.AperFunction*%
%TO.P,R3,1*%
%TO.N,+BATT*%
%TA.AperFunction,SMDPad,CuDef*%
G36*
G01*
X26086750Y39144000D02*
X26999250Y39144000D01*
G75*
G02*
X27243000Y38900250I0J-243750D01*
G01*
X27243000Y38412750D01*
G75*
G02*
X26999250Y38169000I-243750J0D01*
G01*
X26086750Y38169000D01*
G75*
G02*
X25843000Y38412750I0J243750D01*
G01*
X25843000Y38900250D01*
G75*
G02*
X26086750Y39144000I243750J0D01*
G01*
G37*
%TD.AperFunction*%
%TD*%
%TO.P,R4,1*%
%TO.N,/CONN_ADC4*%
%TA.AperFunction,SMDPad,CuDef*%
G36*
G01*
X41961750Y35334000D02*
X42874250Y35334000D01*
G75*
G02*
X43118000Y35090250I0J-243750D01*
G01*
X43118000Y34602750D01*
G75*
G02*
X42874250Y34359000I-243750J0D01*
G01*
X41961750Y34359000D01*
G75*
G02*
X41718000Y34602750I0J243750D01*
G01*
X41718000Y35090250D01*
G75*
G02*
X41961750Y35334000I243750J0D01*
G01*
G37*
%TD.AperFunction*%
%TO.P,R4,2*%
%TO.N,/PB_ADC4*%
%TA.AperFunction,SMDPad,CuDef*%
G36*
G01*
X41961750Y33459000D02*
X42874250Y33459000D01*
G75*
G02*
X43118000Y33215250I0J-243750D01*
G01*
X43118000Y32727750D01*
G75*
G02*
X42874250Y32484000I-243750J0D01*
G01*
X41961750Y32484000D01*
G75*
G02*
X41718000Y32727750I0J243750D01*
G01*
X41718000Y33215250D01*
G75*
G02*
X41961750Y33459000I243750J0D01*
G01*
G37*
%TD.AperFunction*%
%TD*%
%TO.P,R5,1*%
%TO.N,/MATE_NET_TXD*%
%TA.AperFunction,SMDPad,CuDef*%
G36*
G01*
X25682000Y18236250D02*
X25682000Y17323750D01*
G75*
G02*
X25438250Y17080000I-243750J0D01*
G01*
X24950750Y17080000D01*
G75*
G02*
X24707000Y17323750I0J243750D01*
G01*
X24707000Y18236250D01*
G75*
G02*
X24950750Y18480000I243750J0D01*
G01*
X25438250Y18480000D01*
G75*
G02*
X25682000Y18236250I0J-243750D01*
G01*
G37*
%TD.AperFunction*%
%TO.P,R5,2*%
%TO.N,GND*%
%TA.AperFunction,SMDPad,CuDef*%
G36*
G01*
X23807000Y18236250D02*
X23807000Y17323750D01*
G75*
G02*
X23563250Y17080000I-243750J0D01*
G01*
X23075750Y17080000D01*
G75*
G02*
X22832000Y17323750I0J243750D01*
G01*
X22832000Y18236250D01*
G75*
G02*
X23075750Y18480000I243750J0D01*
G01*
X23563250Y18480000D01*
G75*
G02*
X23807000Y18236250I0J-243750D01*
G01*
G37*
%TD.AperFunction*%
%TD*%
%TO.P,R6,2*%
%TO.N,GND*%
%TA.AperFunction,SMDPad,CuDef*%
G36*
G01*
X16441000Y18236250D02*
X16441000Y17323750D01*
G75*
G02*
X16197250Y17080000I-243750J0D01*
G01*
X15709750Y17080000D01*
G75*
G02*
X15466000Y17323750I0J243750D01*
G01*
X15466000Y18236250D01*
G75*
G02*
X15709750Y18480000I243750J0D01*
G01*
X16197250Y18480000D01*
G75*
G02*
X16441000Y18236250I0J-243750D01*
G01*
G37*
%TD.AperFunction*%
%TO.P,R6,1*%
%TO.N,/MATE_NET_RXD_K*%
%TA.AperFunction,SMDPad,CuDef*%
G36*
G01*
X18316000Y18236250D02*
X18316000Y17323750D01*
G75*
G02*
X18072250Y17080000I-243750J0D01*
G01*
X17584750Y17080000D01*
G75*
G02*
X17341000Y17323750I0J243750D01*
G01*
X17341000Y18236250D01*
G75*
G02*
X17584750Y18480000I243750J0D01*
G01*
X18072250Y18480000D01*
G75*
G02*
X18316000Y18236250I0J-243750D01*
G01*
G37*
%TD.AperFunction*%
%TD*%
%TO.P,R7,2*%
%TO.N,/PB_ADC3*%
%TA.AperFunction,SMDPad,CuDef*%
G36*
G01*
X39421750Y33459000D02*
X40334250Y33459000D01*
G75*
G02*
X40578000Y33215250I0J-243750D01*
G01*
X40578000Y32727750D01*
G75*
G02*
X40334250Y32484000I-243750J0D01*
G01*
X39421750Y32484000D01*
G75*
G02*
X39178000Y32727750I0J243750D01*
G01*
X39178000Y33215250D01*
G75*
G02*
X39421750Y33459000I243750J0D01*
G01*
G37*
%TD.AperFunction*%
%TO.P,R7,1*%
%TO.N,/CONN_ADC3*%
%TA.AperFunction,SMDPad,CuDef*%
G36*
G01*
X39421750Y35334000D02*
X40334250Y35334000D01*
G75*
G02*
X40578000Y35090250I0J-243750D01*
G01*
X40578000Y34602750D01*
G75*
G02*
X40334250Y34359000I-243750J0D01*
G01*
X39421750Y34359000D01*
G75*
G02*
X39178000Y34602750I0J243750D01*
G01*
X39178000Y35090250D01*
G75*
G02*
X39421750Y35334000I243750J0D01*
G01*
G37*
%TD.AperFunction*%
%TD*%
%TO.P,R8,2*%
%TO.N,/PB_ADC2*%
%TA.AperFunction,SMDPad,CuDef*%
G36*
G01*
X36881750Y33459000D02*
X37794250Y33459000D01*
G75*
G02*
X38038000Y33215250I0J-243750D01*
G01*
X38038000Y32727750D01*
G75*
G02*
X37794250Y32484000I-243750J0D01*
G01*
X36881750Y32484000D01*
G75*
G02*
X36638000Y32727750I0J243750D01*
G01*
X36638000Y33215250D01*
G75*
G02*
X36881750Y33459000I243750J0D01*
G01*
G37*
%TD.AperFunction*%
%TO.P,R8,1*%
%TO.N,/CONN_ADC2*%
%TA.AperFunction,SMDPad,CuDef*%
G36*
G01*
X36881750Y35334000D02*
X37794250Y35334000D01*
G75*
G02*
X38038000Y35090250I0J-243750D01*
G01*
X38038000Y34602750D01*
G75*
G02*
X37794250Y34359000I-243750J0D01*
G01*
X36881750Y34359000D01*
G75*
G02*
X36638000Y34602750I0J243750D01*
G01*
X36638000Y35090250D01*
G75*
G02*
X36881750Y35334000I243750J0D01*
G01*
G37*
%TD.AperFunction*%
%TD*%
%TO.P,R9,1*%
%TO.N,/CONN_ADC1*%
%TA.AperFunction,SMDPad,CuDef*%
G36*
G01*
X34341750Y35334000D02*
X35254250Y35334000D01*
G75*
G02*
X35498000Y35090250I0J-243750D01*
G01*
X35498000Y34602750D01*
G75*
G02*
X35254250Y34359000I-243750J0D01*
G01*
X34341750Y34359000D01*
G75*
G02*
X34098000Y34602750I0J243750D01*
G01*
X34098000Y35090250D01*
G75*
G02*
X34341750Y35334000I243750J0D01*
G01*
G37*
%TD.AperFunction*%
%TO.P,R9,2*%
%TO.N,/PB_ADC1*%
%TA.AperFunction,SMDPad,CuDef*%
G36*
G01*
X34341750Y33459000D02*
X35254250Y33459000D01*
G75*
G02*
X35498000Y33215250I0J-243750D01*
G01*
X35498000Y32727750D01*
G75*
G02*
X35254250Y32484000I-243750J0D01*
G01*
X34341750Y32484000D01*
G75*
G02*
X34098000Y32727750I0J243750D01*
G01*
X34098000Y33215250D01*
G75*
G02*
X34341750Y33459000I243750J0D01*
G01*
G37*
%TD.AperFunction*%
%TD*%
%TO.P,R10,2*%
%TO.N,/P5V_ADJ*%
%TA.AperFunction,SMDPad,CuDef*%
G36*
G01*
X26999250Y41979000D02*
X26086750Y41979000D01*
G75*
G02*
X25843000Y42222750I0J243750D01*
G01*
X25843000Y42710250D01*
G75*
G02*
X26086750Y42954000I243750J0D01*
G01*
X26999250Y42954000D01*
G75*
G02*
X27243000Y42710250I0J-243750D01*
G01*
X27243000Y42222750D01*
G75*
G02*
X26999250Y41979000I-243750J0D01*
G01*
G37*
%TD.AperFunction*%
%TO.P,R10,1*%
%TO.N,+BATT*%
%TA.AperFunction,SMDPad,CuDef*%
G36*
G01*
X26999250Y40104000D02*
X26086750Y40104000D01*
G75*
G02*
X25843000Y40347750I0J243750D01*
G01*
X25843000Y40835250D01*
G75*
G02*
X26086750Y41079000I243750J0D01*
G01*
X26999250Y41079000D01*
G75*
G02*
X27243000Y40835250I0J-243750D01*
G01*
X27243000Y40347750D01*
G75*
G02*
X26999250Y40104000I-243750J0D01*
G01*
G37*
%TD.AperFunction*%
%TD*%
%TO.P,R11,1*%
%TO.N,Net-(R11-Pad1)*%
%TA.AperFunction,SMDPad,CuDef*%
G36*
G01*
X31571250Y24610000D02*
X30658750Y24610000D01*
G75*
G02*
X30415000Y24853750I0J243750D01*
G01*
X30415000Y25341250D01*
G75*
G02*
X30658750Y25585000I243750J0D01*
G01*
X31571250Y25585000D01*
G75*
G02*
X31815000Y25341250I0J-243750D01*
G01*
X31815000Y24853750D01*
G75*
G02*
X31571250Y24610000I-243750J0D01*
G01*
G37*
%TD.AperFunction*%
%TO.P,R11,2*%
%TO.N,GND*%
%TA.AperFunction,SMDPad,CuDef*%
G36*
G01*
X31571250Y26485000D02*
X30658750Y26485000D01*
G75*
G02*
X30415000Y26728750I0J243750D01*
G01*
X30415000Y27216250D01*
G75*
G02*
X30658750Y27460000I243750J0D01*
G01*
X31571250Y27460000D01*
G75*
G02*
X31815000Y27216250I0J-243750D01*
G01*
X31815000Y26728750D01*
G75*
G02*
X31571250Y26485000I-243750J0D01*
G01*
G37*
%TD.AperFunction*%
%TD*%
%TO.P,R12,2*%
%TO.N,GND*%
%TA.AperFunction,SMDPad,CuDef*%
G36*
G01*
X33984250Y26485000D02*
X33071750Y26485000D01*
G75*
G02*
X32828000Y26728750I0J243750D01*
G01*
X32828000Y27216250D01*
G75*
G02*
X33071750Y27460000I243750J0D01*
G01*
X33984250Y27460000D01*
G75*
G02*
X34228000Y27216250I0J-243750D01*
G01*
X34228000Y26728750D01*
G75*
G02*
X33984250Y26485000I-243750J0D01*
G01*
G37*
%TD.AperFunction*%
%TO.P,R12,1*%
%TO.N,Net-(R12-Pad1)*%
%TA.AperFunction,SMDPad,CuDef*%
G36*
G01*
X33984250Y24610000D02*
X33071750Y24610000D01*
G75*
G02*
X32828000Y24853750I0J243750D01*
G01*
X32828000Y25341250D01*
G75*
G02*
X33071750Y25585000I243750J0D01*
G01*
X33984250Y25585000D01*
G75*
G02*
X34228000Y25341250I0J-243750D01*
G01*
X34228000Y24853750D01*
G75*
G02*
X33984250Y24610000I-243750J0D01*
G01*
G37*
%TD.AperFunction*%
%TD*%
%TO.P,R13,1*%
%TO.N,/PB_UART1_RX*%
%TA.AperFunction,SMDPad,CuDef*%
G36*
G01*
X55574250Y32484000D02*
X54661750Y32484000D01*
G75*
G02*
X54418000Y32727750I0J243750D01*
G01*
X54418000Y33215250D01*
G75*
G02*
X54661750Y33459000I243750J0D01*
G01*
X55574250Y33459000D01*
G75*
G02*
X55818000Y33215250I0J-243750D01*
G01*
X55818000Y32727750D01*
G75*
G02*
X55574250Y32484000I-243750J0D01*
G01*
G37*
%TD.AperFunction*%
%TO.P,R13,2*%
%TO.N,GND*%
%TA.AperFunction,SMDPad,CuDef*%
G36*
G01*
X55574250Y34359000D02*
X54661750Y34359000D01*
G75*
G02*
X54418000Y34602750I0J243750D01*
G01*
X54418000Y35090250D01*
G75*
G02*
X54661750Y35334000I243750J0D01*
G01*
X55574250Y35334000D01*
G75*
G02*
X55818000Y35090250I0J-243750D01*
G01*
X55818000Y34602750D01*
G75*
G02*
X55574250Y34359000I-243750J0D01*
G01*
G37*
%TD.AperFunction*%
%TD*%
%TO.P,R14,1*%
%TO.N,+BATT*%
%TA.AperFunction,SMDPad,CuDef*%
G36*
G01*
X12563000Y25153000D02*
X11313000Y25153000D01*
G75*
G02*
X11063000Y25403000I0J250000D01*
G01*
X11063000Y26153000D01*
G75*
G02*
X11313000Y26403000I250000J0D01*
G01*
X12563000Y26403000D01*
G75*
G02*
X12813000Y26153000I0J-250000D01*
G01*
X12813000Y25403000D01*
G75*
G02*
X12563000Y25153000I-250000J0D01*
G01*
G37*
%TD.AperFunction*%
%TO.P,R14,2*%
%TO.N,/P5V_ISEN*%
%TA.AperFunction,SMDPad,CuDef*%
G36*
G01*
X12563000Y27953000D02*
X11313000Y27953000D01*
G75*
G02*
X11063000Y28203000I0J250000D01*
G01*
X11063000Y28953000D01*
G75*
G02*
X11313000Y29203000I250000J0D01*
G01*
X12563000Y29203000D01*
G75*
G02*
X12813000Y28953000I0J-250000D01*
G01*
X12813000Y28203000D01*
G75*
G02*
X12563000Y27953000I-250000J0D01*
G01*
G37*
%TD.AperFunction*%
%TD*%
%TO.P,R16,1*%
%TO.N,/P5V_SW*%
%TA.AperFunction,SMDPad,CuDef*%
G36*
G01*
X18744250Y44930000D02*
X17831750Y44930000D01*
G75*
G02*
X17588000Y45173750I0J243750D01*
G01*
X17588000Y45661250D01*
G75*
G02*
X17831750Y45905000I243750J0D01*
G01*
X18744250Y45905000D01*
G75*
G02*
X18988000Y45661250I0J-243750D01*
G01*
X18988000Y45173750D01*
G75*
G02*
X18744250Y44930000I-243750J0D01*
G01*
G37*
%TD.AperFunction*%
%TO.P,R16,2*%
%TO.N,/P5V_AC*%
%TA.AperFunction,SMDPad,CuDef*%
G36*
G01*
X18744250Y46805000D02*
X17831750Y46805000D01*
G75*
G02*
X17588000Y47048750I0J243750D01*
G01*
X17588000Y47536250D01*
G75*
G02*
X17831750Y47780000I243750J0D01*
G01*
X18744250Y47780000D01*
G75*
G02*
X18988000Y47536250I0J-243750D01*
G01*
X18988000Y47048750D01*
G75*
G02*
X18744250Y46805000I-243750J0D01*
G01*
G37*
%TD.AperFunction*%
%TD*%
%TO.P,R17,2*%
%TO.N,Net-(C5-Pad2)*%
%TA.AperFunction,SMDPad,CuDef*%
G36*
G01*
X22911750Y45905000D02*
X23824250Y45905000D01*
G75*
G02*
X24068000Y45661250I0J-243750D01*
G01*
X24068000Y45173750D01*
G75*
G02*
X23824250Y44930000I-243750J0D01*
G01*
X22911750Y44930000D01*
G75*
G02*
X22668000Y45173750I0J243750D01*
G01*
X22668000Y45661250D01*
G75*
G02*
X22911750Y45905000I243750J0D01*
G01*
G37*
%TD.AperFunction*%
%TO.P,R17,1*%
%TO.N,+5V*%
%TA.AperFunction,SMDPad,CuDef*%
G36*
G01*
X22911750Y47780000D02*
X23824250Y47780000D01*
G75*
G02*
X24068000Y47536250I0J-243750D01*
G01*
X24068000Y47048750D01*
G75*
G02*
X23824250Y46805000I-243750J0D01*
G01*
X22911750Y46805000D01*
G75*
G02*
X22668000Y47048750I0J243750D01*
G01*
X22668000Y47536250D01*
G75*
G02*
X22911750Y47780000I243750J0D01*
G01*
G37*
%TD.AperFunction*%
%TD*%
%TO.P,R18,1*%
%TO.N,Net-(C5-Pad2)*%
%TA.AperFunction,SMDPad,CuDef*%
G36*
G01*
X26364250Y44930000D02*
X25451750Y44930000D01*
G75*
G02*
X25208000Y45173750I0J243750D01*
G01*
X25208000Y45661250D01*
G75*
G02*
X25451750Y45905000I243750J0D01*
G01*
X26364250Y45905000D01*
G75*
G02*
X26608000Y45661250I0J-243750D01*
G01*
X26608000Y45173750D01*
G75*
G02*
X26364250Y44930000I-243750J0D01*
G01*
G37*
%TD.AperFunction*%
%TO.P,R18,2*%
%TO.N,GND*%
%TA.AperFunction,SMDPad,CuDef*%
G36*
G01*
X26364250Y46805000D02*
X25451750Y46805000D01*
G75*
G02*
X25208000Y47048750I0J243750D01*
G01*
X25208000Y47536250D01*
G75*
G02*
X25451750Y47780000I243750J0D01*
G01*
X26364250Y47780000D01*
G75*
G02*
X26608000Y47536250I0J-243750D01*
G01*
X26608000Y47048750D01*
G75*
G02*
X26364250Y46805000I-243750J0D01*
G01*
G37*
%TD.AperFunction*%
%TD*%
%TO.P,R19,2*%
%TO.N,GND*%
%TA.AperFunction,SMDPad,CuDef*%
G36*
G01*
X12751750Y45905000D02*
X13664250Y45905000D01*
G75*
G02*
X13908000Y45661250I0J-243750D01*
G01*
X13908000Y45173750D01*
G75*
G02*
X13664250Y44930000I-243750J0D01*
G01*
X12751750Y44930000D01*
G75*
G02*
X12508000Y45173750I0J243750D01*
G01*
X12508000Y45661250D01*
G75*
G02*
X12751750Y45905000I243750J0D01*
G01*
G37*
%TD.AperFunction*%
%TO.P,R19,1*%
%TO.N,/P5V_K*%
%TA.AperFunction,SMDPad,CuDef*%
G36*
G01*
X12751750Y47780000D02*
X13664250Y47780000D01*
G75*
G02*
X13908000Y47536250I0J-243750D01*
G01*
X13908000Y47048750D01*
G75*
G02*
X13664250Y46805000I-243750J0D01*
G01*
X12751750Y46805000D01*
G75*
G02*
X12508000Y47048750I0J243750D01*
G01*
X12508000Y47536250D01*
G75*
G02*
X12751750Y47780000I243750J0D01*
G01*
G37*
%TD.AperFunction*%
%TD*%
%TO.P,R20,1*%
%TO.N,/P3V3_K*%
%TA.AperFunction,SMDPad,CuDef*%
G36*
G01*
X63956250Y48105000D02*
X63043750Y48105000D01*
G75*
G02*
X62800000Y48348750I0J243750D01*
G01*
X62800000Y48836250D01*
G75*
G02*
X63043750Y49080000I243750J0D01*
G01*
X63956250Y49080000D01*
G75*
G02*
X64200000Y48836250I0J-243750D01*
G01*
X64200000Y48348750D01*
G75*
G02*
X63956250Y48105000I-243750J0D01*
G01*
G37*
%TD.AperFunction*%
%TO.P,R20,2*%
%TO.N,GND*%
%TA.AperFunction,SMDPad,CuDef*%
G36*
G01*
X63956250Y49980000D02*
X63043750Y49980000D01*
G75*
G02*
X62800000Y50223750I0J243750D01*
G01*
X62800000Y50711250D01*
G75*
G02*
X63043750Y50955000I243750J0D01*
G01*
X63956250Y50955000D01*
G75*
G02*
X64200000Y50711250I0J-243750D01*
G01*
X64200000Y50223750D01*
G75*
G02*
X63956250Y49980000I-243750J0D01*
G01*
G37*
%TD.AperFunction*%
%TD*%
%TO.P,R21,2*%
%TO.N,/MAG_NET_GND*%
%TA.AperFunction,SMDPad,CuDef*%
G36*
G01*
X68268000Y16053750D02*
X68268000Y16966250D01*
G75*
G02*
X68511750Y17210000I243750J0D01*
G01*
X68999250Y17210000D01*
G75*
G02*
X69243000Y16966250I0J-243750D01*
G01*
X69243000Y16053750D01*
G75*
G02*
X68999250Y15810000I-243750J0D01*
G01*
X68511750Y15810000D01*
G75*
G02*
X68268000Y16053750I0J243750D01*
G01*
G37*
%TD.AperFunction*%
%TO.P,R21,1*%
%TO.N,/MAG_NET_GND_R*%
%TA.AperFunction,SMDPad,CuDef*%
G36*
G01*
X66393000Y16053750D02*
X66393000Y16966250D01*
G75*
G02*
X66636750Y17210000I243750J0D01*
G01*
X67124250Y17210000D01*
G75*
G02*
X67368000Y16966250I0J-243750D01*
G01*
X67368000Y16053750D01*
G75*
G02*
X67124250Y15810000I-243750J0D01*
G01*
X66636750Y15810000D01*
G75*
G02*
X66393000Y16053750I0J243750D01*
G01*
G37*
%TD.AperFunction*%
%TD*%
%TO.P,R22,1*%
%TO.N,/MAG_NET_P14V_R*%
%TA.AperFunction,SMDPad,CuDef*%
G36*
G01*
X60043000Y11354750D02*
X60043000Y12267250D01*
G75*
G02*
X60286750Y12511000I243750J0D01*
G01*
X60774250Y12511000D01*
G75*
G02*
X61018000Y12267250I0J-243750D01*
G01*
X61018000Y11354750D01*
G75*
G02*
X60774250Y11111000I-243750J0D01*
G01*
X60286750Y11111000D01*
G75*
G02*
X60043000Y11354750I0J243750D01*
G01*
G37*
%TD.AperFunction*%
%TO.P,R22,2*%
%TO.N,/MAG_NET_P14V*%
%TA.AperFunction,SMDPad,CuDef*%
G36*
G01*
X61918000Y11354750D02*
X61918000Y12267250D01*
G75*
G02*
X62161750Y12511000I243750J0D01*
G01*
X62649250Y12511000D01*
G75*
G02*
X62893000Y12267250I0J-243750D01*
G01*
X62893000Y11354750D01*
G75*
G02*
X62649250Y11111000I-243750J0D01*
G01*
X62161750Y11111000D01*
G75*
G02*
X61918000Y11354750I0J243750D01*
G01*
G37*
%TD.AperFunction*%
%TD*%
%TO.P,R23,1*%
%TO.N,/PB_D3*%
%TA.AperFunction,SMDPad,CuDef*%
G36*
G01*
X38786750Y27460000D02*
X39699250Y27460000D01*
G75*
G02*
X39943000Y27216250I0J-243750D01*
G01*
X39943000Y26728750D01*
G75*
G02*
X39699250Y26485000I-243750J0D01*
G01*
X38786750Y26485000D01*
G75*
G02*
X38543000Y26728750I0J243750D01*
G01*
X38543000Y27216250D01*
G75*
G02*
X38786750Y27460000I243750J0D01*
G01*
G37*
%TD.AperFunction*%
%TO.P,R23,2*%
%TO.N,/U5_EN*%
%TA.AperFunction,SMDPad,CuDef*%
G36*
G01*
X38786750Y25585000D02*
X39699250Y25585000D01*
G75*
G02*
X39943000Y25341250I0J-243750D01*
G01*
X39943000Y24853750D01*
G75*
G02*
X39699250Y24610000I-243750J0D01*
G01*
X38786750Y24610000D01*
G75*
G02*
X38543000Y24853750I0J243750D01*
G01*
X38543000Y25341250D01*
G75*
G02*
X38786750Y25585000I243750J0D01*
G01*
G37*
%TD.AperFunction*%
%TD*%
%TO.P,R24,2*%
%TO.N,/PB_D2*%
%TA.AperFunction,SMDPad,CuDef*%
G36*
G01*
X61918000Y20117750D02*
X61918000Y21030250D01*
G75*
G02*
X62161750Y21274000I243750J0D01*
G01*
X62649250Y21274000D01*
G75*
G02*
X62893000Y21030250I0J-243750D01*
G01*
X62893000Y20117750D01*
G75*
G02*
X62649250Y19874000I-243750J0D01*
G01*
X62161750Y19874000D01*
G75*
G02*
X61918000Y20117750I0J243750D01*
G01*
G37*
%TD.AperFunction*%
%TO.P,R24,1*%
%TO.N,/PB_D2_R*%
%TA.AperFunction,SMDPad,CuDef*%
G36*
G01*
X60043000Y20117750D02*
X60043000Y21030250D01*
G75*
G02*
X60286750Y21274000I243750J0D01*
G01*
X60774250Y21274000D01*
G75*
G02*
X61018000Y21030250I0J-243750D01*
G01*
X61018000Y20117750D01*
G75*
G02*
X60774250Y19874000I-243750J0D01*
G01*
X60286750Y19874000D01*
G75*
G02*
X60043000Y20117750I0J243750D01*
G01*
G37*
%TD.AperFunction*%
%TD*%
%TO.P,R25,1*%
%TO.N,/U5_EN*%
%TA.AperFunction,SMDPad,CuDef*%
G36*
G01*
X38786750Y23396000D02*
X39699250Y23396000D01*
G75*
G02*
X39943000Y23152250I0J-243750D01*
G01*
X39943000Y22664750D01*
G75*
G02*
X39699250Y22421000I-243750J0D01*
G01*
X38786750Y22421000D01*
G75*
G02*
X38543000Y22664750I0J243750D01*
G01*
X38543000Y23152250D01*
G75*
G02*
X38786750Y23396000I243750J0D01*
G01*
G37*
%TD.AperFunction*%
%TO.P,R25,2*%
%TO.N,GND*%
%TA.AperFunction,SMDPad,CuDef*%
G36*
G01*
X38786750Y21521000D02*
X39699250Y21521000D01*
G75*
G02*
X39943000Y21277250I0J-243750D01*
G01*
X39943000Y20789750D01*
G75*
G02*
X39699250Y20546000I-243750J0D01*
G01*
X38786750Y20546000D01*
G75*
G02*
X38543000Y20789750I0J243750D01*
G01*
X38543000Y21277250D01*
G75*
G02*
X38786750Y21521000I243750J0D01*
G01*
G37*
%TD.AperFunction*%
%TD*%
%TO.P,R26,2*%
%TO.N,/PB_UART2_RX*%
%TA.AperFunction,SMDPad,CuDef*%
G36*
G01*
X48946750Y25585000D02*
X49859250Y25585000D01*
G75*
G02*
X50103000Y25341250I0J-243750D01*
G01*
X50103000Y24853750D01*
G75*
G02*
X49859250Y24610000I-243750J0D01*
G01*
X48946750Y24610000D01*
G75*
G02*
X48703000Y24853750I0J243750D01*
G01*
X48703000Y25341250D01*
G75*
G02*
X48946750Y25585000I243750J0D01*
G01*
G37*
%TD.AperFunction*%
%TO.P,R26,1*%
%TO.N,+3V3*%
%TA.AperFunction,SMDPad,CuDef*%
G36*
G01*
X48946750Y27460000D02*
X49859250Y27460000D01*
G75*
G02*
X50103000Y27216250I0J-243750D01*
G01*
X50103000Y26728750D01*
G75*
G02*
X49859250Y26485000I-243750J0D01*
G01*
X48946750Y26485000D01*
G75*
G02*
X48703000Y26728750I0J243750D01*
G01*
X48703000Y27216250D01*
G75*
G02*
X48946750Y27460000I243750J0D01*
G01*
G37*
%TD.AperFunction*%
%TD*%
%TO.P,U1,1*%
%TO.N,/P5V_ADJ*%
%TA.AperFunction,SMDPad,CuDef*%
G36*
G01*
X21576000Y42499000D02*
X21776000Y42499000D01*
G75*
G02*
X21876000Y42399000I0J-100000D01*
G01*
X21876000Y41174000D01*
G75*
G02*
X21776000Y41074000I-100000J0D01*
G01*
X21576000Y41074000D01*
G75*
G02*
X21476000Y41174000I0J100000D01*
G01*
X21476000Y42399000D01*
G75*
G02*
X21576000Y42499000I100000J0D01*
G01*
G37*
%TD.AperFunction*%
%TO.P,U1,2*%
%TO.N,Net-(R3-Pad2)*%
%TA.AperFunction,SMDPad,CuDef*%
G36*
G01*
X20926000Y42499000D02*
X21126000Y42499000D01*
G75*
G02*
X21226000Y42399000I0J-100000D01*
G01*
X21226000Y41174000D01*
G75*
G02*
X21126000Y41074000I-100000J0D01*
G01*
X20926000Y41074000D01*
G75*
G02*
X20826000Y41174000I0J100000D01*
G01*
X20826000Y42399000D01*
G75*
G02*
X20926000Y42499000I100000J0D01*
G01*
G37*
%TD.AperFunction*%
%TO.P,U1,3*%
%TO.N,Net-(C5-Pad2)*%
%TA.AperFunction,SMDPad,CuDef*%
G36*
G01*
X20276000Y42499000D02*
X20476000Y42499000D01*
G75*
G02*
X20576000Y42399000I0J-100000D01*
G01*
X20576000Y41174000D01*
G75*
G02*
X20476000Y41074000I-100000J0D01*
G01*
X20276000Y41074000D01*
G75*
G02*
X20176000Y41174000I0J100000D01*
G01*
X20176000Y42399000D01*
G75*
G02*
X20276000Y42499000I100000J0D01*
G01*
G37*
%TD.AperFunction*%
%TO.P,U1,4*%
%TO.N,GND*%
%TA.AperFunction,SMDPad,CuDef*%
G36*
G01*
X19626000Y42499000D02*
X19826000Y42499000D01*
G75*
G02*
X19926000Y42399000I0J-100000D01*
G01*
X19926000Y41174000D01*
G75*
G02*
X19826000Y41074000I-100000J0D01*
G01*
X19626000Y41074000D01*
G75*
G02*
X19526000Y41174000I0J100000D01*
G01*
X19526000Y42399000D01*
G75*
G02*
X19626000Y42499000I100000J0D01*
G01*
G37*
%TD.AperFunction*%
%TO.P,U1,5*%
%TO.N,/P5V_ISEN*%
%TA.AperFunction,SMDPad,CuDef*%
G36*
G01*
X19626000Y38174000D02*
X19826000Y38174000D01*
G75*
G02*
X19926000Y38074000I0J-100000D01*
G01*
X19926000Y36849000D01*
G75*
G02*
X19826000Y36749000I-100000J0D01*
G01*
X19626000Y36749000D01*
G75*
G02*
X19526000Y36849000I0J100000D01*
G01*
X19526000Y38074000D01*
G75*
G02*
X19626000Y38174000I100000J0D01*
G01*
G37*
%TD.AperFunction*%
%TO.P,U1,6*%
%TO.N,/P5V_PGATE*%
%TA.AperFunction,SMDPad,CuDef*%
G36*
G01*
X20276000Y38174000D02*
X20476000Y38174000D01*
G75*
G02*
X20576000Y38074000I0J-100000D01*
G01*
X20576000Y36849000D01*
G75*
G02*
X20476000Y36749000I-100000J0D01*
G01*
X20276000Y36749000D01*
G75*
G02*
X20176000Y36849000I0J100000D01*
G01*
X20176000Y38074000D01*
G75*
G02*
X20276000Y38174000I100000J0D01*
G01*
G37*
%TD.AperFunction*%
%TO.P,U1,7*%
%TO.N,/P5V_VCC*%
%TA.AperFunction,SMDPad,CuDef*%
G36*
G01*
X20926000Y38174000D02*
X21126000Y38174000D01*
G75*
G02*
X21226000Y38074000I0J-100000D01*
G01*
X21226000Y36849000D01*
G75*
G02*
X21126000Y36749000I-100000J0D01*
G01*
X20926000Y36749000D01*
G75*
G02*
X20826000Y36849000I0J100000D01*
G01*
X20826000Y38074000D01*
G75*
G02*
X20926000Y38174000I100000J0D01*
G01*
G37*
%TD.AperFunction*%
%TO.P,U1,8*%
%TO.N,+BATT*%
%TA.AperFunction,SMDPad,CuDef*%
G36*
G01*
X21576000Y38174000D02*
X21776000Y38174000D01*
G75*
G02*
X21876000Y38074000I0J-100000D01*
G01*
X21876000Y36849000D01*
G75*
G02*
X21776000Y36749000I-100000J0D01*
G01*
X21576000Y36749000D01*
G75*
G02*
X21476000Y36849000I0J100000D01*
G01*
X21476000Y38074000D01*
G75*
G02*
X21576000Y38174000I100000J0D01*
G01*
G37*
%TD.AperFunction*%
D24*
%TO.P,U1,9*%
%TO.N,GND*%
X20701000Y39624000D03*
D25*
%TD*%
%TO.N,GND*%
%TO.C,U1*%
X21351000Y40174000D03*
%TO.N,GND*%
%TO.C,U1*%
X21351000Y39074000D03*
X20051000Y40174000D03*
X20051000Y39074000D03*
%TD*%
%TO.P,U2,1*%
%TO.N,/PB_PWM2*%
%TA.AperFunction,SMDPad,CuDef*%
G36*
G01*
X24246500Y27545000D02*
X24521500Y27545000D01*
G75*
G02*
X24659000Y27407500I0J-137500D01*
G01*
X24659000Y26082500D01*
G75*
G02*
X24521500Y25945000I-137500J0D01*
G01*
X24246500Y25945000D01*
G75*
G02*
X24109000Y26082500I0J137500D01*
G01*
X24109000Y27407500D01*
G75*
G02*
X24246500Y27545000I137500J0D01*
G01*
G37*
%TD.AperFunction*%
%TO.P,U2,3*%
%TO.N,Net-(R11-Pad1)*%
%TA.AperFunction,SMDPad,CuDef*%
G36*
G01*
X21706500Y27545000D02*
X21981500Y27545000D01*
G75*
G02*
X22119000Y27407500I0J-137500D01*
G01*
X22119000Y26082500D01*
G75*
G02*
X21981500Y25945000I-137500J0D01*
G01*
X21706500Y25945000D01*
G75*
G02*
X21569000Y26082500I0J137500D01*
G01*
X21569000Y27407500D01*
G75*
G02*
X21706500Y27545000I137500J0D01*
G01*
G37*
%TD.AperFunction*%
%TO.P,U2,4*%
%TO.N,/MATE_NET_IND_R*%
%TA.AperFunction,SMDPad,CuDef*%
G36*
G01*
X21706500Y21045000D02*
X21981500Y21045000D01*
G75*
G02*
X22119000Y20907500I0J-137500D01*
G01*
X22119000Y19582500D01*
G75*
G02*
X21981500Y19445000I-137500J0D01*
G01*
X21706500Y19445000D01*
G75*
G02*
X21569000Y19582500I0J137500D01*
G01*
X21569000Y20907500D01*
G75*
G02*
X21706500Y21045000I137500J0D01*
G01*
G37*
%TD.AperFunction*%
%TO.P,U2,6*%
%TO.N,+BATT*%
%TA.AperFunction,SMDPad,CuDef*%
G36*
G01*
X24246500Y21045000D02*
X24521500Y21045000D01*
G75*
G02*
X24659000Y20907500I0J-137500D01*
G01*
X24659000Y19582500D01*
G75*
G02*
X24521500Y19445000I-137500J0D01*
G01*
X24246500Y19445000D01*
G75*
G02*
X24109000Y19582500I0J137500D01*
G01*
X24109000Y20907500D01*
G75*
G02*
X24246500Y21045000I137500J0D01*
G01*
G37*
%TD.AperFunction*%
%TD*%
%TO.P,U3,1*%
%TO.N,/PB_UART1_TX*%
%TA.AperFunction,SMDPad,CuDef*%
G36*
G01*
X28691500Y27545000D02*
X28966500Y27545000D01*
G75*
G02*
X29104000Y27407500I0J-137500D01*
G01*
X29104000Y26082500D01*
G75*
G02*
X28966500Y25945000I-137500J0D01*
G01*
X28691500Y25945000D01*
G75*
G02*
X28554000Y26082500I0J137500D01*
G01*
X28554000Y27407500D01*
G75*
G02*
X28691500Y27545000I137500J0D01*
G01*
G37*
%TD.AperFunction*%
%TO.P,U3,3*%
%TO.N,Net-(R12-Pad1)*%
%TA.AperFunction,SMDPad,CuDef*%
G36*
G01*
X26151500Y27545000D02*
X26426500Y27545000D01*
G75*
G02*
X26564000Y27407500I0J-137500D01*
G01*
X26564000Y26082500D01*
G75*
G02*
X26426500Y25945000I-137500J0D01*
G01*
X26151500Y25945000D01*
G75*
G02*
X26014000Y26082500I0J137500D01*
G01*
X26014000Y27407500D01*
G75*
G02*
X26151500Y27545000I137500J0D01*
G01*
G37*
%TD.AperFunction*%
%TO.P,U3,4*%
%TO.N,/MATE_NET_TXD*%
%TA.AperFunction,SMDPad,CuDef*%
G36*
G01*
X26151500Y21045000D02*
X26426500Y21045000D01*
G75*
G02*
X26564000Y20907500I0J-137500D01*
G01*
X26564000Y19582500D01*
G75*
G02*
X26426500Y19445000I-137500J0D01*
G01*
X26151500Y19445000D01*
G75*
G02*
X26014000Y19582500I0J137500D01*
G01*
X26014000Y20907500D01*
G75*
G02*
X26151500Y21045000I137500J0D01*
G01*
G37*
%TD.AperFunction*%
%TO.P,U3,6*%
%TO.N,+BATT*%
%TA.AperFunction,SMDPad,CuDef*%
G36*
G01*
X28691500Y21045000D02*
X28966500Y21045000D01*
G75*
G02*
X29104000Y20907500I0J-137500D01*
G01*
X29104000Y19582500D01*
G75*
G02*
X28966500Y19445000I-137500J0D01*
G01*
X28691500Y19445000D01*
G75*
G02*
X28554000Y19582500I0J137500D01*
G01*
X28554000Y20907500D01*
G75*
G02*
X28691500Y21045000I137500J0D01*
G01*
G37*
%TD.AperFunction*%
%TD*%
%TO.P,U4,6*%
%TO.N,+3V3*%
%TA.AperFunction,SMDPad,CuDef*%
G36*
G01*
X17536500Y25945000D02*
X17261500Y25945000D01*
G75*
G02*
X17124000Y26082500I0J137500D01*
G01*
X17124000Y27407500D01*
G75*
G02*
X17261500Y27545000I137500J0D01*
G01*
X17536500Y27545000D01*
G75*
G02*
X17674000Y27407500I0J-137500D01*
G01*
X17674000Y26082500D01*
G75*
G02*
X17536500Y25945000I-137500J0D01*
G01*
G37*
%TD.AperFunction*%
%TO.P,U4,4*%
%TO.N,/PB_UART1_RX*%
%TA.AperFunction,SMDPad,CuDef*%
G36*
G01*
X20076500Y25945000D02*
X19801500Y25945000D01*
G75*
G02*
X19664000Y26082500I0J137500D01*
G01*
X19664000Y27407500D01*
G75*
G02*
X19801500Y27545000I137500J0D01*
G01*
X20076500Y27545000D01*
G75*
G02*
X20214000Y27407500I0J-137500D01*
G01*
X20214000Y26082500D01*
G75*
G02*
X20076500Y25945000I-137500J0D01*
G01*
G37*
%TD.AperFunction*%
%TO.P,U4,3*%
%TO.N,/MATE_NET_RXD_K*%
%TA.AperFunction,SMDPad,CuDef*%
G36*
G01*
X20076500Y19445000D02*
X19801500Y19445000D01*
G75*
G02*
X19664000Y19582500I0J137500D01*
G01*
X19664000Y20907500D01*
G75*
G02*
X19801500Y21045000I137500J0D01*
G01*
X20076500Y21045000D01*
G75*
G02*
X20214000Y20907500I0J-137500D01*
G01*
X20214000Y19582500D01*
G75*
G02*
X20076500Y19445000I-137500J0D01*
G01*
G37*
%TD.AperFunction*%
%TO.P,U4,1*%
%TO.N,/MATE_NET_RXD*%
%TA.AperFunction,SMDPad,CuDef*%
G36*
G01*
X17536500Y19445000D02*
X17261500Y19445000D01*
G75*
G02*
X17124000Y19582500I0J137500D01*
G01*
X17124000Y20907500D01*
G75*
G02*
X17261500Y21045000I137500J0D01*
G01*
X17536500Y21045000D01*
G75*
G02*
X17674000Y20907500I0J-137500D01*
G01*
X17674000Y19582500D01*
G75*
G02*
X17536500Y19445000I-137500J0D01*
G01*
G37*
%TD.AperFunction*%
%TD*%
%TO.P,U5,1*%
%TO.N,/PB_UART2_RX*%
%TA.AperFunction,SMDPad,CuDef*%
G36*
G01*
X46205000Y27453000D02*
X46505000Y27453000D01*
G75*
G02*
X46655000Y27303000I0J-150000D01*
G01*
X46655000Y25653000D01*
G75*
G02*
X46505000Y25503000I-150000J0D01*
G01*
X46205000Y25503000D01*
G75*
G02*
X46055000Y25653000I0J150000D01*
G01*
X46055000Y27303000D01*
G75*
G02*
X46205000Y27453000I150000J0D01*
G01*
G37*
%TD.AperFunction*%
%TO.P,U5,2*%
%TO.N,/U5_EN*%
%TA.AperFunction,SMDPad,CuDef*%
G36*
G01*
X44935000Y27453000D02*
X45235000Y27453000D01*
G75*
G02*
X45385000Y27303000I0J-150000D01*
G01*
X45385000Y25653000D01*
G75*
G02*
X45235000Y25503000I-150000J0D01*
G01*
X44935000Y25503000D01*
G75*
G02*
X44785000Y25653000I0J150000D01*
G01*
X44785000Y27303000D01*
G75*
G02*
X44935000Y27453000I150000J0D01*
G01*
G37*
%TD.AperFunction*%
%TO.P,U5,3*%
%TA.AperFunction,SMDPad,CuDef*%
G36*
G01*
X43665000Y27453000D02*
X43965000Y27453000D01*
G75*
G02*
X44115000Y27303000I0J-150000D01*
G01*
X44115000Y25653000D01*
G75*
G02*
X43965000Y25503000I-150000J0D01*
G01*
X43665000Y25503000D01*
G75*
G02*
X43515000Y25653000I0J150000D01*
G01*
X43515000Y27303000D01*
G75*
G02*
X43665000Y27453000I150000J0D01*
G01*
G37*
%TD.AperFunction*%
%TO.P,U5,4*%
%TO.N,/PB_UART2_TX*%
%TA.AperFunction,SMDPad,CuDef*%
G36*
G01*
X42395000Y27453000D02*
X42695000Y27453000D01*
G75*
G02*
X42845000Y27303000I0J-150000D01*
G01*
X42845000Y25653000D01*
G75*
G02*
X42695000Y25503000I-150000J0D01*
G01*
X42395000Y25503000D01*
G75*
G02*
X42245000Y25653000I0J150000D01*
G01*
X42245000Y27303000D01*
G75*
G02*
X42395000Y27453000I150000J0D01*
G01*
G37*
%TD.AperFunction*%
%TO.P,U5,5*%
%TO.N,GND*%
%TA.AperFunction,SMDPad,CuDef*%
G36*
G01*
X42395000Y22503000D02*
X42695000Y22503000D01*
G75*
G02*
X42845000Y22353000I0J-150000D01*
G01*
X42845000Y20703000D01*
G75*
G02*
X42695000Y20553000I-150000J0D01*
G01*
X42395000Y20553000D01*
G75*
G02*
X42245000Y20703000I0J150000D01*
G01*
X42245000Y22353000D01*
G75*
G02*
X42395000Y22503000I150000J0D01*
G01*
G37*
%TD.AperFunction*%
%TO.P,U5,6*%
%TO.N,/MAG_NET_A*%
%TA.AperFunction,SMDPad,CuDef*%
G36*
G01*
X43665000Y22503000D02*
X43965000Y22503000D01*
G75*
G02*
X44115000Y22353000I0J-150000D01*
G01*
X44115000Y20703000D01*
G75*
G02*
X43965000Y20553000I-150000J0D01*
G01*
X43665000Y20553000D01*
G75*
G02*
X43515000Y20703000I0J150000D01*
G01*
X43515000Y22353000D01*
G75*
G02*
X43665000Y22503000I150000J0D01*
G01*
G37*
%TD.AperFunction*%
%TO.P,U5,7*%
%TO.N,/MAG_NET_B*%
%TA.AperFunction,SMDPad,CuDef*%
G36*
G01*
X44935000Y22503000D02*
X45235000Y22503000D01*
G75*
G02*
X45385000Y22353000I0J-150000D01*
G01*
X45385000Y20703000D01*
G75*
G02*
X45235000Y20553000I-150000J0D01*
G01*
X44935000Y20553000D01*
G75*
G02*
X44785000Y20703000I0J150000D01*
G01*
X44785000Y22353000D01*
G75*
G02*
X44935000Y22503000I150000J0D01*
G01*
G37*
%TD.AperFunction*%
%TO.P,U5,8*%
%TO.N,+3V3*%
%TA.AperFunction,SMDPad,CuDef*%
G36*
G01*
X46205000Y22503000D02*
X46505000Y22503000D01*
G75*
G02*
X46655000Y22353000I0J-150000D01*
G01*
X46655000Y20703000D01*
G75*
G02*
X46505000Y20553000I-150000J0D01*
G01*
X46205000Y20553000D01*
G75*
G02*
X46055000Y20703000I0J150000D01*
G01*
X46055000Y22353000D01*
G75*
G02*
X46205000Y22503000I150000J0D01*
G01*
G37*
%TD.AperFunction*%
%TD*%
%TO.P,R27,2*%
%TO.N,/PB_SCL*%
%TA.AperFunction,SMDPad,CuDef*%
G36*
G01*
X65456750Y44127000D02*
X66369250Y44127000D01*
G75*
G02*
X66613000Y43883250I0J-243750D01*
G01*
X66613000Y43395750D01*
G75*
G02*
X66369250Y43152000I-243750J0D01*
G01*
X65456750Y43152000D01*
G75*
G02*
X65213000Y43395750I0J243750D01*
G01*
X65213000Y43883250D01*
G75*
G02*
X65456750Y44127000I243750J0D01*
G01*
G37*
%TD.AperFunction*%
%TO.P,R27,1*%
%TO.N,+3V3*%
%TA.AperFunction,SMDPad,CuDef*%
G36*
G01*
X65456750Y46002000D02*
X66369250Y46002000D01*
G75*
G02*
X66613000Y45758250I0J-243750D01*
G01*
X66613000Y45270750D01*
G75*
G02*
X66369250Y45027000I-243750J0D01*
G01*
X65456750Y45027000D01*
G75*
G02*
X65213000Y45270750I0J243750D01*
G01*
X65213000Y45758250D01*
G75*
G02*
X65456750Y46002000I243750J0D01*
G01*
G37*
%TD.AperFunction*%
%TD*%
%TO.P,R28,1*%
%TO.N,+3V3*%
%TA.AperFunction,SMDPad,CuDef*%
G36*
G01*
X63043750Y46002000D02*
X63956250Y46002000D01*
G75*
G02*
X64200000Y45758250I0J-243750D01*
G01*
X64200000Y45270750D01*
G75*
G02*
X63956250Y45027000I-243750J0D01*
G01*
X63043750Y45027000D01*
G75*
G02*
X62800000Y45270750I0J243750D01*
G01*
X62800000Y45758250D01*
G75*
G02*
X63043750Y46002000I243750J0D01*
G01*
G37*
%TD.AperFunction*%
%TO.P,R28,2*%
%TO.N,/PB_SDA*%
%TA.AperFunction,SMDPad,CuDef*%
G36*
G01*
X63043750Y44127000D02*
X63956250Y44127000D01*
G75*
G02*
X64200000Y43883250I0J-243750D01*
G01*
X64200000Y43395750D01*
G75*
G02*
X63956250Y43152000I-243750J0D01*
G01*
X63043750Y43152000D01*
G75*
G02*
X62800000Y43395750I0J243750D01*
G01*
X62800000Y43883250D01*
G75*
G02*
X63043750Y44127000I243750J0D01*
G01*
G37*
%TD.AperFunction*%
%TD*%
%TO.P,C9,1*%
%TO.N,+5V*%
%TA.AperFunction,SMDPad,CuDef*%
G36*
G01*
X9757000Y47921000D02*
X9757000Y46821000D01*
G75*
G02*
X9507000Y46571000I-250000J0D01*
G01*
X6507000Y46571000D01*
G75*
G02*
X6257000Y46821000I0J250000D01*
G01*
X6257000Y47921000D01*
G75*
G02*
X6507000Y48171000I250000J0D01*
G01*
X9507000Y48171000D01*
G75*
G02*
X9757000Y47921000I0J-250000D01*
G01*
G37*
%TD.AperFunction*%
%TO.P,C9,2*%
%TO.N,GND*%
%TA.AperFunction,SMDPad,CuDef*%
G36*
G01*
X4157000Y47921000D02*
X4157000Y46821000D01*
G75*
G02*
X3907000Y46571000I-250000J0D01*
G01*
X907000Y46571000D01*
G75*
G02*
X657000Y46821000I0J250000D01*
G01*
X657000Y47921000D01*
G75*
G02*
X907000Y48171000I250000J0D01*
G01*
X3907000Y48171000D01*
G75*
G02*
X4157000Y47921000I0J-250000D01*
G01*
G37*
%TD.AperFunction*%
%TD*%
D26*
%TO.N,+3V3*%
X46355000Y48006000D03*
X35306000Y45974000D03*
X33020000Y48260000D03*
%TO.N,GND*%
X32131000Y27940000D03*
X41529000Y44323000D03*
X38735000Y44323000D03*
X35941000Y44323000D03*
X27178000Y47117000D03*
X30607000Y49530000D03*
X31103199Y49033801D03*
X12179300Y49403000D03*
X55118000Y35814000D03*
X62230000Y50165000D03*
X14478000Y22479000D03*
X14478000Y21463000D03*
X14478000Y23495000D03*
X14478000Y18288000D03*
X14478000Y19304000D03*
X14478000Y17272000D03*
X22987000Y19050000D03*
X15621000Y19050000D03*
X27305000Y19050000D03*
X1143000Y14986000D03*
X3937000Y14986000D03*
X6731000Y14986000D03*
X3175000Y14986000D03*
X5969000Y14986000D03*
X8763000Y14986000D03*
X14605000Y41656000D03*
X14605000Y42545000D03*
X17399000Y42545000D03*
X18948410Y41780483D03*
X17399000Y41689173D03*
X2413000Y48641000D03*
X2413000Y46101000D03*
X1016000Y46101000D03*
X1016000Y48641000D03*
X14224000Y44577000D03*
X33516792Y27924075D03*
X40259000Y20193000D03*
X42096874Y23139390D03*
X11683818Y48923420D03*
%TO.N,/PB_UART1_RX*%
X35415211Y27689768D03*
%TO.N,/PB_UART1_TX*%
X36957000Y27305000D03*
%TO.N,/PB_D3*%
X41021000Y28702000D03*
X50800000Y28702000D03*
%TO.N,/MATE_NET_RXD*%
X18288000Y19939000D03*
%TO.N,/CONN_ADC1*%
X34798000Y40767000D03*
%TO.N,/CONN_ADC2*%
X35560000Y41275000D03*
%TO.N,/CONN_ADC3*%
X36322000Y42037000D03*
%TO.N,/CONN_ADC4*%
X36830000Y42799000D03*
%TD*%
D27*
%TO.N,+3V3*%
X68975000Y50405000D02*
X69088000Y50292000D01*
X65913000Y50405000D02*
X68975000Y50405000D01*
X22860000Y28194000D02*
X24638000Y29972000D01*
X17780000Y28194000D02*
X22860000Y28194000D01*
X17399000Y27813000D02*
X17780000Y28194000D01*
X17399000Y26745000D02*
X17399000Y27813000D01*
D28*
X24638000Y29972000D02*
X26289000Y31623000D01*
X26289000Y31623000D02*
X32512000Y31623000D01*
X32512000Y31623000D02*
X33274000Y32385000D01*
X33274000Y43942000D02*
X35306000Y45974000D01*
X33274000Y32385000D02*
X33274000Y43942000D01*
D27*
X61468000Y19417000D02*
X62343000Y18542000D01*
X61468000Y21112282D02*
X61468000Y19417000D01*
X57531000Y23749000D02*
X59563000Y21717000D01*
X40150190Y22116190D02*
X41783000Y23749000D01*
X37719000Y27559000D02*
X37719000Y22479000D01*
X60863282Y21717000D02*
X61468000Y21112282D01*
X59563000Y21717000D02*
X60863282Y21717000D01*
X33643199Y30491801D02*
X33643199Y29348801D01*
X36460801Y28817199D02*
X37719000Y27559000D01*
X32512000Y31623000D02*
X33643199Y30491801D01*
X34174801Y28817199D02*
X36460801Y28817199D01*
X38081810Y22116190D02*
X40150190Y22116190D01*
X33643199Y29348801D02*
X34174801Y28817199D01*
X37719000Y22479000D02*
X38081810Y22116190D01*
X49403000Y26972500D02*
X49735500Y26972500D01*
X50927000Y25781000D02*
X50927000Y23749000D01*
X49735500Y26972500D02*
X50927000Y25781000D01*
X50927000Y23749000D02*
X57531000Y23749000D01*
X46355000Y21528000D02*
X46355000Y22733000D01*
X46863000Y23241000D02*
X46863000Y23749000D01*
X46355000Y22733000D02*
X46863000Y23241000D01*
X46863000Y23749000D02*
X50927000Y23749000D01*
X41783000Y23749000D02*
X46863000Y23749000D01*
D28*
X44323000Y45974000D02*
X44386500Y46037500D01*
X35306000Y45974000D02*
X44323000Y45974000D01*
X46355000Y48006000D02*
X44386500Y46037500D01*
X11884190Y48186810D02*
X10995190Y48186810D01*
X10995190Y48186810D02*
X10668000Y48514000D01*
X10668000Y48514000D02*
X10668000Y50292000D01*
X33020000Y48260000D02*
X32971810Y48211810D01*
X32971810Y48211810D02*
X12016810Y48211810D01*
D27*
X63500000Y45514500D02*
X65913000Y45514500D01*
X65913000Y45514500D02*
X67104500Y45514500D01*
X67104500Y45514500D02*
X67564000Y45974000D01*
X67564000Y48768000D02*
X69088000Y50292000D01*
X67564000Y45974000D02*
X67564000Y48768000D01*
%TO.N,GND*%
X31163500Y26972500D02*
X31115000Y26972500D01*
X32131000Y27940000D02*
X31163500Y26972500D01*
D29*
X41526000Y44320000D02*
X41529000Y44323000D01*
X40132000Y44320000D02*
X41526000Y44320000D01*
X38738000Y44320000D02*
X38735000Y44323000D01*
X40132000Y44320000D02*
X38738000Y44320000D01*
X38732000Y44320000D02*
X38735000Y44323000D01*
X37338000Y44320000D02*
X38732000Y44320000D01*
X35944000Y44320000D02*
X35941000Y44323000D01*
X37338000Y44320000D02*
X35944000Y44320000D01*
D27*
X27002500Y47292500D02*
X27178000Y47117000D01*
X25908000Y47292500D02*
X27002500Y47292500D01*
D28*
X15748000Y50292000D02*
X17145000Y48895000D01*
X19431000Y48895000D02*
X20828000Y50292000D01*
X17145000Y48895000D02*
X19431000Y48895000D01*
X20828000Y50292000D02*
X22225000Y48895000D01*
X24511000Y48895000D02*
X25908000Y50292000D01*
X22225000Y48895000D02*
X24511000Y48895000D01*
X25908000Y50292000D02*
X27189801Y49010199D01*
X31103199Y49033801D02*
X30607000Y49530000D01*
X29983801Y49010199D02*
X31103199Y49010199D01*
X30087199Y49010199D02*
X29983801Y49010199D01*
X30607000Y49530000D02*
X30087199Y49010199D01*
X27189801Y49010199D02*
X29983801Y49010199D01*
X31103199Y49010199D02*
X31103199Y49033801D01*
X14351000Y48895000D02*
X15748000Y50292000D01*
X12192000Y49403000D02*
X12700000Y48895000D01*
X12700000Y48895000D02*
X14351000Y48895000D01*
D27*
X55118000Y34846500D02*
X55118000Y35814000D01*
X62532500Y50467500D02*
X62230000Y50165000D01*
X63500000Y50467500D02*
X62532500Y50467500D01*
D29*
X13338000Y22479000D02*
X14478000Y22479000D01*
X14478000Y23495000D02*
X13589000Y23495000D01*
X14478000Y21463000D02*
X13589000Y21463000D01*
X13338000Y18288000D02*
X14478000Y18288000D01*
X14478000Y17272000D02*
X13589000Y17272000D01*
X14478000Y19304000D02*
X13589000Y19304000D01*
X23319500Y18717500D02*
X22987000Y19050000D01*
X23319500Y17780000D02*
X23319500Y18717500D01*
X15953500Y18717500D02*
X15621000Y19050000D01*
X15953500Y17780000D02*
X15953500Y18717500D01*
X27002500Y18747500D02*
X27305000Y19050000D01*
X27002500Y17780000D02*
X27002500Y18747500D01*
X1146000Y14989000D02*
X1143000Y14986000D01*
X2159000Y14989000D02*
X1146000Y14989000D01*
X3940000Y14989000D02*
X3937000Y14986000D01*
X4953000Y14989000D02*
X3940000Y14989000D01*
X6734000Y14989000D02*
X6731000Y14986000D01*
X7747000Y14989000D02*
X6734000Y14989000D01*
X3172000Y14989000D02*
X3175000Y14986000D01*
X2159000Y14989000D02*
X3172000Y14989000D01*
X5966000Y14989000D02*
X5969000Y14986000D01*
X4953000Y14989000D02*
X5966000Y14989000D01*
X8760000Y14989000D02*
X8763000Y14986000D01*
X7747000Y14989000D02*
X8760000Y14989000D01*
X14637000Y41624000D02*
X14605000Y41656000D01*
X16002000Y41624000D02*
X14637000Y41624000D01*
X15081000Y42545000D02*
X16002000Y41624000D01*
X14605000Y42545000D02*
X15081000Y42545000D01*
X16923000Y42545000D02*
X16002000Y41624000D01*
X17399000Y42545000D02*
X16923000Y42545000D01*
D27*
X19726000Y41786500D02*
X18954427Y41786500D01*
X18954427Y41786500D02*
X18948410Y41780483D01*
D29*
X16067173Y41689173D02*
X16002000Y41624000D01*
X17399000Y41689173D02*
X16067173Y41689173D01*
X2407000Y48635000D02*
X2413000Y48641000D01*
X2407000Y47371000D02*
X2407000Y48635000D01*
X2407000Y46107000D02*
X2413000Y46101000D01*
X2407000Y47371000D02*
X2407000Y46107000D01*
X1016000Y48641000D02*
X1016000Y47752000D01*
X1016000Y46101000D02*
X1016000Y46863000D01*
X13383500Y45417500D02*
X14224000Y44577000D01*
X13208000Y45417500D02*
X13383500Y45417500D01*
D27*
X33528000Y27912867D02*
X33528000Y26972500D01*
X33516792Y27924075D02*
X33528000Y27912867D01*
X39418500Y21033500D02*
X40259000Y20193000D01*
X39243000Y21033500D02*
X39418500Y21033500D01*
X42545000Y21528000D02*
X42545000Y22691264D01*
X42545000Y22691264D02*
X42096874Y23139390D01*
D28*
X11712420Y48923420D02*
X11683818Y48923420D01*
X12700000Y48895000D02*
X11712238Y48895000D01*
X11712238Y48895000D02*
X11683818Y48923420D01*
X12192000Y49403000D02*
X11712420Y48923420D01*
D27*
%TO.N,/PB_PWM2*%
X24638000Y28194000D02*
X24384000Y27940000D01*
X30480000Y28194000D02*
X24638000Y28194000D01*
X24384000Y27940000D02*
X24384000Y26745000D01*
X32258000Y29972000D02*
X30480000Y28194000D01*
%TO.N,/PB_ADC1*%
X34798000Y29972000D02*
X34798000Y32971500D01*
%TO.N,/PB_ADC2*%
X37338000Y29972000D02*
X37338000Y32971500D01*
%TO.N,/PB_ADC3*%
X39878000Y29972000D02*
X39878000Y32971500D01*
%TO.N,/PB_ADC4*%
X42418000Y29972000D02*
X42418000Y32971500D01*
%TO.N,/PB_UART1_RX*%
X55118000Y32971500D02*
X55118000Y29972000D01*
X34671000Y24257000D02*
X35415211Y25001211D01*
X19939000Y26745000D02*
X22427000Y24257000D01*
X35415211Y25001211D02*
X35415211Y27689768D01*
X22427000Y24257000D02*
X34671000Y24257000D01*
%TO.N,/PB_UART1_TX*%
X36957000Y27305000D02*
X35851212Y28410788D01*
X29848810Y27764810D02*
X28829000Y26745000D01*
X34006461Y28410788D02*
X33842249Y28575000D01*
X33842249Y28575000D02*
X31623000Y28575000D01*
X35851212Y28410788D02*
X34006461Y28410788D01*
X31623000Y28575000D02*
X30812810Y27764810D01*
X30812810Y27764810D02*
X29848810Y27764810D01*
%TO.N,/PB_SDA*%
X69088000Y47752000D02*
X69088000Y46228000D01*
X69088000Y46228000D02*
X67437000Y44577000D01*
X64437500Y44577000D02*
X63500000Y43639500D01*
X67437000Y44577000D02*
X64437500Y44577000D01*
X63500000Y43639500D02*
X61722000Y45417500D01*
X61722000Y48768000D02*
X60198000Y50292000D01*
X61722000Y45417500D02*
X61722000Y48768000D01*
%TO.N,/PB_SCL*%
X57658000Y50292000D02*
X60960000Y46990000D01*
X60960000Y46990000D02*
X60960000Y44069000D01*
X60960000Y44069000D02*
X62357000Y42672000D01*
X64945500Y42672000D02*
X65913000Y43639500D01*
X62357000Y42672000D02*
X64945500Y42672000D01*
X71628000Y47513515D02*
X71628000Y47752000D01*
X67753985Y43639500D02*
X71628000Y47513515D01*
X65913000Y43639500D02*
X67753985Y43639500D01*
%TO.N,/PB_D2*%
X59817000Y22225000D02*
X59043199Y22998801D01*
X59043199Y22998801D02*
X59043199Y46366801D01*
X59043199Y46366801D02*
X55118000Y50292000D01*
X62405500Y20906500D02*
X61087000Y22225000D01*
X62405500Y20574000D02*
X62405500Y20906500D01*
X61087000Y22225000D02*
X59817000Y22225000D01*
%TO.N,/PB_D3*%
X40972500Y28702000D02*
X41021000Y28702000D01*
X39243000Y26972500D02*
X40972500Y28702000D01*
X52578000Y47244000D02*
X52578000Y50292000D01*
X51308000Y45974000D02*
X52578000Y47244000D01*
X51308000Y29210000D02*
X50800000Y28702000D01*
X51308000Y29210000D02*
X51308000Y45974000D01*
%TO.N,/PB_UART2_TX*%
X42545000Y25503000D02*
X42545000Y26478000D01*
X46355000Y24765000D02*
X43283000Y24765000D01*
X48387000Y26512718D02*
X48719528Y26180190D01*
X50407810Y25568472D02*
X50407810Y24626528D01*
X49796092Y26180190D02*
X50407810Y25568472D01*
X48719528Y26180190D02*
X49796092Y26180190D01*
X46863141Y24256859D02*
X46355000Y24765000D01*
X50407810Y24626528D02*
X50038141Y24256859D01*
X48768000Y29532894D02*
X48387000Y29151894D01*
X43283000Y24765000D02*
X42545000Y25503000D01*
X48387000Y29151894D02*
X48387000Y26512718D01*
X50038141Y24256859D02*
X46863141Y24256859D01*
X48768000Y46101000D02*
X50038000Y47371000D01*
X48768000Y46101000D02*
X48768000Y29532894D01*
X50038000Y47371000D02*
X50038000Y50292000D01*
%TO.N,/PB_UART2_RX*%
X46343199Y26489801D02*
X46343199Y46343199D01*
X46355000Y26478000D02*
X46343199Y26489801D01*
X47498000Y47498000D02*
X47498000Y50292000D01*
X46343199Y46343199D02*
X47498000Y47498000D01*
X49403000Y25097500D02*
X47038500Y25097500D01*
X46355000Y25781000D02*
X46355000Y26478000D01*
X47038500Y25097500D02*
X46355000Y25781000D01*
%TO.N,+BATT*%
X21676000Y37461500D02*
X22221500Y37461500D01*
X22221500Y37461500D02*
X22606000Y37846000D01*
X22606000Y37846000D02*
X22606000Y38354000D01*
X22606000Y38354000D02*
X22908500Y38656500D01*
X22908500Y38656500D02*
X24003000Y38656500D01*
X24003000Y38656500D02*
X24003000Y40591500D01*
X26543000Y38656500D02*
X26543000Y40591500D01*
X24378000Y20239000D02*
X24384000Y20245000D01*
X24378000Y14347000D02*
X24378000Y20239000D01*
X24384000Y20245000D02*
X24384000Y21590000D01*
X24384000Y21590000D02*
X28575000Y21590000D01*
X28575000Y21590000D02*
X28829000Y21336000D01*
X28829000Y21336000D02*
X28829000Y20245000D01*
X24384000Y21590000D02*
X16764000Y21590000D01*
X16764000Y21590000D02*
X16256000Y22098000D01*
X16256000Y22098000D02*
X16256000Y23114000D01*
X16256000Y23114000D02*
X13592000Y25778000D01*
X25224500Y38656500D02*
X26543000Y38656500D01*
X24003000Y38656500D02*
X25224500Y38656500D01*
X11938000Y25778000D02*
X13592000Y25778000D01*
X13592000Y26546000D02*
X13592000Y25778000D01*
X18288000Y35179000D02*
X17907000Y34798000D01*
X24511000Y35179000D02*
X18288000Y35179000D01*
X25224500Y35892500D02*
X24511000Y35179000D01*
X25224500Y38656500D02*
X25224500Y35892500D01*
X17907000Y30988000D02*
X13589000Y26670000D01*
X17907000Y34798000D02*
X17907000Y30988000D01*
X13592000Y26667000D02*
X13592000Y26546000D01*
X13589000Y26670000D02*
X13592000Y26667000D01*
%TO.N,Net-(C5-Pad2)*%
X20376000Y43744000D02*
X20828000Y44196000D01*
X20376000Y41786500D02*
X20376000Y43744000D01*
X20828000Y44196000D02*
X20828000Y45417500D01*
X25908000Y45417500D02*
X23368000Y45417500D01*
X23368000Y45417500D02*
X20828000Y45417500D01*
D28*
%TO.N,+5V*%
X34928000Y47120000D02*
X37338000Y47120000D01*
X34163000Y46355000D02*
X34928000Y47120000D01*
X37338000Y50292000D02*
X37338000Y47120000D01*
X37338000Y47120000D02*
X40132000Y47120000D01*
X15748000Y45417500D02*
X15748000Y46355000D01*
X11924000Y46355000D02*
X15748000Y46355000D01*
X23241000Y46355000D02*
X34163000Y46355000D01*
X15748000Y46355000D02*
X23241000Y46355000D01*
D27*
X23368000Y46482000D02*
X23241000Y46355000D01*
X23368000Y47292500D02*
X23368000Y46482000D01*
D30*
X2062000Y36322000D02*
X2062000Y39908000D01*
X2062000Y36322000D02*
X2062000Y32609000D01*
X2062000Y36322000D02*
X4318000Y36322000D01*
X2062000Y36322000D02*
X2062000Y35403000D01*
X2062000Y35403000D02*
X4064000Y33401000D01*
X2062000Y36322000D02*
X2062000Y37241000D01*
X2062000Y37241000D02*
X4318000Y39497000D01*
D27*
%TO.N,/MATE_NET_TXD*%
X2159000Y12189000D02*
X2162000Y12189000D01*
X2162000Y12189000D02*
X3429000Y10922000D01*
X3429000Y10922000D02*
X11938000Y10922000D01*
X11938000Y10922000D02*
X16383000Y6477000D01*
X25194500Y17780000D02*
X25194500Y18717500D01*
X25194500Y18717500D02*
X25527000Y19050000D01*
X25527000Y19050000D02*
X25527000Y19939000D01*
X25833000Y20245000D02*
X26289000Y20245000D01*
X25527000Y19939000D02*
X25833000Y20245000D01*
X25194500Y16334500D02*
X25194500Y17780000D01*
X25432801Y16096199D02*
X25194500Y16334500D01*
X25432801Y7525801D02*
X25432801Y16096199D01*
X24384000Y6477000D02*
X25432801Y7525801D01*
X21336000Y8001000D02*
X19812000Y6477000D01*
X19812000Y6477000D02*
X19685000Y6477000D01*
X16383000Y6477000D02*
X19685000Y6477000D01*
X21336000Y8001000D02*
X22860000Y6477000D01*
X22860000Y6477000D02*
X23114000Y6477000D01*
X23114000Y6477000D02*
X24384000Y6477000D01*
%TO.N,/MATE_NET_RXD*%
X4953000Y12189000D02*
X5807801Y11334199D01*
X17982000Y20245000D02*
X18288000Y19939000D01*
X17399000Y20245000D02*
X17982000Y20245000D01*
X18288000Y9781000D02*
X16734801Y11334199D01*
X16734801Y11334199D02*
X16097801Y11334199D01*
X5807801Y11334199D02*
X16097801Y11334199D01*
%TO.N,/PBATT_CONN*%
X7747000Y12189000D02*
X9014000Y12189000D01*
%TO.N,/P5V_K*%
X13145500Y47230000D02*
X13208000Y47292500D01*
X11049000Y47230000D02*
X13145500Y47230000D01*
%TO.N,/P3V3_K*%
X63562500Y48655000D02*
X63500000Y48592500D01*
X65913000Y48655000D02*
X63562500Y48655000D01*
%TO.N,/MAG_NET_GND_R*%
X60593000Y23622000D02*
X60706000Y23622000D01*
X60706000Y23622000D02*
X62103000Y22225000D01*
X62103000Y22225000D02*
X64135000Y22225000D01*
X64135000Y22225000D02*
X64643000Y21717000D01*
X64643000Y21717000D02*
X64643000Y17018000D01*
X65151000Y16510000D02*
X66880500Y16510000D01*
X64643000Y17018000D02*
X65151000Y16510000D01*
%TO.N,/MAG_NET_P14V_K*%
X67850000Y19812000D02*
X65913000Y19812000D01*
X65913000Y19812000D02*
X65278000Y20447000D01*
X65278000Y20447000D02*
X65278000Y22860000D01*
X64516000Y23622000D02*
X62343000Y23622000D01*
X65278000Y22860000D02*
X64516000Y23622000D01*
%TO.N,/MAG_NET_P14V_R*%
X60593000Y11748500D02*
X60530500Y11811000D01*
X60593000Y9652000D02*
X60593000Y11748500D01*
%TO.N,/MAG_NET_GND_K*%
X63373000Y9652000D02*
X65532000Y11811000D01*
X62343000Y9652000D02*
X63373000Y9652000D01*
X65532000Y12700000D02*
X65913000Y13081000D01*
X65913000Y13081000D02*
X67850000Y13081000D01*
X65532000Y11811000D02*
X65532000Y12700000D01*
%TO.N,/PB_D2_R*%
X60593000Y20511500D02*
X60530500Y20574000D01*
X60593000Y18542000D02*
X60593000Y20511500D01*
D29*
%TO.N,/MAG_NET_GND*%
X57661000Y18798910D02*
X57661000Y20447000D01*
X52959090Y14097000D02*
X57661000Y18798910D01*
X52578000Y14097000D02*
X52959090Y14097000D01*
X36321910Y16637000D02*
X36703000Y16637000D01*
X34163000Y14478090D02*
X36321910Y16637000D01*
X34163000Y13081000D02*
X34163000Y14478090D01*
X35560000Y11684000D02*
X34163000Y13081000D01*
X51435000Y11684000D02*
X35560000Y11684000D01*
X52578000Y12827000D02*
X51435000Y11684000D01*
X52578000Y14097000D02*
X52578000Y12827000D01*
D27*
X52578000Y12827000D02*
X55372000Y12827000D01*
X55372000Y12827000D02*
X59436000Y8763000D01*
X59436000Y8763000D02*
X63500000Y8763000D01*
X63500000Y8763000D02*
X66040000Y11303000D01*
X66040000Y11303000D02*
X71628000Y11303000D01*
X71850000Y11525000D02*
X71850000Y13081000D01*
X71628000Y11303000D02*
X71850000Y11525000D01*
X71850000Y13081000D02*
X71850000Y15653000D01*
X70993000Y16510000D02*
X68755500Y16510000D01*
X71850000Y15653000D02*
X70993000Y16510000D01*
D29*
%TO.N,/MAG_NET_P14V*%
X51308000Y16637000D02*
X52832000Y18161000D01*
X52832000Y18161000D02*
X53975000Y18161000D01*
X54861000Y19047000D02*
X54861000Y20447000D01*
X53975000Y18161000D02*
X54861000Y19047000D01*
D27*
X71850000Y19812000D02*
X71850000Y18637000D01*
X71850000Y18637000D02*
X70993000Y17780000D01*
X70993000Y17780000D02*
X68326000Y17780000D01*
X68326000Y17780000D02*
X67818000Y17272000D01*
X67818000Y17272000D02*
X67818000Y15621000D01*
X67818000Y15621000D02*
X67437000Y15240000D01*
X67437000Y15240000D02*
X64897000Y15240000D01*
X64897000Y15240000D02*
X63754000Y16383000D01*
X63881000Y11811000D02*
X62405500Y11811000D01*
X64262000Y12192000D02*
X63881000Y11811000D01*
X64262000Y14605000D02*
X64262000Y12192000D01*
X64897000Y15240000D02*
X64262000Y14605000D01*
X54861000Y20447000D02*
X54861000Y21333000D01*
X54861000Y21333000D02*
X55245000Y21717000D01*
X55245000Y21717000D02*
X58420000Y21717000D01*
X58420000Y21717000D02*
X58928000Y21209000D01*
X58928000Y16891000D02*
X59436000Y16383000D01*
X58928000Y21209000D02*
X58928000Y16891000D01*
X63754000Y16383000D02*
X59436000Y16383000D01*
%TO.N,/PBATT_K*%
X26668000Y15570500D02*
X28877500Y17780000D01*
X26668000Y14347000D02*
X26668000Y15570500D01*
%TO.N,/MATE_NET_IND_A*%
X12948000Y14347000D02*
X14730000Y16129000D01*
X17985500Y16129000D02*
X19636500Y17780000D01*
X14730000Y16129000D02*
X17985500Y16129000D01*
%TO.N,/CONN_ADC1*%
X34798000Y34846500D02*
X34798000Y35941000D01*
X34798000Y35941000D02*
X34798000Y40767000D01*
%TO.N,/CONN_ADC2*%
X37338000Y35941000D02*
X37338000Y34846500D01*
X37338000Y39497000D02*
X37338000Y35941000D01*
X35560000Y41275000D02*
X37338000Y39497000D01*
%TO.N,/CONN_ADC3*%
X37465000Y42037000D02*
X36322000Y42037000D01*
X39878000Y39624000D02*
X37465000Y42037000D01*
X39878000Y34846500D02*
X39878000Y39624000D01*
%TO.N,/CONN_ADC4*%
X39370000Y42799000D02*
X42418000Y39751000D01*
X42418000Y35941000D02*
X42418000Y34846500D01*
X42418000Y39751000D02*
X42418000Y35941000D01*
X36830000Y42799000D02*
X39370000Y42799000D01*
%TO.N,/MAG_NET_B*%
X50038000Y14097000D02*
X48006000Y14097000D01*
X45466000Y16637000D02*
X39243000Y16637000D01*
X48006000Y14097000D02*
X45466000Y16637000D01*
X39243000Y16637000D02*
X39243000Y17018000D01*
X39243000Y17018000D02*
X40005000Y17780000D01*
X45085000Y20553000D02*
X45085000Y21528000D01*
X42312000Y17780000D02*
X45085000Y20553000D01*
X40005000Y17780000D02*
X42312000Y17780000D01*
%TO.N,/MAG_NET_A*%
X51333953Y13360953D02*
X51333953Y14428859D01*
X50800000Y12827000D02*
X51333953Y13360953D01*
X53542094Y16637000D02*
X53848000Y16637000D01*
X51333953Y14428859D02*
X53542094Y16637000D01*
X47625000Y12827000D02*
X50800000Y12827000D01*
X45290199Y15161801D02*
X47625000Y12827000D01*
X35738906Y14097000D02*
X36803707Y15161801D01*
X35433000Y14097000D02*
X35738906Y14097000D01*
X43815000Y21528000D02*
X43815000Y20553000D01*
X37924199Y15161801D02*
X45290199Y15161801D01*
X36803707Y15161801D02*
X37924199Y15161801D01*
X41730000Y18468000D02*
X39042000Y18468000D01*
X43815000Y20553000D02*
X41730000Y18468000D01*
X37924199Y17350199D02*
X37924199Y16588199D01*
X39042000Y18468000D02*
X37924199Y17350199D01*
X37924199Y16588199D02*
X37924199Y15161801D01*
%TO.N,/P5V_ISEN*%
X19726000Y37461500D02*
X18919500Y37461500D01*
X18919500Y37461500D02*
X16002000Y34544000D01*
X16002000Y34544000D02*
X16002000Y34163000D01*
X15859000Y34020000D02*
X15052000Y34020000D01*
X16002000Y34163000D02*
X15859000Y34020000D01*
%TO.N,/MATE_NET_IND_R*%
X21511500Y17780000D02*
X21511500Y18717500D01*
X21844000Y19050000D02*
X21844000Y20245000D01*
X21511500Y18717500D02*
X21844000Y19050000D01*
%TO.N,Net-(R3-Pad2)*%
X21026000Y41786500D02*
X21026000Y43124000D01*
X21026000Y43124000D02*
X21336000Y43434000D01*
X21336000Y43434000D02*
X27305000Y43434000D01*
X27305000Y43434000D02*
X27686000Y43053000D01*
X27686000Y43053000D02*
X27686000Y36957000D01*
X27510500Y36781500D02*
X26543000Y36781500D01*
X27686000Y36957000D02*
X27510500Y36781500D01*
%TO.N,/MATE_NET_RXD_K*%
X19356000Y20245000D02*
X19177000Y20066000D01*
X19939000Y20245000D02*
X19356000Y20245000D01*
X19177000Y20066000D02*
X19177000Y19128500D01*
X19177000Y19128500D02*
X17828500Y17780000D01*
%TO.N,Net-(R11-Pad1)*%
X21844000Y26745000D02*
X23491500Y25097500D01*
X23491500Y25097500D02*
X31115000Y25097500D01*
%TO.N,Net-(R12-Pad1)*%
X32735690Y25889810D02*
X29953810Y25889810D01*
X33528000Y25097500D02*
X32735690Y25889810D01*
X27393810Y25640190D02*
X26289000Y26745000D01*
X29704190Y25640190D02*
X27393810Y25640190D01*
X29953810Y25889810D02*
X29704190Y25640190D01*
%TO.N,/P5V_VCC*%
X23035500Y35814000D02*
X24003000Y36781500D01*
X21026000Y36251000D02*
X21463000Y35814000D01*
X21463000Y35814000D02*
X23035500Y35814000D01*
X21026000Y37461500D02*
X21026000Y36251000D01*
%TO.N,/P5V_ADJ*%
X26543000Y42466500D02*
X24003000Y42466500D01*
X22908500Y42466500D02*
X22228500Y41786500D01*
X24003000Y42466500D02*
X22908500Y42466500D01*
X22228500Y41786500D02*
X21676000Y41786500D01*
%TO.N,/P5V_AC*%
X15748000Y47292500D02*
X18288000Y47292500D01*
X18288000Y47292500D02*
X20828000Y47292500D01*
D29*
%TO.N,/P5V_SW*%
X18288000Y45417500D02*
X18288000Y39370000D01*
D30*
X12162000Y36322000D02*
X12162000Y39594000D01*
X12162000Y36322000D02*
X9779000Y36322000D01*
X12162000Y36322000D02*
X14224000Y36322000D01*
X13462000Y33147000D02*
X14589000Y32020000D01*
X12162000Y33177000D02*
X12192000Y33147000D01*
X14589000Y32020000D02*
X16002000Y32020000D01*
X12192000Y33147000D02*
X13462000Y33147000D01*
X12162000Y36322000D02*
X12162000Y33177000D01*
D27*
%TO.N,/P5V_PGATE*%
X20376000Y36251000D02*
X20376000Y37461500D01*
X19939000Y35814000D02*
X20376000Y36251000D01*
X18034000Y35814000D02*
X19939000Y35814000D01*
X16952000Y34732000D02*
X18034000Y35814000D01*
X16952000Y34020000D02*
X16952000Y34732000D01*
%TO.N,/U5_EN*%
X39956500Y24384000D02*
X39243000Y25097500D01*
X39956500Y23622000D02*
X39243000Y22908500D01*
X39956500Y24384000D02*
X39956500Y23622000D01*
X39243000Y25097500D02*
X42085500Y27940000D01*
X42085500Y27940000D02*
X43328000Y27940000D01*
X45085000Y26478000D02*
X45085000Y27686000D01*
X45085000Y27686000D02*
X44831000Y27940000D01*
X43815000Y27686000D02*
X43561000Y27940000D01*
X43815000Y26478000D02*
X43815000Y27686000D01*
X43561000Y27940000D02*
X43328000Y27940000D01*
X44831000Y27940000D02*
X43561000Y27940000D01*
%TD*%
%TO.N,/P5V_ISEN*%
G36*
X16644593Y35071170D02*
G01*
X16627148Y35056853D01*
X16612831Y35039408D01*
X16612830Y35039407D01*
X16570013Y34987235D01*
X16536088Y34923764D01*
X16527560Y34907809D01*
X16501638Y34822360D01*
X16482290Y34820454D01*
X16415260Y34800121D01*
X16353484Y34767101D01*
X16299337Y34722663D01*
X16254899Y34668516D01*
X16221879Y34606740D01*
X16201546Y34539710D01*
X16194680Y34470000D01*
X16194680Y33570000D01*
X16201546Y33500290D01*
X16221879Y33433260D01*
X16254899Y33371484D01*
X16299337Y33317337D01*
X16353484Y33272899D01*
X16415260Y33239879D01*
X16482290Y33219546D01*
X16552000Y33212680D01*
X17352000Y33212680D01*
X17421710Y33219546D01*
X17449800Y33228067D01*
X17449801Y31177379D01*
X14187023Y27914600D01*
X13166539Y27914600D01*
X13170321Y27953000D01*
X13168600Y28489050D01*
X13079700Y28577950D01*
X11938050Y28577950D01*
X11938050Y28557950D01*
X11937950Y28557950D01*
X11937950Y28577950D01*
X10796300Y28577950D01*
X10707400Y28489050D01*
X10705679Y27953000D01*
X10709461Y27914600D01*
X9821084Y27914600D01*
X8532684Y29203000D01*
X10705679Y29203000D01*
X10707400Y28666950D01*
X10796300Y28578050D01*
X11937950Y28578050D01*
X11937950Y29469700D01*
X11938050Y29469700D01*
X11938050Y28578050D01*
X13079700Y28578050D01*
X13168600Y28666950D01*
X13170321Y29203000D01*
X13163455Y29272710D01*
X13143122Y29339741D01*
X13110102Y29401517D01*
X13065664Y29455664D01*
X13011517Y29500102D01*
X12949741Y29533122D01*
X12882710Y29553455D01*
X12813000Y29560321D01*
X12026950Y29558600D01*
X11938050Y29469700D01*
X11937950Y29469700D01*
X11849050Y29558600D01*
X11063000Y29560321D01*
X10993290Y29553455D01*
X10926259Y29533122D01*
X10864483Y29500102D01*
X10810336Y29455664D01*
X10765898Y29401517D01*
X10732878Y29339741D01*
X10712545Y29272710D01*
X10705679Y29203000D01*
X8532684Y29203000D01*
X8229600Y29506084D01*
X8229600Y31961916D01*
X8551084Y32283400D01*
X13391654Y32283400D01*
X14099086Y31575967D01*
X14119767Y31550767D01*
X14181274Y31500290D01*
X14220326Y31468241D01*
X14335053Y31406918D01*
X14459539Y31369156D01*
X14589000Y31356405D01*
X14621439Y31359600D01*
X15314652Y31359600D01*
X15349337Y31317337D01*
X15403484Y31272899D01*
X15465260Y31239879D01*
X15532290Y31219546D01*
X15602000Y31212680D01*
X16402000Y31212680D01*
X16471710Y31219546D01*
X16538740Y31239879D01*
X16600516Y31272899D01*
X16654663Y31317337D01*
X16699101Y31371484D01*
X16732121Y31433260D01*
X16752454Y31500290D01*
X16759320Y31570000D01*
X16759320Y32470000D01*
X16752454Y32539710D01*
X16732121Y32606740D01*
X16699101Y32668516D01*
X16654663Y32722663D01*
X16600516Y32767101D01*
X16538740Y32800121D01*
X16471710Y32820454D01*
X16402000Y32827320D01*
X15602000Y32827320D01*
X15532290Y32820454D01*
X15465260Y32800121D01*
X15403484Y32767101D01*
X15349337Y32722663D01*
X15314652Y32680400D01*
X14862547Y32680400D01*
X13972947Y33570000D01*
X14294679Y33570000D01*
X14301545Y33500290D01*
X14321878Y33433259D01*
X14354898Y33371483D01*
X14399336Y33317336D01*
X14453483Y33272898D01*
X14515259Y33239878D01*
X14582290Y33219545D01*
X14652000Y33212679D01*
X14963050Y33214400D01*
X15051950Y33303300D01*
X15051950Y34019950D01*
X15052050Y34019950D01*
X15052050Y33303300D01*
X15140950Y33214400D01*
X15452000Y33212679D01*
X15521710Y33219545D01*
X15588741Y33239878D01*
X15650517Y33272898D01*
X15704664Y33317336D01*
X15749102Y33371483D01*
X15782122Y33433259D01*
X15802455Y33500290D01*
X15809321Y33570000D01*
X15807600Y33931050D01*
X15718700Y34019950D01*
X15052050Y34019950D01*
X15051950Y34019950D01*
X14385300Y34019950D01*
X14296400Y33931050D01*
X14294679Y33570000D01*
X13972947Y33570000D01*
X13951918Y33591028D01*
X13931233Y33616233D01*
X13915129Y33629449D01*
X13919320Y33672000D01*
X13919320Y34470000D01*
X14294679Y34470000D01*
X14296400Y34108950D01*
X14385300Y34020050D01*
X15051950Y34020050D01*
X15051950Y34736700D01*
X15052050Y34736700D01*
X15052050Y34020050D01*
X15718700Y34020050D01*
X15807600Y34108950D01*
X15809321Y34470000D01*
X15802455Y34539710D01*
X15782122Y34606741D01*
X15749102Y34668517D01*
X15704664Y34722664D01*
X15650517Y34767102D01*
X15588741Y34800122D01*
X15521710Y34820455D01*
X15452000Y34827321D01*
X15140950Y34825600D01*
X15052050Y34736700D01*
X15051950Y34736700D01*
X14963050Y34825600D01*
X14652000Y34827321D01*
X14582290Y34820455D01*
X14515259Y34800122D01*
X14453483Y34767102D01*
X14399336Y34722664D01*
X14354898Y34668517D01*
X14321878Y34606741D01*
X14301545Y34539710D01*
X14294679Y34470000D01*
X13919320Y34470000D01*
X13919320Y35204400D01*
X16777823Y35204400D01*
X16644593Y35071170D01*
G37*
X16644593Y35071170D02*
X16627148Y35056853D01*
X16612831Y35039408D01*
X16612830Y35039407D01*
X16570013Y34987235D01*
X16536088Y34923764D01*
X16527560Y34907809D01*
X16501638Y34822360D01*
X16482290Y34820454D01*
X16415260Y34800121D01*
X16353484Y34767101D01*
X16299337Y34722663D01*
X16254899Y34668516D01*
X16221879Y34606740D01*
X16201546Y34539710D01*
X16194680Y34470000D01*
X16194680Y33570000D01*
X16201546Y33500290D01*
X16221879Y33433260D01*
X16254899Y33371484D01*
X16299337Y33317337D01*
X16353484Y33272899D01*
X16415260Y33239879D01*
X16482290Y33219546D01*
X16552000Y33212680D01*
X17352000Y33212680D01*
X17421710Y33219546D01*
X17449800Y33228067D01*
X17449801Y31177379D01*
X14187023Y27914600D01*
X13166539Y27914600D01*
X13170321Y27953000D01*
X13168600Y28489050D01*
X13079700Y28577950D01*
X11938050Y28577950D01*
X11938050Y28557950D01*
X11937950Y28557950D01*
X11937950Y28577950D01*
X10796300Y28577950D01*
X10707400Y28489050D01*
X10705679Y27953000D01*
X10709461Y27914600D01*
X9821084Y27914600D01*
X8532684Y29203000D01*
X10705679Y29203000D01*
X10707400Y28666950D01*
X10796300Y28578050D01*
X11937950Y28578050D01*
X11937950Y29469700D01*
X11938050Y29469700D01*
X11938050Y28578050D01*
X13079700Y28578050D01*
X13168600Y28666950D01*
X13170321Y29203000D01*
X13163455Y29272710D01*
X13143122Y29339741D01*
X13110102Y29401517D01*
X13065664Y29455664D01*
X13011517Y29500102D01*
X12949741Y29533122D01*
X12882710Y29553455D01*
X12813000Y29560321D01*
X12026950Y29558600D01*
X11938050Y29469700D01*
X11937950Y29469700D01*
X11849050Y29558600D01*
X11063000Y29560321D01*
X10993290Y29553455D01*
X10926259Y29533122D01*
X10864483Y29500102D01*
X10810336Y29455664D01*
X10765898Y29401517D01*
X10732878Y29339741D01*
X10712545Y29272710D01*
X10705679Y29203000D01*
X8532684Y29203000D01*
X8229600Y29506084D01*
X8229600Y31961916D01*
X8551084Y32283400D01*
X13391654Y32283400D01*
X14099086Y31575967D01*
X14119767Y31550767D01*
X14181274Y31500290D01*
X14220326Y31468241D01*
X14335053Y31406918D01*
X14459539Y31369156D01*
X14589000Y31356405D01*
X14621439Y31359600D01*
X15314652Y31359600D01*
X15349337Y31317337D01*
X15403484Y31272899D01*
X15465260Y31239879D01*
X15532290Y31219546D01*
X15602000Y31212680D01*
X16402000Y31212680D01*
X16471710Y31219546D01*
X16538740Y31239879D01*
X16600516Y31272899D01*
X16654663Y31317337D01*
X16699101Y31371484D01*
X16732121Y31433260D01*
X16752454Y31500290D01*
X16759320Y31570000D01*
X16759320Y32470000D01*
X16752454Y32539710D01*
X16732121Y32606740D01*
X16699101Y32668516D01*
X16654663Y32722663D01*
X16600516Y32767101D01*
X16538740Y32800121D01*
X16471710Y32820454D01*
X16402000Y32827320D01*
X15602000Y32827320D01*
X15532290Y32820454D01*
X15465260Y32800121D01*
X15403484Y32767101D01*
X15349337Y32722663D01*
X15314652Y32680400D01*
X14862547Y32680400D01*
X13972947Y33570000D01*
X14294679Y33570000D01*
X14301545Y33500290D01*
X14321878Y33433259D01*
X14354898Y33371483D01*
X14399336Y33317336D01*
X14453483Y33272898D01*
X14515259Y33239878D01*
X14582290Y33219545D01*
X14652000Y33212679D01*
X14963050Y33214400D01*
X15051950Y33303300D01*
X15051950Y34019950D01*
X15052050Y34019950D01*
X15052050Y33303300D01*
X15140950Y33214400D01*
X15452000Y33212679D01*
X15521710Y33219545D01*
X15588741Y33239878D01*
X15650517Y33272898D01*
X15704664Y33317336D01*
X15749102Y33371483D01*
X15782122Y33433259D01*
X15802455Y33500290D01*
X15809321Y33570000D01*
X15807600Y33931050D01*
X15718700Y34019950D01*
X15052050Y34019950D01*
X15051950Y34019950D01*
X14385300Y34019950D01*
X14296400Y33931050D01*
X14294679Y33570000D01*
X13972947Y33570000D01*
X13951918Y33591028D01*
X13931233Y33616233D01*
X13915129Y33629449D01*
X13919320Y33672000D01*
X13919320Y34470000D01*
X14294679Y34470000D01*
X14296400Y34108950D01*
X14385300Y34020050D01*
X15051950Y34020050D01*
X15051950Y34736700D01*
X15052050Y34736700D01*
X15052050Y34020050D01*
X15718700Y34020050D01*
X15807600Y34108950D01*
X15809321Y34470000D01*
X15802455Y34539710D01*
X15782122Y34606741D01*
X15749102Y34668517D01*
X15704664Y34722664D01*
X15650517Y34767102D01*
X15588741Y34800122D01*
X15521710Y34820455D01*
X15452000Y34827321D01*
X15140950Y34825600D01*
X15052050Y34736700D01*
X15051950Y34736700D01*
X14963050Y34825600D01*
X14652000Y34827321D01*
X14582290Y34820455D01*
X14515259Y34800122D01*
X14453483Y34767102D01*
X14399336Y34722664D01*
X14354898Y34668517D01*
X14321878Y34606741D01*
X14301545Y34539710D01*
X14294679Y34470000D01*
X13919320Y34470000D01*
X13919320Y35204400D01*
X16777823Y35204400D01*
X16644593Y35071170D01*
%TO.N,+BATT*%
G36*
X10705679Y26403000D02*
G01*
X10707400Y25866950D01*
X10796300Y25778050D01*
X11937950Y25778050D01*
X11937950Y25798050D01*
X11938050Y25798050D01*
X11938050Y25778050D01*
X11958050Y25778050D01*
X11958050Y25777950D01*
X11938050Y25777950D01*
X11938050Y24886300D01*
X12026950Y24797400D01*
X12344400Y24796705D01*
X12344400Y17246600D01*
X11519926Y17246600D01*
X11518600Y18199050D01*
X11429700Y18287950D01*
X10538050Y18287950D01*
X10538050Y18267950D01*
X10537950Y18267950D01*
X10537950Y18287950D01*
X9646300Y18287950D01*
X9557400Y18199050D01*
X9556089Y17257595D01*
X8453842Y18359842D01*
X8438446Y18372477D01*
X8420881Y18381866D01*
X8401821Y18387648D01*
X8382000Y18389600D01*
X5884084Y18389600D01*
X5562600Y18711084D01*
X5562600Y19091834D01*
X5566259Y19089878D01*
X5633290Y19069545D01*
X5703000Y19062679D01*
X6864050Y19064400D01*
X6952950Y19153300D01*
X6952950Y20319950D01*
X6953050Y20319950D01*
X6953050Y19153300D01*
X7041950Y19064400D01*
X8203000Y19062679D01*
X8272710Y19069545D01*
X8339741Y19089878D01*
X8401517Y19122898D01*
X8455664Y19167336D01*
X8500102Y19221483D01*
X8533122Y19283259D01*
X8553455Y19350290D01*
X8560321Y19420000D01*
X8559912Y19613000D01*
X9555679Y19613000D01*
X9557400Y18376950D01*
X9646300Y18288050D01*
X10537950Y18288050D01*
X10537950Y19879700D01*
X10538050Y19879700D01*
X10538050Y18288050D01*
X11429700Y18288050D01*
X11518600Y18376950D01*
X11520321Y19613000D01*
X11513455Y19682710D01*
X11493122Y19749741D01*
X11460102Y19811517D01*
X11415664Y19865664D01*
X11361517Y19910102D01*
X11299741Y19943122D01*
X11232710Y19963455D01*
X11163000Y19970321D01*
X10626950Y19968600D01*
X10538050Y19879700D01*
X10537950Y19879700D01*
X10449050Y19968600D01*
X9913000Y19970321D01*
X9843290Y19963455D01*
X9776259Y19943122D01*
X9714483Y19910102D01*
X9660336Y19865664D01*
X9615898Y19811517D01*
X9582878Y19749741D01*
X9562545Y19682710D01*
X9555679Y19613000D01*
X8559912Y19613000D01*
X8558600Y20231050D01*
X8469700Y20319950D01*
X6953050Y20319950D01*
X6952950Y20319950D01*
X6932950Y20319950D01*
X6932950Y20320050D01*
X6952950Y20320050D01*
X6952950Y21486700D01*
X6953050Y21486700D01*
X6953050Y20320050D01*
X8469700Y20320050D01*
X8558600Y20408950D01*
X8560180Y21154000D01*
X9555679Y21154000D01*
X9562545Y21084290D01*
X9582878Y21017259D01*
X9615898Y20955483D01*
X9660336Y20901336D01*
X9714483Y20856898D01*
X9776259Y20823878D01*
X9843290Y20803545D01*
X9913000Y20796679D01*
X10449050Y20798400D01*
X10537950Y20887300D01*
X10537950Y22478950D01*
X10538050Y22478950D01*
X10538050Y20887300D01*
X10626950Y20798400D01*
X11163000Y20796679D01*
X11232710Y20803545D01*
X11299741Y20823878D01*
X11361517Y20856898D01*
X11415664Y20901336D01*
X11460102Y20955483D01*
X11493122Y21017259D01*
X11513455Y21084290D01*
X11520321Y21154000D01*
X11518600Y22390050D01*
X11429700Y22478950D01*
X10538050Y22478950D01*
X10537950Y22478950D01*
X9646300Y22478950D01*
X9557400Y22390050D01*
X9555679Y21154000D01*
X8560180Y21154000D01*
X8560321Y21220000D01*
X8553455Y21289710D01*
X8533122Y21356741D01*
X8500102Y21418517D01*
X8455664Y21472664D01*
X8401517Y21517102D01*
X8339741Y21550122D01*
X8272710Y21570455D01*
X8203000Y21577321D01*
X7041950Y21575600D01*
X6953050Y21486700D01*
X6952950Y21486700D01*
X6864050Y21575600D01*
X6571511Y21576034D01*
X9015086Y23804000D01*
X9555679Y23804000D01*
X9557400Y22567950D01*
X9646300Y22479050D01*
X10537950Y22479050D01*
X10537950Y24070700D01*
X10538050Y24070700D01*
X10538050Y22479050D01*
X11429700Y22479050D01*
X11518600Y22567950D01*
X11520321Y23804000D01*
X11513455Y23873710D01*
X11493122Y23940741D01*
X11460102Y24002517D01*
X11415664Y24056664D01*
X11361517Y24101102D01*
X11299741Y24134122D01*
X11232710Y24154455D01*
X11163000Y24161321D01*
X10626950Y24159600D01*
X10538050Y24070700D01*
X10537950Y24070700D01*
X10449050Y24159600D01*
X9913000Y24161321D01*
X9843290Y24154455D01*
X9776259Y24134122D01*
X9714483Y24101102D01*
X9660336Y24056664D01*
X9615898Y24002517D01*
X9582878Y23940741D01*
X9562545Y23873710D01*
X9555679Y23804000D01*
X9015086Y23804000D01*
X9847453Y24562922D01*
X9860785Y24577719D01*
X9870974Y24594833D01*
X9877628Y24613606D01*
X9880600Y24638000D01*
X9880600Y25153000D01*
X10705679Y25153000D01*
X10712545Y25083290D01*
X10732878Y25016259D01*
X10765898Y24954483D01*
X10810336Y24900336D01*
X10864483Y24855898D01*
X10926259Y24822878D01*
X10993290Y24802545D01*
X11063000Y24795679D01*
X11849050Y24797400D01*
X11937950Y24886300D01*
X11937950Y25777950D01*
X10796300Y25777950D01*
X10707400Y25689050D01*
X10705679Y25153000D01*
X9880600Y25153000D01*
X9880600Y26373916D01*
X9948084Y26441400D01*
X10709461Y26441400D01*
X10705679Y26403000D01*
G37*
X10705679Y26403000D02*
X10707400Y25866950D01*
X10796300Y25778050D01*
X11937950Y25778050D01*
X11937950Y25798050D01*
X11938050Y25798050D01*
X11938050Y25778050D01*
X11958050Y25778050D01*
X11958050Y25777950D01*
X11938050Y25777950D01*
X11938050Y24886300D01*
X12026950Y24797400D01*
X12344400Y24796705D01*
X12344400Y17246600D01*
X11519926Y17246600D01*
X11518600Y18199050D01*
X11429700Y18287950D01*
X10538050Y18287950D01*
X10538050Y18267950D01*
X10537950Y18267950D01*
X10537950Y18287950D01*
X9646300Y18287950D01*
X9557400Y18199050D01*
X9556089Y17257595D01*
X8453842Y18359842D01*
X8438446Y18372477D01*
X8420881Y18381866D01*
X8401821Y18387648D01*
X8382000Y18389600D01*
X5884084Y18389600D01*
X5562600Y18711084D01*
X5562600Y19091834D01*
X5566259Y19089878D01*
X5633290Y19069545D01*
X5703000Y19062679D01*
X6864050Y19064400D01*
X6952950Y19153300D01*
X6952950Y20319950D01*
X6953050Y20319950D01*
X6953050Y19153300D01*
X7041950Y19064400D01*
X8203000Y19062679D01*
X8272710Y19069545D01*
X8339741Y19089878D01*
X8401517Y19122898D01*
X8455664Y19167336D01*
X8500102Y19221483D01*
X8533122Y19283259D01*
X8553455Y19350290D01*
X8560321Y19420000D01*
X8559912Y19613000D01*
X9555679Y19613000D01*
X9557400Y18376950D01*
X9646300Y18288050D01*
X10537950Y18288050D01*
X10537950Y19879700D01*
X10538050Y19879700D01*
X10538050Y18288050D01*
X11429700Y18288050D01*
X11518600Y18376950D01*
X11520321Y19613000D01*
X11513455Y19682710D01*
X11493122Y19749741D01*
X11460102Y19811517D01*
X11415664Y19865664D01*
X11361517Y19910102D01*
X11299741Y19943122D01*
X11232710Y19963455D01*
X11163000Y19970321D01*
X10626950Y19968600D01*
X10538050Y19879700D01*
X10537950Y19879700D01*
X10449050Y19968600D01*
X9913000Y19970321D01*
X9843290Y19963455D01*
X9776259Y19943122D01*
X9714483Y19910102D01*
X9660336Y19865664D01*
X9615898Y19811517D01*
X9582878Y19749741D01*
X9562545Y19682710D01*
X9555679Y19613000D01*
X8559912Y19613000D01*
X8558600Y20231050D01*
X8469700Y20319950D01*
X6953050Y20319950D01*
X6952950Y20319950D01*
X6932950Y20319950D01*
X6932950Y20320050D01*
X6952950Y20320050D01*
X6952950Y21486700D01*
X6953050Y21486700D01*
X6953050Y20320050D01*
X8469700Y20320050D01*
X8558600Y20408950D01*
X8560180Y21154000D01*
X9555679Y21154000D01*
X9562545Y21084290D01*
X9582878Y21017259D01*
X9615898Y20955483D01*
X9660336Y20901336D01*
X9714483Y20856898D01*
X9776259Y20823878D01*
X9843290Y20803545D01*
X9913000Y20796679D01*
X10449050Y20798400D01*
X10537950Y20887300D01*
X10537950Y22478950D01*
X10538050Y22478950D01*
X10538050Y20887300D01*
X10626950Y20798400D01*
X11163000Y20796679D01*
X11232710Y20803545D01*
X11299741Y20823878D01*
X11361517Y20856898D01*
X11415664Y20901336D01*
X11460102Y20955483D01*
X11493122Y21017259D01*
X11513455Y21084290D01*
X11520321Y21154000D01*
X11518600Y22390050D01*
X11429700Y22478950D01*
X10538050Y22478950D01*
X10537950Y22478950D01*
X9646300Y22478950D01*
X9557400Y22390050D01*
X9555679Y21154000D01*
X8560180Y21154000D01*
X8560321Y21220000D01*
X8553455Y21289710D01*
X8533122Y21356741D01*
X8500102Y21418517D01*
X8455664Y21472664D01*
X8401517Y21517102D01*
X8339741Y21550122D01*
X8272710Y21570455D01*
X8203000Y21577321D01*
X7041950Y21575600D01*
X6953050Y21486700D01*
X6952950Y21486700D01*
X6864050Y21575600D01*
X6571511Y21576034D01*
X9015086Y23804000D01*
X9555679Y23804000D01*
X9557400Y22567950D01*
X9646300Y22479050D01*
X10537950Y22479050D01*
X10537950Y24070700D01*
X10538050Y24070700D01*
X10538050Y22479050D01*
X11429700Y22479050D01*
X11518600Y22567950D01*
X11520321Y23804000D01*
X11513455Y23873710D01*
X11493122Y23940741D01*
X11460102Y24002517D01*
X11415664Y24056664D01*
X11361517Y24101102D01*
X11299741Y24134122D01*
X11232710Y24154455D01*
X11163000Y24161321D01*
X10626950Y24159600D01*
X10538050Y24070700D01*
X10537950Y24070700D01*
X10449050Y24159600D01*
X9913000Y24161321D01*
X9843290Y24154455D01*
X9776259Y24134122D01*
X9714483Y24101102D01*
X9660336Y24056664D01*
X9615898Y24002517D01*
X9582878Y23940741D01*
X9562545Y23873710D01*
X9555679Y23804000D01*
X9015086Y23804000D01*
X9847453Y24562922D01*
X9860785Y24577719D01*
X9870974Y24594833D01*
X9877628Y24613606D01*
X9880600Y24638000D01*
X9880600Y25153000D01*
X10705679Y25153000D01*
X10712545Y25083290D01*
X10732878Y25016259D01*
X10765898Y24954483D01*
X10810336Y24900336D01*
X10864483Y24855898D01*
X10926259Y24822878D01*
X10993290Y24802545D01*
X11063000Y24795679D01*
X11849050Y24797400D01*
X11937950Y24886300D01*
X11937950Y25777950D01*
X10796300Y25777950D01*
X10707400Y25689050D01*
X10705679Y25153000D01*
X9880600Y25153000D01*
X9880600Y26373916D01*
X9948084Y26441400D01*
X10709461Y26441400D01*
X10705679Y26403000D01*
%TO.N,/PBATT_CONN*%
G36*
X1450336Y21472664D02*
G01*
X1405898Y21418517D01*
X1372878Y21356741D01*
X1352545Y21289710D01*
X1345679Y21220000D01*
X1347400Y20408950D01*
X1436300Y20320050D01*
X2952950Y20320050D01*
X2952950Y20340050D01*
X2953050Y20340050D01*
X2953050Y20320050D01*
X4469700Y20320050D01*
X4558600Y20408950D01*
X4560321Y21220000D01*
X4553455Y21289710D01*
X4533122Y21356741D01*
X4500102Y21418517D01*
X4455664Y21472664D01*
X4436490Y21488400D01*
X4783431Y21488400D01*
X5262626Y21001349D01*
X5221413Y20963773D01*
X5165329Y20898561D01*
X5132468Y20837082D01*
X5112233Y20770374D01*
X5105400Y20701000D01*
X5105400Y18669000D01*
X5112233Y18599626D01*
X5132468Y18532918D01*
X5165329Y18471439D01*
X5209553Y18417553D01*
X5590553Y18036553D01*
X5644439Y17992329D01*
X5705918Y17959468D01*
X5772626Y17939233D01*
X5842000Y17932400D01*
X8234706Y17932400D01*
X9273553Y16893553D01*
X9327439Y16849329D01*
X9370127Y16826512D01*
X11890597Y14264722D01*
X11968230Y14077302D01*
X12089224Y13896221D01*
X12243221Y13742224D01*
X12424302Y13621230D01*
X12625508Y13537887D01*
X12839108Y13495400D01*
X13056892Y13495400D01*
X13270492Y13537887D01*
X13455209Y13614400D01*
X14730791Y13614400D01*
X14915508Y13537887D01*
X15129108Y13495400D01*
X15346892Y13495400D01*
X15560492Y13537887D01*
X15745209Y13614400D01*
X23870791Y13614400D01*
X24055508Y13537887D01*
X24269108Y13495400D01*
X24486892Y13495400D01*
X24700492Y13537887D01*
X24885209Y13614400D01*
X24975602Y13614400D01*
X24975601Y7715180D01*
X24471377Y7210955D01*
X24475321Y7251000D01*
X24473600Y7912050D01*
X24384700Y8000950D01*
X23368050Y8000950D01*
X23368050Y7980950D01*
X23367950Y7980950D01*
X23367950Y8000950D01*
X23347950Y8000950D01*
X23347950Y8001050D01*
X23367950Y8001050D01*
X23367950Y9017700D01*
X23368050Y9017700D01*
X23368050Y8001050D01*
X24384700Y8001050D01*
X24473600Y8089950D01*
X24475321Y8751000D01*
X24468455Y8820710D01*
X24448122Y8887741D01*
X24415102Y8949517D01*
X24370664Y9003664D01*
X24316517Y9048102D01*
X24254741Y9081122D01*
X24187710Y9101455D01*
X24118000Y9108321D01*
X23456950Y9106600D01*
X23368050Y9017700D01*
X23367950Y9017700D01*
X23279050Y9106600D01*
X23231158Y9106725D01*
X23331770Y9257302D01*
X23415113Y9458508D01*
X23457600Y9672108D01*
X23457600Y9889892D01*
X23415113Y10103492D01*
X23331770Y10304698D01*
X23210776Y10485779D01*
X23056779Y10639776D01*
X22875698Y10760770D01*
X22674492Y10844113D01*
X22460892Y10886600D01*
X22243108Y10886600D01*
X22029508Y10844113D01*
X21828302Y10760770D01*
X21647221Y10639776D01*
X21493224Y10485779D01*
X21372230Y10304698D01*
X21336000Y10217232D01*
X21299770Y10304698D01*
X21178776Y10485779D01*
X21024779Y10639776D01*
X20843698Y10760770D01*
X20642492Y10844113D01*
X20428892Y10886600D01*
X20211108Y10886600D01*
X19997508Y10844113D01*
X19796302Y10760770D01*
X19615221Y10639776D01*
X19461224Y10485779D01*
X19340230Y10304698D01*
X19304000Y10217232D01*
X19267770Y10304698D01*
X19146776Y10485779D01*
X18992779Y10639776D01*
X18811698Y10760770D01*
X18610492Y10844113D01*
X18396892Y10886600D01*
X18179108Y10886600D01*
X17965508Y10844113D01*
X17899009Y10816568D01*
X17073975Y11641602D01*
X17059654Y11659052D01*
X16990037Y11716186D01*
X16910610Y11758640D01*
X16824428Y11784784D01*
X16757261Y11791399D01*
X16757251Y11791399D01*
X16734801Y11793610D01*
X16712351Y11791399D01*
X9307285Y11791399D01*
X8991600Y12107084D01*
X8991600Y14224000D01*
X8989648Y14243821D01*
X8983866Y14262881D01*
X8974477Y14280446D01*
X8961842Y14295842D01*
X8914822Y14342862D01*
X8955631Y14350979D01*
X9075817Y14400761D01*
X9183980Y14473034D01*
X9275966Y14565020D01*
X9348239Y14673183D01*
X9398021Y14793369D01*
X9423400Y14920956D01*
X9423400Y15051044D01*
X9398021Y15178631D01*
X9348239Y15298817D01*
X9275966Y15406980D01*
X9183980Y15498966D01*
X9075817Y15571239D01*
X8955631Y15621021D01*
X8828044Y15646400D01*
X8697956Y15646400D01*
X8639545Y15634781D01*
X8627121Y15675740D01*
X8594101Y15737516D01*
X8549663Y15791663D01*
X8495516Y15836101D01*
X8433740Y15869121D01*
X8366710Y15889454D01*
X8297000Y15896320D01*
X7361364Y15896320D01*
X7310842Y15946842D01*
X7295446Y15959477D01*
X7277881Y15968866D01*
X7258821Y15974648D01*
X7239000Y15976600D01*
X804084Y15976600D01*
X405600Y16375084D01*
X405600Y19420000D01*
X1345679Y19420000D01*
X1352545Y19350290D01*
X1372878Y19283259D01*
X1405898Y19221483D01*
X1450336Y19167336D01*
X1504483Y19122898D01*
X1566259Y19089878D01*
X1633290Y19069545D01*
X1703000Y19062679D01*
X2864050Y19064400D01*
X2952950Y19153300D01*
X2952950Y20319950D01*
X2953050Y20319950D01*
X2953050Y19153300D01*
X3041950Y19064400D01*
X4203000Y19062679D01*
X4272710Y19069545D01*
X4339741Y19089878D01*
X4401517Y19122898D01*
X4455664Y19167336D01*
X4500102Y19221483D01*
X4533122Y19283259D01*
X4553455Y19350290D01*
X4560321Y19420000D01*
X4558600Y20231050D01*
X4469700Y20319950D01*
X2953050Y20319950D01*
X2952950Y20319950D01*
X1436300Y20319950D01*
X1347400Y20231050D01*
X1345679Y19420000D01*
X405600Y19420000D01*
X405600Y21089916D01*
X804084Y21488400D01*
X1469510Y21488400D01*
X1450336Y21472664D01*
G37*
X1450336Y21472664D02*
X1405898Y21418517D01*
X1372878Y21356741D01*
X1352545Y21289710D01*
X1345679Y21220000D01*
X1347400Y20408950D01*
X1436300Y20320050D01*
X2952950Y20320050D01*
X2952950Y20340050D01*
X2953050Y20340050D01*
X2953050Y20320050D01*
X4469700Y20320050D01*
X4558600Y20408950D01*
X4560321Y21220000D01*
X4553455Y21289710D01*
X4533122Y21356741D01*
X4500102Y21418517D01*
X4455664Y21472664D01*
X4436490Y21488400D01*
X4783431Y21488400D01*
X5262626Y21001349D01*
X5221413Y20963773D01*
X5165329Y20898561D01*
X5132468Y20837082D01*
X5112233Y20770374D01*
X5105400Y20701000D01*
X5105400Y18669000D01*
X5112233Y18599626D01*
X5132468Y18532918D01*
X5165329Y18471439D01*
X5209553Y18417553D01*
X5590553Y18036553D01*
X5644439Y17992329D01*
X5705918Y17959468D01*
X5772626Y17939233D01*
X5842000Y17932400D01*
X8234706Y17932400D01*
X9273553Y16893553D01*
X9327439Y16849329D01*
X9370127Y16826512D01*
X11890597Y14264722D01*
X11968230Y14077302D01*
X12089224Y13896221D01*
X12243221Y13742224D01*
X12424302Y13621230D01*
X12625508Y13537887D01*
X12839108Y13495400D01*
X13056892Y13495400D01*
X13270492Y13537887D01*
X13455209Y13614400D01*
X14730791Y13614400D01*
X14915508Y13537887D01*
X15129108Y13495400D01*
X15346892Y13495400D01*
X15560492Y13537887D01*
X15745209Y13614400D01*
X23870791Y13614400D01*
X24055508Y13537887D01*
X24269108Y13495400D01*
X24486892Y13495400D01*
X24700492Y13537887D01*
X24885209Y13614400D01*
X24975602Y13614400D01*
X24975601Y7715180D01*
X24471377Y7210955D01*
X24475321Y7251000D01*
X24473600Y7912050D01*
X24384700Y8000950D01*
X23368050Y8000950D01*
X23368050Y7980950D01*
X23367950Y7980950D01*
X23367950Y8000950D01*
X23347950Y8000950D01*
X23347950Y8001050D01*
X23367950Y8001050D01*
X23367950Y9017700D01*
X23368050Y9017700D01*
X23368050Y8001050D01*
X24384700Y8001050D01*
X24473600Y8089950D01*
X24475321Y8751000D01*
X24468455Y8820710D01*
X24448122Y8887741D01*
X24415102Y8949517D01*
X24370664Y9003664D01*
X24316517Y9048102D01*
X24254741Y9081122D01*
X24187710Y9101455D01*
X24118000Y9108321D01*
X23456950Y9106600D01*
X23368050Y9017700D01*
X23367950Y9017700D01*
X23279050Y9106600D01*
X23231158Y9106725D01*
X23331770Y9257302D01*
X23415113Y9458508D01*
X23457600Y9672108D01*
X23457600Y9889892D01*
X23415113Y10103492D01*
X23331770Y10304698D01*
X23210776Y10485779D01*
X23056779Y10639776D01*
X22875698Y10760770D01*
X22674492Y10844113D01*
X22460892Y10886600D01*
X22243108Y10886600D01*
X22029508Y10844113D01*
X21828302Y10760770D01*
X21647221Y10639776D01*
X21493224Y10485779D01*
X21372230Y10304698D01*
X21336000Y10217232D01*
X21299770Y10304698D01*
X21178776Y10485779D01*
X21024779Y10639776D01*
X20843698Y10760770D01*
X20642492Y10844113D01*
X20428892Y10886600D01*
X20211108Y10886600D01*
X19997508Y10844113D01*
X19796302Y10760770D01*
X19615221Y10639776D01*
X19461224Y10485779D01*
X19340230Y10304698D01*
X19304000Y10217232D01*
X19267770Y10304698D01*
X19146776Y10485779D01*
X18992779Y10639776D01*
X18811698Y10760770D01*
X18610492Y10844113D01*
X18396892Y10886600D01*
X18179108Y10886600D01*
X17965508Y10844113D01*
X17899009Y10816568D01*
X17073975Y11641602D01*
X17059654Y11659052D01*
X16990037Y11716186D01*
X16910610Y11758640D01*
X16824428Y11784784D01*
X16757261Y11791399D01*
X16757251Y11791399D01*
X16734801Y11793610D01*
X16712351Y11791399D01*
X9307285Y11791399D01*
X8991600Y12107084D01*
X8991600Y14224000D01*
X8989648Y14243821D01*
X8983866Y14262881D01*
X8974477Y14280446D01*
X8961842Y14295842D01*
X8914822Y14342862D01*
X8955631Y14350979D01*
X9075817Y14400761D01*
X9183980Y14473034D01*
X9275966Y14565020D01*
X9348239Y14673183D01*
X9398021Y14793369D01*
X9423400Y14920956D01*
X9423400Y15051044D01*
X9398021Y15178631D01*
X9348239Y15298817D01*
X9275966Y15406980D01*
X9183980Y15498966D01*
X9075817Y15571239D01*
X8955631Y15621021D01*
X8828044Y15646400D01*
X8697956Y15646400D01*
X8639545Y15634781D01*
X8627121Y15675740D01*
X8594101Y15737516D01*
X8549663Y15791663D01*
X8495516Y15836101D01*
X8433740Y15869121D01*
X8366710Y15889454D01*
X8297000Y15896320D01*
X7361364Y15896320D01*
X7310842Y15946842D01*
X7295446Y15959477D01*
X7277881Y15968866D01*
X7258821Y15974648D01*
X7239000Y15976600D01*
X804084Y15976600D01*
X405600Y16375084D01*
X405600Y19420000D01*
X1345679Y19420000D01*
X1352545Y19350290D01*
X1372878Y19283259D01*
X1405898Y19221483D01*
X1450336Y19167336D01*
X1504483Y19122898D01*
X1566259Y19089878D01*
X1633290Y19069545D01*
X1703000Y19062679D01*
X2864050Y19064400D01*
X2952950Y19153300D01*
X2952950Y20319950D01*
X2953050Y20319950D01*
X2953050Y19153300D01*
X3041950Y19064400D01*
X4203000Y19062679D01*
X4272710Y19069545D01*
X4339741Y19089878D01*
X4401517Y19122898D01*
X4455664Y19167336D01*
X4500102Y19221483D01*
X4533122Y19283259D01*
X4553455Y19350290D01*
X4560321Y19420000D01*
X4558600Y20231050D01*
X4469700Y20319950D01*
X2953050Y20319950D01*
X2952950Y20319950D01*
X1436300Y20319950D01*
X1347400Y20231050D01*
X1345679Y19420000D01*
X405600Y19420000D01*
X405600Y21089916D01*
X804084Y21488400D01*
X1469510Y21488400D01*
X1450336Y21472664D01*
%TO.N,/P5V_SW*%
G36*
X15032290Y40023546D02*
G01*
X15102000Y40016680D01*
X16902000Y40016680D01*
X16971710Y40023546D01*
X16994305Y40030400D01*
X18372916Y40030400D01*
X18694400Y39708916D01*
X18694400Y37859595D01*
X18664264Y37843487D01*
X18594647Y37786353D01*
X18580330Y37768908D01*
X17259212Y36447789D01*
X17257600Y37535050D01*
X17168700Y37623950D01*
X16002050Y37623950D01*
X16002050Y36107300D01*
X16090950Y36018400D01*
X16828258Y36016835D01*
X16473023Y35661600D01*
X13917984Y35661600D01*
X13917600Y36233050D01*
X13828700Y36321950D01*
X12162050Y36321950D01*
X12162050Y33405300D01*
X12250950Y33316400D01*
X13360400Y33314944D01*
X13360400Y32867600D01*
X8551084Y32867600D01*
X8229600Y33189084D01*
X8229600Y33672000D01*
X10404679Y33672000D01*
X10411545Y33602290D01*
X10431878Y33535259D01*
X10464898Y33473483D01*
X10509336Y33419336D01*
X10563483Y33374898D01*
X10625259Y33341878D01*
X10692290Y33321545D01*
X10762000Y33314679D01*
X12073050Y33316400D01*
X12161950Y33405300D01*
X12161950Y36321950D01*
X10495300Y36321950D01*
X10406400Y36233050D01*
X10404679Y33672000D01*
X8229600Y33672000D01*
X8229600Y38972000D01*
X10404679Y38972000D01*
X10406400Y36410950D01*
X10495300Y36322050D01*
X12161950Y36322050D01*
X12161950Y39238700D01*
X12162050Y39238700D01*
X12162050Y36322050D01*
X13828700Y36322050D01*
X13880650Y36374000D01*
X14744679Y36374000D01*
X14751545Y36304290D01*
X14771878Y36237259D01*
X14804898Y36175483D01*
X14849336Y36121336D01*
X14903483Y36076898D01*
X14965259Y36043878D01*
X15032290Y36023545D01*
X15102000Y36016679D01*
X15913050Y36018400D01*
X16001950Y36107300D01*
X16001950Y37623950D01*
X14835300Y37623950D01*
X14746400Y37535050D01*
X14744679Y36374000D01*
X13880650Y36374000D01*
X13917600Y36410950D01*
X13919255Y38874000D01*
X14744679Y38874000D01*
X14746400Y37712950D01*
X14835300Y37624050D01*
X16001950Y37624050D01*
X16001950Y39140700D01*
X16002050Y39140700D01*
X16002050Y37624050D01*
X17168700Y37624050D01*
X17257600Y37712950D01*
X17259321Y38874000D01*
X17252455Y38943710D01*
X17232122Y39010741D01*
X17199102Y39072517D01*
X17154664Y39126664D01*
X17100517Y39171102D01*
X17038741Y39204122D01*
X16971710Y39224455D01*
X16902000Y39231321D01*
X16090950Y39229600D01*
X16002050Y39140700D01*
X16001950Y39140700D01*
X15913050Y39229600D01*
X15102000Y39231321D01*
X15032290Y39224455D01*
X14965259Y39204122D01*
X14903483Y39171102D01*
X14849336Y39126664D01*
X14804898Y39072517D01*
X14771878Y39010741D01*
X14751545Y38943710D01*
X14744679Y38874000D01*
X13919255Y38874000D01*
X13919321Y38972000D01*
X13912455Y39041710D01*
X13892122Y39108741D01*
X13859102Y39170517D01*
X13814664Y39224664D01*
X13760517Y39269102D01*
X13698741Y39302122D01*
X13631710Y39322455D01*
X13562000Y39329321D01*
X12250950Y39327600D01*
X12162050Y39238700D01*
X12161950Y39238700D01*
X12073050Y39327600D01*
X10762000Y39329321D01*
X10692290Y39322455D01*
X10625259Y39302122D01*
X10563483Y39269102D01*
X10509336Y39224664D01*
X10464898Y39170517D01*
X10431878Y39108741D01*
X10411545Y39041710D01*
X10404679Y38972000D01*
X8229600Y38972000D01*
X8229600Y39708916D01*
X8551084Y40030400D01*
X15009695Y40030400D01*
X15032290Y40023546D01*
G37*
X15032290Y40023546D02*
X15102000Y40016680D01*
X16902000Y40016680D01*
X16971710Y40023546D01*
X16994305Y40030400D01*
X18372916Y40030400D01*
X18694400Y39708916D01*
X18694400Y37859595D01*
X18664264Y37843487D01*
X18594647Y37786353D01*
X18580330Y37768908D01*
X17259212Y36447789D01*
X17257600Y37535050D01*
X17168700Y37623950D01*
X16002050Y37623950D01*
X16002050Y36107300D01*
X16090950Y36018400D01*
X16828258Y36016835D01*
X16473023Y35661600D01*
X13917984Y35661600D01*
X13917600Y36233050D01*
X13828700Y36321950D01*
X12162050Y36321950D01*
X12162050Y33405300D01*
X12250950Y33316400D01*
X13360400Y33314944D01*
X13360400Y32867600D01*
X8551084Y32867600D01*
X8229600Y33189084D01*
X8229600Y33672000D01*
X10404679Y33672000D01*
X10411545Y33602290D01*
X10431878Y33535259D01*
X10464898Y33473483D01*
X10509336Y33419336D01*
X10563483Y33374898D01*
X10625259Y33341878D01*
X10692290Y33321545D01*
X10762000Y33314679D01*
X12073050Y33316400D01*
X12161950Y33405300D01*
X12161950Y36321950D01*
X10495300Y36321950D01*
X10406400Y36233050D01*
X10404679Y33672000D01*
X8229600Y33672000D01*
X8229600Y38972000D01*
X10404679Y38972000D01*
X10406400Y36410950D01*
X10495300Y36322050D01*
X12161950Y36322050D01*
X12161950Y39238700D01*
X12162050Y39238700D01*
X12162050Y36322050D01*
X13828700Y36322050D01*
X13880650Y36374000D01*
X14744679Y36374000D01*
X14751545Y36304290D01*
X14771878Y36237259D01*
X14804898Y36175483D01*
X14849336Y36121336D01*
X14903483Y36076898D01*
X14965259Y36043878D01*
X15032290Y36023545D01*
X15102000Y36016679D01*
X15913050Y36018400D01*
X16001950Y36107300D01*
X16001950Y37623950D01*
X14835300Y37623950D01*
X14746400Y37535050D01*
X14744679Y36374000D01*
X13880650Y36374000D01*
X13917600Y36410950D01*
X13919255Y38874000D01*
X14744679Y38874000D01*
X14746400Y37712950D01*
X14835300Y37624050D01*
X16001950Y37624050D01*
X16001950Y39140700D01*
X16002050Y39140700D01*
X16002050Y37624050D01*
X17168700Y37624050D01*
X17257600Y37712950D01*
X17259321Y38874000D01*
X17252455Y38943710D01*
X17232122Y39010741D01*
X17199102Y39072517D01*
X17154664Y39126664D01*
X17100517Y39171102D01*
X17038741Y39204122D01*
X16971710Y39224455D01*
X16902000Y39231321D01*
X16090950Y39229600D01*
X16002050Y39140700D01*
X16001950Y39140700D01*
X15913050Y39229600D01*
X15102000Y39231321D01*
X15032290Y39224455D01*
X14965259Y39204122D01*
X14903483Y39171102D01*
X14849336Y39126664D01*
X14804898Y39072517D01*
X14771878Y39010741D01*
X14751545Y38943710D01*
X14744679Y38874000D01*
X13919255Y38874000D01*
X13919321Y38972000D01*
X13912455Y39041710D01*
X13892122Y39108741D01*
X13859102Y39170517D01*
X13814664Y39224664D01*
X13760517Y39269102D01*
X13698741Y39302122D01*
X13631710Y39322455D01*
X13562000Y39329321D01*
X12250950Y39327600D01*
X12162050Y39238700D01*
X12161950Y39238700D01*
X12073050Y39327600D01*
X10762000Y39329321D01*
X10692290Y39322455D01*
X10625259Y39302122D01*
X10563483Y39269102D01*
X10509336Y39224664D01*
X10464898Y39170517D01*
X10431878Y39108741D01*
X10411545Y39041710D01*
X10404679Y38972000D01*
X8229600Y38972000D01*
X8229600Y39708916D01*
X8551084Y40030400D01*
X15009695Y40030400D01*
X15032290Y40023546D01*
%TO.N,+5V*%
G36*
X9460680Y49442000D02*
G01*
X9467546Y49372290D01*
X9487879Y49305260D01*
X9520899Y49243484D01*
X9565337Y49189337D01*
X9619484Y49144899D01*
X9681260Y49111879D01*
X9748290Y49091546D01*
X9818000Y49084680D01*
X10083800Y49084680D01*
X10083800Y48542684D01*
X10080975Y48514000D01*
X10083800Y48485316D01*
X10083800Y48485309D01*
X10088612Y48436455D01*
X10092254Y48399477D01*
X10119154Y48310800D01*
X10125659Y48289356D01*
X10179906Y48187867D01*
X10252910Y48098910D01*
X10275199Y48080618D01*
X10405628Y47950189D01*
X10390899Y47938101D01*
X10316925Y47847964D01*
X10261958Y47745128D01*
X10228109Y47633544D01*
X10216680Y47517500D01*
X10216680Y46942500D01*
X10228109Y46826456D01*
X10261958Y46714872D01*
X10316925Y46612036D01*
X10390899Y46521899D01*
X10481036Y46447925D01*
X10583872Y46392958D01*
X10686521Y46361819D01*
X10574000Y46362321D01*
X10504290Y46355455D01*
X10437259Y46335122D01*
X10375483Y46302102D01*
X10321336Y46257664D01*
X10276898Y46203517D01*
X10243878Y46141741D01*
X10223545Y46074710D01*
X10216679Y46005000D01*
X10218400Y45568950D01*
X10307300Y45480050D01*
X11048950Y45480050D01*
X11048950Y45500050D01*
X11049050Y45500050D01*
X11049050Y45480050D01*
X11790700Y45480050D01*
X11879600Y45568950D01*
X11881321Y46005000D01*
X11874455Y46074710D01*
X11854122Y46141741D01*
X11821102Y46203517D01*
X11776664Y46257664D01*
X11722517Y46302102D01*
X11660741Y46335122D01*
X11593710Y46355455D01*
X11524000Y46362321D01*
X11411479Y46361819D01*
X11514128Y46392958D01*
X11616964Y46447925D01*
X11707101Y46521899D01*
X11781075Y46612036D01*
X11836042Y46714872D01*
X11853614Y46772800D01*
X12217400Y46772800D01*
X12217400Y45930494D01*
X12196434Y45891270D01*
X12162229Y45778513D01*
X12150680Y45661250D01*
X12150680Y45173750D01*
X12162229Y45056487D01*
X12196434Y44943730D01*
X12217400Y44904506D01*
X12217400Y44111084D01*
X11895916Y43789600D01*
X6350000Y43789600D01*
X6330179Y43787648D01*
X6311119Y43781866D01*
X6293554Y43772477D01*
X6278158Y43759842D01*
X5897158Y43378842D01*
X5884523Y43363446D01*
X5875134Y43345881D01*
X5869352Y43326821D01*
X5867400Y43307000D01*
X5867400Y31792084D01*
X4529916Y30454600D01*
X405600Y30454600D01*
X405600Y33423888D01*
X409336Y33419336D01*
X463483Y33374898D01*
X525259Y33341878D01*
X592290Y33321545D01*
X662000Y33314679D01*
X1973050Y33316400D01*
X2061950Y33405300D01*
X2061950Y36321950D01*
X2062050Y36321950D01*
X2062050Y33405300D01*
X2150950Y33316400D01*
X3462000Y33314679D01*
X3531710Y33321545D01*
X3598741Y33341878D01*
X3660517Y33374898D01*
X3714664Y33419336D01*
X3759102Y33473483D01*
X3792122Y33535259D01*
X3812455Y33602290D01*
X3819321Y33672000D01*
X3817600Y36233050D01*
X3728700Y36321950D01*
X2062050Y36321950D01*
X2061950Y36321950D01*
X2041950Y36321950D01*
X2041950Y36322050D01*
X2061950Y36322050D01*
X2061950Y39238700D01*
X2062050Y39238700D01*
X2062050Y36322050D01*
X3728700Y36322050D01*
X3817600Y36410950D01*
X3819321Y38972000D01*
X3812455Y39041710D01*
X3792122Y39108741D01*
X3759102Y39170517D01*
X3714664Y39224664D01*
X3660517Y39269102D01*
X3598741Y39302122D01*
X3531710Y39322455D01*
X3462000Y39329321D01*
X2150950Y39327600D01*
X2062050Y39238700D01*
X2061950Y39238700D01*
X1973050Y39327600D01*
X662000Y39329321D01*
X592290Y39322455D01*
X525259Y39302122D01*
X463483Y39269102D01*
X409336Y39224664D01*
X405600Y39220112D01*
X405600Y44955000D01*
X10216679Y44955000D01*
X10223545Y44885290D01*
X10243878Y44818259D01*
X10276898Y44756483D01*
X10321336Y44702336D01*
X10375483Y44657898D01*
X10437259Y44624878D01*
X10504290Y44604545D01*
X10574000Y44597679D01*
X10960050Y44599400D01*
X11048950Y44688300D01*
X11048950Y45479950D01*
X11049050Y45479950D01*
X11049050Y44688300D01*
X11137950Y44599400D01*
X11524000Y44597679D01*
X11593710Y44604545D01*
X11660741Y44624878D01*
X11722517Y44657898D01*
X11776664Y44702336D01*
X11821102Y44756483D01*
X11854122Y44818259D01*
X11874455Y44885290D01*
X11881321Y44955000D01*
X11879600Y45391050D01*
X11790700Y45479950D01*
X11049050Y45479950D01*
X11048950Y45479950D01*
X10307300Y45479950D01*
X10218400Y45391050D01*
X10216679Y44955000D01*
X405600Y44955000D01*
X405600Y45848928D01*
X430761Y45788183D01*
X503034Y45680020D01*
X595020Y45588034D01*
X703183Y45515761D01*
X823369Y45465979D01*
X950956Y45440600D01*
X1081044Y45440600D01*
X1208631Y45465979D01*
X1328817Y45515761D01*
X1436980Y45588034D01*
X1528966Y45680020D01*
X1601239Y45788183D01*
X1651021Y45908369D01*
X1676400Y46035956D01*
X1676400Y46166044D01*
X1666924Y46213680D01*
X1762076Y46213680D01*
X1752600Y46166044D01*
X1752600Y46035956D01*
X1777979Y45908369D01*
X1827761Y45788183D01*
X1900034Y45680020D01*
X1992020Y45588034D01*
X2100183Y45515761D01*
X2220369Y45465979D01*
X2347956Y45440600D01*
X2478044Y45440600D01*
X2605631Y45465979D01*
X2725817Y45515761D01*
X2833980Y45588034D01*
X2925966Y45680020D01*
X2998239Y45788183D01*
X3048021Y45908369D01*
X3073400Y46035956D01*
X3073400Y46166044D01*
X3063924Y46213680D01*
X3907000Y46213680D01*
X4025482Y46225349D01*
X4139411Y46259909D01*
X4244409Y46316032D01*
X4336440Y46391560D01*
X4411968Y46483591D01*
X4458689Y46571000D01*
X5899679Y46571000D01*
X5906545Y46501290D01*
X5926878Y46434259D01*
X5959898Y46372483D01*
X6004336Y46318336D01*
X6058483Y46273898D01*
X6120259Y46240878D01*
X6187290Y46220545D01*
X6257000Y46213679D01*
X7918050Y46215400D01*
X8006950Y46304300D01*
X8006950Y47370950D01*
X8007050Y47370950D01*
X8007050Y46304300D01*
X8095950Y46215400D01*
X9757000Y46213679D01*
X9826710Y46220545D01*
X9893741Y46240878D01*
X9955517Y46273898D01*
X10009664Y46318336D01*
X10054102Y46372483D01*
X10087122Y46434259D01*
X10107455Y46501290D01*
X10114321Y46571000D01*
X10112600Y47282050D01*
X10023700Y47370950D01*
X8007050Y47370950D01*
X8006950Y47370950D01*
X5990300Y47370950D01*
X5901400Y47282050D01*
X5899679Y46571000D01*
X4458689Y46571000D01*
X4468091Y46588589D01*
X4502651Y46702518D01*
X4514320Y46821000D01*
X4514320Y47921000D01*
X4502651Y48039482D01*
X4468091Y48153411D01*
X4458690Y48171000D01*
X5899679Y48171000D01*
X5901400Y47459950D01*
X5990300Y47371050D01*
X8006950Y47371050D01*
X8006950Y48437700D01*
X8007050Y48437700D01*
X8007050Y47371050D01*
X10023700Y47371050D01*
X10112600Y47459950D01*
X10114321Y48171000D01*
X10107455Y48240710D01*
X10087122Y48307741D01*
X10054102Y48369517D01*
X10009664Y48423664D01*
X9955517Y48468102D01*
X9893741Y48501122D01*
X9826710Y48521455D01*
X9757000Y48528321D01*
X8095950Y48526600D01*
X8007050Y48437700D01*
X8006950Y48437700D01*
X7918050Y48526600D01*
X6257000Y48528321D01*
X6187290Y48521455D01*
X6120259Y48501122D01*
X6058483Y48468102D01*
X6004336Y48423664D01*
X5959898Y48369517D01*
X5926878Y48307741D01*
X5906545Y48240710D01*
X5899679Y48171000D01*
X4458690Y48171000D01*
X4411968Y48258409D01*
X4336440Y48350440D01*
X4244409Y48425968D01*
X4139411Y48482091D01*
X4025482Y48516651D01*
X3907000Y48528320D01*
X3063924Y48528320D01*
X3073400Y48575956D01*
X3073400Y48706044D01*
X3048021Y48833631D01*
X2998239Y48953817D01*
X2925966Y49061980D01*
X2833980Y49153966D01*
X2725817Y49226239D01*
X2605631Y49276021D01*
X2478044Y49301400D01*
X2347956Y49301400D01*
X2220369Y49276021D01*
X2100183Y49226239D01*
X1992020Y49153966D01*
X1900034Y49061980D01*
X1827761Y48953817D01*
X1777979Y48833631D01*
X1752600Y48706044D01*
X1752600Y48575956D01*
X1762076Y48528320D01*
X1666924Y48528320D01*
X1676400Y48575956D01*
X1676400Y48706044D01*
X1651021Y48833631D01*
X1601239Y48953817D01*
X1528966Y49061980D01*
X1436980Y49153966D01*
X1328817Y49226239D01*
X1208631Y49276021D01*
X1081044Y49301400D01*
X950956Y49301400D01*
X823369Y49276021D01*
X703183Y49226239D01*
X595020Y49153966D01*
X503034Y49061980D01*
X430761Y48953817D01*
X405600Y48893072D01*
X405600Y51029400D01*
X9460680Y51029400D01*
X9460680Y49442000D01*
G37*
X9460680Y49442000D02*
X9467546Y49372290D01*
X9487879Y49305260D01*
X9520899Y49243484D01*
X9565337Y49189337D01*
X9619484Y49144899D01*
X9681260Y49111879D01*
X9748290Y49091546D01*
X9818000Y49084680D01*
X10083800Y49084680D01*
X10083800Y48542684D01*
X10080975Y48514000D01*
X10083800Y48485316D01*
X10083800Y48485309D01*
X10088612Y48436455D01*
X10092254Y48399477D01*
X10119154Y48310800D01*
X10125659Y48289356D01*
X10179906Y48187867D01*
X10252910Y48098910D01*
X10275199Y48080618D01*
X10405628Y47950189D01*
X10390899Y47938101D01*
X10316925Y47847964D01*
X10261958Y47745128D01*
X10228109Y47633544D01*
X10216680Y47517500D01*
X10216680Y46942500D01*
X10228109Y46826456D01*
X10261958Y46714872D01*
X10316925Y46612036D01*
X10390899Y46521899D01*
X10481036Y46447925D01*
X10583872Y46392958D01*
X10686521Y46361819D01*
X10574000Y46362321D01*
X10504290Y46355455D01*
X10437259Y46335122D01*
X10375483Y46302102D01*
X10321336Y46257664D01*
X10276898Y46203517D01*
X10243878Y46141741D01*
X10223545Y46074710D01*
X10216679Y46005000D01*
X10218400Y45568950D01*
X10307300Y45480050D01*
X11048950Y45480050D01*
X11048950Y45500050D01*
X11049050Y45500050D01*
X11049050Y45480050D01*
X11790700Y45480050D01*
X11879600Y45568950D01*
X11881321Y46005000D01*
X11874455Y46074710D01*
X11854122Y46141741D01*
X11821102Y46203517D01*
X11776664Y46257664D01*
X11722517Y46302102D01*
X11660741Y46335122D01*
X11593710Y46355455D01*
X11524000Y46362321D01*
X11411479Y46361819D01*
X11514128Y46392958D01*
X11616964Y46447925D01*
X11707101Y46521899D01*
X11781075Y46612036D01*
X11836042Y46714872D01*
X11853614Y46772800D01*
X12217400Y46772800D01*
X12217400Y45930494D01*
X12196434Y45891270D01*
X12162229Y45778513D01*
X12150680Y45661250D01*
X12150680Y45173750D01*
X12162229Y45056487D01*
X12196434Y44943730D01*
X12217400Y44904506D01*
X12217400Y44111084D01*
X11895916Y43789600D01*
X6350000Y43789600D01*
X6330179Y43787648D01*
X6311119Y43781866D01*
X6293554Y43772477D01*
X6278158Y43759842D01*
X5897158Y43378842D01*
X5884523Y43363446D01*
X5875134Y43345881D01*
X5869352Y43326821D01*
X5867400Y43307000D01*
X5867400Y31792084D01*
X4529916Y30454600D01*
X405600Y30454600D01*
X405600Y33423888D01*
X409336Y33419336D01*
X463483Y33374898D01*
X525259Y33341878D01*
X592290Y33321545D01*
X662000Y33314679D01*
X1973050Y33316400D01*
X2061950Y33405300D01*
X2061950Y36321950D01*
X2062050Y36321950D01*
X2062050Y33405300D01*
X2150950Y33316400D01*
X3462000Y33314679D01*
X3531710Y33321545D01*
X3598741Y33341878D01*
X3660517Y33374898D01*
X3714664Y33419336D01*
X3759102Y33473483D01*
X3792122Y33535259D01*
X3812455Y33602290D01*
X3819321Y33672000D01*
X3817600Y36233050D01*
X3728700Y36321950D01*
X2062050Y36321950D01*
X2061950Y36321950D01*
X2041950Y36321950D01*
X2041950Y36322050D01*
X2061950Y36322050D01*
X2061950Y39238700D01*
X2062050Y39238700D01*
X2062050Y36322050D01*
X3728700Y36322050D01*
X3817600Y36410950D01*
X3819321Y38972000D01*
X3812455Y39041710D01*
X3792122Y39108741D01*
X3759102Y39170517D01*
X3714664Y39224664D01*
X3660517Y39269102D01*
X3598741Y39302122D01*
X3531710Y39322455D01*
X3462000Y39329321D01*
X2150950Y39327600D01*
X2062050Y39238700D01*
X2061950Y39238700D01*
X1973050Y39327600D01*
X662000Y39329321D01*
X592290Y39322455D01*
X525259Y39302122D01*
X463483Y39269102D01*
X409336Y39224664D01*
X405600Y39220112D01*
X405600Y44955000D01*
X10216679Y44955000D01*
X10223545Y44885290D01*
X10243878Y44818259D01*
X10276898Y44756483D01*
X10321336Y44702336D01*
X10375483Y44657898D01*
X10437259Y44624878D01*
X10504290Y44604545D01*
X10574000Y44597679D01*
X10960050Y44599400D01*
X11048950Y44688300D01*
X11048950Y45479950D01*
X11049050Y45479950D01*
X11049050Y44688300D01*
X11137950Y44599400D01*
X11524000Y44597679D01*
X11593710Y44604545D01*
X11660741Y44624878D01*
X11722517Y44657898D01*
X11776664Y44702336D01*
X11821102Y44756483D01*
X11854122Y44818259D01*
X11874455Y44885290D01*
X11881321Y44955000D01*
X11879600Y45391050D01*
X11790700Y45479950D01*
X11049050Y45479950D01*
X11048950Y45479950D01*
X10307300Y45479950D01*
X10218400Y45391050D01*
X10216679Y44955000D01*
X405600Y44955000D01*
X405600Y45848928D01*
X430761Y45788183D01*
X503034Y45680020D01*
X595020Y45588034D01*
X703183Y45515761D01*
X823369Y45465979D01*
X950956Y45440600D01*
X1081044Y45440600D01*
X1208631Y45465979D01*
X1328817Y45515761D01*
X1436980Y45588034D01*
X1528966Y45680020D01*
X1601239Y45788183D01*
X1651021Y45908369D01*
X1676400Y46035956D01*
X1676400Y46166044D01*
X1666924Y46213680D01*
X1762076Y46213680D01*
X1752600Y46166044D01*
X1752600Y46035956D01*
X1777979Y45908369D01*
X1827761Y45788183D01*
X1900034Y45680020D01*
X1992020Y45588034D01*
X2100183Y45515761D01*
X2220369Y45465979D01*
X2347956Y45440600D01*
X2478044Y45440600D01*
X2605631Y45465979D01*
X2725817Y45515761D01*
X2833980Y45588034D01*
X2925966Y45680020D01*
X2998239Y45788183D01*
X3048021Y45908369D01*
X3073400Y46035956D01*
X3073400Y46166044D01*
X3063924Y46213680D01*
X3907000Y46213680D01*
X4025482Y46225349D01*
X4139411Y46259909D01*
X4244409Y46316032D01*
X4336440Y46391560D01*
X4411968Y46483591D01*
X4458689Y46571000D01*
X5899679Y46571000D01*
X5906545Y46501290D01*
X5926878Y46434259D01*
X5959898Y46372483D01*
X6004336Y46318336D01*
X6058483Y46273898D01*
X6120259Y46240878D01*
X6187290Y46220545D01*
X6257000Y46213679D01*
X7918050Y46215400D01*
X8006950Y46304300D01*
X8006950Y47370950D01*
X8007050Y47370950D01*
X8007050Y46304300D01*
X8095950Y46215400D01*
X9757000Y46213679D01*
X9826710Y46220545D01*
X9893741Y46240878D01*
X9955517Y46273898D01*
X10009664Y46318336D01*
X10054102Y46372483D01*
X10087122Y46434259D01*
X10107455Y46501290D01*
X10114321Y46571000D01*
X10112600Y47282050D01*
X10023700Y47370950D01*
X8007050Y47370950D01*
X8006950Y47370950D01*
X5990300Y47370950D01*
X5901400Y47282050D01*
X5899679Y46571000D01*
X4458689Y46571000D01*
X4468091Y46588589D01*
X4502651Y46702518D01*
X4514320Y46821000D01*
X4514320Y47921000D01*
X4502651Y48039482D01*
X4468091Y48153411D01*
X4458690Y48171000D01*
X5899679Y48171000D01*
X5901400Y47459950D01*
X5990300Y47371050D01*
X8006950Y47371050D01*
X8006950Y48437700D01*
X8007050Y48437700D01*
X8007050Y47371050D01*
X10023700Y47371050D01*
X10112600Y47459950D01*
X10114321Y48171000D01*
X10107455Y48240710D01*
X10087122Y48307741D01*
X10054102Y48369517D01*
X10009664Y48423664D01*
X9955517Y48468102D01*
X9893741Y48501122D01*
X9826710Y48521455D01*
X9757000Y48528321D01*
X8095950Y48526600D01*
X8007050Y48437700D01*
X8006950Y48437700D01*
X7918050Y48526600D01*
X6257000Y48528321D01*
X6187290Y48521455D01*
X6120259Y48501122D01*
X6058483Y48468102D01*
X6004336Y48423664D01*
X5959898Y48369517D01*
X5926878Y48307741D01*
X5906545Y48240710D01*
X5899679Y48171000D01*
X4458690Y48171000D01*
X4411968Y48258409D01*
X4336440Y48350440D01*
X4244409Y48425968D01*
X4139411Y48482091D01*
X4025482Y48516651D01*
X3907000Y48528320D01*
X3063924Y48528320D01*
X3073400Y48575956D01*
X3073400Y48706044D01*
X3048021Y48833631D01*
X2998239Y48953817D01*
X2925966Y49061980D01*
X2833980Y49153966D01*
X2725817Y49226239D01*
X2605631Y49276021D01*
X2478044Y49301400D01*
X2347956Y49301400D01*
X2220369Y49276021D01*
X2100183Y49226239D01*
X1992020Y49153966D01*
X1900034Y49061980D01*
X1827761Y48953817D01*
X1777979Y48833631D01*
X1752600Y48706044D01*
X1752600Y48575956D01*
X1762076Y48528320D01*
X1666924Y48528320D01*
X1676400Y48575956D01*
X1676400Y48706044D01*
X1651021Y48833631D01*
X1601239Y48953817D01*
X1528966Y49061980D01*
X1436980Y49153966D01*
X1328817Y49226239D01*
X1208631Y49276021D01*
X1081044Y49301400D01*
X950956Y49301400D01*
X823369Y49276021D01*
X703183Y49226239D01*
X595020Y49153966D01*
X503034Y49061980D01*
X430761Y48953817D01*
X405600Y48893072D01*
X405600Y51029400D01*
X9460680Y51029400D01*
X9460680Y49442000D01*
%TD*%
M02*
