M48
; DRILL file {KiCad (5.1.6-0)} date Wednesday, August 25, 2021 at 02:04:11 AM
; FORMAT={-:-/ absolute / metric / decimal}
; #@! TF.CreationDate,2021-08-25T02:04:11-07:00
; #@! TF.GenerationSoftware,Kicad,Pcbnew,(5.1.6-0)
; #@! TF.FileFunction,Plated,1,2,PTH
FMAT,2
METRIC
T1C0.305
T2C0.500
T3C0.760
T4C0.890
T5C1.000
%
G90
G05
T1
X1.016Y48.641
X1.016Y46.101
X1.143Y14.986
X2.413Y48.641
X2.413Y46.101
X3.175Y14.986
X3.937Y14.986
X5.969Y14.986
X6.731Y14.986
X8.763Y14.986
X11.684Y48.923
X12.179Y49.403
X14.224Y44.577
X14.478Y23.495
X14.478Y22.479
X14.478Y21.463
X14.478Y19.304
X14.478Y18.288
X14.478Y17.272
X14.605Y42.545
X14.605Y41.656
X15.621Y19.05
X17.399Y42.545
X17.399Y41.689
X18.288Y19.939
X18.948Y41.78
X22.987Y19.05
X27.178Y47.117
X27.305Y19.05
X30.607Y49.53
X31.103Y49.034
X32.131Y27.94
X33.02Y48.26
X33.517Y27.924
X34.798Y40.767
X35.306Y45.974
X35.415Y27.69
X35.56Y41.275
X35.941Y44.323
X36.322Y42.037
X36.83Y42.799
X36.957Y27.305
X38.735Y44.323
X40.259Y20.193
X41.021Y28.702
X41.529Y44.323
X42.097Y23.139
X46.355Y48.006
X50.8Y28.702
X55.118Y35.814
X62.23Y50.165
X19.558Y40.259
X19.558Y38.989
X20.701Y40.259
X20.701Y38.989
X21.844Y40.259
X21.844Y38.989
T2
X3.338Y26.162
X3.998Y27.752
X3.998Y24.572
X5.588Y28.412
X5.588Y23.912
X7.178Y27.752
X7.178Y24.572
X7.838Y26.162
X66.838Y26.162
X67.498Y27.752
X67.498Y24.572
X69.088Y28.412
X69.088Y23.912
X70.678Y27.752
X70.678Y24.572
X71.338Y26.162
T3
X34.163Y16.637
X35.433Y14.097
X36.703Y16.637
X37.973Y14.097
X39.243Y16.637
X40.513Y14.097
X48.768Y16.637
X50.038Y14.097
X51.308Y16.637
X52.578Y14.097
X53.848Y16.637
X55.118Y14.097
T4
X12.948Y14.601
X15.238Y14.601
X16.256Y9.781
X17.272Y8.001
X18.288Y9.781
X19.304Y8.001
X20.32Y9.781
X21.336Y8.001
X22.352Y9.781
X23.368Y8.001
X24.378Y14.601
X26.668Y14.601
T5
X10.668Y50.292
X13.208Y50.292
X15.748Y50.292
X18.288Y50.292
X20.828Y50.292
X23.368Y50.292
X25.908Y50.292
X28.448Y50.292
X22.098Y29.972
X24.638Y29.972
X27.178Y29.972
X29.718Y29.972
X32.258Y50.292
X32.258Y29.972
X34.798Y50.292
X34.798Y29.972
X37.338Y50.292
X37.338Y29.972
X39.878Y50.292
X39.878Y29.972
X42.418Y50.292
X42.418Y29.972
X44.958Y50.292
X44.958Y29.972
X47.498Y50.292
X47.498Y29.972
X50.038Y50.292
X50.038Y29.972
X52.578Y50.292
X52.578Y29.972
X55.118Y50.292
X55.118Y29.972
X57.658Y50.292
X57.658Y29.972
X60.198Y50.292
X60.198Y29.972
X69.088Y50.292
X69.088Y47.752
X71.628Y50.292
X71.628Y47.752
T0
M30
