%TF.GenerationSoftware,KiCad,Pcbnew,(5.1.6-0)*%
%TF.CreationDate,2021-08-24T02:08:12-07:00*%
%TF.ProjectId,mate-net-monitor,6d617465-2d6e-4657-942d-6d6f6e69746f,P1*%
%TF.SameCoordinates,PX6b4f310PY74ffa90*%
%TF.FileFunction,Copper,L2,Bot*%
%TF.FilePolarity,Positive*%
%FSLAX46Y46*%
G04 Gerber Fmt 4.6, Leading zero omitted, Abs format (unit mm)*
G04 Created by KiCad (PCBNEW (5.1.6-0)) date 2021-08-24 02:08:12*
%MOMM*%
%LPD*%
G01*
G04 APERTURE LIST*
%TA.AperFunction,SMDPad,CuDef*%
%ADD10C,0.100000*%
%TD*%
%TA.AperFunction,ComponentPad*%
%ADD11C,0.800000*%
%TD*%
%TA.AperFunction,ComponentPad*%
%ADD12R,1.700000X1.700000*%
%TD*%
%TA.AperFunction,ComponentPad*%
%ADD13O,1.700000X1.700000*%
%TD*%
%TA.AperFunction,ComponentPad*%
%ADD14R,1.500000X1.500000*%
%TD*%
%TA.AperFunction,ComponentPad*%
%ADD15C,1.500000*%
%TD*%
%TA.AperFunction,ComponentPad*%
%ADD16C,1.520000*%
%TD*%
%TA.AperFunction,ComponentPad*%
%ADD17R,1.520000X1.520000*%
%TD*%
%TA.AperFunction,ViaPad*%
%ADD18C,0.500000*%
%TD*%
%TA.AperFunction,Conductor*%
%ADD19R,1.800000X1.600000*%
%TD*%
%TA.AperFunction,ViaPad*%
%ADD20C,0.609600*%
%TD*%
%TA.AperFunction,Conductor*%
%ADD21C,0.457200*%
%TD*%
%TA.AperFunction,Conductor*%
%ADD22C,0.203200*%
%TD*%
%TA.AperFunction,Conductor*%
%ADD23C,0.304800*%
%TD*%
G04 APERTURE END LIST*
%TA.AperFunction,SMDPad,CuDef*%
D10*
%TO.P,H3,1*%
%TO.N,Net-(H3-Pad1)*%
G36*
X5600210Y28911403D02*
G01*
X5612424Y28911403D01*
X5831986Y28900665D01*
X5831993Y28900665D01*
X5838956Y28900275D01*
X5859732Y28897945D01*
X5880605Y28895898D01*
X6098069Y28863785D01*
X6104968Y28862717D01*
X6125466Y28858360D01*
X6145987Y28854297D01*
X6359278Y28801118D01*
X6359283Y28801117D01*
X6359289Y28801115D01*
X6366044Y28799381D01*
X6385978Y28793057D01*
X6406048Y28786998D01*
X6613128Y28713260D01*
X6613135Y28713258D01*
X6613143Y28713255D01*
X6619694Y28710870D01*
X6638925Y28702627D01*
X6658298Y28694642D01*
X6857184Y28601053D01*
X6857201Y28601046D01*
X6857220Y28601036D01*
X6863497Y28598029D01*
X6881855Y28587937D01*
X6900332Y28578112D01*
X7089144Y28465558D01*
X7089153Y28465553D01*
X7089163Y28465546D01*
X7095123Y28461937D01*
X7112389Y28450115D01*
X7129841Y28438520D01*
X7306776Y28308072D01*
X7312366Y28303890D01*
X7328428Y28290413D01*
X7344631Y28277197D01*
X7507980Y28130117D01*
X7507992Y28130107D01*
X7508004Y28130095D01*
X7513148Y28125399D01*
X7527796Y28110440D01*
X7542654Y28095686D01*
X7690882Y27933356D01*
X7695553Y27928167D01*
X7708656Y27911871D01*
X7722020Y27895716D01*
X7853697Y27719700D01*
X7853702Y27719694D01*
X7853708Y27719686D01*
X7857843Y27714077D01*
X7869304Y27696564D01*
X7881018Y27679196D01*
X7994889Y27491171D01*
X7994891Y27491168D01*
X7994892Y27491166D01*
X7998467Y27485169D01*
X8008158Y27466631D01*
X8018125Y27448198D01*
X8113104Y27249960D01*
X8113109Y27249952D01*
X8113113Y27249941D01*
X8116080Y27243636D01*
X8123915Y27224244D01*
X8132038Y27204920D01*
X8207223Y26998353D01*
X8209564Y26991776D01*
X8215467Y26971722D01*
X8221668Y26951688D01*
X8276336Y26738770D01*
X8278024Y26731996D01*
X8281943Y26711453D01*
X8286158Y26690918D01*
X8319788Y26473682D01*
X8320808Y26466775D01*
X8322706Y26445919D01*
X8324894Y26425100D01*
X8337164Y26205639D01*
X8337166Y26205619D01*
X8337166Y26205595D01*
X8337506Y26198646D01*
X8337360Y26177739D01*
X8337506Y26156771D01*
X8328302Y25937160D01*
X8328302Y25937137D01*
X8328300Y25937110D01*
X8327960Y25930167D01*
X8325777Y25909398D01*
X8323874Y25888489D01*
X8293280Y25670805D01*
X8292260Y25663898D01*
X8288049Y25643385D01*
X8284126Y25622821D01*
X8232440Y25409177D01*
X8232437Y25409162D01*
X8232432Y25409145D01*
X8230747Y25402387D01*
X8224571Y25382437D01*
X8218645Y25362300D01*
X8146353Y25154704D01*
X8144011Y25148127D01*
X8135900Y25128831D01*
X8128052Y25109408D01*
X8035851Y24909867D01*
X8035847Y24909858D01*
X8035846Y24909857D01*
X8032874Y24903540D01*
X8022906Y24885105D01*
X8013215Y24866568D01*
X7901987Y24676983D01*
X7901977Y24676965D01*
X7901964Y24676945D01*
X7898402Y24670970D01*
X7886714Y24653641D01*
X7875228Y24636090D01*
X7746018Y24458248D01*
X7741875Y24452629D01*
X7728538Y24436507D01*
X7715410Y24420179D01*
X7569468Y24255800D01*
X7569462Y24255792D01*
X7569453Y24255783D01*
X7564793Y24250607D01*
X7549928Y24235845D01*
X7535283Y24220891D01*
X7374002Y24071544D01*
X7373992Y24071534D01*
X7373980Y24071524D01*
X7368836Y24066827D01*
X7352623Y24053604D01*
X7336571Y24040135D01*
X7161485Y23907238D01*
X7161476Y23907230D01*
X7161464Y23907222D01*
X7155885Y23903048D01*
X7138437Y23891455D01*
X7121169Y23879632D01*
X6933945Y23764450D01*
X6933939Y23764446D01*
X6933932Y23764442D01*
X6927968Y23760831D01*
X6909516Y23751019D01*
X6891132Y23740913D01*
X6693562Y23644552D01*
X6693554Y23644547D01*
X6693544Y23644543D01*
X6687259Y23641532D01*
X6667923Y23633562D01*
X6648654Y23625304D01*
X6442617Y23548680D01*
X6436057Y23546292D01*
X6416020Y23540242D01*
X6396055Y23533909D01*
X6183524Y23477756D01*
X6176762Y23476020D01*
X6156227Y23471954D01*
X6135742Y23467600D01*
X5918746Y23432454D01*
X5911847Y23431386D01*
X5890998Y23429342D01*
X5870201Y23427009D01*
X5650827Y23413207D01*
X5650809Y23413205D01*
X5650788Y23413205D01*
X5643840Y23412816D01*
X5622908Y23412816D01*
X5601965Y23412524D01*
X5382295Y23420195D01*
X5382275Y23420195D01*
X5382251Y23420197D01*
X5375300Y23420488D01*
X5354495Y23422528D01*
X5333597Y23424283D01*
X5115706Y23453356D01*
X5115703Y23453356D01*
X5115700Y23453357D01*
X5108791Y23454328D01*
X5088253Y23458394D01*
X5067657Y23462175D01*
X4853648Y23512370D01*
X4853639Y23512372D01*
X4853628Y23512375D01*
X4846855Y23514013D01*
X4826781Y23520074D01*
X4806683Y23525837D01*
X4598599Y23596674D01*
X4598587Y23596678D01*
X4598573Y23596683D01*
X4591994Y23598975D01*
X4572683Y23606934D01*
X4553168Y23614661D01*
X4352985Y23705468D01*
X4352977Y23705471D01*
X4352968Y23705476D01*
X4346641Y23708399D01*
X4328176Y23718217D01*
X4309530Y23727800D01*
X4119157Y23837712D01*
X4113136Y23841245D01*
X4095722Y23852815D01*
X4078096Y23864174D01*
X3899356Y23992139D01*
X3893708Y23996243D01*
X3877501Y24009461D01*
X3861072Y24022482D01*
X3695684Y24167270D01*
X3695673Y24167278D01*
X3695662Y24167289D01*
X3690454Y24171913D01*
X3675624Y24186640D01*
X3660534Y24201212D01*
X3510065Y24361446D01*
X3510055Y24361456D01*
X3510044Y24361468D01*
X3505312Y24366579D01*
X3491981Y24382693D01*
X3478395Y24398657D01*
X3344270Y24572820D01*
X3340049Y24578381D01*
X3328341Y24595739D01*
X3316390Y24612935D01*
X3199910Y24799343D01*
X3199900Y24799357D01*
X3199890Y24799375D01*
X3196243Y24805303D01*
X3186298Y24823696D01*
X3176069Y24841999D01*
X3078328Y25038898D01*
X3075268Y25045173D01*
X3067171Y25064434D01*
X3058771Y25083661D01*
X2980710Y25289158D01*
X2978277Y25295702D01*
X2972096Y25315671D01*
X2965615Y25335617D01*
X2907979Y25547750D01*
X2906196Y25554500D01*
X2901987Y25575006D01*
X2897489Y25595463D01*
X2860832Y25812195D01*
X2860830Y25812205D01*
X2860829Y25812216D01*
X2859714Y25819100D01*
X2857531Y25839874D01*
X2855046Y25860710D01*
X2839711Y26080000D01*
X2839273Y26086967D01*
X2839126Y26107915D01*
X2838761Y26125366D01*
X3838981Y26125366D01*
X3850904Y25954860D01*
X3879406Y25786346D01*
X3924219Y25621407D01*
X3984914Y25461627D01*
X4060909Y25308535D01*
X4151480Y25163591D01*
X4255768Y25028172D01*
X4372765Y24903584D01*
X4501359Y24791008D01*
X4640335Y24691511D01*
X4788354Y24606052D01*
X4944005Y24535446D01*
X5105803Y24480365D01*
X5272192Y24441339D01*
X5441620Y24418732D01*
X5612425Y24412767D01*
X5783000Y24423499D01*
X5951717Y24450826D01*
X6116974Y24494488D01*
X6277158Y24554060D01*
X6430781Y24628987D01*
X6576358Y24718547D01*
X6712499Y24821884D01*
X6837898Y24938004D01*
X6951376Y25065818D01*
X7051838Y25204092D01*
X7138329Y25351513D01*
X7210017Y25506659D01*
X7266227Y25668075D01*
X7306415Y25834192D01*
X7330203Y26003452D01*
X7337360Y26174212D01*
X7327819Y26344860D01*
X7301672Y26513760D01*
X7259164Y26679320D01*
X7200712Y26839915D01*
X7126857Y26994061D01*
X7038322Y27140251D01*
X6935941Y27277108D01*
X6820685Y27403329D01*
X6693675Y27517689D01*
X6556100Y27619117D01*
X6409297Y27706630D01*
X6254650Y27779401D01*
X6093630Y27836738D01*
X5927795Y27878085D01*
X5758710Y27903054D01*
X5579266Y27911830D01*
X5547867Y27911391D01*
X5368748Y27897609D01*
X5200419Y27867928D01*
X5035809Y27821968D01*
X4876452Y27760157D01*
X4723898Y27683097D01*
X4579584Y27591512D01*
X4444902Y27486287D01*
X4321132Y27368422D01*
X4209456Y27239044D01*
X4110930Y27099375D01*
X4026508Y26950765D01*
X3956992Y26794631D01*
X3903040Y26632447D01*
X3865175Y26465781D01*
X3843753Y26296213D01*
X3838981Y26125366D01*
X2838761Y26125366D01*
X2838688Y26128841D01*
X2844826Y26348579D01*
X2845070Y26355556D01*
X2846967Y26376399D01*
X2848574Y26397286D01*
X2876124Y26615360D01*
X2876125Y26615373D01*
X2876127Y26615387D01*
X2877049Y26622296D01*
X2880971Y26642854D01*
X2884608Y26663480D01*
X2933309Y26877843D01*
X2934903Y26884639D01*
X2940809Y26904707D01*
X2946446Y26924895D01*
X3015830Y27133469D01*
X3015833Y27133481D01*
X3015839Y27133495D01*
X3018083Y27140088D01*
X3025921Y27159488D01*
X3033499Y27179024D01*
X3122905Y27379832D01*
X3122909Y27379842D01*
X3122914Y27379853D01*
X3125794Y27386201D01*
X3135484Y27404737D01*
X3144934Y27423444D01*
X3253514Y27614580D01*
X3257005Y27620626D01*
X3268459Y27638130D01*
X3279690Y27655827D01*
X3406404Y27835455D01*
X3410468Y27841131D01*
X3423586Y27857447D01*
X3436478Y27873947D01*
X3580101Y28040337D01*
X3580116Y28040356D01*
X3580136Y28040377D01*
X3584713Y28045606D01*
X3599346Y28060549D01*
X3613804Y28075731D01*
X3772995Y28227326D01*
X3778084Y28232105D01*
X3794144Y28245581D01*
X3809973Y28259244D01*
X3983195Y28394581D01*
X3988727Y28398840D01*
X4005961Y28410641D01*
X4023113Y28422740D01*
X4208718Y28540528D01*
X4208719Y28540529D01*
X4208726Y28540533D01*
X4214638Y28544227D01*
X4232969Y28554305D01*
X4251194Y28564658D01*
X4447406Y28663771D01*
X4453659Y28666875D01*
X4472883Y28675114D01*
X4492030Y28683639D01*
X4696977Y28763133D01*
X4703503Y28765612D01*
X4723474Y28771947D01*
X4743330Y28778552D01*
X4955037Y28837662D01*
X4955056Y28837668D01*
X4955078Y28837673D01*
X4961793Y28839497D01*
X4982221Y28843839D01*
X5002692Y28848490D01*
X5219176Y28886662D01*
X5226060Y28887826D01*
X5246857Y28890159D01*
X5267640Y28892784D01*
X5486816Y28909649D01*
X5493780Y28910136D01*
X5505998Y28910307D01*
X5518197Y28911074D01*
X5581021Y28911951D01*
X5588002Y28912000D01*
X5600210Y28911403D01*
G37*
%TD.AperFunction*%
D11*
X7178000Y27752000D03*
X5588000Y28412000D03*
X3998000Y27752000D03*
X3338000Y26162000D03*
X3998000Y24572000D03*
X5588000Y23912000D03*
X7178000Y24572000D03*
X7838000Y26162000D03*
%TD*%
%TA.AperFunction,SMDPad,CuDef*%
D10*
%TO.P,H4,1*%
%TO.N,Net-(H4-Pad1)*%
G36*
X69100210Y28911403D02*
G01*
X69112424Y28911403D01*
X69331986Y28900665D01*
X69331993Y28900665D01*
X69338956Y28900275D01*
X69359732Y28897945D01*
X69380605Y28895898D01*
X69598069Y28863785D01*
X69604968Y28862717D01*
X69625466Y28858360D01*
X69645987Y28854297D01*
X69859278Y28801118D01*
X69859283Y28801117D01*
X69859289Y28801115D01*
X69866044Y28799381D01*
X69885978Y28793057D01*
X69906048Y28786998D01*
X70113128Y28713260D01*
X70113135Y28713258D01*
X70113143Y28713255D01*
X70119694Y28710870D01*
X70138925Y28702627D01*
X70158298Y28694642D01*
X70357184Y28601053D01*
X70357201Y28601046D01*
X70357220Y28601036D01*
X70363497Y28598029D01*
X70381855Y28587937D01*
X70400332Y28578112D01*
X70589144Y28465558D01*
X70589153Y28465553D01*
X70589163Y28465546D01*
X70595123Y28461937D01*
X70612389Y28450115D01*
X70629841Y28438520D01*
X70806776Y28308072D01*
X70812366Y28303890D01*
X70828428Y28290413D01*
X70844631Y28277197D01*
X71007980Y28130117D01*
X71007992Y28130107D01*
X71008004Y28130095D01*
X71013148Y28125399D01*
X71027796Y28110440D01*
X71042654Y28095686D01*
X71190882Y27933356D01*
X71195553Y27928167D01*
X71208656Y27911871D01*
X71222020Y27895716D01*
X71353697Y27719700D01*
X71353702Y27719694D01*
X71353708Y27719686D01*
X71357843Y27714077D01*
X71369304Y27696564D01*
X71381018Y27679196D01*
X71494889Y27491171D01*
X71494891Y27491168D01*
X71494892Y27491166D01*
X71498467Y27485169D01*
X71508158Y27466631D01*
X71518125Y27448198D01*
X71613104Y27249960D01*
X71613109Y27249952D01*
X71613113Y27249941D01*
X71616080Y27243636D01*
X71623915Y27224244D01*
X71632038Y27204920D01*
X71707223Y26998353D01*
X71709564Y26991776D01*
X71715467Y26971722D01*
X71721668Y26951688D01*
X71776336Y26738770D01*
X71778024Y26731996D01*
X71781943Y26711453D01*
X71786158Y26690918D01*
X71819788Y26473682D01*
X71820808Y26466775D01*
X71822706Y26445919D01*
X71824894Y26425100D01*
X71837164Y26205639D01*
X71837166Y26205619D01*
X71837166Y26205595D01*
X71837506Y26198646D01*
X71837360Y26177739D01*
X71837506Y26156771D01*
X71828302Y25937160D01*
X71828302Y25937137D01*
X71828300Y25937110D01*
X71827960Y25930167D01*
X71825777Y25909398D01*
X71823874Y25888489D01*
X71793280Y25670805D01*
X71792260Y25663898D01*
X71788049Y25643385D01*
X71784126Y25622821D01*
X71732440Y25409177D01*
X71732437Y25409162D01*
X71732432Y25409145D01*
X71730747Y25402387D01*
X71724571Y25382437D01*
X71718645Y25362300D01*
X71646353Y25154704D01*
X71644011Y25148127D01*
X71635900Y25128831D01*
X71628052Y25109408D01*
X71535851Y24909867D01*
X71535847Y24909858D01*
X71535846Y24909857D01*
X71532874Y24903540D01*
X71522906Y24885105D01*
X71513215Y24866568D01*
X71401987Y24676983D01*
X71401977Y24676965D01*
X71401964Y24676945D01*
X71398402Y24670970D01*
X71386714Y24653641D01*
X71375228Y24636090D01*
X71246018Y24458248D01*
X71241875Y24452629D01*
X71228538Y24436507D01*
X71215410Y24420179D01*
X71069468Y24255800D01*
X71069462Y24255792D01*
X71069453Y24255783D01*
X71064793Y24250607D01*
X71049928Y24235845D01*
X71035283Y24220891D01*
X70874002Y24071544D01*
X70873992Y24071534D01*
X70873980Y24071524D01*
X70868836Y24066827D01*
X70852623Y24053604D01*
X70836571Y24040135D01*
X70661485Y23907238D01*
X70661476Y23907230D01*
X70661464Y23907222D01*
X70655885Y23903048D01*
X70638437Y23891455D01*
X70621169Y23879632D01*
X70433945Y23764450D01*
X70433939Y23764446D01*
X70433932Y23764442D01*
X70427968Y23760831D01*
X70409516Y23751019D01*
X70391132Y23740913D01*
X70193562Y23644552D01*
X70193554Y23644547D01*
X70193544Y23644543D01*
X70187259Y23641532D01*
X70167923Y23633562D01*
X70148654Y23625304D01*
X69942617Y23548680D01*
X69936057Y23546292D01*
X69916020Y23540242D01*
X69896055Y23533909D01*
X69683524Y23477756D01*
X69676762Y23476020D01*
X69656227Y23471954D01*
X69635742Y23467600D01*
X69418746Y23432454D01*
X69411847Y23431386D01*
X69390998Y23429342D01*
X69370201Y23427009D01*
X69150827Y23413207D01*
X69150809Y23413205D01*
X69150788Y23413205D01*
X69143840Y23412816D01*
X69122908Y23412816D01*
X69101965Y23412524D01*
X68882295Y23420195D01*
X68882275Y23420195D01*
X68882251Y23420197D01*
X68875300Y23420488D01*
X68854495Y23422528D01*
X68833597Y23424283D01*
X68615706Y23453356D01*
X68615703Y23453356D01*
X68615700Y23453357D01*
X68608791Y23454328D01*
X68588253Y23458394D01*
X68567657Y23462175D01*
X68353648Y23512370D01*
X68353639Y23512372D01*
X68353628Y23512375D01*
X68346855Y23514013D01*
X68326781Y23520074D01*
X68306683Y23525837D01*
X68098599Y23596674D01*
X68098587Y23596678D01*
X68098573Y23596683D01*
X68091994Y23598975D01*
X68072683Y23606934D01*
X68053168Y23614661D01*
X67852985Y23705468D01*
X67852977Y23705471D01*
X67852968Y23705476D01*
X67846641Y23708399D01*
X67828176Y23718217D01*
X67809530Y23727800D01*
X67619157Y23837712D01*
X67613136Y23841245D01*
X67595722Y23852815D01*
X67578096Y23864174D01*
X67399356Y23992139D01*
X67393708Y23996243D01*
X67377501Y24009461D01*
X67361072Y24022482D01*
X67195684Y24167270D01*
X67195673Y24167278D01*
X67195662Y24167289D01*
X67190454Y24171913D01*
X67175624Y24186640D01*
X67160534Y24201212D01*
X67010065Y24361446D01*
X67010055Y24361456D01*
X67010044Y24361468D01*
X67005312Y24366579D01*
X66991981Y24382693D01*
X66978395Y24398657D01*
X66844270Y24572820D01*
X66840049Y24578381D01*
X66828341Y24595739D01*
X66816390Y24612935D01*
X66699910Y24799343D01*
X66699900Y24799357D01*
X66699890Y24799375D01*
X66696243Y24805303D01*
X66686298Y24823696D01*
X66676069Y24841999D01*
X66578328Y25038898D01*
X66575268Y25045173D01*
X66567171Y25064434D01*
X66558771Y25083661D01*
X66480710Y25289158D01*
X66478277Y25295702D01*
X66472096Y25315671D01*
X66465615Y25335617D01*
X66407979Y25547750D01*
X66406196Y25554500D01*
X66401987Y25575006D01*
X66397489Y25595463D01*
X66360832Y25812195D01*
X66360830Y25812205D01*
X66360829Y25812216D01*
X66359714Y25819100D01*
X66357531Y25839874D01*
X66355046Y25860710D01*
X66339711Y26080000D01*
X66339273Y26086967D01*
X66339126Y26107915D01*
X66338761Y26125366D01*
X67338981Y26125366D01*
X67350904Y25954860D01*
X67379406Y25786346D01*
X67424219Y25621407D01*
X67484914Y25461627D01*
X67560909Y25308535D01*
X67651480Y25163591D01*
X67755768Y25028172D01*
X67872765Y24903584D01*
X68001359Y24791008D01*
X68140335Y24691511D01*
X68288354Y24606052D01*
X68444005Y24535446D01*
X68605803Y24480365D01*
X68772192Y24441339D01*
X68941620Y24418732D01*
X69112425Y24412767D01*
X69283000Y24423499D01*
X69451717Y24450826D01*
X69616974Y24494488D01*
X69777158Y24554060D01*
X69930781Y24628987D01*
X70076358Y24718547D01*
X70212499Y24821884D01*
X70337898Y24938004D01*
X70451376Y25065818D01*
X70551838Y25204092D01*
X70638329Y25351513D01*
X70710017Y25506659D01*
X70766227Y25668075D01*
X70806415Y25834192D01*
X70830203Y26003452D01*
X70837360Y26174212D01*
X70827819Y26344860D01*
X70801672Y26513760D01*
X70759164Y26679320D01*
X70700712Y26839915D01*
X70626857Y26994061D01*
X70538322Y27140251D01*
X70435941Y27277108D01*
X70320685Y27403329D01*
X70193675Y27517689D01*
X70056100Y27619117D01*
X69909297Y27706630D01*
X69754650Y27779401D01*
X69593630Y27836738D01*
X69427795Y27878085D01*
X69258710Y27903054D01*
X69079266Y27911830D01*
X69047867Y27911391D01*
X68868748Y27897609D01*
X68700419Y27867928D01*
X68535809Y27821968D01*
X68376452Y27760157D01*
X68223898Y27683097D01*
X68079584Y27591512D01*
X67944902Y27486287D01*
X67821132Y27368422D01*
X67709456Y27239044D01*
X67610930Y27099375D01*
X67526508Y26950765D01*
X67456992Y26794631D01*
X67403040Y26632447D01*
X67365175Y26465781D01*
X67343753Y26296213D01*
X67338981Y26125366D01*
X66338761Y26125366D01*
X66338688Y26128841D01*
X66344826Y26348579D01*
X66345070Y26355556D01*
X66346967Y26376399D01*
X66348574Y26397286D01*
X66376124Y26615360D01*
X66376125Y26615373D01*
X66376127Y26615387D01*
X66377049Y26622296D01*
X66380971Y26642854D01*
X66384608Y26663480D01*
X66433309Y26877843D01*
X66434903Y26884639D01*
X66440809Y26904707D01*
X66446446Y26924895D01*
X66515830Y27133469D01*
X66515833Y27133481D01*
X66515839Y27133495D01*
X66518083Y27140088D01*
X66525921Y27159488D01*
X66533499Y27179024D01*
X66622905Y27379832D01*
X66622909Y27379842D01*
X66622914Y27379853D01*
X66625794Y27386201D01*
X66635484Y27404737D01*
X66644934Y27423444D01*
X66753514Y27614580D01*
X66757005Y27620626D01*
X66768459Y27638130D01*
X66779690Y27655827D01*
X66906404Y27835455D01*
X66910468Y27841131D01*
X66923586Y27857447D01*
X66936478Y27873947D01*
X67080101Y28040337D01*
X67080116Y28040356D01*
X67080136Y28040377D01*
X67084713Y28045606D01*
X67099346Y28060549D01*
X67113804Y28075731D01*
X67272995Y28227326D01*
X67278084Y28232105D01*
X67294144Y28245581D01*
X67309973Y28259244D01*
X67483195Y28394581D01*
X67488727Y28398840D01*
X67505961Y28410641D01*
X67523113Y28422740D01*
X67708718Y28540528D01*
X67708719Y28540529D01*
X67708726Y28540533D01*
X67714638Y28544227D01*
X67732969Y28554305D01*
X67751194Y28564658D01*
X67947406Y28663771D01*
X67953659Y28666875D01*
X67972883Y28675114D01*
X67992030Y28683639D01*
X68196977Y28763133D01*
X68203503Y28765612D01*
X68223474Y28771947D01*
X68243330Y28778552D01*
X68455037Y28837662D01*
X68455056Y28837668D01*
X68455078Y28837673D01*
X68461793Y28839497D01*
X68482221Y28843839D01*
X68502692Y28848490D01*
X68719176Y28886662D01*
X68726060Y28887826D01*
X68746857Y28890159D01*
X68767640Y28892784D01*
X68986816Y28909649D01*
X68993780Y28910136D01*
X69005998Y28910307D01*
X69018197Y28911074D01*
X69081021Y28911951D01*
X69088002Y28912000D01*
X69100210Y28911403D01*
G37*
%TD.AperFunction*%
D11*
X70678000Y27752000D03*
X69088000Y28412000D03*
X67498000Y27752000D03*
X66838000Y26162000D03*
X67498000Y24572000D03*
X69088000Y23912000D03*
X70678000Y24572000D03*
X71338000Y26162000D03*
%TD*%
D12*
%TO.P,J4,1*%
%TO.N,+3V3*%
X10668000Y50292000D03*
D13*
%TO.P,J4,2*%
%TO.N,/CONN_ADC1*%
X13208000Y50292000D03*
%TO.P,J4,3*%
%TO.N,GND*%
X15748000Y50292000D03*
%TO.P,J4,4*%
%TO.N,/CONN_ADC2*%
X18288000Y50292000D03*
%TO.P,J4,5*%
%TO.N,GND*%
X20828000Y50292000D03*
%TO.P,J4,6*%
%TO.N,/CONN_ADC3*%
X23368000Y50292000D03*
%TO.P,J4,7*%
%TO.N,GND*%
X25908000Y50292000D03*
%TO.P,J4,8*%
%TO.N,/CONN_ADC4*%
X28448000Y50292000D03*
%TD*%
D12*
%TO.P,A1,RST*%
%TO.N,Net-(A1-PadRST)*%
X22098000Y29972000D03*
D13*
%TO.P,A1,3V3*%
%TO.N,+3V3*%
X24638000Y29972000D03*
%TO.P,A1,MD*%
%TO.N,Net-(A1-PadMD)*%
X27178000Y29972000D03*
%TO.P,A1,GND*%
%TO.N,GND*%
X29718000Y29972000D03*
%TO.P,A1,A0*%
%TO.N,/PB_PWM2*%
X32258000Y29972000D03*
%TO.P,A1,A1*%
%TO.N,/PB_ADC1*%
X34798000Y29972000D03*
%TO.P,A1,A2*%
%TO.N,/PB_ADC2*%
X37338000Y29972000D03*
%TO.P,A1,A3*%
%TO.N,/PB_ADC3*%
X39878000Y29972000D03*
%TO.P,A1,A4*%
%TO.N,/PB_ADC4*%
X42418000Y29972000D03*
%TO.P,A1,A5*%
%TO.N,Net-(A1-PadA5)*%
X44958000Y29972000D03*
%TO.P,A1,SCK*%
%TO.N,Net-(A1-PadSCK)*%
X47498000Y29972000D03*
%TO.P,A1,MO*%
%TO.N,Net-(A1-PadMO)*%
X50038000Y29972000D03*
%TO.P,A1,MI*%
%TO.N,Net-(A1-PadMI)*%
X52578000Y29972000D03*
%TO.P,A1,RX*%
%TO.N,/PB_UART1_RX*%
X55118000Y29972000D03*
%TO.P,A1,TX*%
%TO.N,/PB_UART1_TX*%
X57658000Y29972000D03*
%TO.P,A1,NC*%
%TO.N,Net-(A1-PadNC)*%
X60198000Y29972000D03*
%TO.P,A1,VUSB*%
%TO.N,+5V*%
X37338000Y50292000D03*
%TO.P,A1,SDA*%
%TO.N,/PB_SDA*%
X60198000Y50292000D03*
%TO.P,A1,SCL*%
%TO.N,/PB_SCL*%
X57658000Y50292000D03*
%TO.P,A1,D2*%
%TO.N,/PB_D2*%
X55118000Y50292000D03*
%TO.P,A1,D3*%
%TO.N,/PB_D3*%
X52578000Y50292000D03*
%TO.P,A1,D4*%
%TO.N,/PB_UART2_TX*%
X50038000Y50292000D03*
%TO.P,A1,D5*%
%TO.N,/PB_UART2_RX*%
X47498000Y50292000D03*
%TO.P,A1,D6*%
%TO.N,Net-(A1-PadD6)*%
X44958000Y50292000D03*
%TO.P,A1,D7*%
%TO.N,Net-(A1-PadD7)*%
X42418000Y50292000D03*
%TO.P,A1,D8*%
%TO.N,Net-(A1-PadD8)*%
X39878000Y50292000D03*
%TO.P,A1,EN*%
%TO.N,Net-(A1-PadEN)*%
X34798000Y50292000D03*
%TO.P,A1,LI+*%
%TO.N,Net-(A1-PadLI+)*%
X32258000Y50292000D03*
%TD*%
D14*
%TO.P,J5,1*%
%TO.N,/PBATT_CONN*%
X23368000Y8001000D03*
D15*
%TO.P,J5,3*%
%TO.N,/MATE_NET_TXD*%
X21336000Y8001000D03*
%TO.P,J5,5*%
%TO.N,Net-(J5-Pad5)*%
X19304000Y8001000D03*
%TO.P,J5,7*%
%TO.N,Net-(J5-Pad7)*%
X17272000Y8001000D03*
%TO.P,J5,2*%
%TO.N,GND*%
X22352000Y9781000D03*
%TO.P,J5,4*%
%TO.N,Net-(J5-Pad4)*%
X20320000Y9781000D03*
%TO.P,J5,6*%
%TO.N,/MATE_NET_RXD*%
X18288000Y9781000D03*
%TO.P,J5,8*%
%TO.N,Net-(J5-Pad8)*%
X16256000Y9781000D03*
%TO.P,J5,9*%
%TO.N,/PBATT_K*%
X26668000Y14601000D03*
%TO.P,J5,10*%
%TO.N,+BATT*%
X24378000Y14601000D03*
%TO.P,J5,11*%
%TO.N,GND*%
X15238000Y14601000D03*
%TO.P,J5,12*%
%TO.N,/MATE_NET_IND_A*%
X12948000Y14601000D03*
%TD*%
D12*
%TO.P,J3,1*%
%TO.N,+3V3*%
X69088000Y50292000D03*
D13*
%TO.P,J3,2*%
%TO.N,/PB_SDA*%
X69088000Y47752000D03*
%TO.P,J3,3*%
%TO.N,GND*%
X71628000Y50292000D03*
%TO.P,J3,4*%
%TO.N,/PB_SCL*%
X71628000Y47752000D03*
%TD*%
D16*
%TO.P,J1,6*%
%TO.N,Net-(J1-Pad6)*%
X40513000Y14097000D03*
%TO.P,J1,5*%
%TO.N,/MAG_NET_B*%
X39243000Y16637000D03*
%TO.P,J1,4*%
%TO.N,/MAG_NET_P14V*%
X37973000Y14097000D03*
%TO.P,J1,3*%
%TO.N,/MAG_NET_GND*%
X36703000Y16637000D03*
%TO.P,J1,2*%
%TO.N,/MAG_NET_A*%
X35433000Y14097000D03*
D17*
%TO.P,J1,1*%
%TO.N,Net-(J1-Pad1)*%
X34163000Y16637000D03*
%TD*%
%TO.P,J2,1*%
%TO.N,Net-(J2-Pad1)*%
X48768000Y16637000D03*
D16*
%TO.P,J2,2*%
%TO.N,/MAG_NET_B*%
X50038000Y14097000D03*
%TO.P,J2,3*%
%TO.N,/MAG_NET_P14V*%
X51308000Y16637000D03*
%TO.P,J2,4*%
%TO.N,/MAG_NET_GND*%
X52578000Y14097000D03*
%TO.P,J2,5*%
%TO.N,/MAG_NET_A*%
X53848000Y16637000D03*
%TO.P,J2,6*%
%TO.N,Net-(J2-Pad6)*%
X55118000Y14097000D03*
%TD*%
D18*
%TO.N,GND*%
%TO.C,U1*%
X21351000Y40174000D03*
X21351000Y39074000D03*
X20051000Y40174000D03*
X20051000Y39074000D03*
D19*
X20701000Y39624000D03*
%TD*%
D20*
%TO.N,+3V3*%
X46355000Y48006000D03*
X35306000Y45974000D03*
X33020000Y48260000D03*
%TO.N,GND*%
X32131000Y27940000D03*
X41529000Y44323000D03*
X38735000Y44323000D03*
X35941000Y44323000D03*
X27178000Y47117000D03*
X30607000Y49530000D03*
X31103199Y49033801D03*
X12192000Y49403000D03*
X55118000Y35814000D03*
X62230000Y50165000D03*
X14478000Y22479000D03*
X14478000Y21463000D03*
X14478000Y23495000D03*
X14478000Y18288000D03*
X14478000Y19304000D03*
X14478000Y17272000D03*
X22987000Y19050000D03*
X15621000Y19050000D03*
X27305000Y19050000D03*
X1143000Y14986000D03*
X3937000Y14986000D03*
X6731000Y14986000D03*
X3175000Y14986000D03*
X5969000Y14986000D03*
X8763000Y14986000D03*
X14605000Y41656000D03*
X14605000Y42545000D03*
X17399000Y42545000D03*
X18948410Y41780483D03*
X17399000Y41689173D03*
X2413000Y48641000D03*
X2413000Y46101000D03*
X1016000Y46101000D03*
X1016000Y48641000D03*
X14224000Y44577000D03*
X33516792Y27924075D03*
X40259000Y20193000D03*
X42096874Y23139390D03*
X11683818Y48923420D03*
%TO.N,/PB_UART1_RX*%
X35415211Y27689768D03*
%TO.N,/PB_UART1_TX*%
X36957000Y27305000D03*
%TO.N,/PB_D3*%
X41021000Y28702000D03*
X50800000Y28702000D03*
%TO.N,/MATE_NET_RXD*%
X18288000Y19939000D03*
%TO.N,/CONN_ADC1*%
X34798000Y40767000D03*
%TO.N,/CONN_ADC2*%
X35560000Y41275000D03*
%TO.N,/CONN_ADC3*%
X36322000Y42037000D03*
%TO.N,/CONN_ADC4*%
X36830000Y42799000D03*
%TD*%
D21*
%TO.N,+3V3*%
X69088000Y50292000D02*
X65151000Y50292000D01*
X62865000Y48006000D02*
X46355000Y48006000D01*
X65151000Y50292000D02*
X62865000Y48006000D01*
X35306000Y45974000D02*
X33020000Y48260000D01*
D22*
%TO.N,/PB_UART1_RX*%
X53086000Y27940000D02*
X35665443Y27940000D01*
X35665443Y27940000D02*
X35415211Y27689768D01*
X55118000Y29972000D02*
X53086000Y27940000D01*
%TO.N,/PB_UART1_TX*%
X53467000Y27305000D02*
X54610000Y28448000D01*
X36957000Y27305000D02*
X53467000Y27305000D01*
X56134000Y28448000D02*
X57658000Y29972000D01*
X54610000Y28448000D02*
X56134000Y28448000D01*
%TO.N,/PB_D3*%
X41021000Y28702000D02*
X50800000Y28702000D01*
%TO.N,/MATE_NET_RXD*%
X18288000Y19939000D02*
X18288000Y9527000D01*
D23*
%TO.N,/MAG_NET_P14V*%
X37973000Y14097000D02*
X39497000Y12573000D01*
X39497000Y12573000D02*
X50546000Y12573000D01*
X51308000Y13335000D02*
X51308000Y16637000D01*
X50546000Y12573000D02*
X51308000Y13335000D01*
D22*
%TO.N,/CONN_ADC1*%
X34798000Y41656000D02*
X28575000Y47879000D01*
X15621000Y47879000D02*
X13208000Y50292000D01*
X28575000Y47879000D02*
X15621000Y47879000D01*
X34798000Y40767000D02*
X34798000Y41656000D01*
%TO.N,/CONN_ADC2*%
X20193000Y48387000D02*
X18288000Y50292000D01*
X28829000Y48387000D02*
X20193000Y48387000D01*
X35560000Y41656000D02*
X35560000Y41275000D01*
X35560000Y41656000D02*
X28829000Y48387000D01*
%TO.N,/CONN_ADC3*%
X24765000Y48895000D02*
X23368000Y50292000D01*
X29083000Y48895000D02*
X24765000Y48895000D01*
X35941000Y42037000D02*
X35814000Y42164000D01*
X35814000Y42164000D02*
X29083000Y48895000D01*
X36322000Y42037000D02*
X35941000Y42037000D01*
%TO.N,/CONN_ADC4*%
X36830000Y42799000D02*
X35941000Y42799000D01*
X28448000Y50292000D02*
X35941000Y42799000D01*
%TD*%
%TO.N,GND*%
G36*
X9460680Y49442000D02*
G01*
X9467546Y49372290D01*
X9487879Y49305260D01*
X9520899Y49243484D01*
X9565337Y49189337D01*
X9619484Y49144899D01*
X9681260Y49111879D01*
X9748290Y49091546D01*
X9818000Y49084680D01*
X11518000Y49084680D01*
X11587710Y49091546D01*
X11654740Y49111879D01*
X11716516Y49144899D01*
X11770663Y49189337D01*
X11815101Y49243484D01*
X11848121Y49305260D01*
X11868454Y49372290D01*
X11875320Y49442000D01*
X11875320Y51029400D01*
X12250753Y51029400D01*
X12139611Y50863066D01*
X12048731Y50643660D01*
X12002400Y50410741D01*
X12002400Y50173259D01*
X12048731Y49940340D01*
X12139611Y49720934D01*
X12271550Y49523475D01*
X12439475Y49355550D01*
X12636934Y49223611D01*
X12856340Y49132731D01*
X13089259Y49086400D01*
X13326741Y49086400D01*
X13559660Y49132731D01*
X13673527Y49179896D01*
X15281829Y47571593D01*
X15296147Y47554147D01*
X15313592Y47539830D01*
X15365763Y47497013D01*
X15408217Y47474322D01*
X15445191Y47454559D01*
X15531373Y47428415D01*
X15598540Y47421800D01*
X15598549Y47421800D01*
X15620999Y47419589D01*
X15643449Y47421800D01*
X28385623Y47421800D01*
X34340801Y41466621D01*
X34340801Y41243747D01*
X34285034Y41187980D01*
X34212761Y41079817D01*
X34162979Y40959631D01*
X34137600Y40832044D01*
X34137600Y40701956D01*
X34162979Y40574369D01*
X34212761Y40454183D01*
X34285034Y40346020D01*
X34377020Y40254034D01*
X34485183Y40181761D01*
X34605369Y40131979D01*
X34732956Y40106600D01*
X34863044Y40106600D01*
X34990631Y40131979D01*
X35110817Y40181761D01*
X35218980Y40254034D01*
X35310966Y40346020D01*
X35383239Y40454183D01*
X35433021Y40574369D01*
X35443076Y40624920D01*
X35494956Y40614600D01*
X35625044Y40614600D01*
X35752631Y40639979D01*
X35872817Y40689761D01*
X35980980Y40762034D01*
X36072966Y40854020D01*
X36145239Y40962183D01*
X36195021Y41082369D01*
X36220400Y41209956D01*
X36220400Y41340044D01*
X36211323Y41385677D01*
X36256956Y41376600D01*
X36387044Y41376600D01*
X36514631Y41401979D01*
X36634817Y41451761D01*
X36742980Y41524034D01*
X36834966Y41616020D01*
X36907239Y41724183D01*
X36957021Y41844369D01*
X36982400Y41971956D01*
X36982400Y42102044D01*
X36972080Y42153924D01*
X37022631Y42163979D01*
X37142817Y42213761D01*
X37250980Y42286034D01*
X37342966Y42378020D01*
X37415239Y42486183D01*
X37465021Y42606369D01*
X37490400Y42733956D01*
X37490400Y42864044D01*
X37465021Y42991631D01*
X37415239Y43111817D01*
X37342966Y43219980D01*
X37250980Y43311966D01*
X37142817Y43384239D01*
X37022631Y43434021D01*
X36895044Y43459400D01*
X36764956Y43459400D01*
X36637369Y43434021D01*
X36517183Y43384239D01*
X36409020Y43311966D01*
X36353254Y43256200D01*
X36130378Y43256200D01*
X31061534Y48325044D01*
X32359600Y48325044D01*
X32359600Y48194956D01*
X32384979Y48067369D01*
X32434761Y47947183D01*
X32507034Y47839020D01*
X32599020Y47747034D01*
X32707183Y47674761D01*
X32827369Y47624979D01*
X32829203Y47624614D01*
X34670614Y45783203D01*
X34670979Y45781369D01*
X34720761Y45661183D01*
X34793034Y45553020D01*
X34885020Y45461034D01*
X34993183Y45388761D01*
X35113369Y45338979D01*
X35240956Y45313600D01*
X35371044Y45313600D01*
X35498631Y45338979D01*
X35618817Y45388761D01*
X35726980Y45461034D01*
X35818966Y45553020D01*
X35891239Y45661183D01*
X35941021Y45781369D01*
X35966400Y45908956D01*
X35966400Y46039044D01*
X35941021Y46166631D01*
X35891239Y46286817D01*
X35818966Y46394980D01*
X35726980Y46486966D01*
X35618817Y46559239D01*
X35498631Y46609021D01*
X35496797Y46609386D01*
X33655386Y48450797D01*
X33655021Y48452631D01*
X33605239Y48572817D01*
X33532966Y48680980D01*
X33440980Y48772966D01*
X33332817Y48845239D01*
X33212631Y48895021D01*
X33085044Y48920400D01*
X32954956Y48920400D01*
X32827369Y48895021D01*
X32707183Y48845239D01*
X32599020Y48772966D01*
X32507034Y48680980D01*
X32434761Y48572817D01*
X32384979Y48452631D01*
X32359600Y48325044D01*
X31061534Y48325044D01*
X29560104Y49826473D01*
X29607269Y49940340D01*
X29653600Y50173259D01*
X29653600Y50410741D01*
X29607269Y50643660D01*
X29516389Y50863066D01*
X29405247Y51029400D01*
X31300753Y51029400D01*
X31189611Y50863066D01*
X31098731Y50643660D01*
X31052400Y50410741D01*
X31052400Y50173259D01*
X31098731Y49940340D01*
X31189611Y49720934D01*
X31321550Y49523475D01*
X31489475Y49355550D01*
X31686934Y49223611D01*
X31906340Y49132731D01*
X32139259Y49086400D01*
X32376741Y49086400D01*
X32609660Y49132731D01*
X32829066Y49223611D01*
X33026525Y49355550D01*
X33194450Y49523475D01*
X33326389Y49720934D01*
X33417269Y49940340D01*
X33463600Y50173259D01*
X33463600Y50410741D01*
X33417269Y50643660D01*
X33326389Y50863066D01*
X33215247Y51029400D01*
X33840753Y51029400D01*
X33729611Y50863066D01*
X33638731Y50643660D01*
X33592400Y50410741D01*
X33592400Y50173259D01*
X33638731Y49940340D01*
X33729611Y49720934D01*
X33861550Y49523475D01*
X34029475Y49355550D01*
X34226934Y49223611D01*
X34446340Y49132731D01*
X34679259Y49086400D01*
X34916741Y49086400D01*
X35149660Y49132731D01*
X35369066Y49223611D01*
X35566525Y49355550D01*
X35734450Y49523475D01*
X35866389Y49720934D01*
X35957269Y49940340D01*
X36003600Y50173259D01*
X36003600Y50410741D01*
X35957269Y50643660D01*
X35866389Y50863066D01*
X35755247Y51029400D01*
X36380753Y51029400D01*
X36269611Y50863066D01*
X36178731Y50643660D01*
X36132400Y50410741D01*
X36132400Y50173259D01*
X36178731Y49940340D01*
X36269611Y49720934D01*
X36401550Y49523475D01*
X36569475Y49355550D01*
X36766934Y49223611D01*
X36986340Y49132731D01*
X37219259Y49086400D01*
X37456741Y49086400D01*
X37689660Y49132731D01*
X37909066Y49223611D01*
X38106525Y49355550D01*
X38274450Y49523475D01*
X38406389Y49720934D01*
X38497269Y49940340D01*
X38543600Y50173259D01*
X38543600Y50410741D01*
X38497269Y50643660D01*
X38406389Y50863066D01*
X38295247Y51029400D01*
X38920753Y51029400D01*
X38809611Y50863066D01*
X38718731Y50643660D01*
X38672400Y50410741D01*
X38672400Y50173259D01*
X38718731Y49940340D01*
X38809611Y49720934D01*
X38941550Y49523475D01*
X39109475Y49355550D01*
X39306934Y49223611D01*
X39526340Y49132731D01*
X39759259Y49086400D01*
X39996741Y49086400D01*
X40229660Y49132731D01*
X40449066Y49223611D01*
X40646525Y49355550D01*
X40814450Y49523475D01*
X40946389Y49720934D01*
X41037269Y49940340D01*
X41083600Y50173259D01*
X41083600Y50410741D01*
X41037269Y50643660D01*
X40946389Y50863066D01*
X40835247Y51029400D01*
X41460753Y51029400D01*
X41349611Y50863066D01*
X41258731Y50643660D01*
X41212400Y50410741D01*
X41212400Y50173259D01*
X41258731Y49940340D01*
X41349611Y49720934D01*
X41481550Y49523475D01*
X41649475Y49355550D01*
X41846934Y49223611D01*
X42066340Y49132731D01*
X42299259Y49086400D01*
X42536741Y49086400D01*
X42769660Y49132731D01*
X42989066Y49223611D01*
X43186525Y49355550D01*
X43354450Y49523475D01*
X43486389Y49720934D01*
X43577269Y49940340D01*
X43623600Y50173259D01*
X43623600Y50410741D01*
X43577269Y50643660D01*
X43486389Y50863066D01*
X43375247Y51029400D01*
X44000753Y51029400D01*
X43889611Y50863066D01*
X43798731Y50643660D01*
X43752400Y50410741D01*
X43752400Y50173259D01*
X43798731Y49940340D01*
X43889611Y49720934D01*
X44021550Y49523475D01*
X44189475Y49355550D01*
X44386934Y49223611D01*
X44606340Y49132731D01*
X44839259Y49086400D01*
X45076741Y49086400D01*
X45309660Y49132731D01*
X45529066Y49223611D01*
X45726525Y49355550D01*
X45894450Y49523475D01*
X46026389Y49720934D01*
X46117269Y49940340D01*
X46163600Y50173259D01*
X46163600Y50410741D01*
X46117269Y50643660D01*
X46026389Y50863066D01*
X45915247Y51029400D01*
X46540753Y51029400D01*
X46429611Y50863066D01*
X46338731Y50643660D01*
X46292400Y50410741D01*
X46292400Y50173259D01*
X46338731Y49940340D01*
X46429611Y49720934D01*
X46561550Y49523475D01*
X46729475Y49355550D01*
X46926934Y49223611D01*
X47146340Y49132731D01*
X47379259Y49086400D01*
X47616741Y49086400D01*
X47849660Y49132731D01*
X48069066Y49223611D01*
X48266525Y49355550D01*
X48434450Y49523475D01*
X48566389Y49720934D01*
X48657269Y49940340D01*
X48703600Y50173259D01*
X48703600Y50410741D01*
X48657269Y50643660D01*
X48566389Y50863066D01*
X48455247Y51029400D01*
X49080753Y51029400D01*
X48969611Y50863066D01*
X48878731Y50643660D01*
X48832400Y50410741D01*
X48832400Y50173259D01*
X48878731Y49940340D01*
X48969611Y49720934D01*
X49101550Y49523475D01*
X49269475Y49355550D01*
X49466934Y49223611D01*
X49686340Y49132731D01*
X49919259Y49086400D01*
X50156741Y49086400D01*
X50389660Y49132731D01*
X50609066Y49223611D01*
X50806525Y49355550D01*
X50974450Y49523475D01*
X51106389Y49720934D01*
X51197269Y49940340D01*
X51243600Y50173259D01*
X51243600Y50410741D01*
X51197269Y50643660D01*
X51106389Y50863066D01*
X50995247Y51029400D01*
X51620753Y51029400D01*
X51509611Y50863066D01*
X51418731Y50643660D01*
X51372400Y50410741D01*
X51372400Y50173259D01*
X51418731Y49940340D01*
X51509611Y49720934D01*
X51641550Y49523475D01*
X51809475Y49355550D01*
X52006934Y49223611D01*
X52226340Y49132731D01*
X52459259Y49086400D01*
X52696741Y49086400D01*
X52929660Y49132731D01*
X53149066Y49223611D01*
X53346525Y49355550D01*
X53514450Y49523475D01*
X53646389Y49720934D01*
X53737269Y49940340D01*
X53783600Y50173259D01*
X53783600Y50410741D01*
X53737269Y50643660D01*
X53646389Y50863066D01*
X53535247Y51029400D01*
X54160753Y51029400D01*
X54049611Y50863066D01*
X53958731Y50643660D01*
X53912400Y50410741D01*
X53912400Y50173259D01*
X53958731Y49940340D01*
X54049611Y49720934D01*
X54181550Y49523475D01*
X54349475Y49355550D01*
X54546934Y49223611D01*
X54766340Y49132731D01*
X54999259Y49086400D01*
X55236741Y49086400D01*
X55469660Y49132731D01*
X55689066Y49223611D01*
X55886525Y49355550D01*
X56054450Y49523475D01*
X56186389Y49720934D01*
X56277269Y49940340D01*
X56323600Y50173259D01*
X56323600Y50410741D01*
X56277269Y50643660D01*
X56186389Y50863066D01*
X56075247Y51029400D01*
X56700753Y51029400D01*
X56589611Y50863066D01*
X56498731Y50643660D01*
X56452400Y50410741D01*
X56452400Y50173259D01*
X56498731Y49940340D01*
X56589611Y49720934D01*
X56721550Y49523475D01*
X56889475Y49355550D01*
X57086934Y49223611D01*
X57306340Y49132731D01*
X57539259Y49086400D01*
X57776741Y49086400D01*
X58009660Y49132731D01*
X58229066Y49223611D01*
X58426525Y49355550D01*
X58594450Y49523475D01*
X58726389Y49720934D01*
X58817269Y49940340D01*
X58863600Y50173259D01*
X58863600Y50410741D01*
X58817269Y50643660D01*
X58726389Y50863066D01*
X58615247Y51029400D01*
X59240753Y51029400D01*
X59129611Y50863066D01*
X59038731Y50643660D01*
X58992400Y50410741D01*
X58992400Y50173259D01*
X59038731Y49940340D01*
X59129611Y49720934D01*
X59261550Y49523475D01*
X59429475Y49355550D01*
X59626934Y49223611D01*
X59846340Y49132731D01*
X60079259Y49086400D01*
X60316741Y49086400D01*
X60549660Y49132731D01*
X60769066Y49223611D01*
X60966525Y49355550D01*
X61134450Y49523475D01*
X61266389Y49720934D01*
X61357269Y49940340D01*
X61403600Y50173259D01*
X61403600Y50410741D01*
X61357269Y50643660D01*
X61266389Y50863066D01*
X61155247Y51029400D01*
X67880680Y51029400D01*
X67880680Y50876200D01*
X65179681Y50876200D01*
X65150999Y50879025D01*
X65122317Y50876200D01*
X65122308Y50876200D01*
X65036477Y50867746D01*
X64926355Y50834341D01*
X64824866Y50780094D01*
X64735910Y50707090D01*
X64717618Y50684801D01*
X62623017Y48590200D01*
X46669372Y48590200D01*
X46667817Y48591239D01*
X46547631Y48641021D01*
X46420044Y48666400D01*
X46289956Y48666400D01*
X46162369Y48641021D01*
X46042183Y48591239D01*
X45934020Y48518966D01*
X45842034Y48426980D01*
X45769761Y48318817D01*
X45719979Y48198631D01*
X45694600Y48071044D01*
X45694600Y47940956D01*
X45719979Y47813369D01*
X45769761Y47693183D01*
X45842034Y47585020D01*
X45934020Y47493034D01*
X46042183Y47420761D01*
X46162369Y47370979D01*
X46289956Y47345600D01*
X46420044Y47345600D01*
X46547631Y47370979D01*
X46667817Y47420761D01*
X46669372Y47421800D01*
X62836316Y47421800D01*
X62865000Y47418975D01*
X62893684Y47421800D01*
X62893692Y47421800D01*
X62979523Y47430254D01*
X63089645Y47463659D01*
X63191134Y47517906D01*
X63280090Y47590910D01*
X63298382Y47613199D01*
X63555924Y47870741D01*
X67882400Y47870741D01*
X67882400Y47633259D01*
X67928731Y47400340D01*
X68019611Y47180934D01*
X68151550Y46983475D01*
X68319475Y46815550D01*
X68516934Y46683611D01*
X68736340Y46592731D01*
X68969259Y46546400D01*
X69206741Y46546400D01*
X69439660Y46592731D01*
X69659066Y46683611D01*
X69856525Y46815550D01*
X70024450Y46983475D01*
X70156389Y47180934D01*
X70247269Y47400340D01*
X70293600Y47633259D01*
X70293600Y47870741D01*
X70422400Y47870741D01*
X70422400Y47633259D01*
X70468731Y47400340D01*
X70559611Y47180934D01*
X70691550Y46983475D01*
X70859475Y46815550D01*
X71056934Y46683611D01*
X71276340Y46592731D01*
X71509259Y46546400D01*
X71746741Y46546400D01*
X71979660Y46592731D01*
X72199066Y46683611D01*
X72396525Y46815550D01*
X72564450Y46983475D01*
X72696389Y47180934D01*
X72787269Y47400340D01*
X72833600Y47633259D01*
X72833600Y47870741D01*
X72787269Y48103660D01*
X72696389Y48323066D01*
X72564450Y48520525D01*
X72396525Y48688450D01*
X72199066Y48820389D01*
X71979660Y48911269D01*
X71746741Y48957600D01*
X71509259Y48957600D01*
X71276340Y48911269D01*
X71056934Y48820389D01*
X70859475Y48688450D01*
X70691550Y48520525D01*
X70559611Y48323066D01*
X70468731Y48103660D01*
X70422400Y47870741D01*
X70293600Y47870741D01*
X70247269Y48103660D01*
X70156389Y48323066D01*
X70024450Y48520525D01*
X69856525Y48688450D01*
X69659066Y48820389D01*
X69439660Y48911269D01*
X69206741Y48957600D01*
X68969259Y48957600D01*
X68736340Y48911269D01*
X68516934Y48820389D01*
X68319475Y48688450D01*
X68151550Y48520525D01*
X68019611Y48323066D01*
X67928731Y48103660D01*
X67882400Y47870741D01*
X63555924Y47870741D01*
X65392983Y49707800D01*
X67880680Y49707800D01*
X67880680Y49442000D01*
X67887546Y49372290D01*
X67907879Y49305260D01*
X67940899Y49243484D01*
X67985337Y49189337D01*
X68039484Y49144899D01*
X68101260Y49111879D01*
X68168290Y49091546D01*
X68238000Y49084680D01*
X69938000Y49084680D01*
X70007710Y49091546D01*
X70074740Y49111879D01*
X70136516Y49144899D01*
X70190663Y49189337D01*
X70235101Y49243484D01*
X70268121Y49305260D01*
X70288454Y49372290D01*
X70295320Y49442000D01*
X70295320Y50103353D01*
X70437251Y50103353D01*
X70496934Y49874674D01*
X70600083Y49662033D01*
X70742735Y49473601D01*
X70919407Y49316620D01*
X71123310Y49197122D01*
X71346608Y49119700D01*
X71439353Y49101251D01*
X71627950Y49175300D01*
X71627950Y50291950D01*
X71628050Y50291950D01*
X71628050Y49175300D01*
X71816647Y49101251D01*
X71909392Y49119700D01*
X72132690Y49197122D01*
X72336593Y49316620D01*
X72513265Y49473601D01*
X72655917Y49662033D01*
X72759066Y49874674D01*
X72818749Y50103353D01*
X72744700Y50291950D01*
X71628050Y50291950D01*
X71627950Y50291950D01*
X70511300Y50291950D01*
X70437251Y50103353D01*
X70295320Y50103353D01*
X70295320Y51029400D01*
X70681415Y51029400D01*
X70600083Y50921967D01*
X70496934Y50709326D01*
X70437251Y50480647D01*
X70511300Y50292050D01*
X71627950Y50292050D01*
X71627950Y50312050D01*
X71628050Y50312050D01*
X71628050Y50292050D01*
X72744700Y50292050D01*
X72818749Y50480647D01*
X72759066Y50709326D01*
X72655917Y50921967D01*
X72574585Y51029400D01*
X74270401Y51029400D01*
X74270400Y10692600D01*
X67202907Y10692600D01*
X67182999Y10694561D01*
X67163091Y10692600D01*
X67163079Y10692600D01*
X67103489Y10686731D01*
X67027033Y10663538D01*
X66965669Y10630738D01*
X66956569Y10625874D01*
X66931089Y10604963D01*
X66894810Y10575190D01*
X66882111Y10559716D01*
X64370285Y8047889D01*
X64354811Y8035190D01*
X64342113Y8019717D01*
X64342112Y8019716D01*
X64304125Y7973429D01*
X64266463Y7902967D01*
X64243270Y7826511D01*
X64235438Y7747000D01*
X64237401Y7727072D01*
X64237400Y405600D01*
X10438600Y405600D01*
X10438600Y5656072D01*
X11477400Y5656072D01*
X11477400Y5265928D01*
X11553514Y4883280D01*
X11702815Y4522834D01*
X11919568Y4198441D01*
X12195441Y3922568D01*
X12519834Y3705815D01*
X12880280Y3556514D01*
X13262928Y3480400D01*
X13653072Y3480400D01*
X14035720Y3556514D01*
X14396166Y3705815D01*
X14720559Y3922568D01*
X14996432Y4198441D01*
X15213185Y4522834D01*
X15362486Y4883280D01*
X15438600Y5265928D01*
X15438600Y5656072D01*
X24177400Y5656072D01*
X24177400Y5265928D01*
X24253514Y4883280D01*
X24402815Y4522834D01*
X24619568Y4198441D01*
X24895441Y3922568D01*
X25219834Y3705815D01*
X25580280Y3556514D01*
X25962928Y3480400D01*
X26353072Y3480400D01*
X26735720Y3556514D01*
X27096166Y3705815D01*
X27420559Y3922568D01*
X27696432Y4198441D01*
X27913185Y4522834D01*
X28062486Y4883280D01*
X28138600Y5265928D01*
X28138600Y5656072D01*
X28062486Y6038720D01*
X27913185Y6399166D01*
X27696432Y6723559D01*
X27420559Y6999432D01*
X27096166Y7216185D01*
X26735720Y7365486D01*
X26353072Y7441600D01*
X25962928Y7441600D01*
X25580280Y7365486D01*
X25219834Y7216185D01*
X24895441Y6999432D01*
X24619568Y6723559D01*
X24402815Y6399166D01*
X24253514Y6038720D01*
X24177400Y5656072D01*
X15438600Y5656072D01*
X15362486Y6038720D01*
X15213185Y6399166D01*
X14996432Y6723559D01*
X14720559Y6999432D01*
X14396166Y7216185D01*
X14035720Y7365486D01*
X13653072Y7441600D01*
X13262928Y7441600D01*
X12880280Y7365486D01*
X12519834Y7216185D01*
X12195441Y6999432D01*
X11919568Y6723559D01*
X11702815Y6399166D01*
X11553514Y6038720D01*
X11477400Y5656072D01*
X10438600Y5656072D01*
X10438600Y7727093D01*
X10440561Y7747001D01*
X10438600Y7766909D01*
X10438600Y7766921D01*
X10432731Y7826511D01*
X10409538Y7902967D01*
X10371875Y7973429D01*
X10371874Y7973431D01*
X10333888Y8019717D01*
X10321190Y8035190D01*
X10305717Y8047888D01*
X8463713Y9889892D01*
X15150400Y9889892D01*
X15150400Y9672108D01*
X15192887Y9458508D01*
X15276230Y9257302D01*
X15397224Y9076221D01*
X15551221Y8922224D01*
X15732302Y8801230D01*
X15933508Y8717887D01*
X16147108Y8675400D01*
X16364892Y8675400D01*
X16397222Y8681831D01*
X16292230Y8524698D01*
X16208887Y8323492D01*
X16166400Y8109892D01*
X16166400Y7892108D01*
X16208887Y7678508D01*
X16292230Y7477302D01*
X16413224Y7296221D01*
X16567221Y7142224D01*
X16748302Y7021230D01*
X16949508Y6937887D01*
X17163108Y6895400D01*
X17380892Y6895400D01*
X17594492Y6937887D01*
X17795698Y7021230D01*
X17976779Y7142224D01*
X18130776Y7296221D01*
X18251770Y7477302D01*
X18288000Y7564768D01*
X18324230Y7477302D01*
X18445224Y7296221D01*
X18599221Y7142224D01*
X18780302Y7021230D01*
X18981508Y6937887D01*
X19195108Y6895400D01*
X19412892Y6895400D01*
X19626492Y6937887D01*
X19827698Y7021230D01*
X20008779Y7142224D01*
X20162776Y7296221D01*
X20283770Y7477302D01*
X20320000Y7564768D01*
X20356230Y7477302D01*
X20477224Y7296221D01*
X20631221Y7142224D01*
X20812302Y7021230D01*
X21013508Y6937887D01*
X21227108Y6895400D01*
X21444892Y6895400D01*
X21658492Y6937887D01*
X21859698Y7021230D01*
X22040779Y7142224D01*
X22194776Y7296221D01*
X22260680Y7394854D01*
X22260680Y7251000D01*
X22267546Y7181290D01*
X22287879Y7114260D01*
X22320899Y7052484D01*
X22365337Y6998337D01*
X22419484Y6953899D01*
X22481260Y6920879D01*
X22548290Y6900546D01*
X22618000Y6893680D01*
X24118000Y6893680D01*
X24187710Y6900546D01*
X24254740Y6920879D01*
X24316516Y6953899D01*
X24370663Y6998337D01*
X24415101Y7052484D01*
X24448121Y7114260D01*
X24468454Y7181290D01*
X24475320Y7251000D01*
X24475320Y7942072D01*
X30272400Y7942072D01*
X30272400Y7551928D01*
X30348514Y7169280D01*
X30497815Y6808834D01*
X30714568Y6484441D01*
X30990441Y6208568D01*
X31314834Y5991815D01*
X31675280Y5842514D01*
X32057928Y5766400D01*
X32448072Y5766400D01*
X32830720Y5842514D01*
X33191166Y5991815D01*
X33515559Y6208568D01*
X33791432Y6484441D01*
X34008185Y6808834D01*
X34157486Y7169280D01*
X34233600Y7551928D01*
X34233600Y7942072D01*
X40432400Y7942072D01*
X40432400Y7551928D01*
X40508514Y7169280D01*
X40657815Y6808834D01*
X40874568Y6484441D01*
X41150441Y6208568D01*
X41474834Y5991815D01*
X41835280Y5842514D01*
X42217928Y5766400D01*
X42608072Y5766400D01*
X42990720Y5842514D01*
X43351166Y5991815D01*
X43675559Y6208568D01*
X43951432Y6484441D01*
X44168185Y6808834D01*
X44317486Y7169280D01*
X44393600Y7551928D01*
X44393600Y7942072D01*
X44877400Y7942072D01*
X44877400Y7551928D01*
X44953514Y7169280D01*
X45102815Y6808834D01*
X45319568Y6484441D01*
X45595441Y6208568D01*
X45919834Y5991815D01*
X46280280Y5842514D01*
X46662928Y5766400D01*
X47053072Y5766400D01*
X47435720Y5842514D01*
X47796166Y5991815D01*
X48120559Y6208568D01*
X48396432Y6484441D01*
X48613185Y6808834D01*
X48762486Y7169280D01*
X48838600Y7551928D01*
X48838600Y7942072D01*
X55037400Y7942072D01*
X55037400Y7551928D01*
X55113514Y7169280D01*
X55262815Y6808834D01*
X55479568Y6484441D01*
X55755441Y6208568D01*
X56079834Y5991815D01*
X56440280Y5842514D01*
X56822928Y5766400D01*
X57213072Y5766400D01*
X57508043Y5825074D01*
X60350400Y5825074D01*
X60350400Y5604926D01*
X60393348Y5389008D01*
X60477595Y5185618D01*
X60599903Y5002571D01*
X60755571Y4846903D01*
X60938618Y4724595D01*
X61142008Y4640348D01*
X61357926Y4597400D01*
X61578074Y4597400D01*
X61793992Y4640348D01*
X61997382Y4724595D01*
X62180429Y4846903D01*
X62336097Y5002571D01*
X62458405Y5185618D01*
X62542652Y5389008D01*
X62585600Y5604926D01*
X62585600Y5825074D01*
X62542652Y6040992D01*
X62458405Y6244382D01*
X62336097Y6427429D01*
X62180429Y6583097D01*
X61997382Y6705405D01*
X61793992Y6789652D01*
X61578074Y6832600D01*
X61357926Y6832600D01*
X61142008Y6789652D01*
X60938618Y6705405D01*
X60755571Y6583097D01*
X60599903Y6427429D01*
X60477595Y6244382D01*
X60393348Y6040992D01*
X60350400Y5825074D01*
X57508043Y5825074D01*
X57595720Y5842514D01*
X57956166Y5991815D01*
X58280559Y6208568D01*
X58556432Y6484441D01*
X58773185Y6808834D01*
X58922486Y7169280D01*
X58998600Y7551928D01*
X58998600Y7942072D01*
X58922486Y8324720D01*
X58773185Y8685166D01*
X58556432Y9009559D01*
X58280559Y9285432D01*
X57956166Y9502185D01*
X57595720Y9651486D01*
X57213072Y9727600D01*
X56822928Y9727600D01*
X56440280Y9651486D01*
X56079834Y9502185D01*
X55755441Y9285432D01*
X55479568Y9009559D01*
X55262815Y8685166D01*
X55113514Y8324720D01*
X55037400Y7942072D01*
X48838600Y7942072D01*
X48762486Y8324720D01*
X48613185Y8685166D01*
X48396432Y9009559D01*
X48120559Y9285432D01*
X47796166Y9502185D01*
X47435720Y9651486D01*
X47053072Y9727600D01*
X46662928Y9727600D01*
X46280280Y9651486D01*
X45919834Y9502185D01*
X45595441Y9285432D01*
X45319568Y9009559D01*
X45102815Y8685166D01*
X44953514Y8324720D01*
X44877400Y7942072D01*
X44393600Y7942072D01*
X44317486Y8324720D01*
X44168185Y8685166D01*
X43951432Y9009559D01*
X43675559Y9285432D01*
X43351166Y9502185D01*
X42990720Y9651486D01*
X42608072Y9727600D01*
X42217928Y9727600D01*
X41835280Y9651486D01*
X41474834Y9502185D01*
X41150441Y9285432D01*
X40874568Y9009559D01*
X40657815Y8685166D01*
X40508514Y8324720D01*
X40432400Y7942072D01*
X34233600Y7942072D01*
X34157486Y8324720D01*
X34008185Y8685166D01*
X33791432Y9009559D01*
X33515559Y9285432D01*
X33191166Y9502185D01*
X32830720Y9651486D01*
X32448072Y9727600D01*
X32057928Y9727600D01*
X31675280Y9651486D01*
X31314834Y9502185D01*
X30990441Y9285432D01*
X30714568Y9009559D01*
X30497815Y8685166D01*
X30348514Y8324720D01*
X30272400Y7942072D01*
X24475320Y7942072D01*
X24475320Y8751000D01*
X24468454Y8820710D01*
X24448121Y8887740D01*
X24415101Y8949516D01*
X24370663Y9003663D01*
X24316516Y9048101D01*
X24254740Y9081121D01*
X24187710Y9101454D01*
X24118000Y9108320D01*
X23200993Y9108320D01*
X23250807Y9128040D01*
X23360923Y9315934D01*
X23432266Y9521702D01*
X23462095Y9737434D01*
X23449264Y9954839D01*
X23394266Y10165565D01*
X23299215Y10361512D01*
X23250807Y10433960D01*
X23074734Y10503663D01*
X22352071Y9781000D01*
X22366213Y9766858D01*
X22366142Y9766787D01*
X22352000Y9780929D01*
X22337858Y9766787D01*
X22337787Y9766858D01*
X22351929Y9781000D01*
X21629266Y10503663D01*
X21453193Y10433960D01*
X21343077Y10246066D01*
X21334410Y10221070D01*
X21299770Y10304698D01*
X21178776Y10485779D01*
X21160821Y10503734D01*
X21629337Y10503734D01*
X22352000Y9781071D01*
X23074663Y10503734D01*
X23004960Y10679807D01*
X22817066Y10789923D01*
X22611298Y10861266D01*
X22395566Y10891095D01*
X22178161Y10878264D01*
X21967435Y10823266D01*
X21771488Y10728215D01*
X21699040Y10679807D01*
X21629337Y10503734D01*
X21160821Y10503734D01*
X21024779Y10639776D01*
X20843698Y10760770D01*
X20642492Y10844113D01*
X20428892Y10886600D01*
X20211108Y10886600D01*
X19997508Y10844113D01*
X19796302Y10760770D01*
X19615221Y10639776D01*
X19461224Y10485779D01*
X19340230Y10304698D01*
X19304000Y10217232D01*
X19267770Y10304698D01*
X19146776Y10485779D01*
X18992779Y10639776D01*
X18811698Y10760770D01*
X18745200Y10788315D01*
X18745200Y14709892D01*
X23272400Y14709892D01*
X23272400Y14492108D01*
X23314887Y14278508D01*
X23398230Y14077302D01*
X23519224Y13896221D01*
X23673221Y13742224D01*
X23854302Y13621230D01*
X24055508Y13537887D01*
X24269108Y13495400D01*
X24486892Y13495400D01*
X24700492Y13537887D01*
X24901698Y13621230D01*
X25082779Y13742224D01*
X25236776Y13896221D01*
X25357770Y14077302D01*
X25441113Y14278508D01*
X25483600Y14492108D01*
X25483600Y14709892D01*
X25562400Y14709892D01*
X25562400Y14492108D01*
X25604887Y14278508D01*
X25688230Y14077302D01*
X25809224Y13896221D01*
X25963221Y13742224D01*
X26144302Y13621230D01*
X26345508Y13537887D01*
X26559108Y13495400D01*
X26776892Y13495400D01*
X26990492Y13537887D01*
X27191698Y13621230D01*
X27372779Y13742224D01*
X27526776Y13896221D01*
X27647770Y14077302D01*
X27701442Y14206877D01*
X34317400Y14206877D01*
X34317400Y13987123D01*
X34360272Y13771591D01*
X34444368Y13568565D01*
X34566457Y13385846D01*
X34721846Y13230457D01*
X34904565Y13108368D01*
X35107591Y13024272D01*
X35323123Y12981400D01*
X35542877Y12981400D01*
X35758409Y13024272D01*
X35961435Y13108368D01*
X36144154Y13230457D01*
X36299543Y13385846D01*
X36421632Y13568565D01*
X36505728Y13771591D01*
X36548600Y13987123D01*
X36548600Y14206877D01*
X36857400Y14206877D01*
X36857400Y13987123D01*
X36900272Y13771591D01*
X36984368Y13568565D01*
X37106457Y13385846D01*
X37261846Y13230457D01*
X37444565Y13108368D01*
X37647591Y13024272D01*
X37863123Y12981400D01*
X38082877Y12981400D01*
X38298409Y13024272D01*
X38318843Y13032736D01*
X39120150Y12231429D01*
X39136052Y12212052D01*
X39155429Y12196150D01*
X39213404Y12148571D01*
X39301655Y12101400D01*
X39301657Y12101399D01*
X39397415Y12072351D01*
X39472053Y12065000D01*
X39472055Y12065000D01*
X39496999Y12062543D01*
X39521943Y12065000D01*
X50521056Y12065000D01*
X50546000Y12062543D01*
X50570944Y12065000D01*
X50570947Y12065000D01*
X50645585Y12072351D01*
X50741343Y12101399D01*
X50829595Y12148571D01*
X50906948Y12212052D01*
X50922855Y12231435D01*
X51649565Y12958145D01*
X51668948Y12974052D01*
X51732429Y13051405D01*
X51779601Y13139657D01*
X51808649Y13235415D01*
X51813422Y13283881D01*
X51866846Y13230457D01*
X52049565Y13108368D01*
X52252591Y13024272D01*
X52468123Y12981400D01*
X52687877Y12981400D01*
X52903409Y13024272D01*
X53106435Y13108368D01*
X53289154Y13230457D01*
X53444543Y13385846D01*
X53566632Y13568565D01*
X53650728Y13771591D01*
X53693600Y13987123D01*
X53693600Y14206877D01*
X54002400Y14206877D01*
X54002400Y13987123D01*
X54045272Y13771591D01*
X54129368Y13568565D01*
X54251457Y13385846D01*
X54406846Y13230457D01*
X54589565Y13108368D01*
X54792591Y13024272D01*
X55008123Y12981400D01*
X55227877Y12981400D01*
X55443409Y13024272D01*
X55646435Y13108368D01*
X55829154Y13230457D01*
X55984543Y13385846D01*
X56106632Y13568565D01*
X56190728Y13771591D01*
X56233600Y13987123D01*
X56233600Y14206877D01*
X56190728Y14422409D01*
X56106632Y14625435D01*
X55984543Y14808154D01*
X55899823Y14892874D01*
X60350400Y14892874D01*
X60350400Y14672726D01*
X60393348Y14456808D01*
X60477595Y14253418D01*
X60599903Y14070371D01*
X60755571Y13914703D01*
X60938618Y13792395D01*
X61142008Y13708148D01*
X61357926Y13665200D01*
X61578074Y13665200D01*
X61793992Y13708148D01*
X61997382Y13792395D01*
X62180429Y13914703D01*
X62336097Y14070371D01*
X62458405Y14253418D01*
X62542652Y14456808D01*
X62585600Y14672726D01*
X62585600Y14892874D01*
X62542652Y15108792D01*
X62458405Y15312182D01*
X62336097Y15495229D01*
X62180429Y15650897D01*
X61997382Y15773205D01*
X61793992Y15857452D01*
X61578074Y15900400D01*
X61357926Y15900400D01*
X61142008Y15857452D01*
X60938618Y15773205D01*
X60755571Y15650897D01*
X60599903Y15495229D01*
X60477595Y15312182D01*
X60393348Y15108792D01*
X60350400Y14892874D01*
X55899823Y14892874D01*
X55829154Y14963543D01*
X55646435Y15085632D01*
X55443409Y15169728D01*
X55227877Y15212600D01*
X55008123Y15212600D01*
X54792591Y15169728D01*
X54589565Y15085632D01*
X54406846Y14963543D01*
X54251457Y14808154D01*
X54129368Y14625435D01*
X54045272Y14422409D01*
X54002400Y14206877D01*
X53693600Y14206877D01*
X53650728Y14422409D01*
X53566632Y14625435D01*
X53444543Y14808154D01*
X53289154Y14963543D01*
X53106435Y15085632D01*
X52903409Y15169728D01*
X52687877Y15212600D01*
X52468123Y15212600D01*
X52252591Y15169728D01*
X52049565Y15085632D01*
X51866846Y14963543D01*
X51816000Y14912697D01*
X51816000Y15639904D01*
X51836435Y15648368D01*
X52019154Y15770457D01*
X52174543Y15925846D01*
X52296632Y16108565D01*
X52380728Y16311591D01*
X52423600Y16527123D01*
X52423600Y16746877D01*
X52732400Y16746877D01*
X52732400Y16527123D01*
X52775272Y16311591D01*
X52859368Y16108565D01*
X52981457Y15925846D01*
X53136846Y15770457D01*
X53319565Y15648368D01*
X53522591Y15564272D01*
X53738123Y15521400D01*
X53957877Y15521400D01*
X54173409Y15564272D01*
X54376435Y15648368D01*
X54559154Y15770457D01*
X54714543Y15925846D01*
X54836632Y16108565D01*
X54920728Y16311591D01*
X54963600Y16527123D01*
X54963600Y16746877D01*
X54920728Y16962409D01*
X54836632Y17165435D01*
X54714543Y17348154D01*
X54559154Y17503543D01*
X54376435Y17625632D01*
X54173409Y17709728D01*
X53957877Y17752600D01*
X53738123Y17752600D01*
X53522591Y17709728D01*
X53319565Y17625632D01*
X53136846Y17503543D01*
X52981457Y17348154D01*
X52859368Y17165435D01*
X52775272Y16962409D01*
X52732400Y16746877D01*
X52423600Y16746877D01*
X52380728Y16962409D01*
X52296632Y17165435D01*
X52174543Y17348154D01*
X52019154Y17503543D01*
X51836435Y17625632D01*
X51633409Y17709728D01*
X51417877Y17752600D01*
X51198123Y17752600D01*
X50982591Y17709728D01*
X50779565Y17625632D01*
X50596846Y17503543D01*
X50441457Y17348154D01*
X50319368Y17165435D01*
X50235272Y16962409D01*
X50192400Y16746877D01*
X50192400Y16527123D01*
X50235272Y16311591D01*
X50319368Y16108565D01*
X50441457Y15925846D01*
X50596846Y15770457D01*
X50779565Y15648368D01*
X50800001Y15639903D01*
X50800000Y14912697D01*
X50749154Y14963543D01*
X50566435Y15085632D01*
X50363409Y15169728D01*
X50147877Y15212600D01*
X49928123Y15212600D01*
X49712591Y15169728D01*
X49509565Y15085632D01*
X49326846Y14963543D01*
X49171457Y14808154D01*
X49049368Y14625435D01*
X48965272Y14422409D01*
X48922400Y14206877D01*
X48922400Y13987123D01*
X48965272Y13771591D01*
X49049368Y13568565D01*
X49171457Y13385846D01*
X49326846Y13230457D01*
X49509565Y13108368D01*
X49575637Y13081000D01*
X40975363Y13081000D01*
X41041435Y13108368D01*
X41224154Y13230457D01*
X41379543Y13385846D01*
X41501632Y13568565D01*
X41585728Y13771591D01*
X41628600Y13987123D01*
X41628600Y14206877D01*
X41585728Y14422409D01*
X41501632Y14625435D01*
X41379543Y14808154D01*
X41224154Y14963543D01*
X41041435Y15085632D01*
X40838409Y15169728D01*
X40622877Y15212600D01*
X40403123Y15212600D01*
X40187591Y15169728D01*
X39984565Y15085632D01*
X39801846Y14963543D01*
X39646457Y14808154D01*
X39524368Y14625435D01*
X39440272Y14422409D01*
X39397400Y14206877D01*
X39397400Y13987123D01*
X39440272Y13771591D01*
X39524368Y13568565D01*
X39646457Y13385846D01*
X39801846Y13230457D01*
X39984565Y13108368D01*
X40050637Y13081000D01*
X39707421Y13081000D01*
X39037264Y13751157D01*
X39045728Y13771591D01*
X39088600Y13987123D01*
X39088600Y14206877D01*
X39045728Y14422409D01*
X38961632Y14625435D01*
X38839543Y14808154D01*
X38684154Y14963543D01*
X38501435Y15085632D01*
X38298409Y15169728D01*
X38082877Y15212600D01*
X37863123Y15212600D01*
X37647591Y15169728D01*
X37444565Y15085632D01*
X37261846Y14963543D01*
X37106457Y14808154D01*
X36984368Y14625435D01*
X36900272Y14422409D01*
X36857400Y14206877D01*
X36548600Y14206877D01*
X36505728Y14422409D01*
X36421632Y14625435D01*
X36299543Y14808154D01*
X36144154Y14963543D01*
X35961435Y15085632D01*
X35758409Y15169728D01*
X35542877Y15212600D01*
X35323123Y15212600D01*
X35107591Y15169728D01*
X34904565Y15085632D01*
X34721846Y14963543D01*
X34566457Y14808154D01*
X34444368Y14625435D01*
X34360272Y14422409D01*
X34317400Y14206877D01*
X27701442Y14206877D01*
X27731113Y14278508D01*
X27773600Y14492108D01*
X27773600Y14709892D01*
X27731113Y14923492D01*
X27647770Y15124698D01*
X27526776Y15305779D01*
X27372779Y15459776D01*
X27191698Y15580770D01*
X26990492Y15664113D01*
X26776892Y15706600D01*
X26559108Y15706600D01*
X26345508Y15664113D01*
X26144302Y15580770D01*
X25963221Y15459776D01*
X25809224Y15305779D01*
X25688230Y15124698D01*
X25604887Y14923492D01*
X25562400Y14709892D01*
X25483600Y14709892D01*
X25441113Y14923492D01*
X25357770Y15124698D01*
X25236776Y15305779D01*
X25082779Y15459776D01*
X24901698Y15580770D01*
X24700492Y15664113D01*
X24486892Y15706600D01*
X24269108Y15706600D01*
X24055508Y15664113D01*
X23854302Y15580770D01*
X23673221Y15459776D01*
X23519224Y15305779D01*
X23398230Y15124698D01*
X23314887Y14923492D01*
X23272400Y14709892D01*
X18745200Y14709892D01*
X18745200Y17397000D01*
X33045680Y17397000D01*
X33045680Y15877000D01*
X33052546Y15807290D01*
X33072879Y15740260D01*
X33105899Y15678484D01*
X33150337Y15624337D01*
X33204484Y15579899D01*
X33266260Y15546879D01*
X33333290Y15526546D01*
X33403000Y15519680D01*
X34923000Y15519680D01*
X34992710Y15526546D01*
X35059740Y15546879D01*
X35121516Y15579899D01*
X35175663Y15624337D01*
X35220101Y15678484D01*
X35253121Y15740260D01*
X35273454Y15807290D01*
X35280320Y15877000D01*
X35280320Y16746877D01*
X35587400Y16746877D01*
X35587400Y16527123D01*
X35630272Y16311591D01*
X35714368Y16108565D01*
X35836457Y15925846D01*
X35991846Y15770457D01*
X36174565Y15648368D01*
X36377591Y15564272D01*
X36593123Y15521400D01*
X36812877Y15521400D01*
X37028409Y15564272D01*
X37231435Y15648368D01*
X37414154Y15770457D01*
X37569543Y15925846D01*
X37691632Y16108565D01*
X37775728Y16311591D01*
X37818600Y16527123D01*
X37818600Y16746877D01*
X38127400Y16746877D01*
X38127400Y16527123D01*
X38170272Y16311591D01*
X38254368Y16108565D01*
X38376457Y15925846D01*
X38531846Y15770457D01*
X38714565Y15648368D01*
X38917591Y15564272D01*
X39133123Y15521400D01*
X39352877Y15521400D01*
X39568409Y15564272D01*
X39771435Y15648368D01*
X39954154Y15770457D01*
X40109543Y15925846D01*
X40231632Y16108565D01*
X40315728Y16311591D01*
X40358600Y16527123D01*
X40358600Y16746877D01*
X40315728Y16962409D01*
X40231632Y17165435D01*
X40109543Y17348154D01*
X40060697Y17397000D01*
X47650680Y17397000D01*
X47650680Y15877000D01*
X47657546Y15807290D01*
X47677879Y15740260D01*
X47710899Y15678484D01*
X47755337Y15624337D01*
X47809484Y15579899D01*
X47871260Y15546879D01*
X47938290Y15526546D01*
X48008000Y15519680D01*
X49528000Y15519680D01*
X49597710Y15526546D01*
X49664740Y15546879D01*
X49726516Y15579899D01*
X49780663Y15624337D01*
X49825101Y15678484D01*
X49858121Y15740260D01*
X49878454Y15807290D01*
X49885320Y15877000D01*
X49885320Y17397000D01*
X49878454Y17466710D01*
X49858121Y17533740D01*
X49825101Y17595516D01*
X49780663Y17649663D01*
X49726516Y17694101D01*
X49664740Y17727121D01*
X49597710Y17747454D01*
X49528000Y17754320D01*
X48008000Y17754320D01*
X47938290Y17747454D01*
X47871260Y17727121D01*
X47809484Y17694101D01*
X47755337Y17649663D01*
X47710899Y17595516D01*
X47677879Y17533740D01*
X47657546Y17466710D01*
X47650680Y17397000D01*
X40060697Y17397000D01*
X39954154Y17503543D01*
X39771435Y17625632D01*
X39568409Y17709728D01*
X39352877Y17752600D01*
X39133123Y17752600D01*
X38917591Y17709728D01*
X38714565Y17625632D01*
X38531846Y17503543D01*
X38376457Y17348154D01*
X38254368Y17165435D01*
X38170272Y16962409D01*
X38127400Y16746877D01*
X37818600Y16746877D01*
X37775728Y16962409D01*
X37691632Y17165435D01*
X37569543Y17348154D01*
X37414154Y17503543D01*
X37231435Y17625632D01*
X37028409Y17709728D01*
X36812877Y17752600D01*
X36593123Y17752600D01*
X36377591Y17709728D01*
X36174565Y17625632D01*
X35991846Y17503543D01*
X35836457Y17348154D01*
X35714368Y17165435D01*
X35630272Y16962409D01*
X35587400Y16746877D01*
X35280320Y16746877D01*
X35280320Y17397000D01*
X35273454Y17466710D01*
X35253121Y17533740D01*
X35220101Y17595516D01*
X35175663Y17649663D01*
X35121516Y17694101D01*
X35059740Y17727121D01*
X34992710Y17747454D01*
X34923000Y17754320D01*
X33403000Y17754320D01*
X33333290Y17747454D01*
X33266260Y17727121D01*
X33204484Y17694101D01*
X33150337Y17649663D01*
X33105899Y17595516D01*
X33072879Y17533740D01*
X33052546Y17466710D01*
X33045680Y17397000D01*
X18745200Y17397000D01*
X18745200Y19462254D01*
X18800966Y19518020D01*
X18873239Y19626183D01*
X18923021Y19746369D01*
X18948400Y19873956D01*
X18948400Y20004044D01*
X18923021Y20131631D01*
X18873239Y20251817D01*
X18800966Y20359980D01*
X18708980Y20451966D01*
X18600817Y20524239D01*
X18480631Y20574021D01*
X18353044Y20599400D01*
X18222956Y20599400D01*
X18095369Y20574021D01*
X17975183Y20524239D01*
X17867020Y20451966D01*
X17775034Y20359980D01*
X17702761Y20251817D01*
X17652979Y20131631D01*
X17627600Y20004044D01*
X17627600Y19873956D01*
X17652979Y19746369D01*
X17702761Y19626183D01*
X17775034Y19518020D01*
X17830800Y19462254D01*
X17830801Y10788315D01*
X17764302Y10760770D01*
X17583221Y10639776D01*
X17429224Y10485779D01*
X17308230Y10304698D01*
X17272000Y10217232D01*
X17235770Y10304698D01*
X17114776Y10485779D01*
X16960779Y10639776D01*
X16779698Y10760770D01*
X16578492Y10844113D01*
X16364892Y10886600D01*
X16147108Y10886600D01*
X15933508Y10844113D01*
X15732302Y10760770D01*
X15551221Y10639776D01*
X15397224Y10485779D01*
X15276230Y10304698D01*
X15192887Y10103492D01*
X15150400Y9889892D01*
X8463713Y9889892D01*
X7793893Y10559711D01*
X7781190Y10575190D01*
X7719429Y10625875D01*
X7648967Y10663538D01*
X7572511Y10686731D01*
X7512921Y10692600D01*
X7512918Y10692600D01*
X7493000Y10694562D01*
X7473082Y10692600D01*
X405600Y10692600D01*
X405600Y14709892D01*
X11842400Y14709892D01*
X11842400Y14492108D01*
X11884887Y14278508D01*
X11968230Y14077302D01*
X12089224Y13896221D01*
X12243221Y13742224D01*
X12424302Y13621230D01*
X12625508Y13537887D01*
X12839108Y13495400D01*
X13056892Y13495400D01*
X13270492Y13537887D01*
X13471698Y13621230D01*
X13652779Y13742224D01*
X13788821Y13878266D01*
X14515337Y13878266D01*
X14585040Y13702193D01*
X14772934Y13592077D01*
X14978702Y13520734D01*
X15194434Y13490905D01*
X15411839Y13503736D01*
X15622565Y13558734D01*
X15818512Y13653785D01*
X15890960Y13702193D01*
X15960663Y13878266D01*
X15238000Y14600929D01*
X14515337Y13878266D01*
X13788821Y13878266D01*
X13806776Y13896221D01*
X13927770Y14077302D01*
X14011113Y14278508D01*
X14053600Y14492108D01*
X14053600Y14644566D01*
X14127905Y14644566D01*
X14140736Y14427161D01*
X14195734Y14216435D01*
X14290785Y14020488D01*
X14339193Y13948040D01*
X14515266Y13878337D01*
X15237929Y14601000D01*
X15238071Y14601000D01*
X15960734Y13878337D01*
X16136807Y13948040D01*
X16246923Y14135934D01*
X16318266Y14341702D01*
X16348095Y14557434D01*
X16335264Y14774839D01*
X16280266Y14985565D01*
X16185215Y15181512D01*
X16136807Y15253960D01*
X15960734Y15323663D01*
X15238071Y14601000D01*
X15237929Y14601000D01*
X14515266Y15323663D01*
X14339193Y15253960D01*
X14229077Y15066066D01*
X14157734Y14860298D01*
X14127905Y14644566D01*
X14053600Y14644566D01*
X14053600Y14709892D01*
X14011113Y14923492D01*
X13927770Y15124698D01*
X13806776Y15305779D01*
X13788821Y15323734D01*
X14515337Y15323734D01*
X15238000Y14601071D01*
X15960663Y15323734D01*
X15890960Y15499807D01*
X15703066Y15609923D01*
X15497298Y15681266D01*
X15281566Y15711095D01*
X15064161Y15698264D01*
X14853435Y15643266D01*
X14657488Y15548215D01*
X14585040Y15499807D01*
X14515337Y15323734D01*
X13788821Y15323734D01*
X13652779Y15459776D01*
X13471698Y15580770D01*
X13270492Y15664113D01*
X13056892Y15706600D01*
X12839108Y15706600D01*
X12625508Y15664113D01*
X12424302Y15580770D01*
X12243221Y15459776D01*
X12089224Y15305779D01*
X11968230Y15124698D01*
X11884887Y14923492D01*
X11842400Y14709892D01*
X405600Y14709892D01*
X405600Y26145746D01*
X2482725Y26145746D01*
X2482994Y26132924D01*
X2483308Y26117939D01*
X2483621Y26102936D01*
X2483920Y26060125D01*
X2486137Y26022797D01*
X2486915Y26015859D01*
X2487203Y26013370D01*
X2539197Y25577336D01*
X2545018Y25542915D01*
X2554222Y25501051D01*
X2562825Y25459142D01*
X2571408Y25426188D01*
X2571383Y25426181D01*
X2571385Y25426174D01*
X2571466Y25425967D01*
X2572249Y25422959D01*
X2574357Y25416313D01*
X2575126Y25416557D01*
X2576039Y25414210D01*
X2575129Y25413914D01*
X2710824Y24996288D01*
X2723219Y24963655D01*
X2740374Y24924387D01*
X2756961Y24884931D01*
X2773233Y24851271D01*
X2776594Y24845157D01*
X2779283Y24846635D01*
X2780504Y24844463D01*
X2777812Y24842959D01*
X2992039Y24459643D01*
X3010536Y24430041D01*
X3034992Y24394852D01*
X3058927Y24359368D01*
X3068882Y24346157D01*
X3068875Y24346152D01*
X3068880Y24346145D01*
X3068935Y24346085D01*
X3081418Y24329519D01*
X3085899Y24324178D01*
X3087794Y24325767D01*
X3089508Y24323920D01*
X3087536Y24322242D01*
X3372136Y23987838D01*
X3396034Y23962390D01*
X3426850Y23932632D01*
X3457226Y23902467D01*
X3485071Y23877567D01*
X3490511Y23873192D01*
X3492496Y23871608D01*
X3836634Y23598848D01*
X3865020Y23578526D01*
X3900984Y23555349D01*
X3936682Y23531631D01*
X3951229Y23523028D01*
X3951220Y23523013D01*
X3951228Y23523008D01*
X3951437Y23522905D01*
X3968868Y23512596D01*
X3975046Y23509366D01*
X3975827Y23510861D01*
X3978078Y23509749D01*
X3977285Y23508206D01*
X4367840Y23307488D01*
X4399633Y23293066D01*
X4439465Y23277296D01*
X4479040Y23260984D01*
X4514272Y23248574D01*
X4520969Y23246602D01*
X4523410Y23245893D01*
X4945522Y23124854D01*
X4979505Y23116883D01*
X5021696Y23109139D01*
X5063643Y23100834D01*
X5081243Y23098297D01*
X5081237Y23098260D01*
X5081249Y23098258D01*
X5081876Y23098206D01*
X5100631Y23095503D01*
X5107570Y23094871D01*
X5107679Y23096070D01*
X5110205Y23095861D01*
X5110103Y23094649D01*
X5547676Y23057905D01*
X5582567Y23056687D01*
X5625376Y23057285D01*
X5668207Y23057285D01*
X5705520Y23059239D01*
X5712463Y23059968D01*
X5714981Y23060241D01*
X6151367Y23109190D01*
X6185826Y23114771D01*
X6227747Y23123681D01*
X6269719Y23131992D01*
X6305971Y23141165D01*
X6312636Y23143228D01*
X6312482Y23143725D01*
X6314925Y23144332D01*
X6315037Y23143979D01*
X6733597Y23276755D01*
X6766313Y23288922D01*
X6805695Y23305801D01*
X6845273Y23322114D01*
X6875017Y23336236D01*
X6875040Y23336191D01*
X6875044Y23336193D01*
X6875574Y23336500D01*
X6879027Y23338140D01*
X6885163Y23341457D01*
X6884913Y23341920D01*
X6887103Y23343191D01*
X6887389Y23342670D01*
X7272194Y23554219D01*
X7301924Y23572509D01*
X7337270Y23596710D01*
X7372930Y23620403D01*
X7402958Y23642704D01*
X7408337Y23647154D01*
X7410250Y23648748D01*
X7746638Y23931010D01*
X7772254Y23954731D01*
X7802229Y23985341D01*
X7832600Y24015500D01*
X7857738Y24043224D01*
X7862140Y24048622D01*
X7860496Y24049962D01*
X7862052Y24051902D01*
X7863714Y24050566D01*
X8138864Y24392783D01*
X8159383Y24421025D01*
X8182862Y24456905D01*
X8206778Y24492362D01*
X8226028Y24524397D01*
X8229306Y24530561D01*
X8230481Y24532789D01*
X8433925Y24921941D01*
X8448568Y24953631D01*
X8464630Y24993386D01*
X8481206Y25032820D01*
X8493869Y25067992D01*
X8495887Y25074675D01*
X8496604Y25077079D01*
X8620586Y25498336D01*
X8628794Y25532261D01*
X8636828Y25574375D01*
X8645430Y25616280D01*
X8651024Y25653269D01*
X8651704Y25660206D01*
X8650278Y25660346D01*
X8650502Y25662832D01*
X8651939Y25662701D01*
X8691737Y26100006D01*
X8693199Y26134883D01*
X8693124Y26145746D01*
X65982725Y26145746D01*
X65982994Y26132924D01*
X65983308Y26117939D01*
X65983621Y26102936D01*
X65983920Y26060125D01*
X65986137Y26022797D01*
X65986915Y26015859D01*
X65987203Y26013370D01*
X66039197Y25577336D01*
X66045018Y25542915D01*
X66054222Y25501051D01*
X66062825Y25459142D01*
X66071408Y25426188D01*
X66071383Y25426181D01*
X66071385Y25426174D01*
X66071466Y25425967D01*
X66072249Y25422959D01*
X66074357Y25416313D01*
X66075126Y25416557D01*
X66076039Y25414210D01*
X66075129Y25413914D01*
X66210824Y24996288D01*
X66223219Y24963655D01*
X66240374Y24924387D01*
X66256961Y24884931D01*
X66273233Y24851271D01*
X66276594Y24845157D01*
X66279283Y24846635D01*
X66280504Y24844463D01*
X66277812Y24842959D01*
X66492039Y24459643D01*
X66510536Y24430041D01*
X66534992Y24394852D01*
X66558927Y24359368D01*
X66568882Y24346157D01*
X66568875Y24346152D01*
X66568880Y24346145D01*
X66568935Y24346085D01*
X66581418Y24329519D01*
X66585899Y24324178D01*
X66587794Y24325767D01*
X66589508Y24323920D01*
X66587536Y24322242D01*
X66872136Y23987838D01*
X66896034Y23962390D01*
X66926850Y23932632D01*
X66957226Y23902467D01*
X66985071Y23877567D01*
X66990511Y23873192D01*
X66992496Y23871608D01*
X67336634Y23598848D01*
X67365020Y23578526D01*
X67400984Y23555349D01*
X67436682Y23531631D01*
X67451229Y23523028D01*
X67451220Y23523013D01*
X67451228Y23523008D01*
X67451437Y23522905D01*
X67468868Y23512596D01*
X67475046Y23509366D01*
X67475827Y23510861D01*
X67478078Y23509749D01*
X67477285Y23508206D01*
X67867840Y23307488D01*
X67899633Y23293066D01*
X67939465Y23277296D01*
X67979040Y23260984D01*
X68014272Y23248574D01*
X68020969Y23246602D01*
X68023410Y23245893D01*
X68445522Y23124854D01*
X68479505Y23116883D01*
X68521696Y23109139D01*
X68563643Y23100834D01*
X68581243Y23098297D01*
X68581237Y23098260D01*
X68581249Y23098258D01*
X68581876Y23098206D01*
X68600631Y23095503D01*
X68607570Y23094871D01*
X68607679Y23096070D01*
X68610205Y23095861D01*
X68610103Y23094649D01*
X69047676Y23057905D01*
X69082567Y23056687D01*
X69125376Y23057285D01*
X69168207Y23057285D01*
X69205520Y23059239D01*
X69212463Y23059968D01*
X69214981Y23060241D01*
X69651367Y23109190D01*
X69685826Y23114771D01*
X69727747Y23123681D01*
X69769719Y23131992D01*
X69805971Y23141165D01*
X69812636Y23143228D01*
X69812482Y23143725D01*
X69814925Y23144332D01*
X69815037Y23143979D01*
X70233597Y23276755D01*
X70266313Y23288922D01*
X70305695Y23305801D01*
X70345273Y23322114D01*
X70375017Y23336236D01*
X70375040Y23336191D01*
X70375044Y23336193D01*
X70375574Y23336500D01*
X70379027Y23338140D01*
X70385163Y23341457D01*
X70384913Y23341920D01*
X70387103Y23343191D01*
X70387389Y23342670D01*
X70772194Y23554219D01*
X70801924Y23572509D01*
X70837270Y23596710D01*
X70872930Y23620403D01*
X70902958Y23642704D01*
X70908337Y23647154D01*
X70910250Y23648748D01*
X71246638Y23931010D01*
X71272254Y23954731D01*
X71302229Y23985341D01*
X71332600Y24015500D01*
X71357738Y24043224D01*
X71362140Y24048622D01*
X71360496Y24049962D01*
X71362052Y24051902D01*
X71363714Y24050566D01*
X71638864Y24392783D01*
X71659383Y24421025D01*
X71682862Y24456905D01*
X71706778Y24492362D01*
X71726028Y24524397D01*
X71729306Y24530561D01*
X71730481Y24532789D01*
X71933925Y24921941D01*
X71948568Y24953631D01*
X71964630Y24993386D01*
X71981206Y25032820D01*
X71993869Y25067992D01*
X71995887Y25074675D01*
X71996604Y25077079D01*
X72120586Y25498336D01*
X72128794Y25532261D01*
X72136828Y25574375D01*
X72145430Y25616280D01*
X72151024Y25653269D01*
X72151704Y25660206D01*
X72150278Y25660346D01*
X72150502Y25662832D01*
X72151939Y25662701D01*
X72191737Y26100006D01*
X72193199Y26134883D01*
X72192900Y26177707D01*
X72193199Y26220532D01*
X72191504Y26257879D01*
X72190823Y26264827D01*
X72190570Y26267322D01*
X72144669Y26704039D01*
X72139328Y26738539D01*
X72130711Y26780517D01*
X72122694Y26822547D01*
X72113767Y26858887D01*
X72111752Y26865560D01*
X72109706Y26864942D01*
X72108953Y26867310D01*
X72111021Y26867950D01*
X71981172Y27287426D01*
X71969234Y27320226D01*
X71952627Y27359735D01*
X71936595Y27399414D01*
X71924613Y27425111D01*
X71924207Y27426227D01*
X71923713Y27427041D01*
X71920799Y27433291D01*
X71917522Y27439455D01*
X71916509Y27438916D01*
X71915204Y27441067D01*
X71916331Y27441676D01*
X71707477Y27827946D01*
X71689393Y27857806D01*
X71665424Y27893341D01*
X71641992Y27929148D01*
X71619935Y27959289D01*
X71615523Y27964700D01*
X71613911Y27966663D01*
X71334003Y28305012D01*
X71310467Y28330788D01*
X71280027Y28361017D01*
X71250117Y28391560D01*
X71222588Y28416875D01*
X71217215Y28421320D01*
X71215371Y28419091D01*
X71213389Y28420605D01*
X71215273Y28422915D01*
X70874984Y28700449D01*
X70846886Y28721164D01*
X70811204Y28744872D01*
X70775876Y28769060D01*
X70743969Y28788537D01*
X70737833Y28791855D01*
X70737430Y28791110D01*
X70735290Y28792433D01*
X70735615Y28793045D01*
X70347896Y28999199D01*
X70316307Y29014063D01*
X70276714Y29030382D01*
X70237352Y29047252D01*
X70202297Y29060152D01*
X70195629Y29062217D01*
X70193201Y29062960D01*
X69772819Y29189880D01*
X69738948Y29198324D01*
X69696979Y29206634D01*
X69655053Y29215546D01*
X69618125Y29221395D01*
X69611182Y29222125D01*
X69608688Y29222379D01*
X69171661Y29265230D01*
X69136792Y29266935D01*
X69129807Y29266935D01*
X69122872Y29267615D01*
X69085494Y29269312D01*
X69078513Y29269263D01*
X69076033Y29269237D01*
X69013209Y29268360D01*
X68978378Y29266169D01*
X68971438Y29265391D01*
X68964444Y29265293D01*
X68927112Y29262812D01*
X68920180Y29261985D01*
X68917725Y29261683D01*
X68482065Y29206646D01*
X68447685Y29200584D01*
X68405968Y29191106D01*
X68364040Y29182194D01*
X68327934Y29172520D01*
X68321294Y29170363D01*
X68318903Y29169577D01*
X67902230Y29030968D01*
X67869687Y29018346D01*
X67830560Y29000926D01*
X67791200Y28984056D01*
X67757628Y28967535D01*
X67751538Y28964131D01*
X67753042Y28961440D01*
X67750894Y28960233D01*
X67749373Y28962911D01*
X67367562Y28746013D01*
X67338086Y28727307D01*
X67303099Y28702627D01*
X67267757Y28678427D01*
X67238054Y28655718D01*
X67232738Y28651194D01*
X67230836Y28649564D01*
X66898422Y28362632D01*
X66873144Y28338560D01*
X66843594Y28307530D01*
X66813643Y28276944D01*
X66788932Y28248917D01*
X66784595Y28243446D01*
X66783034Y28241463D01*
X66512683Y27895429D01*
X66492557Y27866898D01*
X66469614Y27830744D01*
X66446169Y27794918D01*
X66427353Y27762589D01*
X66424162Y27756380D01*
X66423029Y27754157D01*
X66225038Y27362202D01*
X66210839Y27330310D01*
X66195331Y27290328D01*
X66179313Y27250683D01*
X66169808Y27223083D01*
X66169707Y27223117D01*
X66169705Y27223111D01*
X66169331Y27221699D01*
X66167148Y27215361D01*
X66165225Y27208658D01*
X66165829Y27208485D01*
X66165177Y27206024D01*
X66164531Y27206204D01*
X66046443Y26783257D01*
X66038709Y26749217D01*
X66031263Y26706989D01*
X66023249Y26664977D01*
X66018171Y26627902D01*
X66017588Y26620954D01*
X66019280Y26620812D01*
X66019036Y26618345D01*
X66017388Y26618472D01*
X65983699Y26180655D01*
X65982725Y26145746D01*
X8693124Y26145746D01*
X8692900Y26177707D01*
X8693199Y26220532D01*
X8691504Y26257879D01*
X8690823Y26264827D01*
X8690570Y26267322D01*
X8644669Y26704039D01*
X8639328Y26738539D01*
X8630711Y26780517D01*
X8622694Y26822547D01*
X8613767Y26858887D01*
X8611752Y26865560D01*
X8609706Y26864942D01*
X8608953Y26867310D01*
X8611021Y26867950D01*
X8481172Y27287426D01*
X8469234Y27320226D01*
X8452627Y27359735D01*
X8436595Y27399414D01*
X8424613Y27425111D01*
X8424207Y27426227D01*
X8423713Y27427041D01*
X8420799Y27433291D01*
X8417522Y27439455D01*
X8416509Y27438916D01*
X8415204Y27441067D01*
X8416331Y27441676D01*
X8247021Y27754812D01*
X34754811Y27754812D01*
X34754811Y27624724D01*
X34780190Y27497137D01*
X34829972Y27376951D01*
X34902245Y27268788D01*
X34994231Y27176802D01*
X35102394Y27104529D01*
X35222580Y27054747D01*
X35350167Y27029368D01*
X35480255Y27029368D01*
X35607842Y27054747D01*
X35728028Y27104529D01*
X35836191Y27176802D01*
X35928177Y27268788D01*
X36000450Y27376951D01*
X36044294Y27482800D01*
X36319029Y27482800D01*
X36296600Y27370044D01*
X36296600Y27239956D01*
X36321979Y27112369D01*
X36371761Y26992183D01*
X36444034Y26884020D01*
X36536020Y26792034D01*
X36644183Y26719761D01*
X36764369Y26669979D01*
X36891956Y26644600D01*
X37022044Y26644600D01*
X37149631Y26669979D01*
X37269817Y26719761D01*
X37377980Y26792034D01*
X37433746Y26847800D01*
X53444550Y26847800D01*
X53467000Y26845589D01*
X53489450Y26847800D01*
X53489460Y26847800D01*
X53556627Y26854415D01*
X53642809Y26880559D01*
X53722236Y26923013D01*
X53791853Y26980147D01*
X53806174Y26997597D01*
X54799378Y27990800D01*
X56111550Y27990800D01*
X56134000Y27988589D01*
X56156450Y27990800D01*
X56156460Y27990800D01*
X56223627Y27997415D01*
X56309809Y28023559D01*
X56389236Y28066013D01*
X56458853Y28123147D01*
X56473174Y28140597D01*
X57192473Y28859896D01*
X57306340Y28812731D01*
X57539259Y28766400D01*
X57776741Y28766400D01*
X58009660Y28812731D01*
X58229066Y28903611D01*
X58426525Y29035550D01*
X58594450Y29203475D01*
X58726389Y29400934D01*
X58817269Y29620340D01*
X58863600Y29853259D01*
X58863600Y30090741D01*
X58992400Y30090741D01*
X58992400Y29853259D01*
X59038731Y29620340D01*
X59129611Y29400934D01*
X59261550Y29203475D01*
X59429475Y29035550D01*
X59626934Y28903611D01*
X59846340Y28812731D01*
X60079259Y28766400D01*
X60316741Y28766400D01*
X60549660Y28812731D01*
X60769066Y28903611D01*
X60966525Y29035550D01*
X61134450Y29203475D01*
X61266389Y29400934D01*
X61357269Y29620340D01*
X61403600Y29853259D01*
X61403600Y30090741D01*
X61357269Y30323660D01*
X61266389Y30543066D01*
X61134450Y30740525D01*
X60966525Y30908450D01*
X60769066Y31040389D01*
X60549660Y31131269D01*
X60316741Y31177600D01*
X60079259Y31177600D01*
X59846340Y31131269D01*
X59626934Y31040389D01*
X59429475Y30908450D01*
X59261550Y30740525D01*
X59129611Y30543066D01*
X59038731Y30323660D01*
X58992400Y30090741D01*
X58863600Y30090741D01*
X58817269Y30323660D01*
X58726389Y30543066D01*
X58594450Y30740525D01*
X58426525Y30908450D01*
X58229066Y31040389D01*
X58009660Y31131269D01*
X57776741Y31177600D01*
X57539259Y31177600D01*
X57306340Y31131269D01*
X57086934Y31040389D01*
X56889475Y30908450D01*
X56721550Y30740525D01*
X56589611Y30543066D01*
X56498731Y30323660D01*
X56452400Y30090741D01*
X56452400Y29853259D01*
X56498731Y29620340D01*
X56545896Y29506473D01*
X55944623Y28905200D01*
X55691444Y28905200D01*
X55886525Y29035550D01*
X56054450Y29203475D01*
X56186389Y29400934D01*
X56277269Y29620340D01*
X56323600Y29853259D01*
X56323600Y30090741D01*
X56277269Y30323660D01*
X56186389Y30543066D01*
X56054450Y30740525D01*
X55886525Y30908450D01*
X55689066Y31040389D01*
X55469660Y31131269D01*
X55236741Y31177600D01*
X54999259Y31177600D01*
X54766340Y31131269D01*
X54546934Y31040389D01*
X54349475Y30908450D01*
X54181550Y30740525D01*
X54049611Y30543066D01*
X53958731Y30323660D01*
X53912400Y30090741D01*
X53912400Y29853259D01*
X53958731Y29620340D01*
X54005896Y29506473D01*
X52896623Y28397200D01*
X51388560Y28397200D01*
X51435021Y28509369D01*
X51460400Y28636956D01*
X51460400Y28767044D01*
X51435021Y28894631D01*
X51385239Y29014817D01*
X51312966Y29122980D01*
X51220980Y29214966D01*
X51112817Y29287239D01*
X51048281Y29313970D01*
X51106389Y29400934D01*
X51197269Y29620340D01*
X51243600Y29853259D01*
X51243600Y30090741D01*
X51372400Y30090741D01*
X51372400Y29853259D01*
X51418731Y29620340D01*
X51509611Y29400934D01*
X51641550Y29203475D01*
X51809475Y29035550D01*
X52006934Y28903611D01*
X52226340Y28812731D01*
X52459259Y28766400D01*
X52696741Y28766400D01*
X52929660Y28812731D01*
X53149066Y28903611D01*
X53346525Y29035550D01*
X53514450Y29203475D01*
X53646389Y29400934D01*
X53737269Y29620340D01*
X53783600Y29853259D01*
X53783600Y30090741D01*
X53737269Y30323660D01*
X53646389Y30543066D01*
X53514450Y30740525D01*
X53346525Y30908450D01*
X53149066Y31040389D01*
X52929660Y31131269D01*
X52696741Y31177600D01*
X52459259Y31177600D01*
X52226340Y31131269D01*
X52006934Y31040389D01*
X51809475Y30908450D01*
X51641550Y30740525D01*
X51509611Y30543066D01*
X51418731Y30323660D01*
X51372400Y30090741D01*
X51243600Y30090741D01*
X51197269Y30323660D01*
X51106389Y30543066D01*
X50974450Y30740525D01*
X50806525Y30908450D01*
X50609066Y31040389D01*
X50389660Y31131269D01*
X50156741Y31177600D01*
X49919259Y31177600D01*
X49686340Y31131269D01*
X49466934Y31040389D01*
X49269475Y30908450D01*
X49101550Y30740525D01*
X48969611Y30543066D01*
X48878731Y30323660D01*
X48832400Y30090741D01*
X48832400Y29853259D01*
X48878731Y29620340D01*
X48969611Y29400934D01*
X49101550Y29203475D01*
X49145825Y29159200D01*
X48390175Y29159200D01*
X48434450Y29203475D01*
X48566389Y29400934D01*
X48657269Y29620340D01*
X48703600Y29853259D01*
X48703600Y30090741D01*
X48657269Y30323660D01*
X48566389Y30543066D01*
X48434450Y30740525D01*
X48266525Y30908450D01*
X48069066Y31040389D01*
X47849660Y31131269D01*
X47616741Y31177600D01*
X47379259Y31177600D01*
X47146340Y31131269D01*
X46926934Y31040389D01*
X46729475Y30908450D01*
X46561550Y30740525D01*
X46429611Y30543066D01*
X46338731Y30323660D01*
X46292400Y30090741D01*
X46292400Y29853259D01*
X46338731Y29620340D01*
X46429611Y29400934D01*
X46561550Y29203475D01*
X46605825Y29159200D01*
X45850175Y29159200D01*
X45894450Y29203475D01*
X46026389Y29400934D01*
X46117269Y29620340D01*
X46163600Y29853259D01*
X46163600Y30090741D01*
X46117269Y30323660D01*
X46026389Y30543066D01*
X45894450Y30740525D01*
X45726525Y30908450D01*
X45529066Y31040389D01*
X45309660Y31131269D01*
X45076741Y31177600D01*
X44839259Y31177600D01*
X44606340Y31131269D01*
X44386934Y31040389D01*
X44189475Y30908450D01*
X44021550Y30740525D01*
X43889611Y30543066D01*
X43798731Y30323660D01*
X43752400Y30090741D01*
X43752400Y29853259D01*
X43798731Y29620340D01*
X43889611Y29400934D01*
X44021550Y29203475D01*
X44065825Y29159200D01*
X43310175Y29159200D01*
X43354450Y29203475D01*
X43486389Y29400934D01*
X43577269Y29620340D01*
X43623600Y29853259D01*
X43623600Y30090741D01*
X43577269Y30323660D01*
X43486389Y30543066D01*
X43354450Y30740525D01*
X43186525Y30908450D01*
X42989066Y31040389D01*
X42769660Y31131269D01*
X42536741Y31177600D01*
X42299259Y31177600D01*
X42066340Y31131269D01*
X41846934Y31040389D01*
X41649475Y30908450D01*
X41481550Y30740525D01*
X41349611Y30543066D01*
X41258731Y30323660D01*
X41212400Y30090741D01*
X41212400Y29853259D01*
X41258731Y29620340D01*
X41349611Y29400934D01*
X41481550Y29203475D01*
X41525825Y29159200D01*
X41497746Y29159200D01*
X41441980Y29214966D01*
X41333817Y29287239D01*
X41213631Y29337021D01*
X41086044Y29362400D01*
X40955956Y29362400D01*
X40915228Y29354299D01*
X40946389Y29400934D01*
X41037269Y29620340D01*
X41083600Y29853259D01*
X41083600Y30090741D01*
X41037269Y30323660D01*
X40946389Y30543066D01*
X40814450Y30740525D01*
X40646525Y30908450D01*
X40449066Y31040389D01*
X40229660Y31131269D01*
X39996741Y31177600D01*
X39759259Y31177600D01*
X39526340Y31131269D01*
X39306934Y31040389D01*
X39109475Y30908450D01*
X38941550Y30740525D01*
X38809611Y30543066D01*
X38718731Y30323660D01*
X38672400Y30090741D01*
X38672400Y29853259D01*
X38718731Y29620340D01*
X38809611Y29400934D01*
X38941550Y29203475D01*
X39109475Y29035550D01*
X39306934Y28903611D01*
X39526340Y28812731D01*
X39759259Y28766400D01*
X39996741Y28766400D01*
X40229660Y28812731D01*
X40382261Y28875940D01*
X40360600Y28767044D01*
X40360600Y28636956D01*
X40385979Y28509369D01*
X40432440Y28397200D01*
X35687892Y28397200D01*
X35665442Y28399411D01*
X35642992Y28397200D01*
X35642983Y28397200D01*
X35575816Y28390585D01*
X35489634Y28364441D01*
X35462931Y28350168D01*
X35350167Y28350168D01*
X35222580Y28324789D01*
X35102394Y28275007D01*
X34994231Y28202734D01*
X34902245Y28110748D01*
X34829972Y28002585D01*
X34780190Y27882399D01*
X34754811Y27754812D01*
X8247021Y27754812D01*
X8207477Y27827946D01*
X8189393Y27857806D01*
X8165424Y27893341D01*
X8141992Y27929148D01*
X8119935Y27959289D01*
X8115523Y27964700D01*
X8113911Y27966663D01*
X7834003Y28305012D01*
X7810467Y28330788D01*
X7780027Y28361017D01*
X7750117Y28391560D01*
X7722588Y28416875D01*
X7717215Y28421320D01*
X7715371Y28419091D01*
X7713389Y28420605D01*
X7715273Y28422915D01*
X7374984Y28700449D01*
X7346886Y28721164D01*
X7311204Y28744872D01*
X7275876Y28769060D01*
X7243969Y28788537D01*
X7237833Y28791855D01*
X7237430Y28791110D01*
X7235290Y28792433D01*
X7235615Y28793045D01*
X6847896Y28999199D01*
X6816307Y29014063D01*
X6776714Y29030382D01*
X6737352Y29047252D01*
X6702297Y29060152D01*
X6695629Y29062217D01*
X6693201Y29062960D01*
X6272819Y29189880D01*
X6238948Y29198324D01*
X6196979Y29206634D01*
X6155053Y29215546D01*
X6118125Y29221395D01*
X6111182Y29222125D01*
X6108688Y29222379D01*
X5671661Y29265230D01*
X5636792Y29266935D01*
X5629807Y29266935D01*
X5622872Y29267615D01*
X5585494Y29269312D01*
X5578513Y29269263D01*
X5576033Y29269237D01*
X5513209Y29268360D01*
X5478378Y29266169D01*
X5471438Y29265391D01*
X5464444Y29265293D01*
X5427112Y29262812D01*
X5420180Y29261985D01*
X5417725Y29261683D01*
X4982065Y29206646D01*
X4947685Y29200584D01*
X4905968Y29191106D01*
X4864040Y29182194D01*
X4827934Y29172520D01*
X4821294Y29170363D01*
X4818903Y29169577D01*
X4402230Y29030968D01*
X4369687Y29018346D01*
X4330560Y29000926D01*
X4291200Y28984056D01*
X4257628Y28967535D01*
X4251538Y28964131D01*
X4253042Y28961440D01*
X4250894Y28960233D01*
X4249373Y28962911D01*
X3867562Y28746013D01*
X3838086Y28727307D01*
X3803099Y28702627D01*
X3767757Y28678427D01*
X3738054Y28655718D01*
X3732738Y28651194D01*
X3730836Y28649564D01*
X3398422Y28362632D01*
X3373144Y28338560D01*
X3343594Y28307530D01*
X3313643Y28276944D01*
X3288932Y28248917D01*
X3284595Y28243446D01*
X3283034Y28241463D01*
X3012683Y27895429D01*
X2992557Y27866898D01*
X2969614Y27830744D01*
X2946169Y27794918D01*
X2927353Y27762589D01*
X2924162Y27756380D01*
X2923029Y27754157D01*
X2725038Y27362202D01*
X2710839Y27330310D01*
X2695331Y27290328D01*
X2679313Y27250683D01*
X2669808Y27223083D01*
X2669707Y27223117D01*
X2669705Y27223111D01*
X2669331Y27221699D01*
X2667148Y27215361D01*
X2665225Y27208658D01*
X2665829Y27208485D01*
X2665177Y27206024D01*
X2664531Y27206204D01*
X2546443Y26783257D01*
X2538709Y26749217D01*
X2531263Y26706989D01*
X2523249Y26664977D01*
X2518171Y26627902D01*
X2517588Y26620954D01*
X2519280Y26620812D01*
X2519036Y26618345D01*
X2517388Y26618472D01*
X2483699Y26180655D01*
X2482725Y26145746D01*
X405600Y26145746D01*
X405600Y30822000D01*
X20890680Y30822000D01*
X20890680Y29122000D01*
X20897546Y29052290D01*
X20917879Y28985260D01*
X20950899Y28923484D01*
X20995337Y28869337D01*
X21049484Y28824899D01*
X21111260Y28791879D01*
X21178290Y28771546D01*
X21248000Y28764680D01*
X22948000Y28764680D01*
X23017710Y28771546D01*
X23084740Y28791879D01*
X23146516Y28824899D01*
X23200663Y28869337D01*
X23245101Y28923484D01*
X23278121Y28985260D01*
X23298454Y29052290D01*
X23305320Y29122000D01*
X23305320Y30090741D01*
X23432400Y30090741D01*
X23432400Y29853259D01*
X23478731Y29620340D01*
X23569611Y29400934D01*
X23701550Y29203475D01*
X23869475Y29035550D01*
X24066934Y28903611D01*
X24286340Y28812731D01*
X24519259Y28766400D01*
X24756741Y28766400D01*
X24989660Y28812731D01*
X25209066Y28903611D01*
X25406525Y29035550D01*
X25574450Y29203475D01*
X25706389Y29400934D01*
X25797269Y29620340D01*
X25843600Y29853259D01*
X25843600Y30090741D01*
X25972400Y30090741D01*
X25972400Y29853259D01*
X26018731Y29620340D01*
X26109611Y29400934D01*
X26241550Y29203475D01*
X26409475Y29035550D01*
X26606934Y28903611D01*
X26826340Y28812731D01*
X27059259Y28766400D01*
X27296741Y28766400D01*
X27529660Y28812731D01*
X27749066Y28903611D01*
X27946525Y29035550D01*
X28114450Y29203475D01*
X28246389Y29400934D01*
X28337269Y29620340D01*
X28369694Y29783353D01*
X28527251Y29783353D01*
X28586934Y29554674D01*
X28690083Y29342033D01*
X28832735Y29153601D01*
X29009407Y28996620D01*
X29213310Y28877122D01*
X29436608Y28799700D01*
X29529353Y28781251D01*
X29717950Y28855300D01*
X29717950Y29971950D01*
X29718050Y29971950D01*
X29718050Y28855300D01*
X29906647Y28781251D01*
X29999392Y28799700D01*
X30222690Y28877122D01*
X30426593Y28996620D01*
X30603265Y29153601D01*
X30745917Y29342033D01*
X30849066Y29554674D01*
X30908749Y29783353D01*
X30834700Y29971950D01*
X29718050Y29971950D01*
X29717950Y29971950D01*
X28601300Y29971950D01*
X28527251Y29783353D01*
X28369694Y29783353D01*
X28383600Y29853259D01*
X28383600Y30090741D01*
X28369695Y30160647D01*
X28527251Y30160647D01*
X28601300Y29972050D01*
X29717950Y29972050D01*
X29717950Y31088700D01*
X29718050Y31088700D01*
X29718050Y29972050D01*
X30834700Y29972050D01*
X30881301Y30090741D01*
X31052400Y30090741D01*
X31052400Y29853259D01*
X31098731Y29620340D01*
X31189611Y29400934D01*
X31321550Y29203475D01*
X31489475Y29035550D01*
X31686934Y28903611D01*
X31906340Y28812731D01*
X32139259Y28766400D01*
X32376741Y28766400D01*
X32609660Y28812731D01*
X32829066Y28903611D01*
X33026525Y29035550D01*
X33194450Y29203475D01*
X33326389Y29400934D01*
X33417269Y29620340D01*
X33463600Y29853259D01*
X33463600Y30090741D01*
X33592400Y30090741D01*
X33592400Y29853259D01*
X33638731Y29620340D01*
X33729611Y29400934D01*
X33861550Y29203475D01*
X34029475Y29035550D01*
X34226934Y28903611D01*
X34446340Y28812731D01*
X34679259Y28766400D01*
X34916741Y28766400D01*
X35149660Y28812731D01*
X35369066Y28903611D01*
X35566525Y29035550D01*
X35734450Y29203475D01*
X35866389Y29400934D01*
X35957269Y29620340D01*
X36003600Y29853259D01*
X36003600Y30090741D01*
X36132400Y30090741D01*
X36132400Y29853259D01*
X36178731Y29620340D01*
X36269611Y29400934D01*
X36401550Y29203475D01*
X36569475Y29035550D01*
X36766934Y28903611D01*
X36986340Y28812731D01*
X37219259Y28766400D01*
X37456741Y28766400D01*
X37689660Y28812731D01*
X37909066Y28903611D01*
X38106525Y29035550D01*
X38274450Y29203475D01*
X38406389Y29400934D01*
X38497269Y29620340D01*
X38543600Y29853259D01*
X38543600Y30090741D01*
X38497269Y30323660D01*
X38406389Y30543066D01*
X38274450Y30740525D01*
X38106525Y30908450D01*
X37909066Y31040389D01*
X37689660Y31131269D01*
X37456741Y31177600D01*
X37219259Y31177600D01*
X36986340Y31131269D01*
X36766934Y31040389D01*
X36569475Y30908450D01*
X36401550Y30740525D01*
X36269611Y30543066D01*
X36178731Y30323660D01*
X36132400Y30090741D01*
X36003600Y30090741D01*
X35957269Y30323660D01*
X35866389Y30543066D01*
X35734450Y30740525D01*
X35566525Y30908450D01*
X35369066Y31040389D01*
X35149660Y31131269D01*
X34916741Y31177600D01*
X34679259Y31177600D01*
X34446340Y31131269D01*
X34226934Y31040389D01*
X34029475Y30908450D01*
X33861550Y30740525D01*
X33729611Y30543066D01*
X33638731Y30323660D01*
X33592400Y30090741D01*
X33463600Y30090741D01*
X33417269Y30323660D01*
X33326389Y30543066D01*
X33194450Y30740525D01*
X33026525Y30908450D01*
X32829066Y31040389D01*
X32609660Y31131269D01*
X32376741Y31177600D01*
X32139259Y31177600D01*
X31906340Y31131269D01*
X31686934Y31040389D01*
X31489475Y30908450D01*
X31321550Y30740525D01*
X31189611Y30543066D01*
X31098731Y30323660D01*
X31052400Y30090741D01*
X30881301Y30090741D01*
X30908749Y30160647D01*
X30849066Y30389326D01*
X30745917Y30601967D01*
X30603265Y30790399D01*
X30426593Y30947380D01*
X30222690Y31066878D01*
X29999392Y31144300D01*
X29906647Y31162749D01*
X29718050Y31088700D01*
X29717950Y31088700D01*
X29529353Y31162749D01*
X29436608Y31144300D01*
X29213310Y31066878D01*
X29009407Y30947380D01*
X28832735Y30790399D01*
X28690083Y30601967D01*
X28586934Y30389326D01*
X28527251Y30160647D01*
X28369695Y30160647D01*
X28337269Y30323660D01*
X28246389Y30543066D01*
X28114450Y30740525D01*
X27946525Y30908450D01*
X27749066Y31040389D01*
X27529660Y31131269D01*
X27296741Y31177600D01*
X27059259Y31177600D01*
X26826340Y31131269D01*
X26606934Y31040389D01*
X26409475Y30908450D01*
X26241550Y30740525D01*
X26109611Y30543066D01*
X26018731Y30323660D01*
X25972400Y30090741D01*
X25843600Y30090741D01*
X25797269Y30323660D01*
X25706389Y30543066D01*
X25574450Y30740525D01*
X25406525Y30908450D01*
X25209066Y31040389D01*
X24989660Y31131269D01*
X24756741Y31177600D01*
X24519259Y31177600D01*
X24286340Y31131269D01*
X24066934Y31040389D01*
X23869475Y30908450D01*
X23701550Y30740525D01*
X23569611Y30543066D01*
X23478731Y30323660D01*
X23432400Y30090741D01*
X23305320Y30090741D01*
X23305320Y30822000D01*
X23298454Y30891710D01*
X23278121Y30958740D01*
X23245101Y31020516D01*
X23200663Y31074663D01*
X23146516Y31119101D01*
X23084740Y31152121D01*
X23017710Y31172454D01*
X22948000Y31179320D01*
X21248000Y31179320D01*
X21178290Y31172454D01*
X21111260Y31152121D01*
X21049484Y31119101D01*
X20995337Y31074663D01*
X20950899Y31020516D01*
X20917879Y30958740D01*
X20897546Y30891710D01*
X20890680Y30822000D01*
X405600Y30822000D01*
X405600Y40197841D01*
X19442938Y40197841D01*
X19444281Y40175093D01*
X19445400Y39712950D01*
X19534300Y39624050D01*
X19791665Y39624050D01*
X19791836Y39623950D01*
X19534300Y39623950D01*
X19445400Y39535050D01*
X19444367Y39108177D01*
X19442938Y39097841D01*
X19444287Y39075007D01*
X19443679Y38824000D01*
X19450545Y38754290D01*
X19470878Y38687259D01*
X19503898Y38625483D01*
X19548336Y38571336D01*
X19602483Y38526898D01*
X19664259Y38493878D01*
X19731290Y38473545D01*
X19801000Y38466679D01*
X20018460Y38467140D01*
X20027159Y38465938D01*
X20048602Y38467204D01*
X20612050Y38468400D01*
X20700950Y38557300D01*
X20700950Y39623950D01*
X20310335Y39623950D01*
X20310164Y39624050D01*
X20700950Y39624050D01*
X20700950Y40690700D01*
X20701050Y40690700D01*
X20701050Y39624050D01*
X21091665Y39624050D01*
X21091836Y39623950D01*
X20701050Y39623950D01*
X20701050Y38557300D01*
X20789950Y38468400D01*
X21317446Y38467281D01*
X21327159Y38465938D01*
X21348768Y38467214D01*
X21601000Y38466679D01*
X21670710Y38473545D01*
X21737741Y38493878D01*
X21799517Y38526898D01*
X21853664Y38571336D01*
X21898102Y38625483D01*
X21931122Y38687259D01*
X21951455Y38754290D01*
X21958321Y38824000D01*
X21957796Y39040999D01*
X21959062Y39050159D01*
X21957719Y39072907D01*
X21956600Y39535050D01*
X21867700Y39623950D01*
X21610335Y39623950D01*
X21610164Y39624050D01*
X21867700Y39624050D01*
X21956600Y39712950D01*
X21957633Y40139823D01*
X21959062Y40150159D01*
X21957713Y40172993D01*
X21958321Y40424000D01*
X21951455Y40493710D01*
X21931122Y40560741D01*
X21898102Y40622517D01*
X21853664Y40676664D01*
X21799517Y40721102D01*
X21737741Y40754122D01*
X21670710Y40774455D01*
X21601000Y40781321D01*
X21383540Y40780860D01*
X21374841Y40782062D01*
X21353398Y40780796D01*
X20789950Y40779600D01*
X20701050Y40690700D01*
X20700950Y40690700D01*
X20612050Y40779600D01*
X20084554Y40780719D01*
X20074841Y40782062D01*
X20053232Y40780786D01*
X19801000Y40781321D01*
X19731290Y40774455D01*
X19664259Y40754122D01*
X19602483Y40721102D01*
X19548336Y40676664D01*
X19503898Y40622517D01*
X19470878Y40560741D01*
X19450545Y40493710D01*
X19443679Y40424000D01*
X19444204Y40207001D01*
X19442938Y40197841D01*
X405600Y40197841D01*
X405600Y51029400D01*
X9460680Y51029400D01*
X9460680Y49442000D01*
G37*
X9460680Y49442000D02*
X9467546Y49372290D01*
X9487879Y49305260D01*
X9520899Y49243484D01*
X9565337Y49189337D01*
X9619484Y49144899D01*
X9681260Y49111879D01*
X9748290Y49091546D01*
X9818000Y49084680D01*
X11518000Y49084680D01*
X11587710Y49091546D01*
X11654740Y49111879D01*
X11716516Y49144899D01*
X11770663Y49189337D01*
X11815101Y49243484D01*
X11848121Y49305260D01*
X11868454Y49372290D01*
X11875320Y49442000D01*
X11875320Y51029400D01*
X12250753Y51029400D01*
X12139611Y50863066D01*
X12048731Y50643660D01*
X12002400Y50410741D01*
X12002400Y50173259D01*
X12048731Y49940340D01*
X12139611Y49720934D01*
X12271550Y49523475D01*
X12439475Y49355550D01*
X12636934Y49223611D01*
X12856340Y49132731D01*
X13089259Y49086400D01*
X13326741Y49086400D01*
X13559660Y49132731D01*
X13673527Y49179896D01*
X15281829Y47571593D01*
X15296147Y47554147D01*
X15313592Y47539830D01*
X15365763Y47497013D01*
X15408217Y47474322D01*
X15445191Y47454559D01*
X15531373Y47428415D01*
X15598540Y47421800D01*
X15598549Y47421800D01*
X15620999Y47419589D01*
X15643449Y47421800D01*
X28385623Y47421800D01*
X34340801Y41466621D01*
X34340801Y41243747D01*
X34285034Y41187980D01*
X34212761Y41079817D01*
X34162979Y40959631D01*
X34137600Y40832044D01*
X34137600Y40701956D01*
X34162979Y40574369D01*
X34212761Y40454183D01*
X34285034Y40346020D01*
X34377020Y40254034D01*
X34485183Y40181761D01*
X34605369Y40131979D01*
X34732956Y40106600D01*
X34863044Y40106600D01*
X34990631Y40131979D01*
X35110817Y40181761D01*
X35218980Y40254034D01*
X35310966Y40346020D01*
X35383239Y40454183D01*
X35433021Y40574369D01*
X35443076Y40624920D01*
X35494956Y40614600D01*
X35625044Y40614600D01*
X35752631Y40639979D01*
X35872817Y40689761D01*
X35980980Y40762034D01*
X36072966Y40854020D01*
X36145239Y40962183D01*
X36195021Y41082369D01*
X36220400Y41209956D01*
X36220400Y41340044D01*
X36211323Y41385677D01*
X36256956Y41376600D01*
X36387044Y41376600D01*
X36514631Y41401979D01*
X36634817Y41451761D01*
X36742980Y41524034D01*
X36834966Y41616020D01*
X36907239Y41724183D01*
X36957021Y41844369D01*
X36982400Y41971956D01*
X36982400Y42102044D01*
X36972080Y42153924D01*
X37022631Y42163979D01*
X37142817Y42213761D01*
X37250980Y42286034D01*
X37342966Y42378020D01*
X37415239Y42486183D01*
X37465021Y42606369D01*
X37490400Y42733956D01*
X37490400Y42864044D01*
X37465021Y42991631D01*
X37415239Y43111817D01*
X37342966Y43219980D01*
X37250980Y43311966D01*
X37142817Y43384239D01*
X37022631Y43434021D01*
X36895044Y43459400D01*
X36764956Y43459400D01*
X36637369Y43434021D01*
X36517183Y43384239D01*
X36409020Y43311966D01*
X36353254Y43256200D01*
X36130378Y43256200D01*
X31061534Y48325044D01*
X32359600Y48325044D01*
X32359600Y48194956D01*
X32384979Y48067369D01*
X32434761Y47947183D01*
X32507034Y47839020D01*
X32599020Y47747034D01*
X32707183Y47674761D01*
X32827369Y47624979D01*
X32829203Y47624614D01*
X34670614Y45783203D01*
X34670979Y45781369D01*
X34720761Y45661183D01*
X34793034Y45553020D01*
X34885020Y45461034D01*
X34993183Y45388761D01*
X35113369Y45338979D01*
X35240956Y45313600D01*
X35371044Y45313600D01*
X35498631Y45338979D01*
X35618817Y45388761D01*
X35726980Y45461034D01*
X35818966Y45553020D01*
X35891239Y45661183D01*
X35941021Y45781369D01*
X35966400Y45908956D01*
X35966400Y46039044D01*
X35941021Y46166631D01*
X35891239Y46286817D01*
X35818966Y46394980D01*
X35726980Y46486966D01*
X35618817Y46559239D01*
X35498631Y46609021D01*
X35496797Y46609386D01*
X33655386Y48450797D01*
X33655021Y48452631D01*
X33605239Y48572817D01*
X33532966Y48680980D01*
X33440980Y48772966D01*
X33332817Y48845239D01*
X33212631Y48895021D01*
X33085044Y48920400D01*
X32954956Y48920400D01*
X32827369Y48895021D01*
X32707183Y48845239D01*
X32599020Y48772966D01*
X32507034Y48680980D01*
X32434761Y48572817D01*
X32384979Y48452631D01*
X32359600Y48325044D01*
X31061534Y48325044D01*
X29560104Y49826473D01*
X29607269Y49940340D01*
X29653600Y50173259D01*
X29653600Y50410741D01*
X29607269Y50643660D01*
X29516389Y50863066D01*
X29405247Y51029400D01*
X31300753Y51029400D01*
X31189611Y50863066D01*
X31098731Y50643660D01*
X31052400Y50410741D01*
X31052400Y50173259D01*
X31098731Y49940340D01*
X31189611Y49720934D01*
X31321550Y49523475D01*
X31489475Y49355550D01*
X31686934Y49223611D01*
X31906340Y49132731D01*
X32139259Y49086400D01*
X32376741Y49086400D01*
X32609660Y49132731D01*
X32829066Y49223611D01*
X33026525Y49355550D01*
X33194450Y49523475D01*
X33326389Y49720934D01*
X33417269Y49940340D01*
X33463600Y50173259D01*
X33463600Y50410741D01*
X33417269Y50643660D01*
X33326389Y50863066D01*
X33215247Y51029400D01*
X33840753Y51029400D01*
X33729611Y50863066D01*
X33638731Y50643660D01*
X33592400Y50410741D01*
X33592400Y50173259D01*
X33638731Y49940340D01*
X33729611Y49720934D01*
X33861550Y49523475D01*
X34029475Y49355550D01*
X34226934Y49223611D01*
X34446340Y49132731D01*
X34679259Y49086400D01*
X34916741Y49086400D01*
X35149660Y49132731D01*
X35369066Y49223611D01*
X35566525Y49355550D01*
X35734450Y49523475D01*
X35866389Y49720934D01*
X35957269Y49940340D01*
X36003600Y50173259D01*
X36003600Y50410741D01*
X35957269Y50643660D01*
X35866389Y50863066D01*
X35755247Y51029400D01*
X36380753Y51029400D01*
X36269611Y50863066D01*
X36178731Y50643660D01*
X36132400Y50410741D01*
X36132400Y50173259D01*
X36178731Y49940340D01*
X36269611Y49720934D01*
X36401550Y49523475D01*
X36569475Y49355550D01*
X36766934Y49223611D01*
X36986340Y49132731D01*
X37219259Y49086400D01*
X37456741Y49086400D01*
X37689660Y49132731D01*
X37909066Y49223611D01*
X38106525Y49355550D01*
X38274450Y49523475D01*
X38406389Y49720934D01*
X38497269Y49940340D01*
X38543600Y50173259D01*
X38543600Y50410741D01*
X38497269Y50643660D01*
X38406389Y50863066D01*
X38295247Y51029400D01*
X38920753Y51029400D01*
X38809611Y50863066D01*
X38718731Y50643660D01*
X38672400Y50410741D01*
X38672400Y50173259D01*
X38718731Y49940340D01*
X38809611Y49720934D01*
X38941550Y49523475D01*
X39109475Y49355550D01*
X39306934Y49223611D01*
X39526340Y49132731D01*
X39759259Y49086400D01*
X39996741Y49086400D01*
X40229660Y49132731D01*
X40449066Y49223611D01*
X40646525Y49355550D01*
X40814450Y49523475D01*
X40946389Y49720934D01*
X41037269Y49940340D01*
X41083600Y50173259D01*
X41083600Y50410741D01*
X41037269Y50643660D01*
X40946389Y50863066D01*
X40835247Y51029400D01*
X41460753Y51029400D01*
X41349611Y50863066D01*
X41258731Y50643660D01*
X41212400Y50410741D01*
X41212400Y50173259D01*
X41258731Y49940340D01*
X41349611Y49720934D01*
X41481550Y49523475D01*
X41649475Y49355550D01*
X41846934Y49223611D01*
X42066340Y49132731D01*
X42299259Y49086400D01*
X42536741Y49086400D01*
X42769660Y49132731D01*
X42989066Y49223611D01*
X43186525Y49355550D01*
X43354450Y49523475D01*
X43486389Y49720934D01*
X43577269Y49940340D01*
X43623600Y50173259D01*
X43623600Y50410741D01*
X43577269Y50643660D01*
X43486389Y50863066D01*
X43375247Y51029400D01*
X44000753Y51029400D01*
X43889611Y50863066D01*
X43798731Y50643660D01*
X43752400Y50410741D01*
X43752400Y50173259D01*
X43798731Y49940340D01*
X43889611Y49720934D01*
X44021550Y49523475D01*
X44189475Y49355550D01*
X44386934Y49223611D01*
X44606340Y49132731D01*
X44839259Y49086400D01*
X45076741Y49086400D01*
X45309660Y49132731D01*
X45529066Y49223611D01*
X45726525Y49355550D01*
X45894450Y49523475D01*
X46026389Y49720934D01*
X46117269Y49940340D01*
X46163600Y50173259D01*
X46163600Y50410741D01*
X46117269Y50643660D01*
X46026389Y50863066D01*
X45915247Y51029400D01*
X46540753Y51029400D01*
X46429611Y50863066D01*
X46338731Y50643660D01*
X46292400Y50410741D01*
X46292400Y50173259D01*
X46338731Y49940340D01*
X46429611Y49720934D01*
X46561550Y49523475D01*
X46729475Y49355550D01*
X46926934Y49223611D01*
X47146340Y49132731D01*
X47379259Y49086400D01*
X47616741Y49086400D01*
X47849660Y49132731D01*
X48069066Y49223611D01*
X48266525Y49355550D01*
X48434450Y49523475D01*
X48566389Y49720934D01*
X48657269Y49940340D01*
X48703600Y50173259D01*
X48703600Y50410741D01*
X48657269Y50643660D01*
X48566389Y50863066D01*
X48455247Y51029400D01*
X49080753Y51029400D01*
X48969611Y50863066D01*
X48878731Y50643660D01*
X48832400Y50410741D01*
X48832400Y50173259D01*
X48878731Y49940340D01*
X48969611Y49720934D01*
X49101550Y49523475D01*
X49269475Y49355550D01*
X49466934Y49223611D01*
X49686340Y49132731D01*
X49919259Y49086400D01*
X50156741Y49086400D01*
X50389660Y49132731D01*
X50609066Y49223611D01*
X50806525Y49355550D01*
X50974450Y49523475D01*
X51106389Y49720934D01*
X51197269Y49940340D01*
X51243600Y50173259D01*
X51243600Y50410741D01*
X51197269Y50643660D01*
X51106389Y50863066D01*
X50995247Y51029400D01*
X51620753Y51029400D01*
X51509611Y50863066D01*
X51418731Y50643660D01*
X51372400Y50410741D01*
X51372400Y50173259D01*
X51418731Y49940340D01*
X51509611Y49720934D01*
X51641550Y49523475D01*
X51809475Y49355550D01*
X52006934Y49223611D01*
X52226340Y49132731D01*
X52459259Y49086400D01*
X52696741Y49086400D01*
X52929660Y49132731D01*
X53149066Y49223611D01*
X53346525Y49355550D01*
X53514450Y49523475D01*
X53646389Y49720934D01*
X53737269Y49940340D01*
X53783600Y50173259D01*
X53783600Y50410741D01*
X53737269Y50643660D01*
X53646389Y50863066D01*
X53535247Y51029400D01*
X54160753Y51029400D01*
X54049611Y50863066D01*
X53958731Y50643660D01*
X53912400Y50410741D01*
X53912400Y50173259D01*
X53958731Y49940340D01*
X54049611Y49720934D01*
X54181550Y49523475D01*
X54349475Y49355550D01*
X54546934Y49223611D01*
X54766340Y49132731D01*
X54999259Y49086400D01*
X55236741Y49086400D01*
X55469660Y49132731D01*
X55689066Y49223611D01*
X55886525Y49355550D01*
X56054450Y49523475D01*
X56186389Y49720934D01*
X56277269Y49940340D01*
X56323600Y50173259D01*
X56323600Y50410741D01*
X56277269Y50643660D01*
X56186389Y50863066D01*
X56075247Y51029400D01*
X56700753Y51029400D01*
X56589611Y50863066D01*
X56498731Y50643660D01*
X56452400Y50410741D01*
X56452400Y50173259D01*
X56498731Y49940340D01*
X56589611Y49720934D01*
X56721550Y49523475D01*
X56889475Y49355550D01*
X57086934Y49223611D01*
X57306340Y49132731D01*
X57539259Y49086400D01*
X57776741Y49086400D01*
X58009660Y49132731D01*
X58229066Y49223611D01*
X58426525Y49355550D01*
X58594450Y49523475D01*
X58726389Y49720934D01*
X58817269Y49940340D01*
X58863600Y50173259D01*
X58863600Y50410741D01*
X58817269Y50643660D01*
X58726389Y50863066D01*
X58615247Y51029400D01*
X59240753Y51029400D01*
X59129611Y50863066D01*
X59038731Y50643660D01*
X58992400Y50410741D01*
X58992400Y50173259D01*
X59038731Y49940340D01*
X59129611Y49720934D01*
X59261550Y49523475D01*
X59429475Y49355550D01*
X59626934Y49223611D01*
X59846340Y49132731D01*
X60079259Y49086400D01*
X60316741Y49086400D01*
X60549660Y49132731D01*
X60769066Y49223611D01*
X60966525Y49355550D01*
X61134450Y49523475D01*
X61266389Y49720934D01*
X61357269Y49940340D01*
X61403600Y50173259D01*
X61403600Y50410741D01*
X61357269Y50643660D01*
X61266389Y50863066D01*
X61155247Y51029400D01*
X67880680Y51029400D01*
X67880680Y50876200D01*
X65179681Y50876200D01*
X65150999Y50879025D01*
X65122317Y50876200D01*
X65122308Y50876200D01*
X65036477Y50867746D01*
X64926355Y50834341D01*
X64824866Y50780094D01*
X64735910Y50707090D01*
X64717618Y50684801D01*
X62623017Y48590200D01*
X46669372Y48590200D01*
X46667817Y48591239D01*
X46547631Y48641021D01*
X46420044Y48666400D01*
X46289956Y48666400D01*
X46162369Y48641021D01*
X46042183Y48591239D01*
X45934020Y48518966D01*
X45842034Y48426980D01*
X45769761Y48318817D01*
X45719979Y48198631D01*
X45694600Y48071044D01*
X45694600Y47940956D01*
X45719979Y47813369D01*
X45769761Y47693183D01*
X45842034Y47585020D01*
X45934020Y47493034D01*
X46042183Y47420761D01*
X46162369Y47370979D01*
X46289956Y47345600D01*
X46420044Y47345600D01*
X46547631Y47370979D01*
X46667817Y47420761D01*
X46669372Y47421800D01*
X62836316Y47421800D01*
X62865000Y47418975D01*
X62893684Y47421800D01*
X62893692Y47421800D01*
X62979523Y47430254D01*
X63089645Y47463659D01*
X63191134Y47517906D01*
X63280090Y47590910D01*
X63298382Y47613199D01*
X63555924Y47870741D01*
X67882400Y47870741D01*
X67882400Y47633259D01*
X67928731Y47400340D01*
X68019611Y47180934D01*
X68151550Y46983475D01*
X68319475Y46815550D01*
X68516934Y46683611D01*
X68736340Y46592731D01*
X68969259Y46546400D01*
X69206741Y46546400D01*
X69439660Y46592731D01*
X69659066Y46683611D01*
X69856525Y46815550D01*
X70024450Y46983475D01*
X70156389Y47180934D01*
X70247269Y47400340D01*
X70293600Y47633259D01*
X70293600Y47870741D01*
X70422400Y47870741D01*
X70422400Y47633259D01*
X70468731Y47400340D01*
X70559611Y47180934D01*
X70691550Y46983475D01*
X70859475Y46815550D01*
X71056934Y46683611D01*
X71276340Y46592731D01*
X71509259Y46546400D01*
X71746741Y46546400D01*
X71979660Y46592731D01*
X72199066Y46683611D01*
X72396525Y46815550D01*
X72564450Y46983475D01*
X72696389Y47180934D01*
X72787269Y47400340D01*
X72833600Y47633259D01*
X72833600Y47870741D01*
X72787269Y48103660D01*
X72696389Y48323066D01*
X72564450Y48520525D01*
X72396525Y48688450D01*
X72199066Y48820389D01*
X71979660Y48911269D01*
X71746741Y48957600D01*
X71509259Y48957600D01*
X71276340Y48911269D01*
X71056934Y48820389D01*
X70859475Y48688450D01*
X70691550Y48520525D01*
X70559611Y48323066D01*
X70468731Y48103660D01*
X70422400Y47870741D01*
X70293600Y47870741D01*
X70247269Y48103660D01*
X70156389Y48323066D01*
X70024450Y48520525D01*
X69856525Y48688450D01*
X69659066Y48820389D01*
X69439660Y48911269D01*
X69206741Y48957600D01*
X68969259Y48957600D01*
X68736340Y48911269D01*
X68516934Y48820389D01*
X68319475Y48688450D01*
X68151550Y48520525D01*
X68019611Y48323066D01*
X67928731Y48103660D01*
X67882400Y47870741D01*
X63555924Y47870741D01*
X65392983Y49707800D01*
X67880680Y49707800D01*
X67880680Y49442000D01*
X67887546Y49372290D01*
X67907879Y49305260D01*
X67940899Y49243484D01*
X67985337Y49189337D01*
X68039484Y49144899D01*
X68101260Y49111879D01*
X68168290Y49091546D01*
X68238000Y49084680D01*
X69938000Y49084680D01*
X70007710Y49091546D01*
X70074740Y49111879D01*
X70136516Y49144899D01*
X70190663Y49189337D01*
X70235101Y49243484D01*
X70268121Y49305260D01*
X70288454Y49372290D01*
X70295320Y49442000D01*
X70295320Y50103353D01*
X70437251Y50103353D01*
X70496934Y49874674D01*
X70600083Y49662033D01*
X70742735Y49473601D01*
X70919407Y49316620D01*
X71123310Y49197122D01*
X71346608Y49119700D01*
X71439353Y49101251D01*
X71627950Y49175300D01*
X71627950Y50291950D01*
X71628050Y50291950D01*
X71628050Y49175300D01*
X71816647Y49101251D01*
X71909392Y49119700D01*
X72132690Y49197122D01*
X72336593Y49316620D01*
X72513265Y49473601D01*
X72655917Y49662033D01*
X72759066Y49874674D01*
X72818749Y50103353D01*
X72744700Y50291950D01*
X71628050Y50291950D01*
X71627950Y50291950D01*
X70511300Y50291950D01*
X70437251Y50103353D01*
X70295320Y50103353D01*
X70295320Y51029400D01*
X70681415Y51029400D01*
X70600083Y50921967D01*
X70496934Y50709326D01*
X70437251Y50480647D01*
X70511300Y50292050D01*
X71627950Y50292050D01*
X71627950Y50312050D01*
X71628050Y50312050D01*
X71628050Y50292050D01*
X72744700Y50292050D01*
X72818749Y50480647D01*
X72759066Y50709326D01*
X72655917Y50921967D01*
X72574585Y51029400D01*
X74270401Y51029400D01*
X74270400Y10692600D01*
X67202907Y10692600D01*
X67182999Y10694561D01*
X67163091Y10692600D01*
X67163079Y10692600D01*
X67103489Y10686731D01*
X67027033Y10663538D01*
X66965669Y10630738D01*
X66956569Y10625874D01*
X66931089Y10604963D01*
X66894810Y10575190D01*
X66882111Y10559716D01*
X64370285Y8047889D01*
X64354811Y8035190D01*
X64342113Y8019717D01*
X64342112Y8019716D01*
X64304125Y7973429D01*
X64266463Y7902967D01*
X64243270Y7826511D01*
X64235438Y7747000D01*
X64237401Y7727072D01*
X64237400Y405600D01*
X10438600Y405600D01*
X10438600Y5656072D01*
X11477400Y5656072D01*
X11477400Y5265928D01*
X11553514Y4883280D01*
X11702815Y4522834D01*
X11919568Y4198441D01*
X12195441Y3922568D01*
X12519834Y3705815D01*
X12880280Y3556514D01*
X13262928Y3480400D01*
X13653072Y3480400D01*
X14035720Y3556514D01*
X14396166Y3705815D01*
X14720559Y3922568D01*
X14996432Y4198441D01*
X15213185Y4522834D01*
X15362486Y4883280D01*
X15438600Y5265928D01*
X15438600Y5656072D01*
X24177400Y5656072D01*
X24177400Y5265928D01*
X24253514Y4883280D01*
X24402815Y4522834D01*
X24619568Y4198441D01*
X24895441Y3922568D01*
X25219834Y3705815D01*
X25580280Y3556514D01*
X25962928Y3480400D01*
X26353072Y3480400D01*
X26735720Y3556514D01*
X27096166Y3705815D01*
X27420559Y3922568D01*
X27696432Y4198441D01*
X27913185Y4522834D01*
X28062486Y4883280D01*
X28138600Y5265928D01*
X28138600Y5656072D01*
X28062486Y6038720D01*
X27913185Y6399166D01*
X27696432Y6723559D01*
X27420559Y6999432D01*
X27096166Y7216185D01*
X26735720Y7365486D01*
X26353072Y7441600D01*
X25962928Y7441600D01*
X25580280Y7365486D01*
X25219834Y7216185D01*
X24895441Y6999432D01*
X24619568Y6723559D01*
X24402815Y6399166D01*
X24253514Y6038720D01*
X24177400Y5656072D01*
X15438600Y5656072D01*
X15362486Y6038720D01*
X15213185Y6399166D01*
X14996432Y6723559D01*
X14720559Y6999432D01*
X14396166Y7216185D01*
X14035720Y7365486D01*
X13653072Y7441600D01*
X13262928Y7441600D01*
X12880280Y7365486D01*
X12519834Y7216185D01*
X12195441Y6999432D01*
X11919568Y6723559D01*
X11702815Y6399166D01*
X11553514Y6038720D01*
X11477400Y5656072D01*
X10438600Y5656072D01*
X10438600Y7727093D01*
X10440561Y7747001D01*
X10438600Y7766909D01*
X10438600Y7766921D01*
X10432731Y7826511D01*
X10409538Y7902967D01*
X10371875Y7973429D01*
X10371874Y7973431D01*
X10333888Y8019717D01*
X10321190Y8035190D01*
X10305717Y8047888D01*
X8463713Y9889892D01*
X15150400Y9889892D01*
X15150400Y9672108D01*
X15192887Y9458508D01*
X15276230Y9257302D01*
X15397224Y9076221D01*
X15551221Y8922224D01*
X15732302Y8801230D01*
X15933508Y8717887D01*
X16147108Y8675400D01*
X16364892Y8675400D01*
X16397222Y8681831D01*
X16292230Y8524698D01*
X16208887Y8323492D01*
X16166400Y8109892D01*
X16166400Y7892108D01*
X16208887Y7678508D01*
X16292230Y7477302D01*
X16413224Y7296221D01*
X16567221Y7142224D01*
X16748302Y7021230D01*
X16949508Y6937887D01*
X17163108Y6895400D01*
X17380892Y6895400D01*
X17594492Y6937887D01*
X17795698Y7021230D01*
X17976779Y7142224D01*
X18130776Y7296221D01*
X18251770Y7477302D01*
X18288000Y7564768D01*
X18324230Y7477302D01*
X18445224Y7296221D01*
X18599221Y7142224D01*
X18780302Y7021230D01*
X18981508Y6937887D01*
X19195108Y6895400D01*
X19412892Y6895400D01*
X19626492Y6937887D01*
X19827698Y7021230D01*
X20008779Y7142224D01*
X20162776Y7296221D01*
X20283770Y7477302D01*
X20320000Y7564768D01*
X20356230Y7477302D01*
X20477224Y7296221D01*
X20631221Y7142224D01*
X20812302Y7021230D01*
X21013508Y6937887D01*
X21227108Y6895400D01*
X21444892Y6895400D01*
X21658492Y6937887D01*
X21859698Y7021230D01*
X22040779Y7142224D01*
X22194776Y7296221D01*
X22260680Y7394854D01*
X22260680Y7251000D01*
X22267546Y7181290D01*
X22287879Y7114260D01*
X22320899Y7052484D01*
X22365337Y6998337D01*
X22419484Y6953899D01*
X22481260Y6920879D01*
X22548290Y6900546D01*
X22618000Y6893680D01*
X24118000Y6893680D01*
X24187710Y6900546D01*
X24254740Y6920879D01*
X24316516Y6953899D01*
X24370663Y6998337D01*
X24415101Y7052484D01*
X24448121Y7114260D01*
X24468454Y7181290D01*
X24475320Y7251000D01*
X24475320Y7942072D01*
X30272400Y7942072D01*
X30272400Y7551928D01*
X30348514Y7169280D01*
X30497815Y6808834D01*
X30714568Y6484441D01*
X30990441Y6208568D01*
X31314834Y5991815D01*
X31675280Y5842514D01*
X32057928Y5766400D01*
X32448072Y5766400D01*
X32830720Y5842514D01*
X33191166Y5991815D01*
X33515559Y6208568D01*
X33791432Y6484441D01*
X34008185Y6808834D01*
X34157486Y7169280D01*
X34233600Y7551928D01*
X34233600Y7942072D01*
X40432400Y7942072D01*
X40432400Y7551928D01*
X40508514Y7169280D01*
X40657815Y6808834D01*
X40874568Y6484441D01*
X41150441Y6208568D01*
X41474834Y5991815D01*
X41835280Y5842514D01*
X42217928Y5766400D01*
X42608072Y5766400D01*
X42990720Y5842514D01*
X43351166Y5991815D01*
X43675559Y6208568D01*
X43951432Y6484441D01*
X44168185Y6808834D01*
X44317486Y7169280D01*
X44393600Y7551928D01*
X44393600Y7942072D01*
X44877400Y7942072D01*
X44877400Y7551928D01*
X44953514Y7169280D01*
X45102815Y6808834D01*
X45319568Y6484441D01*
X45595441Y6208568D01*
X45919834Y5991815D01*
X46280280Y5842514D01*
X46662928Y5766400D01*
X47053072Y5766400D01*
X47435720Y5842514D01*
X47796166Y5991815D01*
X48120559Y6208568D01*
X48396432Y6484441D01*
X48613185Y6808834D01*
X48762486Y7169280D01*
X48838600Y7551928D01*
X48838600Y7942072D01*
X55037400Y7942072D01*
X55037400Y7551928D01*
X55113514Y7169280D01*
X55262815Y6808834D01*
X55479568Y6484441D01*
X55755441Y6208568D01*
X56079834Y5991815D01*
X56440280Y5842514D01*
X56822928Y5766400D01*
X57213072Y5766400D01*
X57508043Y5825074D01*
X60350400Y5825074D01*
X60350400Y5604926D01*
X60393348Y5389008D01*
X60477595Y5185618D01*
X60599903Y5002571D01*
X60755571Y4846903D01*
X60938618Y4724595D01*
X61142008Y4640348D01*
X61357926Y4597400D01*
X61578074Y4597400D01*
X61793992Y4640348D01*
X61997382Y4724595D01*
X62180429Y4846903D01*
X62336097Y5002571D01*
X62458405Y5185618D01*
X62542652Y5389008D01*
X62585600Y5604926D01*
X62585600Y5825074D01*
X62542652Y6040992D01*
X62458405Y6244382D01*
X62336097Y6427429D01*
X62180429Y6583097D01*
X61997382Y6705405D01*
X61793992Y6789652D01*
X61578074Y6832600D01*
X61357926Y6832600D01*
X61142008Y6789652D01*
X60938618Y6705405D01*
X60755571Y6583097D01*
X60599903Y6427429D01*
X60477595Y6244382D01*
X60393348Y6040992D01*
X60350400Y5825074D01*
X57508043Y5825074D01*
X57595720Y5842514D01*
X57956166Y5991815D01*
X58280559Y6208568D01*
X58556432Y6484441D01*
X58773185Y6808834D01*
X58922486Y7169280D01*
X58998600Y7551928D01*
X58998600Y7942072D01*
X58922486Y8324720D01*
X58773185Y8685166D01*
X58556432Y9009559D01*
X58280559Y9285432D01*
X57956166Y9502185D01*
X57595720Y9651486D01*
X57213072Y9727600D01*
X56822928Y9727600D01*
X56440280Y9651486D01*
X56079834Y9502185D01*
X55755441Y9285432D01*
X55479568Y9009559D01*
X55262815Y8685166D01*
X55113514Y8324720D01*
X55037400Y7942072D01*
X48838600Y7942072D01*
X48762486Y8324720D01*
X48613185Y8685166D01*
X48396432Y9009559D01*
X48120559Y9285432D01*
X47796166Y9502185D01*
X47435720Y9651486D01*
X47053072Y9727600D01*
X46662928Y9727600D01*
X46280280Y9651486D01*
X45919834Y9502185D01*
X45595441Y9285432D01*
X45319568Y9009559D01*
X45102815Y8685166D01*
X44953514Y8324720D01*
X44877400Y7942072D01*
X44393600Y7942072D01*
X44317486Y8324720D01*
X44168185Y8685166D01*
X43951432Y9009559D01*
X43675559Y9285432D01*
X43351166Y9502185D01*
X42990720Y9651486D01*
X42608072Y9727600D01*
X42217928Y9727600D01*
X41835280Y9651486D01*
X41474834Y9502185D01*
X41150441Y9285432D01*
X40874568Y9009559D01*
X40657815Y8685166D01*
X40508514Y8324720D01*
X40432400Y7942072D01*
X34233600Y7942072D01*
X34157486Y8324720D01*
X34008185Y8685166D01*
X33791432Y9009559D01*
X33515559Y9285432D01*
X33191166Y9502185D01*
X32830720Y9651486D01*
X32448072Y9727600D01*
X32057928Y9727600D01*
X31675280Y9651486D01*
X31314834Y9502185D01*
X30990441Y9285432D01*
X30714568Y9009559D01*
X30497815Y8685166D01*
X30348514Y8324720D01*
X30272400Y7942072D01*
X24475320Y7942072D01*
X24475320Y8751000D01*
X24468454Y8820710D01*
X24448121Y8887740D01*
X24415101Y8949516D01*
X24370663Y9003663D01*
X24316516Y9048101D01*
X24254740Y9081121D01*
X24187710Y9101454D01*
X24118000Y9108320D01*
X23200993Y9108320D01*
X23250807Y9128040D01*
X23360923Y9315934D01*
X23432266Y9521702D01*
X23462095Y9737434D01*
X23449264Y9954839D01*
X23394266Y10165565D01*
X23299215Y10361512D01*
X23250807Y10433960D01*
X23074734Y10503663D01*
X22352071Y9781000D01*
X22366213Y9766858D01*
X22366142Y9766787D01*
X22352000Y9780929D01*
X22337858Y9766787D01*
X22337787Y9766858D01*
X22351929Y9781000D01*
X21629266Y10503663D01*
X21453193Y10433960D01*
X21343077Y10246066D01*
X21334410Y10221070D01*
X21299770Y10304698D01*
X21178776Y10485779D01*
X21160821Y10503734D01*
X21629337Y10503734D01*
X22352000Y9781071D01*
X23074663Y10503734D01*
X23004960Y10679807D01*
X22817066Y10789923D01*
X22611298Y10861266D01*
X22395566Y10891095D01*
X22178161Y10878264D01*
X21967435Y10823266D01*
X21771488Y10728215D01*
X21699040Y10679807D01*
X21629337Y10503734D01*
X21160821Y10503734D01*
X21024779Y10639776D01*
X20843698Y10760770D01*
X20642492Y10844113D01*
X20428892Y10886600D01*
X20211108Y10886600D01*
X19997508Y10844113D01*
X19796302Y10760770D01*
X19615221Y10639776D01*
X19461224Y10485779D01*
X19340230Y10304698D01*
X19304000Y10217232D01*
X19267770Y10304698D01*
X19146776Y10485779D01*
X18992779Y10639776D01*
X18811698Y10760770D01*
X18745200Y10788315D01*
X18745200Y14709892D01*
X23272400Y14709892D01*
X23272400Y14492108D01*
X23314887Y14278508D01*
X23398230Y14077302D01*
X23519224Y13896221D01*
X23673221Y13742224D01*
X23854302Y13621230D01*
X24055508Y13537887D01*
X24269108Y13495400D01*
X24486892Y13495400D01*
X24700492Y13537887D01*
X24901698Y13621230D01*
X25082779Y13742224D01*
X25236776Y13896221D01*
X25357770Y14077302D01*
X25441113Y14278508D01*
X25483600Y14492108D01*
X25483600Y14709892D01*
X25562400Y14709892D01*
X25562400Y14492108D01*
X25604887Y14278508D01*
X25688230Y14077302D01*
X25809224Y13896221D01*
X25963221Y13742224D01*
X26144302Y13621230D01*
X26345508Y13537887D01*
X26559108Y13495400D01*
X26776892Y13495400D01*
X26990492Y13537887D01*
X27191698Y13621230D01*
X27372779Y13742224D01*
X27526776Y13896221D01*
X27647770Y14077302D01*
X27701442Y14206877D01*
X34317400Y14206877D01*
X34317400Y13987123D01*
X34360272Y13771591D01*
X34444368Y13568565D01*
X34566457Y13385846D01*
X34721846Y13230457D01*
X34904565Y13108368D01*
X35107591Y13024272D01*
X35323123Y12981400D01*
X35542877Y12981400D01*
X35758409Y13024272D01*
X35961435Y13108368D01*
X36144154Y13230457D01*
X36299543Y13385846D01*
X36421632Y13568565D01*
X36505728Y13771591D01*
X36548600Y13987123D01*
X36548600Y14206877D01*
X36857400Y14206877D01*
X36857400Y13987123D01*
X36900272Y13771591D01*
X36984368Y13568565D01*
X37106457Y13385846D01*
X37261846Y13230457D01*
X37444565Y13108368D01*
X37647591Y13024272D01*
X37863123Y12981400D01*
X38082877Y12981400D01*
X38298409Y13024272D01*
X38318843Y13032736D01*
X39120150Y12231429D01*
X39136052Y12212052D01*
X39155429Y12196150D01*
X39213404Y12148571D01*
X39301655Y12101400D01*
X39301657Y12101399D01*
X39397415Y12072351D01*
X39472053Y12065000D01*
X39472055Y12065000D01*
X39496999Y12062543D01*
X39521943Y12065000D01*
X50521056Y12065000D01*
X50546000Y12062543D01*
X50570944Y12065000D01*
X50570947Y12065000D01*
X50645585Y12072351D01*
X50741343Y12101399D01*
X50829595Y12148571D01*
X50906948Y12212052D01*
X50922855Y12231435D01*
X51649565Y12958145D01*
X51668948Y12974052D01*
X51732429Y13051405D01*
X51779601Y13139657D01*
X51808649Y13235415D01*
X51813422Y13283881D01*
X51866846Y13230457D01*
X52049565Y13108368D01*
X52252591Y13024272D01*
X52468123Y12981400D01*
X52687877Y12981400D01*
X52903409Y13024272D01*
X53106435Y13108368D01*
X53289154Y13230457D01*
X53444543Y13385846D01*
X53566632Y13568565D01*
X53650728Y13771591D01*
X53693600Y13987123D01*
X53693600Y14206877D01*
X54002400Y14206877D01*
X54002400Y13987123D01*
X54045272Y13771591D01*
X54129368Y13568565D01*
X54251457Y13385846D01*
X54406846Y13230457D01*
X54589565Y13108368D01*
X54792591Y13024272D01*
X55008123Y12981400D01*
X55227877Y12981400D01*
X55443409Y13024272D01*
X55646435Y13108368D01*
X55829154Y13230457D01*
X55984543Y13385846D01*
X56106632Y13568565D01*
X56190728Y13771591D01*
X56233600Y13987123D01*
X56233600Y14206877D01*
X56190728Y14422409D01*
X56106632Y14625435D01*
X55984543Y14808154D01*
X55899823Y14892874D01*
X60350400Y14892874D01*
X60350400Y14672726D01*
X60393348Y14456808D01*
X60477595Y14253418D01*
X60599903Y14070371D01*
X60755571Y13914703D01*
X60938618Y13792395D01*
X61142008Y13708148D01*
X61357926Y13665200D01*
X61578074Y13665200D01*
X61793992Y13708148D01*
X61997382Y13792395D01*
X62180429Y13914703D01*
X62336097Y14070371D01*
X62458405Y14253418D01*
X62542652Y14456808D01*
X62585600Y14672726D01*
X62585600Y14892874D01*
X62542652Y15108792D01*
X62458405Y15312182D01*
X62336097Y15495229D01*
X62180429Y15650897D01*
X61997382Y15773205D01*
X61793992Y15857452D01*
X61578074Y15900400D01*
X61357926Y15900400D01*
X61142008Y15857452D01*
X60938618Y15773205D01*
X60755571Y15650897D01*
X60599903Y15495229D01*
X60477595Y15312182D01*
X60393348Y15108792D01*
X60350400Y14892874D01*
X55899823Y14892874D01*
X55829154Y14963543D01*
X55646435Y15085632D01*
X55443409Y15169728D01*
X55227877Y15212600D01*
X55008123Y15212600D01*
X54792591Y15169728D01*
X54589565Y15085632D01*
X54406846Y14963543D01*
X54251457Y14808154D01*
X54129368Y14625435D01*
X54045272Y14422409D01*
X54002400Y14206877D01*
X53693600Y14206877D01*
X53650728Y14422409D01*
X53566632Y14625435D01*
X53444543Y14808154D01*
X53289154Y14963543D01*
X53106435Y15085632D01*
X52903409Y15169728D01*
X52687877Y15212600D01*
X52468123Y15212600D01*
X52252591Y15169728D01*
X52049565Y15085632D01*
X51866846Y14963543D01*
X51816000Y14912697D01*
X51816000Y15639904D01*
X51836435Y15648368D01*
X52019154Y15770457D01*
X52174543Y15925846D01*
X52296632Y16108565D01*
X52380728Y16311591D01*
X52423600Y16527123D01*
X52423600Y16746877D01*
X52732400Y16746877D01*
X52732400Y16527123D01*
X52775272Y16311591D01*
X52859368Y16108565D01*
X52981457Y15925846D01*
X53136846Y15770457D01*
X53319565Y15648368D01*
X53522591Y15564272D01*
X53738123Y15521400D01*
X53957877Y15521400D01*
X54173409Y15564272D01*
X54376435Y15648368D01*
X54559154Y15770457D01*
X54714543Y15925846D01*
X54836632Y16108565D01*
X54920728Y16311591D01*
X54963600Y16527123D01*
X54963600Y16746877D01*
X54920728Y16962409D01*
X54836632Y17165435D01*
X54714543Y17348154D01*
X54559154Y17503543D01*
X54376435Y17625632D01*
X54173409Y17709728D01*
X53957877Y17752600D01*
X53738123Y17752600D01*
X53522591Y17709728D01*
X53319565Y17625632D01*
X53136846Y17503543D01*
X52981457Y17348154D01*
X52859368Y17165435D01*
X52775272Y16962409D01*
X52732400Y16746877D01*
X52423600Y16746877D01*
X52380728Y16962409D01*
X52296632Y17165435D01*
X52174543Y17348154D01*
X52019154Y17503543D01*
X51836435Y17625632D01*
X51633409Y17709728D01*
X51417877Y17752600D01*
X51198123Y17752600D01*
X50982591Y17709728D01*
X50779565Y17625632D01*
X50596846Y17503543D01*
X50441457Y17348154D01*
X50319368Y17165435D01*
X50235272Y16962409D01*
X50192400Y16746877D01*
X50192400Y16527123D01*
X50235272Y16311591D01*
X50319368Y16108565D01*
X50441457Y15925846D01*
X50596846Y15770457D01*
X50779565Y15648368D01*
X50800001Y15639903D01*
X50800000Y14912697D01*
X50749154Y14963543D01*
X50566435Y15085632D01*
X50363409Y15169728D01*
X50147877Y15212600D01*
X49928123Y15212600D01*
X49712591Y15169728D01*
X49509565Y15085632D01*
X49326846Y14963543D01*
X49171457Y14808154D01*
X49049368Y14625435D01*
X48965272Y14422409D01*
X48922400Y14206877D01*
X48922400Y13987123D01*
X48965272Y13771591D01*
X49049368Y13568565D01*
X49171457Y13385846D01*
X49326846Y13230457D01*
X49509565Y13108368D01*
X49575637Y13081000D01*
X40975363Y13081000D01*
X41041435Y13108368D01*
X41224154Y13230457D01*
X41379543Y13385846D01*
X41501632Y13568565D01*
X41585728Y13771591D01*
X41628600Y13987123D01*
X41628600Y14206877D01*
X41585728Y14422409D01*
X41501632Y14625435D01*
X41379543Y14808154D01*
X41224154Y14963543D01*
X41041435Y15085632D01*
X40838409Y15169728D01*
X40622877Y15212600D01*
X40403123Y15212600D01*
X40187591Y15169728D01*
X39984565Y15085632D01*
X39801846Y14963543D01*
X39646457Y14808154D01*
X39524368Y14625435D01*
X39440272Y14422409D01*
X39397400Y14206877D01*
X39397400Y13987123D01*
X39440272Y13771591D01*
X39524368Y13568565D01*
X39646457Y13385846D01*
X39801846Y13230457D01*
X39984565Y13108368D01*
X40050637Y13081000D01*
X39707421Y13081000D01*
X39037264Y13751157D01*
X39045728Y13771591D01*
X39088600Y13987123D01*
X39088600Y14206877D01*
X39045728Y14422409D01*
X38961632Y14625435D01*
X38839543Y14808154D01*
X38684154Y14963543D01*
X38501435Y15085632D01*
X38298409Y15169728D01*
X38082877Y15212600D01*
X37863123Y15212600D01*
X37647591Y15169728D01*
X37444565Y15085632D01*
X37261846Y14963543D01*
X37106457Y14808154D01*
X36984368Y14625435D01*
X36900272Y14422409D01*
X36857400Y14206877D01*
X36548600Y14206877D01*
X36505728Y14422409D01*
X36421632Y14625435D01*
X36299543Y14808154D01*
X36144154Y14963543D01*
X35961435Y15085632D01*
X35758409Y15169728D01*
X35542877Y15212600D01*
X35323123Y15212600D01*
X35107591Y15169728D01*
X34904565Y15085632D01*
X34721846Y14963543D01*
X34566457Y14808154D01*
X34444368Y14625435D01*
X34360272Y14422409D01*
X34317400Y14206877D01*
X27701442Y14206877D01*
X27731113Y14278508D01*
X27773600Y14492108D01*
X27773600Y14709892D01*
X27731113Y14923492D01*
X27647770Y15124698D01*
X27526776Y15305779D01*
X27372779Y15459776D01*
X27191698Y15580770D01*
X26990492Y15664113D01*
X26776892Y15706600D01*
X26559108Y15706600D01*
X26345508Y15664113D01*
X26144302Y15580770D01*
X25963221Y15459776D01*
X25809224Y15305779D01*
X25688230Y15124698D01*
X25604887Y14923492D01*
X25562400Y14709892D01*
X25483600Y14709892D01*
X25441113Y14923492D01*
X25357770Y15124698D01*
X25236776Y15305779D01*
X25082779Y15459776D01*
X24901698Y15580770D01*
X24700492Y15664113D01*
X24486892Y15706600D01*
X24269108Y15706600D01*
X24055508Y15664113D01*
X23854302Y15580770D01*
X23673221Y15459776D01*
X23519224Y15305779D01*
X23398230Y15124698D01*
X23314887Y14923492D01*
X23272400Y14709892D01*
X18745200Y14709892D01*
X18745200Y17397000D01*
X33045680Y17397000D01*
X33045680Y15877000D01*
X33052546Y15807290D01*
X33072879Y15740260D01*
X33105899Y15678484D01*
X33150337Y15624337D01*
X33204484Y15579899D01*
X33266260Y15546879D01*
X33333290Y15526546D01*
X33403000Y15519680D01*
X34923000Y15519680D01*
X34992710Y15526546D01*
X35059740Y15546879D01*
X35121516Y15579899D01*
X35175663Y15624337D01*
X35220101Y15678484D01*
X35253121Y15740260D01*
X35273454Y15807290D01*
X35280320Y15877000D01*
X35280320Y16746877D01*
X35587400Y16746877D01*
X35587400Y16527123D01*
X35630272Y16311591D01*
X35714368Y16108565D01*
X35836457Y15925846D01*
X35991846Y15770457D01*
X36174565Y15648368D01*
X36377591Y15564272D01*
X36593123Y15521400D01*
X36812877Y15521400D01*
X37028409Y15564272D01*
X37231435Y15648368D01*
X37414154Y15770457D01*
X37569543Y15925846D01*
X37691632Y16108565D01*
X37775728Y16311591D01*
X37818600Y16527123D01*
X37818600Y16746877D01*
X38127400Y16746877D01*
X38127400Y16527123D01*
X38170272Y16311591D01*
X38254368Y16108565D01*
X38376457Y15925846D01*
X38531846Y15770457D01*
X38714565Y15648368D01*
X38917591Y15564272D01*
X39133123Y15521400D01*
X39352877Y15521400D01*
X39568409Y15564272D01*
X39771435Y15648368D01*
X39954154Y15770457D01*
X40109543Y15925846D01*
X40231632Y16108565D01*
X40315728Y16311591D01*
X40358600Y16527123D01*
X40358600Y16746877D01*
X40315728Y16962409D01*
X40231632Y17165435D01*
X40109543Y17348154D01*
X40060697Y17397000D01*
X47650680Y17397000D01*
X47650680Y15877000D01*
X47657546Y15807290D01*
X47677879Y15740260D01*
X47710899Y15678484D01*
X47755337Y15624337D01*
X47809484Y15579899D01*
X47871260Y15546879D01*
X47938290Y15526546D01*
X48008000Y15519680D01*
X49528000Y15519680D01*
X49597710Y15526546D01*
X49664740Y15546879D01*
X49726516Y15579899D01*
X49780663Y15624337D01*
X49825101Y15678484D01*
X49858121Y15740260D01*
X49878454Y15807290D01*
X49885320Y15877000D01*
X49885320Y17397000D01*
X49878454Y17466710D01*
X49858121Y17533740D01*
X49825101Y17595516D01*
X49780663Y17649663D01*
X49726516Y17694101D01*
X49664740Y17727121D01*
X49597710Y17747454D01*
X49528000Y17754320D01*
X48008000Y17754320D01*
X47938290Y17747454D01*
X47871260Y17727121D01*
X47809484Y17694101D01*
X47755337Y17649663D01*
X47710899Y17595516D01*
X47677879Y17533740D01*
X47657546Y17466710D01*
X47650680Y17397000D01*
X40060697Y17397000D01*
X39954154Y17503543D01*
X39771435Y17625632D01*
X39568409Y17709728D01*
X39352877Y17752600D01*
X39133123Y17752600D01*
X38917591Y17709728D01*
X38714565Y17625632D01*
X38531846Y17503543D01*
X38376457Y17348154D01*
X38254368Y17165435D01*
X38170272Y16962409D01*
X38127400Y16746877D01*
X37818600Y16746877D01*
X37775728Y16962409D01*
X37691632Y17165435D01*
X37569543Y17348154D01*
X37414154Y17503543D01*
X37231435Y17625632D01*
X37028409Y17709728D01*
X36812877Y17752600D01*
X36593123Y17752600D01*
X36377591Y17709728D01*
X36174565Y17625632D01*
X35991846Y17503543D01*
X35836457Y17348154D01*
X35714368Y17165435D01*
X35630272Y16962409D01*
X35587400Y16746877D01*
X35280320Y16746877D01*
X35280320Y17397000D01*
X35273454Y17466710D01*
X35253121Y17533740D01*
X35220101Y17595516D01*
X35175663Y17649663D01*
X35121516Y17694101D01*
X35059740Y17727121D01*
X34992710Y17747454D01*
X34923000Y17754320D01*
X33403000Y17754320D01*
X33333290Y17747454D01*
X33266260Y17727121D01*
X33204484Y17694101D01*
X33150337Y17649663D01*
X33105899Y17595516D01*
X33072879Y17533740D01*
X33052546Y17466710D01*
X33045680Y17397000D01*
X18745200Y17397000D01*
X18745200Y19462254D01*
X18800966Y19518020D01*
X18873239Y19626183D01*
X18923021Y19746369D01*
X18948400Y19873956D01*
X18948400Y20004044D01*
X18923021Y20131631D01*
X18873239Y20251817D01*
X18800966Y20359980D01*
X18708980Y20451966D01*
X18600817Y20524239D01*
X18480631Y20574021D01*
X18353044Y20599400D01*
X18222956Y20599400D01*
X18095369Y20574021D01*
X17975183Y20524239D01*
X17867020Y20451966D01*
X17775034Y20359980D01*
X17702761Y20251817D01*
X17652979Y20131631D01*
X17627600Y20004044D01*
X17627600Y19873956D01*
X17652979Y19746369D01*
X17702761Y19626183D01*
X17775034Y19518020D01*
X17830800Y19462254D01*
X17830801Y10788315D01*
X17764302Y10760770D01*
X17583221Y10639776D01*
X17429224Y10485779D01*
X17308230Y10304698D01*
X17272000Y10217232D01*
X17235770Y10304698D01*
X17114776Y10485779D01*
X16960779Y10639776D01*
X16779698Y10760770D01*
X16578492Y10844113D01*
X16364892Y10886600D01*
X16147108Y10886600D01*
X15933508Y10844113D01*
X15732302Y10760770D01*
X15551221Y10639776D01*
X15397224Y10485779D01*
X15276230Y10304698D01*
X15192887Y10103492D01*
X15150400Y9889892D01*
X8463713Y9889892D01*
X7793893Y10559711D01*
X7781190Y10575190D01*
X7719429Y10625875D01*
X7648967Y10663538D01*
X7572511Y10686731D01*
X7512921Y10692600D01*
X7512918Y10692600D01*
X7493000Y10694562D01*
X7473082Y10692600D01*
X405600Y10692600D01*
X405600Y14709892D01*
X11842400Y14709892D01*
X11842400Y14492108D01*
X11884887Y14278508D01*
X11968230Y14077302D01*
X12089224Y13896221D01*
X12243221Y13742224D01*
X12424302Y13621230D01*
X12625508Y13537887D01*
X12839108Y13495400D01*
X13056892Y13495400D01*
X13270492Y13537887D01*
X13471698Y13621230D01*
X13652779Y13742224D01*
X13788821Y13878266D01*
X14515337Y13878266D01*
X14585040Y13702193D01*
X14772934Y13592077D01*
X14978702Y13520734D01*
X15194434Y13490905D01*
X15411839Y13503736D01*
X15622565Y13558734D01*
X15818512Y13653785D01*
X15890960Y13702193D01*
X15960663Y13878266D01*
X15238000Y14600929D01*
X14515337Y13878266D01*
X13788821Y13878266D01*
X13806776Y13896221D01*
X13927770Y14077302D01*
X14011113Y14278508D01*
X14053600Y14492108D01*
X14053600Y14644566D01*
X14127905Y14644566D01*
X14140736Y14427161D01*
X14195734Y14216435D01*
X14290785Y14020488D01*
X14339193Y13948040D01*
X14515266Y13878337D01*
X15237929Y14601000D01*
X15238071Y14601000D01*
X15960734Y13878337D01*
X16136807Y13948040D01*
X16246923Y14135934D01*
X16318266Y14341702D01*
X16348095Y14557434D01*
X16335264Y14774839D01*
X16280266Y14985565D01*
X16185215Y15181512D01*
X16136807Y15253960D01*
X15960734Y15323663D01*
X15238071Y14601000D01*
X15237929Y14601000D01*
X14515266Y15323663D01*
X14339193Y15253960D01*
X14229077Y15066066D01*
X14157734Y14860298D01*
X14127905Y14644566D01*
X14053600Y14644566D01*
X14053600Y14709892D01*
X14011113Y14923492D01*
X13927770Y15124698D01*
X13806776Y15305779D01*
X13788821Y15323734D01*
X14515337Y15323734D01*
X15238000Y14601071D01*
X15960663Y15323734D01*
X15890960Y15499807D01*
X15703066Y15609923D01*
X15497298Y15681266D01*
X15281566Y15711095D01*
X15064161Y15698264D01*
X14853435Y15643266D01*
X14657488Y15548215D01*
X14585040Y15499807D01*
X14515337Y15323734D01*
X13788821Y15323734D01*
X13652779Y15459776D01*
X13471698Y15580770D01*
X13270492Y15664113D01*
X13056892Y15706600D01*
X12839108Y15706600D01*
X12625508Y15664113D01*
X12424302Y15580770D01*
X12243221Y15459776D01*
X12089224Y15305779D01*
X11968230Y15124698D01*
X11884887Y14923492D01*
X11842400Y14709892D01*
X405600Y14709892D01*
X405600Y26145746D01*
X2482725Y26145746D01*
X2482994Y26132924D01*
X2483308Y26117939D01*
X2483621Y26102936D01*
X2483920Y26060125D01*
X2486137Y26022797D01*
X2486915Y26015859D01*
X2487203Y26013370D01*
X2539197Y25577336D01*
X2545018Y25542915D01*
X2554222Y25501051D01*
X2562825Y25459142D01*
X2571408Y25426188D01*
X2571383Y25426181D01*
X2571385Y25426174D01*
X2571466Y25425967D01*
X2572249Y25422959D01*
X2574357Y25416313D01*
X2575126Y25416557D01*
X2576039Y25414210D01*
X2575129Y25413914D01*
X2710824Y24996288D01*
X2723219Y24963655D01*
X2740374Y24924387D01*
X2756961Y24884931D01*
X2773233Y24851271D01*
X2776594Y24845157D01*
X2779283Y24846635D01*
X2780504Y24844463D01*
X2777812Y24842959D01*
X2992039Y24459643D01*
X3010536Y24430041D01*
X3034992Y24394852D01*
X3058927Y24359368D01*
X3068882Y24346157D01*
X3068875Y24346152D01*
X3068880Y24346145D01*
X3068935Y24346085D01*
X3081418Y24329519D01*
X3085899Y24324178D01*
X3087794Y24325767D01*
X3089508Y24323920D01*
X3087536Y24322242D01*
X3372136Y23987838D01*
X3396034Y23962390D01*
X3426850Y23932632D01*
X3457226Y23902467D01*
X3485071Y23877567D01*
X3490511Y23873192D01*
X3492496Y23871608D01*
X3836634Y23598848D01*
X3865020Y23578526D01*
X3900984Y23555349D01*
X3936682Y23531631D01*
X3951229Y23523028D01*
X3951220Y23523013D01*
X3951228Y23523008D01*
X3951437Y23522905D01*
X3968868Y23512596D01*
X3975046Y23509366D01*
X3975827Y23510861D01*
X3978078Y23509749D01*
X3977285Y23508206D01*
X4367840Y23307488D01*
X4399633Y23293066D01*
X4439465Y23277296D01*
X4479040Y23260984D01*
X4514272Y23248574D01*
X4520969Y23246602D01*
X4523410Y23245893D01*
X4945522Y23124854D01*
X4979505Y23116883D01*
X5021696Y23109139D01*
X5063643Y23100834D01*
X5081243Y23098297D01*
X5081237Y23098260D01*
X5081249Y23098258D01*
X5081876Y23098206D01*
X5100631Y23095503D01*
X5107570Y23094871D01*
X5107679Y23096070D01*
X5110205Y23095861D01*
X5110103Y23094649D01*
X5547676Y23057905D01*
X5582567Y23056687D01*
X5625376Y23057285D01*
X5668207Y23057285D01*
X5705520Y23059239D01*
X5712463Y23059968D01*
X5714981Y23060241D01*
X6151367Y23109190D01*
X6185826Y23114771D01*
X6227747Y23123681D01*
X6269719Y23131992D01*
X6305971Y23141165D01*
X6312636Y23143228D01*
X6312482Y23143725D01*
X6314925Y23144332D01*
X6315037Y23143979D01*
X6733597Y23276755D01*
X6766313Y23288922D01*
X6805695Y23305801D01*
X6845273Y23322114D01*
X6875017Y23336236D01*
X6875040Y23336191D01*
X6875044Y23336193D01*
X6875574Y23336500D01*
X6879027Y23338140D01*
X6885163Y23341457D01*
X6884913Y23341920D01*
X6887103Y23343191D01*
X6887389Y23342670D01*
X7272194Y23554219D01*
X7301924Y23572509D01*
X7337270Y23596710D01*
X7372930Y23620403D01*
X7402958Y23642704D01*
X7408337Y23647154D01*
X7410250Y23648748D01*
X7746638Y23931010D01*
X7772254Y23954731D01*
X7802229Y23985341D01*
X7832600Y24015500D01*
X7857738Y24043224D01*
X7862140Y24048622D01*
X7860496Y24049962D01*
X7862052Y24051902D01*
X7863714Y24050566D01*
X8138864Y24392783D01*
X8159383Y24421025D01*
X8182862Y24456905D01*
X8206778Y24492362D01*
X8226028Y24524397D01*
X8229306Y24530561D01*
X8230481Y24532789D01*
X8433925Y24921941D01*
X8448568Y24953631D01*
X8464630Y24993386D01*
X8481206Y25032820D01*
X8493869Y25067992D01*
X8495887Y25074675D01*
X8496604Y25077079D01*
X8620586Y25498336D01*
X8628794Y25532261D01*
X8636828Y25574375D01*
X8645430Y25616280D01*
X8651024Y25653269D01*
X8651704Y25660206D01*
X8650278Y25660346D01*
X8650502Y25662832D01*
X8651939Y25662701D01*
X8691737Y26100006D01*
X8693199Y26134883D01*
X8693124Y26145746D01*
X65982725Y26145746D01*
X65982994Y26132924D01*
X65983308Y26117939D01*
X65983621Y26102936D01*
X65983920Y26060125D01*
X65986137Y26022797D01*
X65986915Y26015859D01*
X65987203Y26013370D01*
X66039197Y25577336D01*
X66045018Y25542915D01*
X66054222Y25501051D01*
X66062825Y25459142D01*
X66071408Y25426188D01*
X66071383Y25426181D01*
X66071385Y25426174D01*
X66071466Y25425967D01*
X66072249Y25422959D01*
X66074357Y25416313D01*
X66075126Y25416557D01*
X66076039Y25414210D01*
X66075129Y25413914D01*
X66210824Y24996288D01*
X66223219Y24963655D01*
X66240374Y24924387D01*
X66256961Y24884931D01*
X66273233Y24851271D01*
X66276594Y24845157D01*
X66279283Y24846635D01*
X66280504Y24844463D01*
X66277812Y24842959D01*
X66492039Y24459643D01*
X66510536Y24430041D01*
X66534992Y24394852D01*
X66558927Y24359368D01*
X66568882Y24346157D01*
X66568875Y24346152D01*
X66568880Y24346145D01*
X66568935Y24346085D01*
X66581418Y24329519D01*
X66585899Y24324178D01*
X66587794Y24325767D01*
X66589508Y24323920D01*
X66587536Y24322242D01*
X66872136Y23987838D01*
X66896034Y23962390D01*
X66926850Y23932632D01*
X66957226Y23902467D01*
X66985071Y23877567D01*
X66990511Y23873192D01*
X66992496Y23871608D01*
X67336634Y23598848D01*
X67365020Y23578526D01*
X67400984Y23555349D01*
X67436682Y23531631D01*
X67451229Y23523028D01*
X67451220Y23523013D01*
X67451228Y23523008D01*
X67451437Y23522905D01*
X67468868Y23512596D01*
X67475046Y23509366D01*
X67475827Y23510861D01*
X67478078Y23509749D01*
X67477285Y23508206D01*
X67867840Y23307488D01*
X67899633Y23293066D01*
X67939465Y23277296D01*
X67979040Y23260984D01*
X68014272Y23248574D01*
X68020969Y23246602D01*
X68023410Y23245893D01*
X68445522Y23124854D01*
X68479505Y23116883D01*
X68521696Y23109139D01*
X68563643Y23100834D01*
X68581243Y23098297D01*
X68581237Y23098260D01*
X68581249Y23098258D01*
X68581876Y23098206D01*
X68600631Y23095503D01*
X68607570Y23094871D01*
X68607679Y23096070D01*
X68610205Y23095861D01*
X68610103Y23094649D01*
X69047676Y23057905D01*
X69082567Y23056687D01*
X69125376Y23057285D01*
X69168207Y23057285D01*
X69205520Y23059239D01*
X69212463Y23059968D01*
X69214981Y23060241D01*
X69651367Y23109190D01*
X69685826Y23114771D01*
X69727747Y23123681D01*
X69769719Y23131992D01*
X69805971Y23141165D01*
X69812636Y23143228D01*
X69812482Y23143725D01*
X69814925Y23144332D01*
X69815037Y23143979D01*
X70233597Y23276755D01*
X70266313Y23288922D01*
X70305695Y23305801D01*
X70345273Y23322114D01*
X70375017Y23336236D01*
X70375040Y23336191D01*
X70375044Y23336193D01*
X70375574Y23336500D01*
X70379027Y23338140D01*
X70385163Y23341457D01*
X70384913Y23341920D01*
X70387103Y23343191D01*
X70387389Y23342670D01*
X70772194Y23554219D01*
X70801924Y23572509D01*
X70837270Y23596710D01*
X70872930Y23620403D01*
X70902958Y23642704D01*
X70908337Y23647154D01*
X70910250Y23648748D01*
X71246638Y23931010D01*
X71272254Y23954731D01*
X71302229Y23985341D01*
X71332600Y24015500D01*
X71357738Y24043224D01*
X71362140Y24048622D01*
X71360496Y24049962D01*
X71362052Y24051902D01*
X71363714Y24050566D01*
X71638864Y24392783D01*
X71659383Y24421025D01*
X71682862Y24456905D01*
X71706778Y24492362D01*
X71726028Y24524397D01*
X71729306Y24530561D01*
X71730481Y24532789D01*
X71933925Y24921941D01*
X71948568Y24953631D01*
X71964630Y24993386D01*
X71981206Y25032820D01*
X71993869Y25067992D01*
X71995887Y25074675D01*
X71996604Y25077079D01*
X72120586Y25498336D01*
X72128794Y25532261D01*
X72136828Y25574375D01*
X72145430Y25616280D01*
X72151024Y25653269D01*
X72151704Y25660206D01*
X72150278Y25660346D01*
X72150502Y25662832D01*
X72151939Y25662701D01*
X72191737Y26100006D01*
X72193199Y26134883D01*
X72192900Y26177707D01*
X72193199Y26220532D01*
X72191504Y26257879D01*
X72190823Y26264827D01*
X72190570Y26267322D01*
X72144669Y26704039D01*
X72139328Y26738539D01*
X72130711Y26780517D01*
X72122694Y26822547D01*
X72113767Y26858887D01*
X72111752Y26865560D01*
X72109706Y26864942D01*
X72108953Y26867310D01*
X72111021Y26867950D01*
X71981172Y27287426D01*
X71969234Y27320226D01*
X71952627Y27359735D01*
X71936595Y27399414D01*
X71924613Y27425111D01*
X71924207Y27426227D01*
X71923713Y27427041D01*
X71920799Y27433291D01*
X71917522Y27439455D01*
X71916509Y27438916D01*
X71915204Y27441067D01*
X71916331Y27441676D01*
X71707477Y27827946D01*
X71689393Y27857806D01*
X71665424Y27893341D01*
X71641992Y27929148D01*
X71619935Y27959289D01*
X71615523Y27964700D01*
X71613911Y27966663D01*
X71334003Y28305012D01*
X71310467Y28330788D01*
X71280027Y28361017D01*
X71250117Y28391560D01*
X71222588Y28416875D01*
X71217215Y28421320D01*
X71215371Y28419091D01*
X71213389Y28420605D01*
X71215273Y28422915D01*
X70874984Y28700449D01*
X70846886Y28721164D01*
X70811204Y28744872D01*
X70775876Y28769060D01*
X70743969Y28788537D01*
X70737833Y28791855D01*
X70737430Y28791110D01*
X70735290Y28792433D01*
X70735615Y28793045D01*
X70347896Y28999199D01*
X70316307Y29014063D01*
X70276714Y29030382D01*
X70237352Y29047252D01*
X70202297Y29060152D01*
X70195629Y29062217D01*
X70193201Y29062960D01*
X69772819Y29189880D01*
X69738948Y29198324D01*
X69696979Y29206634D01*
X69655053Y29215546D01*
X69618125Y29221395D01*
X69611182Y29222125D01*
X69608688Y29222379D01*
X69171661Y29265230D01*
X69136792Y29266935D01*
X69129807Y29266935D01*
X69122872Y29267615D01*
X69085494Y29269312D01*
X69078513Y29269263D01*
X69076033Y29269237D01*
X69013209Y29268360D01*
X68978378Y29266169D01*
X68971438Y29265391D01*
X68964444Y29265293D01*
X68927112Y29262812D01*
X68920180Y29261985D01*
X68917725Y29261683D01*
X68482065Y29206646D01*
X68447685Y29200584D01*
X68405968Y29191106D01*
X68364040Y29182194D01*
X68327934Y29172520D01*
X68321294Y29170363D01*
X68318903Y29169577D01*
X67902230Y29030968D01*
X67869687Y29018346D01*
X67830560Y29000926D01*
X67791200Y28984056D01*
X67757628Y28967535D01*
X67751538Y28964131D01*
X67753042Y28961440D01*
X67750894Y28960233D01*
X67749373Y28962911D01*
X67367562Y28746013D01*
X67338086Y28727307D01*
X67303099Y28702627D01*
X67267757Y28678427D01*
X67238054Y28655718D01*
X67232738Y28651194D01*
X67230836Y28649564D01*
X66898422Y28362632D01*
X66873144Y28338560D01*
X66843594Y28307530D01*
X66813643Y28276944D01*
X66788932Y28248917D01*
X66784595Y28243446D01*
X66783034Y28241463D01*
X66512683Y27895429D01*
X66492557Y27866898D01*
X66469614Y27830744D01*
X66446169Y27794918D01*
X66427353Y27762589D01*
X66424162Y27756380D01*
X66423029Y27754157D01*
X66225038Y27362202D01*
X66210839Y27330310D01*
X66195331Y27290328D01*
X66179313Y27250683D01*
X66169808Y27223083D01*
X66169707Y27223117D01*
X66169705Y27223111D01*
X66169331Y27221699D01*
X66167148Y27215361D01*
X66165225Y27208658D01*
X66165829Y27208485D01*
X66165177Y27206024D01*
X66164531Y27206204D01*
X66046443Y26783257D01*
X66038709Y26749217D01*
X66031263Y26706989D01*
X66023249Y26664977D01*
X66018171Y26627902D01*
X66017588Y26620954D01*
X66019280Y26620812D01*
X66019036Y26618345D01*
X66017388Y26618472D01*
X65983699Y26180655D01*
X65982725Y26145746D01*
X8693124Y26145746D01*
X8692900Y26177707D01*
X8693199Y26220532D01*
X8691504Y26257879D01*
X8690823Y26264827D01*
X8690570Y26267322D01*
X8644669Y26704039D01*
X8639328Y26738539D01*
X8630711Y26780517D01*
X8622694Y26822547D01*
X8613767Y26858887D01*
X8611752Y26865560D01*
X8609706Y26864942D01*
X8608953Y26867310D01*
X8611021Y26867950D01*
X8481172Y27287426D01*
X8469234Y27320226D01*
X8452627Y27359735D01*
X8436595Y27399414D01*
X8424613Y27425111D01*
X8424207Y27426227D01*
X8423713Y27427041D01*
X8420799Y27433291D01*
X8417522Y27439455D01*
X8416509Y27438916D01*
X8415204Y27441067D01*
X8416331Y27441676D01*
X8247021Y27754812D01*
X34754811Y27754812D01*
X34754811Y27624724D01*
X34780190Y27497137D01*
X34829972Y27376951D01*
X34902245Y27268788D01*
X34994231Y27176802D01*
X35102394Y27104529D01*
X35222580Y27054747D01*
X35350167Y27029368D01*
X35480255Y27029368D01*
X35607842Y27054747D01*
X35728028Y27104529D01*
X35836191Y27176802D01*
X35928177Y27268788D01*
X36000450Y27376951D01*
X36044294Y27482800D01*
X36319029Y27482800D01*
X36296600Y27370044D01*
X36296600Y27239956D01*
X36321979Y27112369D01*
X36371761Y26992183D01*
X36444034Y26884020D01*
X36536020Y26792034D01*
X36644183Y26719761D01*
X36764369Y26669979D01*
X36891956Y26644600D01*
X37022044Y26644600D01*
X37149631Y26669979D01*
X37269817Y26719761D01*
X37377980Y26792034D01*
X37433746Y26847800D01*
X53444550Y26847800D01*
X53467000Y26845589D01*
X53489450Y26847800D01*
X53489460Y26847800D01*
X53556627Y26854415D01*
X53642809Y26880559D01*
X53722236Y26923013D01*
X53791853Y26980147D01*
X53806174Y26997597D01*
X54799378Y27990800D01*
X56111550Y27990800D01*
X56134000Y27988589D01*
X56156450Y27990800D01*
X56156460Y27990800D01*
X56223627Y27997415D01*
X56309809Y28023559D01*
X56389236Y28066013D01*
X56458853Y28123147D01*
X56473174Y28140597D01*
X57192473Y28859896D01*
X57306340Y28812731D01*
X57539259Y28766400D01*
X57776741Y28766400D01*
X58009660Y28812731D01*
X58229066Y28903611D01*
X58426525Y29035550D01*
X58594450Y29203475D01*
X58726389Y29400934D01*
X58817269Y29620340D01*
X58863600Y29853259D01*
X58863600Y30090741D01*
X58992400Y30090741D01*
X58992400Y29853259D01*
X59038731Y29620340D01*
X59129611Y29400934D01*
X59261550Y29203475D01*
X59429475Y29035550D01*
X59626934Y28903611D01*
X59846340Y28812731D01*
X60079259Y28766400D01*
X60316741Y28766400D01*
X60549660Y28812731D01*
X60769066Y28903611D01*
X60966525Y29035550D01*
X61134450Y29203475D01*
X61266389Y29400934D01*
X61357269Y29620340D01*
X61403600Y29853259D01*
X61403600Y30090741D01*
X61357269Y30323660D01*
X61266389Y30543066D01*
X61134450Y30740525D01*
X60966525Y30908450D01*
X60769066Y31040389D01*
X60549660Y31131269D01*
X60316741Y31177600D01*
X60079259Y31177600D01*
X59846340Y31131269D01*
X59626934Y31040389D01*
X59429475Y30908450D01*
X59261550Y30740525D01*
X59129611Y30543066D01*
X59038731Y30323660D01*
X58992400Y30090741D01*
X58863600Y30090741D01*
X58817269Y30323660D01*
X58726389Y30543066D01*
X58594450Y30740525D01*
X58426525Y30908450D01*
X58229066Y31040389D01*
X58009660Y31131269D01*
X57776741Y31177600D01*
X57539259Y31177600D01*
X57306340Y31131269D01*
X57086934Y31040389D01*
X56889475Y30908450D01*
X56721550Y30740525D01*
X56589611Y30543066D01*
X56498731Y30323660D01*
X56452400Y30090741D01*
X56452400Y29853259D01*
X56498731Y29620340D01*
X56545896Y29506473D01*
X55944623Y28905200D01*
X55691444Y28905200D01*
X55886525Y29035550D01*
X56054450Y29203475D01*
X56186389Y29400934D01*
X56277269Y29620340D01*
X56323600Y29853259D01*
X56323600Y30090741D01*
X56277269Y30323660D01*
X56186389Y30543066D01*
X56054450Y30740525D01*
X55886525Y30908450D01*
X55689066Y31040389D01*
X55469660Y31131269D01*
X55236741Y31177600D01*
X54999259Y31177600D01*
X54766340Y31131269D01*
X54546934Y31040389D01*
X54349475Y30908450D01*
X54181550Y30740525D01*
X54049611Y30543066D01*
X53958731Y30323660D01*
X53912400Y30090741D01*
X53912400Y29853259D01*
X53958731Y29620340D01*
X54005896Y29506473D01*
X52896623Y28397200D01*
X51388560Y28397200D01*
X51435021Y28509369D01*
X51460400Y28636956D01*
X51460400Y28767044D01*
X51435021Y28894631D01*
X51385239Y29014817D01*
X51312966Y29122980D01*
X51220980Y29214966D01*
X51112817Y29287239D01*
X51048281Y29313970D01*
X51106389Y29400934D01*
X51197269Y29620340D01*
X51243600Y29853259D01*
X51243600Y30090741D01*
X51372400Y30090741D01*
X51372400Y29853259D01*
X51418731Y29620340D01*
X51509611Y29400934D01*
X51641550Y29203475D01*
X51809475Y29035550D01*
X52006934Y28903611D01*
X52226340Y28812731D01*
X52459259Y28766400D01*
X52696741Y28766400D01*
X52929660Y28812731D01*
X53149066Y28903611D01*
X53346525Y29035550D01*
X53514450Y29203475D01*
X53646389Y29400934D01*
X53737269Y29620340D01*
X53783600Y29853259D01*
X53783600Y30090741D01*
X53737269Y30323660D01*
X53646389Y30543066D01*
X53514450Y30740525D01*
X53346525Y30908450D01*
X53149066Y31040389D01*
X52929660Y31131269D01*
X52696741Y31177600D01*
X52459259Y31177600D01*
X52226340Y31131269D01*
X52006934Y31040389D01*
X51809475Y30908450D01*
X51641550Y30740525D01*
X51509611Y30543066D01*
X51418731Y30323660D01*
X51372400Y30090741D01*
X51243600Y30090741D01*
X51197269Y30323660D01*
X51106389Y30543066D01*
X50974450Y30740525D01*
X50806525Y30908450D01*
X50609066Y31040389D01*
X50389660Y31131269D01*
X50156741Y31177600D01*
X49919259Y31177600D01*
X49686340Y31131269D01*
X49466934Y31040389D01*
X49269475Y30908450D01*
X49101550Y30740525D01*
X48969611Y30543066D01*
X48878731Y30323660D01*
X48832400Y30090741D01*
X48832400Y29853259D01*
X48878731Y29620340D01*
X48969611Y29400934D01*
X49101550Y29203475D01*
X49145825Y29159200D01*
X48390175Y29159200D01*
X48434450Y29203475D01*
X48566389Y29400934D01*
X48657269Y29620340D01*
X48703600Y29853259D01*
X48703600Y30090741D01*
X48657269Y30323660D01*
X48566389Y30543066D01*
X48434450Y30740525D01*
X48266525Y30908450D01*
X48069066Y31040389D01*
X47849660Y31131269D01*
X47616741Y31177600D01*
X47379259Y31177600D01*
X47146340Y31131269D01*
X46926934Y31040389D01*
X46729475Y30908450D01*
X46561550Y30740525D01*
X46429611Y30543066D01*
X46338731Y30323660D01*
X46292400Y30090741D01*
X46292400Y29853259D01*
X46338731Y29620340D01*
X46429611Y29400934D01*
X46561550Y29203475D01*
X46605825Y29159200D01*
X45850175Y29159200D01*
X45894450Y29203475D01*
X46026389Y29400934D01*
X46117269Y29620340D01*
X46163600Y29853259D01*
X46163600Y30090741D01*
X46117269Y30323660D01*
X46026389Y30543066D01*
X45894450Y30740525D01*
X45726525Y30908450D01*
X45529066Y31040389D01*
X45309660Y31131269D01*
X45076741Y31177600D01*
X44839259Y31177600D01*
X44606340Y31131269D01*
X44386934Y31040389D01*
X44189475Y30908450D01*
X44021550Y30740525D01*
X43889611Y30543066D01*
X43798731Y30323660D01*
X43752400Y30090741D01*
X43752400Y29853259D01*
X43798731Y29620340D01*
X43889611Y29400934D01*
X44021550Y29203475D01*
X44065825Y29159200D01*
X43310175Y29159200D01*
X43354450Y29203475D01*
X43486389Y29400934D01*
X43577269Y29620340D01*
X43623600Y29853259D01*
X43623600Y30090741D01*
X43577269Y30323660D01*
X43486389Y30543066D01*
X43354450Y30740525D01*
X43186525Y30908450D01*
X42989066Y31040389D01*
X42769660Y31131269D01*
X42536741Y31177600D01*
X42299259Y31177600D01*
X42066340Y31131269D01*
X41846934Y31040389D01*
X41649475Y30908450D01*
X41481550Y30740525D01*
X41349611Y30543066D01*
X41258731Y30323660D01*
X41212400Y30090741D01*
X41212400Y29853259D01*
X41258731Y29620340D01*
X41349611Y29400934D01*
X41481550Y29203475D01*
X41525825Y29159200D01*
X41497746Y29159200D01*
X41441980Y29214966D01*
X41333817Y29287239D01*
X41213631Y29337021D01*
X41086044Y29362400D01*
X40955956Y29362400D01*
X40915228Y29354299D01*
X40946389Y29400934D01*
X41037269Y29620340D01*
X41083600Y29853259D01*
X41083600Y30090741D01*
X41037269Y30323660D01*
X40946389Y30543066D01*
X40814450Y30740525D01*
X40646525Y30908450D01*
X40449066Y31040389D01*
X40229660Y31131269D01*
X39996741Y31177600D01*
X39759259Y31177600D01*
X39526340Y31131269D01*
X39306934Y31040389D01*
X39109475Y30908450D01*
X38941550Y30740525D01*
X38809611Y30543066D01*
X38718731Y30323660D01*
X38672400Y30090741D01*
X38672400Y29853259D01*
X38718731Y29620340D01*
X38809611Y29400934D01*
X38941550Y29203475D01*
X39109475Y29035550D01*
X39306934Y28903611D01*
X39526340Y28812731D01*
X39759259Y28766400D01*
X39996741Y28766400D01*
X40229660Y28812731D01*
X40382261Y28875940D01*
X40360600Y28767044D01*
X40360600Y28636956D01*
X40385979Y28509369D01*
X40432440Y28397200D01*
X35687892Y28397200D01*
X35665442Y28399411D01*
X35642992Y28397200D01*
X35642983Y28397200D01*
X35575816Y28390585D01*
X35489634Y28364441D01*
X35462931Y28350168D01*
X35350167Y28350168D01*
X35222580Y28324789D01*
X35102394Y28275007D01*
X34994231Y28202734D01*
X34902245Y28110748D01*
X34829972Y28002585D01*
X34780190Y27882399D01*
X34754811Y27754812D01*
X8247021Y27754812D01*
X8207477Y27827946D01*
X8189393Y27857806D01*
X8165424Y27893341D01*
X8141992Y27929148D01*
X8119935Y27959289D01*
X8115523Y27964700D01*
X8113911Y27966663D01*
X7834003Y28305012D01*
X7810467Y28330788D01*
X7780027Y28361017D01*
X7750117Y28391560D01*
X7722588Y28416875D01*
X7717215Y28421320D01*
X7715371Y28419091D01*
X7713389Y28420605D01*
X7715273Y28422915D01*
X7374984Y28700449D01*
X7346886Y28721164D01*
X7311204Y28744872D01*
X7275876Y28769060D01*
X7243969Y28788537D01*
X7237833Y28791855D01*
X7237430Y28791110D01*
X7235290Y28792433D01*
X7235615Y28793045D01*
X6847896Y28999199D01*
X6816307Y29014063D01*
X6776714Y29030382D01*
X6737352Y29047252D01*
X6702297Y29060152D01*
X6695629Y29062217D01*
X6693201Y29062960D01*
X6272819Y29189880D01*
X6238948Y29198324D01*
X6196979Y29206634D01*
X6155053Y29215546D01*
X6118125Y29221395D01*
X6111182Y29222125D01*
X6108688Y29222379D01*
X5671661Y29265230D01*
X5636792Y29266935D01*
X5629807Y29266935D01*
X5622872Y29267615D01*
X5585494Y29269312D01*
X5578513Y29269263D01*
X5576033Y29269237D01*
X5513209Y29268360D01*
X5478378Y29266169D01*
X5471438Y29265391D01*
X5464444Y29265293D01*
X5427112Y29262812D01*
X5420180Y29261985D01*
X5417725Y29261683D01*
X4982065Y29206646D01*
X4947685Y29200584D01*
X4905968Y29191106D01*
X4864040Y29182194D01*
X4827934Y29172520D01*
X4821294Y29170363D01*
X4818903Y29169577D01*
X4402230Y29030968D01*
X4369687Y29018346D01*
X4330560Y29000926D01*
X4291200Y28984056D01*
X4257628Y28967535D01*
X4251538Y28964131D01*
X4253042Y28961440D01*
X4250894Y28960233D01*
X4249373Y28962911D01*
X3867562Y28746013D01*
X3838086Y28727307D01*
X3803099Y28702627D01*
X3767757Y28678427D01*
X3738054Y28655718D01*
X3732738Y28651194D01*
X3730836Y28649564D01*
X3398422Y28362632D01*
X3373144Y28338560D01*
X3343594Y28307530D01*
X3313643Y28276944D01*
X3288932Y28248917D01*
X3284595Y28243446D01*
X3283034Y28241463D01*
X3012683Y27895429D01*
X2992557Y27866898D01*
X2969614Y27830744D01*
X2946169Y27794918D01*
X2927353Y27762589D01*
X2924162Y27756380D01*
X2923029Y27754157D01*
X2725038Y27362202D01*
X2710839Y27330310D01*
X2695331Y27290328D01*
X2679313Y27250683D01*
X2669808Y27223083D01*
X2669707Y27223117D01*
X2669705Y27223111D01*
X2669331Y27221699D01*
X2667148Y27215361D01*
X2665225Y27208658D01*
X2665829Y27208485D01*
X2665177Y27206024D01*
X2664531Y27206204D01*
X2546443Y26783257D01*
X2538709Y26749217D01*
X2531263Y26706989D01*
X2523249Y26664977D01*
X2518171Y26627902D01*
X2517588Y26620954D01*
X2519280Y26620812D01*
X2519036Y26618345D01*
X2517388Y26618472D01*
X2483699Y26180655D01*
X2482725Y26145746D01*
X405600Y26145746D01*
X405600Y30822000D01*
X20890680Y30822000D01*
X20890680Y29122000D01*
X20897546Y29052290D01*
X20917879Y28985260D01*
X20950899Y28923484D01*
X20995337Y28869337D01*
X21049484Y28824899D01*
X21111260Y28791879D01*
X21178290Y28771546D01*
X21248000Y28764680D01*
X22948000Y28764680D01*
X23017710Y28771546D01*
X23084740Y28791879D01*
X23146516Y28824899D01*
X23200663Y28869337D01*
X23245101Y28923484D01*
X23278121Y28985260D01*
X23298454Y29052290D01*
X23305320Y29122000D01*
X23305320Y30090741D01*
X23432400Y30090741D01*
X23432400Y29853259D01*
X23478731Y29620340D01*
X23569611Y29400934D01*
X23701550Y29203475D01*
X23869475Y29035550D01*
X24066934Y28903611D01*
X24286340Y28812731D01*
X24519259Y28766400D01*
X24756741Y28766400D01*
X24989660Y28812731D01*
X25209066Y28903611D01*
X25406525Y29035550D01*
X25574450Y29203475D01*
X25706389Y29400934D01*
X25797269Y29620340D01*
X25843600Y29853259D01*
X25843600Y30090741D01*
X25972400Y30090741D01*
X25972400Y29853259D01*
X26018731Y29620340D01*
X26109611Y29400934D01*
X26241550Y29203475D01*
X26409475Y29035550D01*
X26606934Y28903611D01*
X26826340Y28812731D01*
X27059259Y28766400D01*
X27296741Y28766400D01*
X27529660Y28812731D01*
X27749066Y28903611D01*
X27946525Y29035550D01*
X28114450Y29203475D01*
X28246389Y29400934D01*
X28337269Y29620340D01*
X28369694Y29783353D01*
X28527251Y29783353D01*
X28586934Y29554674D01*
X28690083Y29342033D01*
X28832735Y29153601D01*
X29009407Y28996620D01*
X29213310Y28877122D01*
X29436608Y28799700D01*
X29529353Y28781251D01*
X29717950Y28855300D01*
X29717950Y29971950D01*
X29718050Y29971950D01*
X29718050Y28855300D01*
X29906647Y28781251D01*
X29999392Y28799700D01*
X30222690Y28877122D01*
X30426593Y28996620D01*
X30603265Y29153601D01*
X30745917Y29342033D01*
X30849066Y29554674D01*
X30908749Y29783353D01*
X30834700Y29971950D01*
X29718050Y29971950D01*
X29717950Y29971950D01*
X28601300Y29971950D01*
X28527251Y29783353D01*
X28369694Y29783353D01*
X28383600Y29853259D01*
X28383600Y30090741D01*
X28369695Y30160647D01*
X28527251Y30160647D01*
X28601300Y29972050D01*
X29717950Y29972050D01*
X29717950Y31088700D01*
X29718050Y31088700D01*
X29718050Y29972050D01*
X30834700Y29972050D01*
X30881301Y30090741D01*
X31052400Y30090741D01*
X31052400Y29853259D01*
X31098731Y29620340D01*
X31189611Y29400934D01*
X31321550Y29203475D01*
X31489475Y29035550D01*
X31686934Y28903611D01*
X31906340Y28812731D01*
X32139259Y28766400D01*
X32376741Y28766400D01*
X32609660Y28812731D01*
X32829066Y28903611D01*
X33026525Y29035550D01*
X33194450Y29203475D01*
X33326389Y29400934D01*
X33417269Y29620340D01*
X33463600Y29853259D01*
X33463600Y30090741D01*
X33592400Y30090741D01*
X33592400Y29853259D01*
X33638731Y29620340D01*
X33729611Y29400934D01*
X33861550Y29203475D01*
X34029475Y29035550D01*
X34226934Y28903611D01*
X34446340Y28812731D01*
X34679259Y28766400D01*
X34916741Y28766400D01*
X35149660Y28812731D01*
X35369066Y28903611D01*
X35566525Y29035550D01*
X35734450Y29203475D01*
X35866389Y29400934D01*
X35957269Y29620340D01*
X36003600Y29853259D01*
X36003600Y30090741D01*
X36132400Y30090741D01*
X36132400Y29853259D01*
X36178731Y29620340D01*
X36269611Y29400934D01*
X36401550Y29203475D01*
X36569475Y29035550D01*
X36766934Y28903611D01*
X36986340Y28812731D01*
X37219259Y28766400D01*
X37456741Y28766400D01*
X37689660Y28812731D01*
X37909066Y28903611D01*
X38106525Y29035550D01*
X38274450Y29203475D01*
X38406389Y29400934D01*
X38497269Y29620340D01*
X38543600Y29853259D01*
X38543600Y30090741D01*
X38497269Y30323660D01*
X38406389Y30543066D01*
X38274450Y30740525D01*
X38106525Y30908450D01*
X37909066Y31040389D01*
X37689660Y31131269D01*
X37456741Y31177600D01*
X37219259Y31177600D01*
X36986340Y31131269D01*
X36766934Y31040389D01*
X36569475Y30908450D01*
X36401550Y30740525D01*
X36269611Y30543066D01*
X36178731Y30323660D01*
X36132400Y30090741D01*
X36003600Y30090741D01*
X35957269Y30323660D01*
X35866389Y30543066D01*
X35734450Y30740525D01*
X35566525Y30908450D01*
X35369066Y31040389D01*
X35149660Y31131269D01*
X34916741Y31177600D01*
X34679259Y31177600D01*
X34446340Y31131269D01*
X34226934Y31040389D01*
X34029475Y30908450D01*
X33861550Y30740525D01*
X33729611Y30543066D01*
X33638731Y30323660D01*
X33592400Y30090741D01*
X33463600Y30090741D01*
X33417269Y30323660D01*
X33326389Y30543066D01*
X33194450Y30740525D01*
X33026525Y30908450D01*
X32829066Y31040389D01*
X32609660Y31131269D01*
X32376741Y31177600D01*
X32139259Y31177600D01*
X31906340Y31131269D01*
X31686934Y31040389D01*
X31489475Y30908450D01*
X31321550Y30740525D01*
X31189611Y30543066D01*
X31098731Y30323660D01*
X31052400Y30090741D01*
X30881301Y30090741D01*
X30908749Y30160647D01*
X30849066Y30389326D01*
X30745917Y30601967D01*
X30603265Y30790399D01*
X30426593Y30947380D01*
X30222690Y31066878D01*
X29999392Y31144300D01*
X29906647Y31162749D01*
X29718050Y31088700D01*
X29717950Y31088700D01*
X29529353Y31162749D01*
X29436608Y31144300D01*
X29213310Y31066878D01*
X29009407Y30947380D01*
X28832735Y30790399D01*
X28690083Y30601967D01*
X28586934Y30389326D01*
X28527251Y30160647D01*
X28369695Y30160647D01*
X28337269Y30323660D01*
X28246389Y30543066D01*
X28114450Y30740525D01*
X27946525Y30908450D01*
X27749066Y31040389D01*
X27529660Y31131269D01*
X27296741Y31177600D01*
X27059259Y31177600D01*
X26826340Y31131269D01*
X26606934Y31040389D01*
X26409475Y30908450D01*
X26241550Y30740525D01*
X26109611Y30543066D01*
X26018731Y30323660D01*
X25972400Y30090741D01*
X25843600Y30090741D01*
X25797269Y30323660D01*
X25706389Y30543066D01*
X25574450Y30740525D01*
X25406525Y30908450D01*
X25209066Y31040389D01*
X24989660Y31131269D01*
X24756741Y31177600D01*
X24519259Y31177600D01*
X24286340Y31131269D01*
X24066934Y31040389D01*
X23869475Y30908450D01*
X23701550Y30740525D01*
X23569611Y30543066D01*
X23478731Y30323660D01*
X23432400Y30090741D01*
X23305320Y30090741D01*
X23305320Y30822000D01*
X23298454Y30891710D01*
X23278121Y30958740D01*
X23245101Y31020516D01*
X23200663Y31074663D01*
X23146516Y31119101D01*
X23084740Y31152121D01*
X23017710Y31172454D01*
X22948000Y31179320D01*
X21248000Y31179320D01*
X21178290Y31172454D01*
X21111260Y31152121D01*
X21049484Y31119101D01*
X20995337Y31074663D01*
X20950899Y31020516D01*
X20917879Y30958740D01*
X20897546Y30891710D01*
X20890680Y30822000D01*
X405600Y30822000D01*
X405600Y40197841D01*
X19442938Y40197841D01*
X19444281Y40175093D01*
X19445400Y39712950D01*
X19534300Y39624050D01*
X19791665Y39624050D01*
X19791836Y39623950D01*
X19534300Y39623950D01*
X19445400Y39535050D01*
X19444367Y39108177D01*
X19442938Y39097841D01*
X19444287Y39075007D01*
X19443679Y38824000D01*
X19450545Y38754290D01*
X19470878Y38687259D01*
X19503898Y38625483D01*
X19548336Y38571336D01*
X19602483Y38526898D01*
X19664259Y38493878D01*
X19731290Y38473545D01*
X19801000Y38466679D01*
X20018460Y38467140D01*
X20027159Y38465938D01*
X20048602Y38467204D01*
X20612050Y38468400D01*
X20700950Y38557300D01*
X20700950Y39623950D01*
X20310335Y39623950D01*
X20310164Y39624050D01*
X20700950Y39624050D01*
X20700950Y40690700D01*
X20701050Y40690700D01*
X20701050Y39624050D01*
X21091665Y39624050D01*
X21091836Y39623950D01*
X20701050Y39623950D01*
X20701050Y38557300D01*
X20789950Y38468400D01*
X21317446Y38467281D01*
X21327159Y38465938D01*
X21348768Y38467214D01*
X21601000Y38466679D01*
X21670710Y38473545D01*
X21737741Y38493878D01*
X21799517Y38526898D01*
X21853664Y38571336D01*
X21898102Y38625483D01*
X21931122Y38687259D01*
X21951455Y38754290D01*
X21958321Y38824000D01*
X21957796Y39040999D01*
X21959062Y39050159D01*
X21957719Y39072907D01*
X21956600Y39535050D01*
X21867700Y39623950D01*
X21610335Y39623950D01*
X21610164Y39624050D01*
X21867700Y39624050D01*
X21956600Y39712950D01*
X21957633Y40139823D01*
X21959062Y40150159D01*
X21957713Y40172993D01*
X21958321Y40424000D01*
X21951455Y40493710D01*
X21931122Y40560741D01*
X21898102Y40622517D01*
X21853664Y40676664D01*
X21799517Y40721102D01*
X21737741Y40754122D01*
X21670710Y40774455D01*
X21601000Y40781321D01*
X21383540Y40780860D01*
X21374841Y40782062D01*
X21353398Y40780796D01*
X20789950Y40779600D01*
X20701050Y40690700D01*
X20700950Y40690700D01*
X20612050Y40779600D01*
X20084554Y40780719D01*
X20074841Y40782062D01*
X20053232Y40780786D01*
X19801000Y40781321D01*
X19731290Y40774455D01*
X19664259Y40754122D01*
X19602483Y40721102D01*
X19548336Y40676664D01*
X19503898Y40622517D01*
X19470878Y40560741D01*
X19450545Y40493710D01*
X19443679Y40424000D01*
X19444204Y40207001D01*
X19442938Y40197841D01*
X405600Y40197841D01*
X405600Y51029400D01*
X9460680Y51029400D01*
X9460680Y49442000D01*
G36*
X14720083Y50921967D02*
G01*
X14616934Y50709326D01*
X14557251Y50480647D01*
X14631300Y50292050D01*
X15747950Y50292050D01*
X15747950Y50312050D01*
X15748050Y50312050D01*
X15748050Y50292050D01*
X16864700Y50292050D01*
X16938749Y50480647D01*
X16879066Y50709326D01*
X16775917Y50921967D01*
X16694585Y51029400D01*
X17330753Y51029400D01*
X17219611Y50863066D01*
X17128731Y50643660D01*
X17082400Y50410741D01*
X17082400Y50173259D01*
X17128731Y49940340D01*
X17219611Y49720934D01*
X17351550Y49523475D01*
X17519475Y49355550D01*
X17716934Y49223611D01*
X17936340Y49132731D01*
X18169259Y49086400D01*
X18406741Y49086400D01*
X18639660Y49132731D01*
X18753527Y49179896D01*
X19597222Y48336200D01*
X15810378Y48336200D01*
X14320104Y49826473D01*
X14367269Y49940340D01*
X14399694Y50103353D01*
X14557251Y50103353D01*
X14616934Y49874674D01*
X14720083Y49662033D01*
X14862735Y49473601D01*
X15039407Y49316620D01*
X15243310Y49197122D01*
X15466608Y49119700D01*
X15559353Y49101251D01*
X15747950Y49175300D01*
X15747950Y50291950D01*
X15748050Y50291950D01*
X15748050Y49175300D01*
X15936647Y49101251D01*
X16029392Y49119700D01*
X16252690Y49197122D01*
X16456593Y49316620D01*
X16633265Y49473601D01*
X16775917Y49662033D01*
X16879066Y49874674D01*
X16938749Y50103353D01*
X16864700Y50291950D01*
X15748050Y50291950D01*
X15747950Y50291950D01*
X14631300Y50291950D01*
X14557251Y50103353D01*
X14399694Y50103353D01*
X14413600Y50173259D01*
X14413600Y50410741D01*
X14367269Y50643660D01*
X14276389Y50863066D01*
X14165247Y51029400D01*
X14801415Y51029400D01*
X14720083Y50921967D01*
G37*
X14720083Y50921967D02*
X14616934Y50709326D01*
X14557251Y50480647D01*
X14631300Y50292050D01*
X15747950Y50292050D01*
X15747950Y50312050D01*
X15748050Y50312050D01*
X15748050Y50292050D01*
X16864700Y50292050D01*
X16938749Y50480647D01*
X16879066Y50709326D01*
X16775917Y50921967D01*
X16694585Y51029400D01*
X17330753Y51029400D01*
X17219611Y50863066D01*
X17128731Y50643660D01*
X17082400Y50410741D01*
X17082400Y50173259D01*
X17128731Y49940340D01*
X17219611Y49720934D01*
X17351550Y49523475D01*
X17519475Y49355550D01*
X17716934Y49223611D01*
X17936340Y49132731D01*
X18169259Y49086400D01*
X18406741Y49086400D01*
X18639660Y49132731D01*
X18753527Y49179896D01*
X19597222Y48336200D01*
X15810378Y48336200D01*
X14320104Y49826473D01*
X14367269Y49940340D01*
X14399694Y50103353D01*
X14557251Y50103353D01*
X14616934Y49874674D01*
X14720083Y49662033D01*
X14862735Y49473601D01*
X15039407Y49316620D01*
X15243310Y49197122D01*
X15466608Y49119700D01*
X15559353Y49101251D01*
X15747950Y49175300D01*
X15747950Y50291950D01*
X15748050Y50291950D01*
X15748050Y49175300D01*
X15936647Y49101251D01*
X16029392Y49119700D01*
X16252690Y49197122D01*
X16456593Y49316620D01*
X16633265Y49473601D01*
X16775917Y49662033D01*
X16879066Y49874674D01*
X16938749Y50103353D01*
X16864700Y50291950D01*
X15748050Y50291950D01*
X15747950Y50291950D01*
X14631300Y50291950D01*
X14557251Y50103353D01*
X14399694Y50103353D01*
X14413600Y50173259D01*
X14413600Y50410741D01*
X14367269Y50643660D01*
X14276389Y50863066D01*
X14165247Y51029400D01*
X14801415Y51029400D01*
X14720083Y50921967D01*
G36*
X19800083Y50921967D02*
G01*
X19696934Y50709326D01*
X19637251Y50480647D01*
X19711300Y50292050D01*
X20827950Y50292050D01*
X20827950Y50312050D01*
X20828050Y50312050D01*
X20828050Y50292050D01*
X21944700Y50292050D01*
X22018749Y50480647D01*
X21959066Y50709326D01*
X21855917Y50921967D01*
X21774585Y51029400D01*
X22410753Y51029400D01*
X22299611Y50863066D01*
X22208731Y50643660D01*
X22162400Y50410741D01*
X22162400Y50173259D01*
X22208731Y49940340D01*
X22299611Y49720934D01*
X22431550Y49523475D01*
X22599475Y49355550D01*
X22796934Y49223611D01*
X23016340Y49132731D01*
X23249259Y49086400D01*
X23486741Y49086400D01*
X23719660Y49132731D01*
X23833527Y49179896D01*
X24169222Y48844200D01*
X20382378Y48844200D01*
X19400104Y49826473D01*
X19447269Y49940340D01*
X19479694Y50103353D01*
X19637251Y50103353D01*
X19696934Y49874674D01*
X19800083Y49662033D01*
X19942735Y49473601D01*
X20119407Y49316620D01*
X20323310Y49197122D01*
X20546608Y49119700D01*
X20639353Y49101251D01*
X20827950Y49175300D01*
X20827950Y50291950D01*
X20828050Y50291950D01*
X20828050Y49175300D01*
X21016647Y49101251D01*
X21109392Y49119700D01*
X21332690Y49197122D01*
X21536593Y49316620D01*
X21713265Y49473601D01*
X21855917Y49662033D01*
X21959066Y49874674D01*
X22018749Y50103353D01*
X21944700Y50291950D01*
X20828050Y50291950D01*
X20827950Y50291950D01*
X19711300Y50291950D01*
X19637251Y50103353D01*
X19479694Y50103353D01*
X19493600Y50173259D01*
X19493600Y50410741D01*
X19447269Y50643660D01*
X19356389Y50863066D01*
X19245247Y51029400D01*
X19881415Y51029400D01*
X19800083Y50921967D01*
G37*
X19800083Y50921967D02*
X19696934Y50709326D01*
X19637251Y50480647D01*
X19711300Y50292050D01*
X20827950Y50292050D01*
X20827950Y50312050D01*
X20828050Y50312050D01*
X20828050Y50292050D01*
X21944700Y50292050D01*
X22018749Y50480647D01*
X21959066Y50709326D01*
X21855917Y50921967D01*
X21774585Y51029400D01*
X22410753Y51029400D01*
X22299611Y50863066D01*
X22208731Y50643660D01*
X22162400Y50410741D01*
X22162400Y50173259D01*
X22208731Y49940340D01*
X22299611Y49720934D01*
X22431550Y49523475D01*
X22599475Y49355550D01*
X22796934Y49223611D01*
X23016340Y49132731D01*
X23249259Y49086400D01*
X23486741Y49086400D01*
X23719660Y49132731D01*
X23833527Y49179896D01*
X24169222Y48844200D01*
X20382378Y48844200D01*
X19400104Y49826473D01*
X19447269Y49940340D01*
X19479694Y50103353D01*
X19637251Y50103353D01*
X19696934Y49874674D01*
X19800083Y49662033D01*
X19942735Y49473601D01*
X20119407Y49316620D01*
X20323310Y49197122D01*
X20546608Y49119700D01*
X20639353Y49101251D01*
X20827950Y49175300D01*
X20827950Y50291950D01*
X20828050Y50291950D01*
X20828050Y49175300D01*
X21016647Y49101251D01*
X21109392Y49119700D01*
X21332690Y49197122D01*
X21536593Y49316620D01*
X21713265Y49473601D01*
X21855917Y49662033D01*
X21959066Y49874674D01*
X22018749Y50103353D01*
X21944700Y50291950D01*
X20828050Y50291950D01*
X20827950Y50291950D01*
X19711300Y50291950D01*
X19637251Y50103353D01*
X19479694Y50103353D01*
X19493600Y50173259D01*
X19493600Y50410741D01*
X19447269Y50643660D01*
X19356389Y50863066D01*
X19245247Y51029400D01*
X19881415Y51029400D01*
X19800083Y50921967D01*
G36*
X24880083Y50921967D02*
G01*
X24776934Y50709326D01*
X24717251Y50480647D01*
X24791300Y50292050D01*
X25907950Y50292050D01*
X25907950Y50312050D01*
X25908050Y50312050D01*
X25908050Y50292050D01*
X27024700Y50292050D01*
X27098749Y50480647D01*
X27039066Y50709326D01*
X26935917Y50921967D01*
X26854585Y51029400D01*
X27490753Y51029400D01*
X27379611Y50863066D01*
X27288731Y50643660D01*
X27242400Y50410741D01*
X27242400Y50173259D01*
X27288731Y49940340D01*
X27379611Y49720934D01*
X27511550Y49523475D01*
X27679475Y49355550D01*
X27684489Y49352200D01*
X26656636Y49352200D01*
X26793265Y49473601D01*
X26935917Y49662033D01*
X27039066Y49874674D01*
X27098749Y50103353D01*
X27024700Y50291950D01*
X25908050Y50291950D01*
X25908050Y50271950D01*
X25907950Y50271950D01*
X25907950Y50291950D01*
X24791300Y50291950D01*
X24717251Y50103353D01*
X24776934Y49874674D01*
X24880083Y49662033D01*
X25022735Y49473601D01*
X25159364Y49352200D01*
X24954378Y49352200D01*
X24480104Y49826473D01*
X24527269Y49940340D01*
X24573600Y50173259D01*
X24573600Y50410741D01*
X24527269Y50643660D01*
X24436389Y50863066D01*
X24325247Y51029400D01*
X24961415Y51029400D01*
X24880083Y50921967D01*
G37*
X24880083Y50921967D02*
X24776934Y50709326D01*
X24717251Y50480647D01*
X24791300Y50292050D01*
X25907950Y50292050D01*
X25907950Y50312050D01*
X25908050Y50312050D01*
X25908050Y50292050D01*
X27024700Y50292050D01*
X27098749Y50480647D01*
X27039066Y50709326D01*
X26935917Y50921967D01*
X26854585Y51029400D01*
X27490753Y51029400D01*
X27379611Y50863066D01*
X27288731Y50643660D01*
X27242400Y50410741D01*
X27242400Y50173259D01*
X27288731Y49940340D01*
X27379611Y49720934D01*
X27511550Y49523475D01*
X27679475Y49355550D01*
X27684489Y49352200D01*
X26656636Y49352200D01*
X26793265Y49473601D01*
X26935917Y49662033D01*
X27039066Y49874674D01*
X27098749Y50103353D01*
X27024700Y50291950D01*
X25908050Y50291950D01*
X25908050Y50271950D01*
X25907950Y50271950D01*
X25907950Y50291950D01*
X24791300Y50291950D01*
X24717251Y50103353D01*
X24776934Y49874674D01*
X24880083Y49662033D01*
X25022735Y49473601D01*
X25159364Y49352200D01*
X24954378Y49352200D01*
X24480104Y49826473D01*
X24527269Y49940340D01*
X24573600Y50173259D01*
X24573600Y50410741D01*
X24527269Y50643660D01*
X24436389Y50863066D01*
X24325247Y51029400D01*
X24961415Y51029400D01*
X24880083Y50921967D01*
%TD*%
M02*
