%TF.GenerationSoftware,KiCad,Pcbnew,(5.1.6-0)*%
%TF.CreationDate,2021-08-25T02:04:09-07:00*%
%TF.ProjectId,mate-net-monitor,6d617465-2d6e-4657-942d-6d6f6e69746f,P1*%
%TF.SameCoordinates,PX6b4f310PY74ffa90*%
%TF.FileFunction,Soldermask,Top*%
%TF.FilePolarity,Negative*%
%FSLAX46Y46*%
G04 Gerber Fmt 4.6, Leading zero omitted, Abs format (unit mm)*
G04 Created by KiCad (PCBNEW (5.1.6-0)) date 2021-08-25 02:04:09*
%MOMM*%
%LPD*%
G01*
G04 APERTURE LIST*
%ADD10C,0.152400*%
%ADD11O,1.800000X1.800000*%
%ADD12R,1.800000X1.800000*%
%ADD13C,1.600000*%
%ADD14C,3.350000*%
%ADD15R,1.600000X1.600000*%
%ADD16C,6.500000*%
%ADD17C,0.900000*%
%ADD18C,0.100000*%
%ADD19R,1.200000X1.200000*%
%ADD20R,2.600000X1.900000*%
%ADD21R,1.900000X2.600000*%
%ADD22C,1.624000*%
%ADD23C,1.620000*%
%ADD24R,1.620000X1.620000*%
%ADD25R,2.900000X5.400000*%
%ADD26R,0.900000X1.000000*%
%ADD27R,2.100000X1.980000*%
G04 APERTURE END LIST*
D10*
X69157980Y30726858D02*
X68157980Y30726858D01*
X68872266Y31060191D01*
X68157980Y31393524D01*
X69157980Y31393524D01*
X68872266Y31822096D02*
X68872266Y32298286D01*
X69157980Y31726858D02*
X68157980Y32060191D01*
X69157980Y32393524D01*
X68157980Y32584000D02*
X68157980Y33155429D01*
X69157980Y32869715D02*
X68157980Y32869715D01*
X68634171Y33488762D02*
X68634171Y33822096D01*
X69157980Y33964953D02*
X69157980Y33488762D01*
X68157980Y33488762D01*
X68157980Y33964953D01*
X69157980Y35155429D02*
X68157980Y35155429D01*
X69157980Y35726858D01*
X68157980Y35726858D01*
X69110361Y36584000D02*
X69157980Y36488762D01*
X69157980Y36298286D01*
X69110361Y36203048D01*
X69015123Y36155429D01*
X68634171Y36155429D01*
X68538933Y36203048D01*
X68491314Y36298286D01*
X68491314Y36488762D01*
X68538933Y36584000D01*
X68634171Y36631620D01*
X68729409Y36631620D01*
X68824647Y36155429D01*
X68491314Y36917334D02*
X68491314Y37298286D01*
X68157980Y37060191D02*
X69015123Y37060191D01*
X69110361Y37107810D01*
X69157980Y37203048D01*
X69157980Y37298286D01*
X69157980Y38393524D02*
X68157980Y38393524D01*
X68872266Y38726858D01*
X68157980Y39060191D01*
X69157980Y39060191D01*
X69157980Y39679239D02*
X69110361Y39584000D01*
X69062742Y39536381D01*
X68967504Y39488762D01*
X68681790Y39488762D01*
X68586552Y39536381D01*
X68538933Y39584000D01*
X68491314Y39679239D01*
X68491314Y39822096D01*
X68538933Y39917334D01*
X68586552Y39964953D01*
X68681790Y40012572D01*
X68967504Y40012572D01*
X69062742Y39964953D01*
X69110361Y39917334D01*
X69157980Y39822096D01*
X69157980Y39679239D01*
X68491314Y40441143D02*
X69157980Y40441143D01*
X68586552Y40441143D02*
X68538933Y40488762D01*
X68491314Y40584000D01*
X68491314Y40726858D01*
X68538933Y40822096D01*
X68634171Y40869715D01*
X69157980Y40869715D01*
X69157980Y41345905D02*
X68491314Y41345905D01*
X68157980Y41345905D02*
X68205600Y41298286D01*
X68253219Y41345905D01*
X68205600Y41393524D01*
X68157980Y41345905D01*
X68253219Y41345905D01*
X68491314Y41679239D02*
X68491314Y42060191D01*
X68157980Y41822096D02*
X69015123Y41822096D01*
X69110361Y41869715D01*
X69157980Y41964953D01*
X69157980Y42060191D01*
X69157980Y42536381D02*
X69110361Y42441143D01*
X69062742Y42393524D01*
X68967504Y42345905D01*
X68681790Y42345905D01*
X68586552Y42393524D01*
X68538933Y42441143D01*
X68491314Y42536381D01*
X68491314Y42679239D01*
X68538933Y42774477D01*
X68586552Y42822096D01*
X68681790Y42869715D01*
X68967504Y42869715D01*
X69062742Y42822096D01*
X69110361Y42774477D01*
X69157980Y42679239D01*
X69157980Y42536381D01*
X69157980Y43298286D02*
X68491314Y43298286D01*
X68681790Y43298286D02*
X68586552Y43345905D01*
X68538933Y43393524D01*
X68491314Y43488762D01*
X68491314Y43584000D01*
X70810380Y31917334D02*
X69810380Y31917334D01*
X70715142Y32964953D02*
X70762761Y32917334D01*
X70810380Y32774477D01*
X70810380Y32679239D01*
X70762761Y32536381D01*
X70667523Y32441143D01*
X70572285Y32393524D01*
X70381809Y32345905D01*
X70238952Y32345905D01*
X70048476Y32393524D01*
X69953238Y32441143D01*
X69858000Y32536381D01*
X69810380Y32679239D01*
X69810380Y32774477D01*
X69858000Y32917334D01*
X69905619Y32964953D01*
X70810380Y33393524D02*
X69810380Y33393524D01*
X70286571Y33393524D02*
X70286571Y33964953D01*
X70810380Y33964953D02*
X69810380Y33964953D01*
X70286571Y35203048D02*
X70286571Y35536381D01*
X70810380Y35679239D02*
X70810380Y35203048D01*
X69810380Y35203048D01*
X69810380Y35679239D01*
X70810380Y36107810D02*
X69810380Y36107810D01*
X70810380Y36679239D01*
X69810380Y36679239D01*
X70286571Y37488762D02*
X70334190Y37631620D01*
X70381809Y37679239D01*
X70477047Y37726858D01*
X70619904Y37726858D01*
X70715142Y37679239D01*
X70762761Y37631620D01*
X70810380Y37536381D01*
X70810380Y37155429D01*
X69810380Y37155429D01*
X69810380Y37488762D01*
X69858000Y37584000D01*
X69905619Y37631620D01*
X70000857Y37679239D01*
X70096095Y37679239D01*
X70191333Y37631620D01*
X70238952Y37584000D01*
X70286571Y37488762D01*
X70286571Y37155429D01*
X69905619Y38869715D02*
X69858000Y38917334D01*
X69810380Y39012572D01*
X69810380Y39250667D01*
X69858000Y39345905D01*
X69905619Y39393524D01*
X70000857Y39441143D01*
X70096095Y39441143D01*
X70238952Y39393524D01*
X70810380Y38822096D01*
X70810380Y39441143D01*
X69810380Y40060191D02*
X69810380Y40155429D01*
X69858000Y40250667D01*
X69905619Y40298286D01*
X70000857Y40345905D01*
X70191333Y40393524D01*
X70429428Y40393524D01*
X70619904Y40345905D01*
X70715142Y40298286D01*
X70762761Y40250667D01*
X70810380Y40155429D01*
X70810380Y40060191D01*
X70762761Y39964953D01*
X70715142Y39917334D01*
X70619904Y39869715D01*
X70429428Y39822096D01*
X70191333Y39822096D01*
X70000857Y39869715D01*
X69905619Y39917334D01*
X69858000Y39964953D01*
X69810380Y40060191D01*
X69905619Y40774477D02*
X69858000Y40822096D01*
X69810380Y40917334D01*
X69810380Y41155429D01*
X69858000Y41250667D01*
X69905619Y41298286D01*
X70000857Y41345905D01*
X70096095Y41345905D01*
X70238952Y41298286D01*
X70810380Y40726858D01*
X70810380Y41345905D01*
X70810380Y42298286D02*
X70810380Y41726858D01*
X70810380Y42012572D02*
X69810380Y42012572D01*
X69953238Y41917334D01*
X70048476Y41822096D01*
X70096095Y41726858D01*
X72462780Y29393524D02*
X71462780Y29393524D01*
X72177066Y29726858D01*
X71462780Y30060191D01*
X72462780Y30060191D01*
X72462780Y30679239D02*
X72415161Y30584000D01*
X72367542Y30536381D01*
X72272304Y30488762D01*
X71986590Y30488762D01*
X71891352Y30536381D01*
X71843733Y30584000D01*
X71796114Y30679239D01*
X71796114Y30822096D01*
X71843733Y30917334D01*
X71891352Y30964953D01*
X71986590Y31012572D01*
X72272304Y31012572D01*
X72367542Y30964953D01*
X72415161Y30917334D01*
X72462780Y30822096D01*
X72462780Y30679239D01*
X72462780Y31441143D02*
X71796114Y31441143D01*
X71986590Y31441143D02*
X71891352Y31488762D01*
X71843733Y31536381D01*
X71796114Y31631620D01*
X71796114Y31726858D01*
X71796114Y31917334D02*
X71796114Y32298286D01*
X71462780Y32060191D02*
X72319923Y32060191D01*
X72415161Y32107810D01*
X72462780Y32203048D01*
X72462780Y32298286D01*
X72462780Y32774477D02*
X72415161Y32679239D01*
X72367542Y32631620D01*
X72272304Y32584000D01*
X71986590Y32584000D01*
X71891352Y32631620D01*
X71843733Y32679239D01*
X71796114Y32774477D01*
X71796114Y32917334D01*
X71843733Y33012572D01*
X71891352Y33060191D01*
X71986590Y33107810D01*
X72272304Y33107810D01*
X72367542Y33060191D01*
X72415161Y33012572D01*
X72462780Y32917334D01*
X72462780Y32774477D01*
X71796114Y33536381D02*
X72462780Y33536381D01*
X71891352Y33536381D02*
X71843733Y33584000D01*
X71796114Y33679239D01*
X71796114Y33822096D01*
X71843733Y33917334D01*
X71938971Y33964953D01*
X72462780Y33964953D01*
X71462780Y34488762D02*
X71510400Y34488762D01*
X71605638Y34441143D01*
X71653257Y34393524D01*
X72415161Y34869715D02*
X72462780Y34964953D01*
X72462780Y35155429D01*
X72415161Y35250667D01*
X72319923Y35298286D01*
X72272304Y35298286D01*
X72177066Y35250667D01*
X72129447Y35155429D01*
X72129447Y35012572D01*
X72081828Y34917334D01*
X71986590Y34869715D01*
X71938971Y34869715D01*
X71843733Y34917334D01*
X71796114Y35012572D01*
X71796114Y35155429D01*
X71843733Y35250667D01*
X72462780Y36488762D02*
X71462780Y36488762D01*
X71462780Y36869715D01*
X71510400Y36964953D01*
X71558019Y37012572D01*
X71653257Y37060191D01*
X71796114Y37060191D01*
X71891352Y37012572D01*
X71938971Y36964953D01*
X71986590Y36869715D01*
X71986590Y36488762D01*
X72462780Y37631620D02*
X72415161Y37536381D01*
X72367542Y37488762D01*
X72272304Y37441143D01*
X71986590Y37441143D01*
X71891352Y37488762D01*
X71843733Y37536381D01*
X71796114Y37631620D01*
X71796114Y37774477D01*
X71843733Y37869715D01*
X71891352Y37917334D01*
X71986590Y37964953D01*
X72272304Y37964953D01*
X72367542Y37917334D01*
X72415161Y37869715D01*
X72462780Y37774477D01*
X72462780Y37631620D01*
X72462780Y38393524D02*
X71796114Y38393524D01*
X71462780Y38393524D02*
X71510400Y38345905D01*
X71558019Y38393524D01*
X71510400Y38441143D01*
X71462780Y38393524D01*
X71558019Y38393524D01*
X71796114Y38869715D02*
X72462780Y38869715D01*
X71891352Y38869715D02*
X71843733Y38917334D01*
X71796114Y39012572D01*
X71796114Y39155429D01*
X71843733Y39250667D01*
X71938971Y39298286D01*
X72462780Y39298286D01*
X71796114Y39631620D02*
X71796114Y40012572D01*
X71462780Y39774477D02*
X72319923Y39774477D01*
X72415161Y39822096D01*
X72462780Y39917334D01*
X72462780Y40012572D01*
X72367542Y41679239D02*
X72415161Y41631620D01*
X72462780Y41488762D01*
X72462780Y41393524D01*
X72415161Y41250667D01*
X72319923Y41155429D01*
X72224685Y41107810D01*
X72034209Y41060191D01*
X71891352Y41060191D01*
X71700876Y41107810D01*
X71605638Y41155429D01*
X71510400Y41250667D01*
X71462780Y41393524D01*
X71462780Y41488762D01*
X71510400Y41631620D01*
X71558019Y41679239D01*
X72462780Y42536381D02*
X71938971Y42536381D01*
X71843733Y42488762D01*
X71796114Y42393524D01*
X71796114Y42203048D01*
X71843733Y42107810D01*
X72415161Y42536381D02*
X72462780Y42441143D01*
X72462780Y42203048D01*
X72415161Y42107810D01*
X72319923Y42060191D01*
X72224685Y42060191D01*
X72129447Y42107810D01*
X72081828Y42203048D01*
X72081828Y42441143D01*
X72034209Y42536381D01*
X72462780Y43012572D02*
X71796114Y43012572D01*
X71891352Y43012572D02*
X71843733Y43060191D01*
X71796114Y43155429D01*
X71796114Y43298286D01*
X71843733Y43393524D01*
X71938971Y43441143D01*
X72462780Y43441143D01*
X71938971Y43441143D02*
X71843733Y43488762D01*
X71796114Y43584000D01*
X71796114Y43726858D01*
X71843733Y43822096D01*
X71938971Y43869715D01*
X72462780Y43869715D01*
X71796114Y44345905D02*
X72796114Y44345905D01*
X71843733Y44345905D02*
X71796114Y44441143D01*
X71796114Y44631620D01*
X71843733Y44726858D01*
X71891352Y44774477D01*
X71986590Y44822096D01*
X72272304Y44822096D01*
X72367542Y44774477D01*
X72415161Y44726858D01*
X72462780Y44631620D01*
X72462780Y44441143D01*
X72415161Y44345905D01*
D11*
%TO.C,A1*%
X32258000Y50292000D03*
X34798000Y50292000D03*
X39878000Y50292000D03*
X42418000Y50292000D03*
X44958000Y50292000D03*
X47498000Y50292000D03*
X50038000Y50292000D03*
X52578000Y50292000D03*
X55118000Y50292000D03*
X57658000Y50292000D03*
X60198000Y50292000D03*
X37338000Y50292000D03*
X60198000Y29972000D03*
X57658000Y29972000D03*
X55118000Y29972000D03*
X52578000Y29972000D03*
X50038000Y29972000D03*
X47498000Y29972000D03*
X44958000Y29972000D03*
X42418000Y29972000D03*
X39878000Y29972000D03*
X37338000Y29972000D03*
X34798000Y29972000D03*
X32258000Y29972000D03*
X29718000Y29972000D03*
X27178000Y29972000D03*
X24638000Y29972000D03*
D12*
X22098000Y29972000D03*
%TD*%
D13*
%TO.C,J5*%
X12948000Y14601000D03*
X15238000Y14601000D03*
X24378000Y14601000D03*
X26668000Y14601000D03*
D14*
X13458000Y5461000D03*
X26158000Y5461000D03*
D13*
X16256000Y9781000D03*
X18288000Y9781000D03*
X20320000Y9781000D03*
X22352000Y9781000D03*
X17272000Y8001000D03*
X19304000Y8001000D03*
X21336000Y8001000D03*
D15*
X23368000Y8001000D03*
%TD*%
D16*
%TO.C,H3*%
X5588000Y26162000D03*
D17*
X7178000Y27752000D03*
X5588000Y28412000D03*
X3998000Y27752000D03*
X3338000Y26162000D03*
X3998000Y24572000D03*
X5588000Y23912000D03*
X7178000Y24572000D03*
X7838000Y26162000D03*
D18*
G36*
X5590444Y28961940D02*
G01*
X5601425Y28961403D01*
X5612424Y28961403D01*
X5614866Y28961343D01*
X5834428Y28950605D01*
X5834428Y28950597D01*
X5834789Y28950587D01*
X5841752Y28950197D01*
X5844528Y28949964D01*
X5865010Y28947667D01*
X5885485Y28945659D01*
X5887909Y28945362D01*
X6105373Y28913249D01*
X6105718Y28913196D01*
X6112617Y28912128D01*
X6115364Y28911624D01*
X6135493Y28907345D01*
X6155698Y28903345D01*
X6158083Y28902812D01*
X6371374Y28849633D01*
X6371352Y28849545D01*
X6371697Y28849453D01*
X6371721Y28849545D01*
X6378476Y28847811D01*
X6381164Y28847040D01*
X6400770Y28840820D01*
X6420499Y28834864D01*
X6422821Y28834101D01*
X6629901Y28760363D01*
X6629892Y28760338D01*
X6630242Y28760222D01*
X6630248Y28760238D01*
X6636799Y28757853D01*
X6639392Y28756826D01*
X6658285Y28748728D01*
X6677352Y28740869D01*
X6679587Y28739883D01*
X6878473Y28646294D01*
X6878450Y28646245D01*
X6878799Y28646082D01*
X6878822Y28646129D01*
X6885099Y28643122D01*
X6887584Y28641845D01*
X6905632Y28631923D01*
X6923807Y28622259D01*
X6925934Y28621060D01*
X7114746Y28508506D01*
X7114718Y28508459D01*
X7115030Y28508263D01*
X7115062Y28508316D01*
X7121022Y28504707D01*
X7123371Y28503193D01*
X7140375Y28491550D01*
X7157510Y28480166D01*
X7159512Y28478765D01*
X7336447Y28348317D01*
X7336728Y28348108D01*
X7342318Y28343926D01*
X7344505Y28342193D01*
X7360319Y28328924D01*
X7376234Y28315943D01*
X7378088Y28314354D01*
X7541437Y28167274D01*
X7541404Y28167237D01*
X7541680Y28166984D01*
X7541715Y28167022D01*
X7546859Y28162326D01*
X7548873Y28160381D01*
X7563292Y28145656D01*
X7577885Y28131165D01*
X7579577Y28129401D01*
X7727805Y27967071D01*
X7728044Y27966808D01*
X7732715Y27961619D01*
X7734519Y27959498D01*
X7747418Y27943456D01*
X7760546Y27927586D01*
X7762057Y27925667D01*
X7893699Y27749698D01*
X7893708Y27749686D01*
X7893954Y27749355D01*
X7898089Y27743746D01*
X7899680Y27741457D01*
X7910950Y27724235D01*
X7922471Y27707154D01*
X7923786Y27705097D01*
X8037657Y27517072D01*
X8037583Y27517027D01*
X8037760Y27516721D01*
X8037840Y27516769D01*
X8041415Y27510772D01*
X8042778Y27508333D01*
X8052319Y27490083D01*
X8062107Y27471980D01*
X8063217Y27469802D01*
X8158196Y27271564D01*
X8157950Y27271446D01*
X8158111Y27271117D01*
X8158354Y27271231D01*
X8161321Y27264926D01*
X8162439Y27262367D01*
X8170147Y27243289D01*
X8178131Y27224296D01*
X8179023Y27222021D01*
X8254208Y27015454D01*
X8254328Y27015119D01*
X8256669Y27008542D01*
X8257529Y27005895D01*
X8263338Y26986160D01*
X8269432Y26966472D01*
X8270097Y26964122D01*
X8324765Y26751204D01*
X8324852Y26750860D01*
X8326540Y26744086D01*
X8327138Y26741366D01*
X8330989Y26721181D01*
X8335137Y26700971D01*
X8335569Y26698567D01*
X8369199Y26481331D01*
X8369252Y26480987D01*
X8370272Y26474080D01*
X8370602Y26471307D01*
X8372468Y26450801D01*
X8374620Y26430326D01*
X8374816Y26427891D01*
X8387086Y26208430D01*
X8387026Y26208427D01*
X8387046Y26208035D01*
X8387106Y26208038D01*
X8387446Y26201089D01*
X8387505Y26198297D01*
X8387361Y26177739D01*
X8387505Y26157119D01*
X8387462Y26154677D01*
X8378258Y25935066D01*
X8378225Y25935067D01*
X8378210Y25934665D01*
X8378240Y25934664D01*
X8377900Y25927721D01*
X8377686Y25924940D01*
X8375538Y25904508D01*
X8373668Y25883957D01*
X8373387Y25881530D01*
X8342793Y25663846D01*
X8342744Y25663500D01*
X8341724Y25656593D01*
X8341239Y25653843D01*
X8337089Y25633628D01*
X8333240Y25613451D01*
X8332724Y25611064D01*
X8281038Y25397420D01*
X8280991Y25397431D01*
X8280900Y25397061D01*
X8280947Y25397049D01*
X8279262Y25390291D01*
X8278511Y25387601D01*
X8272433Y25367967D01*
X8266611Y25348184D01*
X8265864Y25345857D01*
X8193572Y25138261D01*
X8193456Y25137931D01*
X8191114Y25131354D01*
X8190104Y25128752D01*
X8182153Y25109836D01*
X8174411Y25090676D01*
X8173441Y25088435D01*
X8081240Y24888894D01*
X8081181Y24888921D01*
X8081004Y24888611D01*
X8081089Y24888571D01*
X8078117Y24882254D01*
X8076856Y24879758D01*
X8067052Y24861626D01*
X8057525Y24843403D01*
X8056341Y24841266D01*
X7945113Y24651681D01*
X7945090Y24651695D01*
X7944887Y24651357D01*
X7944911Y24651342D01*
X7941349Y24645367D01*
X7939854Y24643011D01*
X7928371Y24625985D01*
X7917065Y24608710D01*
X7915679Y24606701D01*
X7786469Y24428859D01*
X7786262Y24428576D01*
X7782119Y24422957D01*
X7780401Y24420758D01*
X7767279Y24404895D01*
X7754377Y24388849D01*
X7752800Y24386983D01*
X7606858Y24222604D01*
X7606767Y24222685D01*
X7606525Y24222406D01*
X7606612Y24222328D01*
X7601952Y24217152D01*
X7600025Y24215129D01*
X7585386Y24200592D01*
X7571005Y24185907D01*
X7569255Y24184204D01*
X7407974Y24034857D01*
X7407940Y24034894D01*
X7407661Y24034639D01*
X7407695Y24034601D01*
X7402551Y24029904D01*
X7400437Y24028080D01*
X7384497Y24015080D01*
X7368710Y24001833D01*
X7366801Y24000308D01*
X7191715Y23867411D01*
X7191644Y23867505D01*
X7191349Y23867278D01*
X7191417Y23867187D01*
X7185838Y23863013D01*
X7183556Y23861403D01*
X7166373Y23849986D01*
X7149416Y23838376D01*
X7147368Y23837046D01*
X6960144Y23721864D01*
X6960129Y23721888D01*
X6959814Y23721694D01*
X6959828Y23721671D01*
X6953864Y23718060D01*
X6951443Y23716685D01*
X6933318Y23707047D01*
X6915218Y23697097D01*
X6913050Y23695973D01*
X6715480Y23599612D01*
X6715396Y23599784D01*
X6715068Y23599617D01*
X6715147Y23599451D01*
X6708862Y23596440D01*
X6706313Y23595305D01*
X6687291Y23587464D01*
X6668350Y23579347D01*
X6666083Y23578440D01*
X6460046Y23501816D01*
X6459720Y23501696D01*
X6453160Y23499308D01*
X6450510Y23498426D01*
X6430797Y23492474D01*
X6411173Y23486249D01*
X6408827Y23485568D01*
X6196296Y23429415D01*
X6195957Y23429327D01*
X6189195Y23427591D01*
X6186474Y23426972D01*
X6166226Y23422963D01*
X6146137Y23418693D01*
X6143736Y23418243D01*
X5926740Y23383097D01*
X5926395Y23383043D01*
X5919496Y23381975D01*
X5916726Y23381625D01*
X5896228Y23379615D01*
X5875775Y23377321D01*
X5873341Y23377108D01*
X5653967Y23363306D01*
X5653962Y23363380D01*
X5653579Y23363358D01*
X5653583Y23363283D01*
X5646635Y23362894D01*
X5643840Y23362816D01*
X5623246Y23362816D01*
X5602662Y23362529D01*
X5600220Y23362554D01*
X5380550Y23370225D01*
X5380551Y23370267D01*
X5380162Y23370283D01*
X5380160Y23370241D01*
X5373209Y23370532D01*
X5370421Y23370727D01*
X5350016Y23372728D01*
X5329413Y23374458D01*
X5326984Y23374722D01*
X5109093Y23403795D01*
X5109121Y23404004D01*
X5108768Y23404039D01*
X5108741Y23403844D01*
X5101832Y23404815D01*
X5099081Y23405280D01*
X5078876Y23409280D01*
X5058629Y23412997D01*
X5056240Y23413496D01*
X4842231Y23463691D01*
X4842233Y23463701D01*
X4841878Y23463789D01*
X4841875Y23463776D01*
X4835102Y23465414D01*
X4832403Y23466147D01*
X4812650Y23472111D01*
X4792901Y23477774D01*
X4790570Y23478504D01*
X4582486Y23549341D01*
X4582487Y23549344D01*
X4582125Y23549469D01*
X4582124Y23549466D01*
X4575545Y23551758D01*
X4572941Y23552747D01*
X4553890Y23560599D01*
X4534761Y23568173D01*
X4532513Y23569127D01*
X4332330Y23659934D01*
X4332386Y23660057D01*
X4332055Y23660210D01*
X4331998Y23660086D01*
X4325671Y23663009D01*
X4323167Y23664252D01*
X4305032Y23673894D01*
X4286675Y23683329D01*
X4284530Y23684499D01*
X4094157Y23794411D01*
X4093853Y23794588D01*
X4087832Y23798121D01*
X4085466Y23799599D01*
X4068353Y23810969D01*
X4051011Y23822145D01*
X4048990Y23823519D01*
X3870250Y23951484D01*
X3869964Y23951690D01*
X3864316Y23955794D01*
X3862107Y23957496D01*
X3846198Y23970471D01*
X3830015Y23983297D01*
X3828137Y23984861D01*
X3662749Y24129649D01*
X3662847Y24129761D01*
X3662560Y24130007D01*
X3662465Y24129900D01*
X3657257Y24134524D01*
X3655222Y24136435D01*
X3640652Y24150903D01*
X3625801Y24165245D01*
X3624085Y24166985D01*
X3473616Y24327219D01*
X3473623Y24327225D01*
X3473358Y24327502D01*
X3473355Y24327499D01*
X3468623Y24332610D01*
X3466787Y24334707D01*
X3453651Y24350585D01*
X3440318Y24366252D01*
X3438781Y24368150D01*
X3304656Y24542313D01*
X3304443Y24542590D01*
X3300222Y24548151D01*
X3298597Y24550422D01*
X3287097Y24567472D01*
X3275332Y24584400D01*
X3273988Y24586439D01*
X3157508Y24772847D01*
X3157574Y24772888D01*
X3157368Y24773214D01*
X3157304Y24773175D01*
X3153657Y24779103D01*
X3152261Y24781522D01*
X3142495Y24799583D01*
X3132423Y24817606D01*
X3131283Y24819767D01*
X3033542Y25016666D01*
X3033387Y25016982D01*
X3030327Y25023257D01*
X3029175Y25025796D01*
X3021195Y25044778D01*
X3012953Y25063644D01*
X3012030Y25065906D01*
X2933969Y25271403D01*
X2933844Y25271734D01*
X2931411Y25278278D01*
X2930513Y25280918D01*
X2924447Y25300515D01*
X2918062Y25320166D01*
X2917364Y25322507D01*
X2859728Y25534640D01*
X2859637Y25534981D01*
X2857854Y25541731D01*
X2857217Y25544447D01*
X2853070Y25564652D01*
X2848656Y25584726D01*
X2848189Y25587125D01*
X2811532Y25803857D01*
X2811588Y25803866D01*
X2811535Y25804232D01*
X2811472Y25804222D01*
X2810357Y25811106D01*
X2809988Y25813875D01*
X2807842Y25834296D01*
X2805398Y25854789D01*
X2805168Y25857222D01*
X2789833Y26076512D01*
X2789810Y26076863D01*
X2789372Y26083830D01*
X2789274Y26086616D01*
X2789129Y26107238D01*
X2788772Y26124320D01*
X2788729Y26126407D01*
X3889030Y26126407D01*
X3900611Y25960790D01*
X3928298Y25797095D01*
X3971830Y25636872D01*
X4030783Y25481676D01*
X4104611Y25332950D01*
X4192584Y25192164D01*
X4293890Y25060617D01*
X4407537Y24939597D01*
X4532459Y24830235D01*
X4667454Y24733589D01*
X4811236Y24650576D01*
X4962436Y24581989D01*
X5119597Y24528487D01*
X5281226Y24490577D01*
X5445807Y24468617D01*
X5611734Y24462822D01*
X5777415Y24473246D01*
X5941313Y24499793D01*
X6101835Y24542204D01*
X6257433Y24600070D01*
X6406673Y24672859D01*
X6548075Y24759851D01*
X6680316Y24860227D01*
X6802135Y24973032D01*
X6912362Y25097185D01*
X7009947Y25231499D01*
X7093966Y25374707D01*
X7163603Y25525414D01*
X7218204Y25682210D01*
X7257243Y25843575D01*
X7280349Y26007987D01*
X7287302Y26173862D01*
X7278033Y26339632D01*
X7252635Y26503692D01*
X7211345Y26664511D01*
X7154563Y26820517D01*
X7082819Y26970257D01*
X6996824Y27112253D01*
X6897368Y27245200D01*
X6785407Y27367813D01*
X6662042Y27478890D01*
X6528394Y27577423D01*
X6385793Y27662431D01*
X6235579Y27733116D01*
X6079160Y27788815D01*
X5918073Y27828978D01*
X5753818Y27853234D01*
X5578397Y27861813D01*
X5550144Y27861418D01*
X5375014Y27847943D01*
X5211513Y27819113D01*
X5051609Y27774467D01*
X4896814Y27714426D01*
X4748622Y27639569D01*
X4608447Y27550611D01*
X4477612Y27448392D01*
X4357383Y27333899D01*
X4248903Y27208223D01*
X4153198Y27072553D01*
X4071189Y26928191D01*
X4003666Y26776533D01*
X3951256Y26618985D01*
X3914474Y26457087D01*
X3893666Y26292374D01*
X3889030Y26126407D01*
X2788729Y26126407D01*
X2788699Y26127791D01*
X2788707Y26130237D01*
X2794845Y26349975D01*
X2794857Y26350327D01*
X2795101Y26357304D01*
X2795276Y26360088D01*
X2797138Y26380544D01*
X2798721Y26401122D01*
X2798968Y26403553D01*
X2826518Y26621627D01*
X2826538Y26621624D01*
X2826579Y26621999D01*
X2826566Y26622001D01*
X2827488Y26628910D01*
X2827935Y26631666D01*
X2831793Y26651888D01*
X2835368Y26672163D01*
X2835850Y26674557D01*
X2884551Y26888920D01*
X2884630Y26889261D01*
X2886224Y26896057D01*
X2886937Y26898755D01*
X2892742Y26918478D01*
X2898288Y26938342D01*
X2899002Y26940678D01*
X2968386Y27149252D01*
X2968537Y27149202D01*
X2968655Y27149554D01*
X2968506Y27149605D01*
X2970750Y27156198D01*
X2971724Y27158818D01*
X2979421Y27177868D01*
X2986883Y27197106D01*
X2987822Y27199361D01*
X3077228Y27400169D01*
X3077235Y27400166D01*
X3077382Y27400511D01*
X3077381Y27400511D01*
X3080261Y27406859D01*
X3081483Y27409365D01*
X3091015Y27427600D01*
X3100305Y27445989D01*
X3101459Y27448141D01*
X3210039Y27639277D01*
X3210214Y27639582D01*
X3213705Y27645628D01*
X3215166Y27648004D01*
X3226451Y27665249D01*
X3237474Y27682619D01*
X3238833Y27684649D01*
X3365547Y27864277D01*
X3365750Y27864563D01*
X3369814Y27870239D01*
X3371501Y27872461D01*
X3384392Y27888495D01*
X3397078Y27904731D01*
X3398628Y27906618D01*
X3542251Y28073008D01*
X3542291Y28072974D01*
X3542552Y28073275D01*
X3542513Y28073309D01*
X3547090Y28078538D01*
X3548989Y28080589D01*
X3563406Y28095312D01*
X3577596Y28110212D01*
X3579323Y28111940D01*
X3738514Y28263535D01*
X3738767Y28263774D01*
X3743856Y28268553D01*
X3745945Y28270407D01*
X3761706Y28283632D01*
X3777302Y28297094D01*
X3779190Y28298644D01*
X3952412Y28433981D01*
X3952693Y28434200D01*
X3958225Y28438459D01*
X3960478Y28440095D01*
X3977398Y28451681D01*
X3994292Y28463598D01*
X3996322Y28464956D01*
X4181927Y28582744D01*
X4182063Y28582529D01*
X4182349Y28582747D01*
X4182231Y28582936D01*
X4188143Y28586630D01*
X4190549Y28588042D01*
X4208586Y28597958D01*
X4226497Y28608133D01*
X4228650Y28609287D01*
X4424862Y28708400D01*
X4425174Y28708557D01*
X4431427Y28711661D01*
X4433963Y28712832D01*
X4452863Y28720932D01*
X4471693Y28729316D01*
X4473949Y28730255D01*
X4678896Y28809749D01*
X4679222Y28809874D01*
X4685748Y28812353D01*
X4688385Y28813272D01*
X4708040Y28819507D01*
X4727548Y28825996D01*
X4729884Y28826710D01*
X4941591Y28885820D01*
X4941602Y28885782D01*
X4941982Y28885885D01*
X4941971Y28885925D01*
X4948686Y28887749D01*
X4951398Y28888404D01*
X4971473Y28892671D01*
X4991614Y28897247D01*
X4994010Y28897730D01*
X5210494Y28935902D01*
X5210840Y28935962D01*
X5217724Y28937126D01*
X5220486Y28937514D01*
X5240909Y28939805D01*
X5261375Y28942390D01*
X5263804Y28942637D01*
X5482980Y28959502D01*
X5483328Y28959527D01*
X5490292Y28960014D01*
X5493080Y28960131D01*
X5504085Y28960285D01*
X5515059Y28960975D01*
X5517499Y28961069D01*
X5580323Y28961946D01*
X5580670Y28961950D01*
X5587651Y28961999D01*
X5590444Y28961940D01*
G37*
%TD*%
D16*
%TO.C,H4*%
X69088000Y26162000D03*
D17*
X70678000Y27752000D03*
X69088000Y28412000D03*
X67498000Y27752000D03*
X66838000Y26162000D03*
X67498000Y24572000D03*
X69088000Y23912000D03*
X70678000Y24572000D03*
X71338000Y26162000D03*
D18*
G36*
X69090444Y28961940D02*
G01*
X69101425Y28961403D01*
X69112424Y28961403D01*
X69114866Y28961343D01*
X69334428Y28950605D01*
X69334428Y28950597D01*
X69334789Y28950587D01*
X69341752Y28950197D01*
X69344528Y28949964D01*
X69365010Y28947667D01*
X69385485Y28945659D01*
X69387909Y28945362D01*
X69605373Y28913249D01*
X69605718Y28913196D01*
X69612617Y28912128D01*
X69615364Y28911624D01*
X69635493Y28907345D01*
X69655698Y28903345D01*
X69658083Y28902812D01*
X69871374Y28849633D01*
X69871352Y28849545D01*
X69871697Y28849453D01*
X69871721Y28849545D01*
X69878476Y28847811D01*
X69881164Y28847040D01*
X69900770Y28840820D01*
X69920499Y28834864D01*
X69922821Y28834101D01*
X70129901Y28760363D01*
X70129892Y28760338D01*
X70130242Y28760222D01*
X70130248Y28760238D01*
X70136799Y28757853D01*
X70139392Y28756826D01*
X70158285Y28748728D01*
X70177352Y28740869D01*
X70179587Y28739883D01*
X70378473Y28646294D01*
X70378450Y28646245D01*
X70378799Y28646082D01*
X70378822Y28646129D01*
X70385099Y28643122D01*
X70387584Y28641845D01*
X70405632Y28631923D01*
X70423807Y28622259D01*
X70425934Y28621060D01*
X70614746Y28508506D01*
X70614718Y28508459D01*
X70615030Y28508263D01*
X70615062Y28508316D01*
X70621022Y28504707D01*
X70623371Y28503193D01*
X70640375Y28491550D01*
X70657510Y28480166D01*
X70659512Y28478765D01*
X70836447Y28348317D01*
X70836728Y28348108D01*
X70842318Y28343926D01*
X70844505Y28342193D01*
X70860319Y28328924D01*
X70876234Y28315943D01*
X70878088Y28314354D01*
X71041437Y28167274D01*
X71041404Y28167237D01*
X71041680Y28166984D01*
X71041715Y28167022D01*
X71046859Y28162326D01*
X71048873Y28160381D01*
X71063292Y28145656D01*
X71077885Y28131165D01*
X71079577Y28129401D01*
X71227805Y27967071D01*
X71228044Y27966808D01*
X71232715Y27961619D01*
X71234519Y27959498D01*
X71247418Y27943456D01*
X71260546Y27927586D01*
X71262057Y27925667D01*
X71393699Y27749698D01*
X71393708Y27749686D01*
X71393954Y27749355D01*
X71398089Y27743746D01*
X71399680Y27741457D01*
X71410950Y27724235D01*
X71422471Y27707154D01*
X71423786Y27705097D01*
X71537657Y27517072D01*
X71537583Y27517027D01*
X71537760Y27516721D01*
X71537840Y27516769D01*
X71541415Y27510772D01*
X71542778Y27508333D01*
X71552319Y27490083D01*
X71562107Y27471980D01*
X71563217Y27469802D01*
X71658196Y27271564D01*
X71657950Y27271446D01*
X71658111Y27271117D01*
X71658354Y27271231D01*
X71661321Y27264926D01*
X71662439Y27262367D01*
X71670147Y27243289D01*
X71678131Y27224296D01*
X71679023Y27222021D01*
X71754208Y27015454D01*
X71754328Y27015119D01*
X71756669Y27008542D01*
X71757529Y27005895D01*
X71763338Y26986160D01*
X71769432Y26966472D01*
X71770097Y26964122D01*
X71824765Y26751204D01*
X71824852Y26750860D01*
X71826540Y26744086D01*
X71827138Y26741366D01*
X71830989Y26721181D01*
X71835137Y26700971D01*
X71835569Y26698567D01*
X71869199Y26481331D01*
X71869252Y26480987D01*
X71870272Y26474080D01*
X71870602Y26471307D01*
X71872468Y26450801D01*
X71874620Y26430326D01*
X71874816Y26427891D01*
X71887086Y26208430D01*
X71887026Y26208427D01*
X71887046Y26208035D01*
X71887106Y26208038D01*
X71887446Y26201089D01*
X71887505Y26198297D01*
X71887361Y26177739D01*
X71887505Y26157119D01*
X71887462Y26154677D01*
X71878258Y25935066D01*
X71878225Y25935067D01*
X71878210Y25934665D01*
X71878240Y25934664D01*
X71877900Y25927721D01*
X71877686Y25924940D01*
X71875538Y25904508D01*
X71873668Y25883957D01*
X71873387Y25881530D01*
X71842793Y25663846D01*
X71842744Y25663500D01*
X71841724Y25656593D01*
X71841239Y25653843D01*
X71837089Y25633628D01*
X71833240Y25613451D01*
X71832724Y25611064D01*
X71781038Y25397420D01*
X71780991Y25397431D01*
X71780900Y25397061D01*
X71780947Y25397049D01*
X71779262Y25390291D01*
X71778511Y25387601D01*
X71772433Y25367967D01*
X71766611Y25348184D01*
X71765864Y25345857D01*
X71693572Y25138261D01*
X71693456Y25137931D01*
X71691114Y25131354D01*
X71690104Y25128752D01*
X71682153Y25109836D01*
X71674411Y25090676D01*
X71673441Y25088435D01*
X71581240Y24888894D01*
X71581181Y24888921D01*
X71581004Y24888611D01*
X71581089Y24888571D01*
X71578117Y24882254D01*
X71576856Y24879758D01*
X71567052Y24861626D01*
X71557525Y24843403D01*
X71556341Y24841266D01*
X71445113Y24651681D01*
X71445090Y24651695D01*
X71444887Y24651357D01*
X71444911Y24651342D01*
X71441349Y24645367D01*
X71439854Y24643011D01*
X71428371Y24625985D01*
X71417065Y24608710D01*
X71415679Y24606701D01*
X71286469Y24428859D01*
X71286262Y24428576D01*
X71282119Y24422957D01*
X71280401Y24420758D01*
X71267279Y24404895D01*
X71254377Y24388849D01*
X71252800Y24386983D01*
X71106858Y24222604D01*
X71106767Y24222685D01*
X71106525Y24222406D01*
X71106612Y24222328D01*
X71101952Y24217152D01*
X71100025Y24215129D01*
X71085386Y24200592D01*
X71071005Y24185907D01*
X71069255Y24184204D01*
X70907974Y24034857D01*
X70907940Y24034894D01*
X70907661Y24034639D01*
X70907695Y24034601D01*
X70902551Y24029904D01*
X70900437Y24028080D01*
X70884497Y24015080D01*
X70868710Y24001833D01*
X70866801Y24000308D01*
X70691715Y23867411D01*
X70691644Y23867505D01*
X70691349Y23867278D01*
X70691417Y23867187D01*
X70685838Y23863013D01*
X70683556Y23861403D01*
X70666373Y23849986D01*
X70649416Y23838376D01*
X70647368Y23837046D01*
X70460144Y23721864D01*
X70460129Y23721888D01*
X70459814Y23721694D01*
X70459828Y23721671D01*
X70453864Y23718060D01*
X70451443Y23716685D01*
X70433318Y23707047D01*
X70415218Y23697097D01*
X70413050Y23695973D01*
X70215480Y23599612D01*
X70215396Y23599784D01*
X70215068Y23599617D01*
X70215147Y23599451D01*
X70208862Y23596440D01*
X70206313Y23595305D01*
X70187291Y23587464D01*
X70168350Y23579347D01*
X70166083Y23578440D01*
X69960046Y23501816D01*
X69959720Y23501696D01*
X69953160Y23499308D01*
X69950510Y23498426D01*
X69930797Y23492474D01*
X69911173Y23486249D01*
X69908827Y23485568D01*
X69696296Y23429415D01*
X69695957Y23429327D01*
X69689195Y23427591D01*
X69686474Y23426972D01*
X69666226Y23422963D01*
X69646137Y23418693D01*
X69643736Y23418243D01*
X69426740Y23383097D01*
X69426395Y23383043D01*
X69419496Y23381975D01*
X69416726Y23381625D01*
X69396228Y23379615D01*
X69375775Y23377321D01*
X69373341Y23377108D01*
X69153967Y23363306D01*
X69153962Y23363380D01*
X69153579Y23363358D01*
X69153583Y23363283D01*
X69146635Y23362894D01*
X69143840Y23362816D01*
X69123246Y23362816D01*
X69102662Y23362529D01*
X69100220Y23362554D01*
X68880550Y23370225D01*
X68880551Y23370267D01*
X68880162Y23370283D01*
X68880160Y23370241D01*
X68873209Y23370532D01*
X68870421Y23370727D01*
X68850016Y23372728D01*
X68829413Y23374458D01*
X68826984Y23374722D01*
X68609093Y23403795D01*
X68609121Y23404004D01*
X68608768Y23404039D01*
X68608741Y23403844D01*
X68601832Y23404815D01*
X68599081Y23405280D01*
X68578876Y23409280D01*
X68558629Y23412997D01*
X68556240Y23413496D01*
X68342231Y23463691D01*
X68342233Y23463701D01*
X68341878Y23463789D01*
X68341875Y23463776D01*
X68335102Y23465414D01*
X68332403Y23466147D01*
X68312650Y23472111D01*
X68292901Y23477774D01*
X68290570Y23478504D01*
X68082486Y23549341D01*
X68082487Y23549344D01*
X68082125Y23549469D01*
X68082124Y23549466D01*
X68075545Y23551758D01*
X68072941Y23552747D01*
X68053890Y23560599D01*
X68034761Y23568173D01*
X68032513Y23569127D01*
X67832330Y23659934D01*
X67832386Y23660057D01*
X67832055Y23660210D01*
X67831998Y23660086D01*
X67825671Y23663009D01*
X67823167Y23664252D01*
X67805032Y23673894D01*
X67786675Y23683329D01*
X67784530Y23684499D01*
X67594157Y23794411D01*
X67593853Y23794588D01*
X67587832Y23798121D01*
X67585466Y23799599D01*
X67568353Y23810969D01*
X67551011Y23822145D01*
X67548990Y23823519D01*
X67370250Y23951484D01*
X67369964Y23951690D01*
X67364316Y23955794D01*
X67362107Y23957496D01*
X67346198Y23970471D01*
X67330015Y23983297D01*
X67328137Y23984861D01*
X67162749Y24129649D01*
X67162847Y24129761D01*
X67162560Y24130007D01*
X67162465Y24129900D01*
X67157257Y24134524D01*
X67155222Y24136435D01*
X67140652Y24150903D01*
X67125801Y24165245D01*
X67124085Y24166985D01*
X66973616Y24327219D01*
X66973623Y24327225D01*
X66973358Y24327502D01*
X66973355Y24327499D01*
X66968623Y24332610D01*
X66966787Y24334707D01*
X66953651Y24350585D01*
X66940318Y24366252D01*
X66938781Y24368150D01*
X66804656Y24542313D01*
X66804443Y24542590D01*
X66800222Y24548151D01*
X66798597Y24550422D01*
X66787097Y24567472D01*
X66775332Y24584400D01*
X66773988Y24586439D01*
X66657508Y24772847D01*
X66657574Y24772888D01*
X66657368Y24773214D01*
X66657304Y24773175D01*
X66653657Y24779103D01*
X66652261Y24781522D01*
X66642495Y24799583D01*
X66632423Y24817606D01*
X66631283Y24819767D01*
X66533542Y25016666D01*
X66533387Y25016982D01*
X66530327Y25023257D01*
X66529175Y25025796D01*
X66521195Y25044778D01*
X66512953Y25063644D01*
X66512030Y25065906D01*
X66433969Y25271403D01*
X66433844Y25271734D01*
X66431411Y25278278D01*
X66430513Y25280918D01*
X66424447Y25300515D01*
X66418062Y25320166D01*
X66417364Y25322507D01*
X66359728Y25534640D01*
X66359637Y25534981D01*
X66357854Y25541731D01*
X66357217Y25544447D01*
X66353070Y25564652D01*
X66348656Y25584726D01*
X66348189Y25587125D01*
X66311532Y25803857D01*
X66311588Y25803866D01*
X66311535Y25804232D01*
X66311472Y25804222D01*
X66310357Y25811106D01*
X66309988Y25813875D01*
X66307842Y25834296D01*
X66305398Y25854789D01*
X66305168Y25857222D01*
X66289833Y26076512D01*
X66289810Y26076863D01*
X66289372Y26083830D01*
X66289274Y26086616D01*
X66289129Y26107238D01*
X66288772Y26124320D01*
X66288729Y26126407D01*
X67389030Y26126407D01*
X67400611Y25960790D01*
X67428298Y25797095D01*
X67471830Y25636872D01*
X67530783Y25481676D01*
X67604611Y25332950D01*
X67692584Y25192164D01*
X67793890Y25060617D01*
X67907537Y24939597D01*
X68032459Y24830235D01*
X68167454Y24733589D01*
X68311236Y24650576D01*
X68462436Y24581989D01*
X68619597Y24528487D01*
X68781226Y24490577D01*
X68945807Y24468617D01*
X69111734Y24462822D01*
X69277415Y24473246D01*
X69441313Y24499793D01*
X69601835Y24542204D01*
X69757433Y24600070D01*
X69906673Y24672859D01*
X70048075Y24759851D01*
X70180316Y24860227D01*
X70302135Y24973032D01*
X70412362Y25097185D01*
X70509947Y25231499D01*
X70593966Y25374707D01*
X70663603Y25525414D01*
X70718204Y25682210D01*
X70757243Y25843575D01*
X70780349Y26007987D01*
X70787302Y26173862D01*
X70778033Y26339632D01*
X70752635Y26503692D01*
X70711345Y26664511D01*
X70654563Y26820517D01*
X70582819Y26970257D01*
X70496824Y27112253D01*
X70397368Y27245200D01*
X70285407Y27367813D01*
X70162042Y27478890D01*
X70028394Y27577423D01*
X69885793Y27662431D01*
X69735579Y27733116D01*
X69579160Y27788815D01*
X69418073Y27828978D01*
X69253818Y27853234D01*
X69078397Y27861813D01*
X69050144Y27861418D01*
X68875014Y27847943D01*
X68711513Y27819113D01*
X68551609Y27774467D01*
X68396814Y27714426D01*
X68248622Y27639569D01*
X68108447Y27550611D01*
X67977612Y27448392D01*
X67857383Y27333899D01*
X67748903Y27208223D01*
X67653198Y27072553D01*
X67571189Y26928191D01*
X67503666Y26776533D01*
X67451256Y26618985D01*
X67414474Y26457087D01*
X67393666Y26292374D01*
X67389030Y26126407D01*
X66288729Y26126407D01*
X66288699Y26127791D01*
X66288707Y26130237D01*
X66294845Y26349975D01*
X66294857Y26350327D01*
X66295101Y26357304D01*
X66295276Y26360088D01*
X66297138Y26380544D01*
X66298721Y26401122D01*
X66298968Y26403553D01*
X66326518Y26621627D01*
X66326538Y26621624D01*
X66326579Y26621999D01*
X66326566Y26622001D01*
X66327488Y26628910D01*
X66327935Y26631666D01*
X66331793Y26651888D01*
X66335368Y26672163D01*
X66335850Y26674557D01*
X66384551Y26888920D01*
X66384630Y26889261D01*
X66386224Y26896057D01*
X66386937Y26898755D01*
X66392742Y26918478D01*
X66398288Y26938342D01*
X66399002Y26940678D01*
X66468386Y27149252D01*
X66468537Y27149202D01*
X66468655Y27149554D01*
X66468506Y27149605D01*
X66470750Y27156198D01*
X66471724Y27158818D01*
X66479421Y27177868D01*
X66486883Y27197106D01*
X66487822Y27199361D01*
X66577228Y27400169D01*
X66577235Y27400166D01*
X66577382Y27400511D01*
X66577381Y27400511D01*
X66580261Y27406859D01*
X66581483Y27409365D01*
X66591015Y27427600D01*
X66600305Y27445989D01*
X66601459Y27448141D01*
X66710039Y27639277D01*
X66710214Y27639582D01*
X66713705Y27645628D01*
X66715166Y27648004D01*
X66726451Y27665249D01*
X66737474Y27682619D01*
X66738833Y27684649D01*
X66865547Y27864277D01*
X66865750Y27864563D01*
X66869814Y27870239D01*
X66871501Y27872461D01*
X66884392Y27888495D01*
X66897078Y27904731D01*
X66898628Y27906618D01*
X67042251Y28073008D01*
X67042291Y28072974D01*
X67042552Y28073275D01*
X67042513Y28073309D01*
X67047090Y28078538D01*
X67048989Y28080589D01*
X67063406Y28095312D01*
X67077596Y28110212D01*
X67079323Y28111940D01*
X67238514Y28263535D01*
X67238767Y28263774D01*
X67243856Y28268553D01*
X67245945Y28270407D01*
X67261706Y28283632D01*
X67277302Y28297094D01*
X67279190Y28298644D01*
X67452412Y28433981D01*
X67452693Y28434200D01*
X67458225Y28438459D01*
X67460478Y28440095D01*
X67477398Y28451681D01*
X67494292Y28463598D01*
X67496322Y28464956D01*
X67681927Y28582744D01*
X67682063Y28582529D01*
X67682349Y28582747D01*
X67682231Y28582936D01*
X67688143Y28586630D01*
X67690549Y28588042D01*
X67708586Y28597958D01*
X67726497Y28608133D01*
X67728650Y28609287D01*
X67924862Y28708400D01*
X67925174Y28708557D01*
X67931427Y28711661D01*
X67933963Y28712832D01*
X67952863Y28720932D01*
X67971693Y28729316D01*
X67973949Y28730255D01*
X68178896Y28809749D01*
X68179222Y28809874D01*
X68185748Y28812353D01*
X68188385Y28813272D01*
X68208040Y28819507D01*
X68227548Y28825996D01*
X68229884Y28826710D01*
X68441591Y28885820D01*
X68441602Y28885782D01*
X68441982Y28885885D01*
X68441971Y28885925D01*
X68448686Y28887749D01*
X68451398Y28888404D01*
X68471473Y28892671D01*
X68491614Y28897247D01*
X68494010Y28897730D01*
X68710494Y28935902D01*
X68710840Y28935962D01*
X68717724Y28937126D01*
X68720486Y28937514D01*
X68740909Y28939805D01*
X68761375Y28942390D01*
X68763804Y28942637D01*
X68982980Y28959502D01*
X68983328Y28959527D01*
X68990292Y28960014D01*
X68993080Y28960131D01*
X69004085Y28960285D01*
X69015059Y28960975D01*
X69017499Y28961069D01*
X69080323Y28961946D01*
X69080670Y28961950D01*
X69087651Y28961999D01*
X69090444Y28961940D01*
G37*
%TD*%
D12*
%TO.C,J4*%
X10668000Y50292000D03*
D11*
X13208000Y50292000D03*
X15748000Y50292000D03*
X18288000Y50292000D03*
X20828000Y50292000D03*
X23368000Y50292000D03*
X25908000Y50292000D03*
X28448000Y50292000D03*
%TD*%
%TO.C,C1*%
G36*
G01*
X9863000Y17183000D02*
X9863000Y19393000D01*
G75*
G02*
X10133000Y19663000I270000J0D01*
G01*
X10943000Y19663000D01*
G75*
G02*
X11213000Y19393000I0J-270000D01*
G01*
X11213000Y17183000D01*
G75*
G02*
X10943000Y16913000I-270000J0D01*
G01*
X10133000Y16913000D01*
G75*
G02*
X9863000Y17183000I0J270000D01*
G01*
G37*
G36*
G01*
X12663000Y17183000D02*
X12663000Y19393000D01*
G75*
G02*
X12933000Y19663000I270000J0D01*
G01*
X13743000Y19663000D01*
G75*
G02*
X14013000Y19393000I0J-270000D01*
G01*
X14013000Y17183000D01*
G75*
G02*
X13743000Y16913000I-270000J0D01*
G01*
X12933000Y16913000D01*
G75*
G02*
X12663000Y17183000I0J270000D01*
G01*
G37*
%TD*%
%TO.C,C2*%
G36*
G01*
X12663000Y21374000D02*
X12663000Y23584000D01*
G75*
G02*
X12933000Y23854000I270000J0D01*
G01*
X13743000Y23854000D01*
G75*
G02*
X14013000Y23584000I0J-270000D01*
G01*
X14013000Y21374000D01*
G75*
G02*
X13743000Y21104000I-270000J0D01*
G01*
X12933000Y21104000D01*
G75*
G02*
X12663000Y21374000I0J270000D01*
G01*
G37*
G36*
G01*
X9863000Y21374000D02*
X9863000Y23584000D01*
G75*
G02*
X10133000Y23854000I270000J0D01*
G01*
X10943000Y23854000D01*
G75*
G02*
X11213000Y23584000I0J-270000D01*
G01*
X11213000Y21374000D01*
G75*
G02*
X10943000Y21104000I-270000J0D01*
G01*
X10133000Y21104000D01*
G75*
G02*
X9863000Y21374000I0J270000D01*
G01*
G37*
%TD*%
%TO.C,C3*%
G36*
G01*
X23521750Y37319000D02*
X24484250Y37319000D01*
G75*
G02*
X24753000Y37050250I0J-268750D01*
G01*
X24753000Y36512750D01*
G75*
G02*
X24484250Y36244000I-268750J0D01*
G01*
X23521750Y36244000D01*
G75*
G02*
X23253000Y36512750I0J268750D01*
G01*
X23253000Y37050250D01*
G75*
G02*
X23521750Y37319000I268750J0D01*
G01*
G37*
G36*
G01*
X23521750Y39194000D02*
X24484250Y39194000D01*
G75*
G02*
X24753000Y38925250I0J-268750D01*
G01*
X24753000Y38387750D01*
G75*
G02*
X24484250Y38119000I-268750J0D01*
G01*
X23521750Y38119000D01*
G75*
G02*
X23253000Y38387750I0J268750D01*
G01*
X23253000Y38925250D01*
G75*
G02*
X23521750Y39194000I268750J0D01*
G01*
G37*
%TD*%
%TO.C,C4*%
G36*
G01*
X24484250Y40054000D02*
X23521750Y40054000D01*
G75*
G02*
X23253000Y40322750I0J268750D01*
G01*
X23253000Y40860250D01*
G75*
G02*
X23521750Y41129000I268750J0D01*
G01*
X24484250Y41129000D01*
G75*
G02*
X24753000Y40860250I0J-268750D01*
G01*
X24753000Y40322750D01*
G75*
G02*
X24484250Y40054000I-268750J0D01*
G01*
G37*
G36*
G01*
X24484250Y41929000D02*
X23521750Y41929000D01*
G75*
G02*
X23253000Y42197750I0J268750D01*
G01*
X23253000Y42735250D01*
G75*
G02*
X23521750Y43004000I268750J0D01*
G01*
X24484250Y43004000D01*
G75*
G02*
X24753000Y42735250I0J-268750D01*
G01*
X24753000Y42197750D01*
G75*
G02*
X24484250Y41929000I-268750J0D01*
G01*
G37*
%TD*%
%TO.C,C5*%
G36*
G01*
X20346750Y47830000D02*
X21309250Y47830000D01*
G75*
G02*
X21578000Y47561250I0J-268750D01*
G01*
X21578000Y47023750D01*
G75*
G02*
X21309250Y46755000I-268750J0D01*
G01*
X20346750Y46755000D01*
G75*
G02*
X20078000Y47023750I0J268750D01*
G01*
X20078000Y47561250D01*
G75*
G02*
X20346750Y47830000I268750J0D01*
G01*
G37*
G36*
G01*
X20346750Y45955000D02*
X21309250Y45955000D01*
G75*
G02*
X21578000Y45686250I0J-268750D01*
G01*
X21578000Y45148750D01*
G75*
G02*
X21309250Y44880000I-268750J0D01*
G01*
X20346750Y44880000D01*
G75*
G02*
X20078000Y45148750I0J268750D01*
G01*
X20078000Y45686250D01*
G75*
G02*
X20346750Y45955000I268750J0D01*
G01*
G37*
%TD*%
%TO.C,C6*%
G36*
G01*
X16229250Y46755000D02*
X15266750Y46755000D01*
G75*
G02*
X14998000Y47023750I0J268750D01*
G01*
X14998000Y47561250D01*
G75*
G02*
X15266750Y47830000I268750J0D01*
G01*
X16229250Y47830000D01*
G75*
G02*
X16498000Y47561250I0J-268750D01*
G01*
X16498000Y47023750D01*
G75*
G02*
X16229250Y46755000I-268750J0D01*
G01*
G37*
G36*
G01*
X16229250Y44880000D02*
X15266750Y44880000D01*
G75*
G02*
X14998000Y45148750I0J268750D01*
G01*
X14998000Y45686250D01*
G75*
G02*
X15266750Y45955000I268750J0D01*
G01*
X16229250Y45955000D01*
G75*
G02*
X16498000Y45686250I0J-268750D01*
G01*
X16498000Y45148750D01*
G75*
G02*
X16229250Y44880000I-268750J0D01*
G01*
G37*
%TD*%
%TO.C,C7*%
G36*
G01*
X39477000Y44995000D02*
X40787000Y44995000D01*
G75*
G02*
X41057000Y44725000I0J-270000D01*
G01*
X41057000Y43915000D01*
G75*
G02*
X40787000Y43645000I-270000J0D01*
G01*
X39477000Y43645000D01*
G75*
G02*
X39207000Y43915000I0J270000D01*
G01*
X39207000Y44725000D01*
G75*
G02*
X39477000Y44995000I270000J0D01*
G01*
G37*
G36*
G01*
X39477000Y47795000D02*
X40787000Y47795000D01*
G75*
G02*
X41057000Y47525000I0J-270000D01*
G01*
X41057000Y46715000D01*
G75*
G02*
X40787000Y46445000I-270000J0D01*
G01*
X39477000Y46445000D01*
G75*
G02*
X39207000Y46715000I0J270000D01*
G01*
X39207000Y47525000D01*
G75*
G02*
X39477000Y47795000I270000J0D01*
G01*
G37*
%TD*%
%TO.C,C8*%
G36*
G01*
X36683000Y47795000D02*
X37993000Y47795000D01*
G75*
G02*
X38263000Y47525000I0J-270000D01*
G01*
X38263000Y46715000D01*
G75*
G02*
X37993000Y46445000I-270000J0D01*
G01*
X36683000Y46445000D01*
G75*
G02*
X36413000Y46715000I0J270000D01*
G01*
X36413000Y47525000D01*
G75*
G02*
X36683000Y47795000I270000J0D01*
G01*
G37*
G36*
G01*
X36683000Y44995000D02*
X37993000Y44995000D01*
G75*
G02*
X38263000Y44725000I0J-270000D01*
G01*
X38263000Y43915000D01*
G75*
G02*
X37993000Y43645000I-270000J0D01*
G01*
X36683000Y43645000D01*
G75*
G02*
X36413000Y43915000I0J270000D01*
G01*
X36413000Y44725000D01*
G75*
G02*
X36683000Y44995000I270000J0D01*
G01*
G37*
%TD*%
D19*
%TO.C,D1*%
X2159000Y12189000D03*
X2159000Y14989000D03*
%TD*%
%TO.C,D2*%
X4953000Y14989000D03*
X4953000Y12189000D03*
%TD*%
%TO.C,D3*%
X7747000Y12189000D03*
X7747000Y14989000D03*
%TD*%
D20*
%TO.C,D4*%
X6953000Y20320000D03*
X2953000Y20320000D03*
%TD*%
D21*
%TO.C,D5*%
X16002000Y37624000D03*
X16002000Y41624000D03*
%TD*%
%TO.C,D6*%
G36*
G01*
X10786500Y47805000D02*
X11311500Y47805000D01*
G75*
G02*
X11574000Y47542500I0J-262500D01*
G01*
X11574000Y46917500D01*
G75*
G02*
X11311500Y46655000I-262500J0D01*
G01*
X10786500Y46655000D01*
G75*
G02*
X10524000Y46917500I0J262500D01*
G01*
X10524000Y47542500D01*
G75*
G02*
X10786500Y47805000I262500J0D01*
G01*
G37*
G36*
G01*
X10786500Y46055000D02*
X11311500Y46055000D01*
G75*
G02*
X11574000Y45792500I0J-262500D01*
G01*
X11574000Y45167500D01*
G75*
G02*
X11311500Y44905000I-262500J0D01*
G01*
X10786500Y44905000D01*
G75*
G02*
X10524000Y45167500I0J262500D01*
G01*
X10524000Y45792500D01*
G75*
G02*
X10786500Y46055000I262500J0D01*
G01*
G37*
%TD*%
%TO.C,D7*%
G36*
G01*
X66175500Y49830000D02*
X65650500Y49830000D01*
G75*
G02*
X65388000Y50092500I0J262500D01*
G01*
X65388000Y50717500D01*
G75*
G02*
X65650500Y50980000I262500J0D01*
G01*
X66175500Y50980000D01*
G75*
G02*
X66438000Y50717500I0J-262500D01*
G01*
X66438000Y50092500D01*
G75*
G02*
X66175500Y49830000I-262500J0D01*
G01*
G37*
G36*
G01*
X66175500Y48080000D02*
X65650500Y48080000D01*
G75*
G02*
X65388000Y48342500I0J262500D01*
G01*
X65388000Y48967500D01*
G75*
G02*
X65650500Y49230000I262500J0D01*
G01*
X66175500Y49230000D01*
G75*
G02*
X66438000Y48967500I0J-262500D01*
G01*
X66438000Y48342500D01*
G75*
G02*
X66175500Y48080000I-262500J0D01*
G01*
G37*
%TD*%
%TO.C,D8*%
G36*
G01*
X60018000Y23359500D02*
X60018000Y23884500D01*
G75*
G02*
X60280500Y24147000I262500J0D01*
G01*
X60905500Y24147000D01*
G75*
G02*
X61168000Y23884500I0J-262500D01*
G01*
X61168000Y23359500D01*
G75*
G02*
X60905500Y23097000I-262500J0D01*
G01*
X60280500Y23097000D01*
G75*
G02*
X60018000Y23359500I0J262500D01*
G01*
G37*
G36*
G01*
X61768000Y23359500D02*
X61768000Y23884500D01*
G75*
G02*
X62030500Y24147000I262500J0D01*
G01*
X62655500Y24147000D01*
G75*
G02*
X62918000Y23884500I0J-262500D01*
G01*
X62918000Y23359500D01*
G75*
G02*
X62655500Y23097000I-262500J0D01*
G01*
X62030500Y23097000D01*
G75*
G02*
X61768000Y23359500I0J262500D01*
G01*
G37*
%TD*%
%TO.C,D9*%
G36*
G01*
X60018000Y9389500D02*
X60018000Y9914500D01*
G75*
G02*
X60280500Y10177000I262500J0D01*
G01*
X60905500Y10177000D01*
G75*
G02*
X61168000Y9914500I0J-262500D01*
G01*
X61168000Y9389500D01*
G75*
G02*
X60905500Y9127000I-262500J0D01*
G01*
X60280500Y9127000D01*
G75*
G02*
X60018000Y9389500I0J262500D01*
G01*
G37*
G36*
G01*
X61768000Y9389500D02*
X61768000Y9914500D01*
G75*
G02*
X62030500Y10177000I262500J0D01*
G01*
X62655500Y10177000D01*
G75*
G02*
X62918000Y9914500I0J-262500D01*
G01*
X62918000Y9389500D01*
G75*
G02*
X62655500Y9127000I-262500J0D01*
G01*
X62030500Y9127000D01*
G75*
G02*
X61768000Y9389500I0J262500D01*
G01*
G37*
%TD*%
%TO.C,D10*%
G36*
G01*
X61768000Y18279500D02*
X61768000Y18804500D01*
G75*
G02*
X62030500Y19067000I262500J0D01*
G01*
X62655500Y19067000D01*
G75*
G02*
X62918000Y18804500I0J-262500D01*
G01*
X62918000Y18279500D01*
G75*
G02*
X62655500Y18017000I-262500J0D01*
G01*
X62030500Y18017000D01*
G75*
G02*
X61768000Y18279500I0J262500D01*
G01*
G37*
G36*
G01*
X60018000Y18279500D02*
X60018000Y18804500D01*
G75*
G02*
X60280500Y19067000I262500J0D01*
G01*
X60905500Y19067000D01*
G75*
G02*
X61168000Y18804500I0J-262500D01*
G01*
X61168000Y18279500D01*
G75*
G02*
X60905500Y18017000I-262500J0D01*
G01*
X60280500Y18017000D01*
G75*
G02*
X60018000Y18279500I0J262500D01*
G01*
G37*
%TD*%
D19*
%TO.C,D11*%
X57661000Y20447000D03*
X54861000Y20447000D03*
%TD*%
D20*
%TO.C,D12*%
X71850000Y13081000D03*
X67850000Y13081000D03*
%TD*%
%TO.C,D13*%
X71850000Y19812000D03*
X67850000Y19812000D03*
%TD*%
D22*
%TO.C,H2*%
X61468000Y14782800D03*
X61468000Y5715000D03*
%TD*%
D12*
%TO.C,J3*%
X69088000Y50292000D03*
D11*
X69088000Y47752000D03*
X71628000Y50292000D03*
X71628000Y47752000D03*
%TD*%
D14*
%TO.C,J2*%
X42413000Y7747000D03*
D23*
X40513000Y14097000D03*
X39243000Y16637000D03*
X37973000Y14097000D03*
X36703000Y16637000D03*
X35433000Y14097000D03*
D14*
X32253000Y7747000D03*
D24*
X34163000Y16637000D03*
%TD*%
%TO.C,J1*%
X48768000Y16637000D03*
D14*
X46858000Y7747000D03*
D23*
X50038000Y14097000D03*
X51308000Y16637000D03*
X52578000Y14097000D03*
X53848000Y16637000D03*
X55118000Y14097000D03*
D14*
X57018000Y7747000D03*
%TD*%
D25*
%TO.C,L1*%
X2062000Y36322000D03*
X12162000Y36322000D03*
%TD*%
D26*
%TO.C,Q1*%
X16952000Y34020000D03*
X15052000Y34020000D03*
X16002000Y32020000D03*
%TD*%
%TO.C,R1*%
G36*
G01*
X22049000Y18261250D02*
X22049000Y17298750D01*
G75*
G02*
X21780250Y17030000I-268750J0D01*
G01*
X21242750Y17030000D01*
G75*
G02*
X20974000Y17298750I0J268750D01*
G01*
X20974000Y18261250D01*
G75*
G02*
X21242750Y18530000I268750J0D01*
G01*
X21780250Y18530000D01*
G75*
G02*
X22049000Y18261250I0J-268750D01*
G01*
G37*
G36*
G01*
X20174000Y18261250D02*
X20174000Y17298750D01*
G75*
G02*
X19905250Y17030000I-268750J0D01*
G01*
X19367750Y17030000D01*
G75*
G02*
X19099000Y17298750I0J268750D01*
G01*
X19099000Y18261250D01*
G75*
G02*
X19367750Y18530000I268750J0D01*
G01*
X19905250Y18530000D01*
G75*
G02*
X20174000Y18261250I0J-268750D01*
G01*
G37*
%TD*%
%TO.C,R2*%
G36*
G01*
X27540000Y18261250D02*
X27540000Y17298750D01*
G75*
G02*
X27271250Y17030000I-268750J0D01*
G01*
X26733750Y17030000D01*
G75*
G02*
X26465000Y17298750I0J268750D01*
G01*
X26465000Y18261250D01*
G75*
G02*
X26733750Y18530000I268750J0D01*
G01*
X27271250Y18530000D01*
G75*
G02*
X27540000Y18261250I0J-268750D01*
G01*
G37*
G36*
G01*
X29415000Y18261250D02*
X29415000Y17298750D01*
G75*
G02*
X29146250Y17030000I-268750J0D01*
G01*
X28608750Y17030000D01*
G75*
G02*
X28340000Y17298750I0J268750D01*
G01*
X28340000Y18261250D01*
G75*
G02*
X28608750Y18530000I268750J0D01*
G01*
X29146250Y18530000D01*
G75*
G02*
X29415000Y18261250I0J-268750D01*
G01*
G37*
%TD*%
%TO.C,R3*%
G36*
G01*
X26061750Y37319000D02*
X27024250Y37319000D01*
G75*
G02*
X27293000Y37050250I0J-268750D01*
G01*
X27293000Y36512750D01*
G75*
G02*
X27024250Y36244000I-268750J0D01*
G01*
X26061750Y36244000D01*
G75*
G02*
X25793000Y36512750I0J268750D01*
G01*
X25793000Y37050250D01*
G75*
G02*
X26061750Y37319000I268750J0D01*
G01*
G37*
G36*
G01*
X26061750Y39194000D02*
X27024250Y39194000D01*
G75*
G02*
X27293000Y38925250I0J-268750D01*
G01*
X27293000Y38387750D01*
G75*
G02*
X27024250Y38119000I-268750J0D01*
G01*
X26061750Y38119000D01*
G75*
G02*
X25793000Y38387750I0J268750D01*
G01*
X25793000Y38925250D01*
G75*
G02*
X26061750Y39194000I268750J0D01*
G01*
G37*
%TD*%
%TO.C,R4*%
G36*
G01*
X41936750Y35384000D02*
X42899250Y35384000D01*
G75*
G02*
X43168000Y35115250I0J-268750D01*
G01*
X43168000Y34577750D01*
G75*
G02*
X42899250Y34309000I-268750J0D01*
G01*
X41936750Y34309000D01*
G75*
G02*
X41668000Y34577750I0J268750D01*
G01*
X41668000Y35115250D01*
G75*
G02*
X41936750Y35384000I268750J0D01*
G01*
G37*
G36*
G01*
X41936750Y33509000D02*
X42899250Y33509000D01*
G75*
G02*
X43168000Y33240250I0J-268750D01*
G01*
X43168000Y32702750D01*
G75*
G02*
X42899250Y32434000I-268750J0D01*
G01*
X41936750Y32434000D01*
G75*
G02*
X41668000Y32702750I0J268750D01*
G01*
X41668000Y33240250D01*
G75*
G02*
X41936750Y33509000I268750J0D01*
G01*
G37*
%TD*%
%TO.C,R5*%
G36*
G01*
X25732000Y18261250D02*
X25732000Y17298750D01*
G75*
G02*
X25463250Y17030000I-268750J0D01*
G01*
X24925750Y17030000D01*
G75*
G02*
X24657000Y17298750I0J268750D01*
G01*
X24657000Y18261250D01*
G75*
G02*
X24925750Y18530000I268750J0D01*
G01*
X25463250Y18530000D01*
G75*
G02*
X25732000Y18261250I0J-268750D01*
G01*
G37*
G36*
G01*
X23857000Y18261250D02*
X23857000Y17298750D01*
G75*
G02*
X23588250Y17030000I-268750J0D01*
G01*
X23050750Y17030000D01*
G75*
G02*
X22782000Y17298750I0J268750D01*
G01*
X22782000Y18261250D01*
G75*
G02*
X23050750Y18530000I268750J0D01*
G01*
X23588250Y18530000D01*
G75*
G02*
X23857000Y18261250I0J-268750D01*
G01*
G37*
%TD*%
%TO.C,R6*%
G36*
G01*
X16491000Y18261250D02*
X16491000Y17298750D01*
G75*
G02*
X16222250Y17030000I-268750J0D01*
G01*
X15684750Y17030000D01*
G75*
G02*
X15416000Y17298750I0J268750D01*
G01*
X15416000Y18261250D01*
G75*
G02*
X15684750Y18530000I268750J0D01*
G01*
X16222250Y18530000D01*
G75*
G02*
X16491000Y18261250I0J-268750D01*
G01*
G37*
G36*
G01*
X18366000Y18261250D02*
X18366000Y17298750D01*
G75*
G02*
X18097250Y17030000I-268750J0D01*
G01*
X17559750Y17030000D01*
G75*
G02*
X17291000Y17298750I0J268750D01*
G01*
X17291000Y18261250D01*
G75*
G02*
X17559750Y18530000I268750J0D01*
G01*
X18097250Y18530000D01*
G75*
G02*
X18366000Y18261250I0J-268750D01*
G01*
G37*
%TD*%
%TO.C,R7*%
G36*
G01*
X39396750Y33509000D02*
X40359250Y33509000D01*
G75*
G02*
X40628000Y33240250I0J-268750D01*
G01*
X40628000Y32702750D01*
G75*
G02*
X40359250Y32434000I-268750J0D01*
G01*
X39396750Y32434000D01*
G75*
G02*
X39128000Y32702750I0J268750D01*
G01*
X39128000Y33240250D01*
G75*
G02*
X39396750Y33509000I268750J0D01*
G01*
G37*
G36*
G01*
X39396750Y35384000D02*
X40359250Y35384000D01*
G75*
G02*
X40628000Y35115250I0J-268750D01*
G01*
X40628000Y34577750D01*
G75*
G02*
X40359250Y34309000I-268750J0D01*
G01*
X39396750Y34309000D01*
G75*
G02*
X39128000Y34577750I0J268750D01*
G01*
X39128000Y35115250D01*
G75*
G02*
X39396750Y35384000I268750J0D01*
G01*
G37*
%TD*%
%TO.C,R8*%
G36*
G01*
X36856750Y33509000D02*
X37819250Y33509000D01*
G75*
G02*
X38088000Y33240250I0J-268750D01*
G01*
X38088000Y32702750D01*
G75*
G02*
X37819250Y32434000I-268750J0D01*
G01*
X36856750Y32434000D01*
G75*
G02*
X36588000Y32702750I0J268750D01*
G01*
X36588000Y33240250D01*
G75*
G02*
X36856750Y33509000I268750J0D01*
G01*
G37*
G36*
G01*
X36856750Y35384000D02*
X37819250Y35384000D01*
G75*
G02*
X38088000Y35115250I0J-268750D01*
G01*
X38088000Y34577750D01*
G75*
G02*
X37819250Y34309000I-268750J0D01*
G01*
X36856750Y34309000D01*
G75*
G02*
X36588000Y34577750I0J268750D01*
G01*
X36588000Y35115250D01*
G75*
G02*
X36856750Y35384000I268750J0D01*
G01*
G37*
%TD*%
%TO.C,R9*%
G36*
G01*
X34316750Y35384000D02*
X35279250Y35384000D01*
G75*
G02*
X35548000Y35115250I0J-268750D01*
G01*
X35548000Y34577750D01*
G75*
G02*
X35279250Y34309000I-268750J0D01*
G01*
X34316750Y34309000D01*
G75*
G02*
X34048000Y34577750I0J268750D01*
G01*
X34048000Y35115250D01*
G75*
G02*
X34316750Y35384000I268750J0D01*
G01*
G37*
G36*
G01*
X34316750Y33509000D02*
X35279250Y33509000D01*
G75*
G02*
X35548000Y33240250I0J-268750D01*
G01*
X35548000Y32702750D01*
G75*
G02*
X35279250Y32434000I-268750J0D01*
G01*
X34316750Y32434000D01*
G75*
G02*
X34048000Y32702750I0J268750D01*
G01*
X34048000Y33240250D01*
G75*
G02*
X34316750Y33509000I268750J0D01*
G01*
G37*
%TD*%
%TO.C,R10*%
G36*
G01*
X27024250Y41929000D02*
X26061750Y41929000D01*
G75*
G02*
X25793000Y42197750I0J268750D01*
G01*
X25793000Y42735250D01*
G75*
G02*
X26061750Y43004000I268750J0D01*
G01*
X27024250Y43004000D01*
G75*
G02*
X27293000Y42735250I0J-268750D01*
G01*
X27293000Y42197750D01*
G75*
G02*
X27024250Y41929000I-268750J0D01*
G01*
G37*
G36*
G01*
X27024250Y40054000D02*
X26061750Y40054000D01*
G75*
G02*
X25793000Y40322750I0J268750D01*
G01*
X25793000Y40860250D01*
G75*
G02*
X26061750Y41129000I268750J0D01*
G01*
X27024250Y41129000D01*
G75*
G02*
X27293000Y40860250I0J-268750D01*
G01*
X27293000Y40322750D01*
G75*
G02*
X27024250Y40054000I-268750J0D01*
G01*
G37*
%TD*%
%TO.C,R11*%
G36*
G01*
X31596250Y24560000D02*
X30633750Y24560000D01*
G75*
G02*
X30365000Y24828750I0J268750D01*
G01*
X30365000Y25366250D01*
G75*
G02*
X30633750Y25635000I268750J0D01*
G01*
X31596250Y25635000D01*
G75*
G02*
X31865000Y25366250I0J-268750D01*
G01*
X31865000Y24828750D01*
G75*
G02*
X31596250Y24560000I-268750J0D01*
G01*
G37*
G36*
G01*
X31596250Y26435000D02*
X30633750Y26435000D01*
G75*
G02*
X30365000Y26703750I0J268750D01*
G01*
X30365000Y27241250D01*
G75*
G02*
X30633750Y27510000I268750J0D01*
G01*
X31596250Y27510000D01*
G75*
G02*
X31865000Y27241250I0J-268750D01*
G01*
X31865000Y26703750D01*
G75*
G02*
X31596250Y26435000I-268750J0D01*
G01*
G37*
%TD*%
%TO.C,R12*%
G36*
G01*
X34009250Y26435000D02*
X33046750Y26435000D01*
G75*
G02*
X32778000Y26703750I0J268750D01*
G01*
X32778000Y27241250D01*
G75*
G02*
X33046750Y27510000I268750J0D01*
G01*
X34009250Y27510000D01*
G75*
G02*
X34278000Y27241250I0J-268750D01*
G01*
X34278000Y26703750D01*
G75*
G02*
X34009250Y26435000I-268750J0D01*
G01*
G37*
G36*
G01*
X34009250Y24560000D02*
X33046750Y24560000D01*
G75*
G02*
X32778000Y24828750I0J268750D01*
G01*
X32778000Y25366250D01*
G75*
G02*
X33046750Y25635000I268750J0D01*
G01*
X34009250Y25635000D01*
G75*
G02*
X34278000Y25366250I0J-268750D01*
G01*
X34278000Y24828750D01*
G75*
G02*
X34009250Y24560000I-268750J0D01*
G01*
G37*
%TD*%
%TO.C,R13*%
G36*
G01*
X55599250Y32434000D02*
X54636750Y32434000D01*
G75*
G02*
X54368000Y32702750I0J268750D01*
G01*
X54368000Y33240250D01*
G75*
G02*
X54636750Y33509000I268750J0D01*
G01*
X55599250Y33509000D01*
G75*
G02*
X55868000Y33240250I0J-268750D01*
G01*
X55868000Y32702750D01*
G75*
G02*
X55599250Y32434000I-268750J0D01*
G01*
G37*
G36*
G01*
X55599250Y34309000D02*
X54636750Y34309000D01*
G75*
G02*
X54368000Y34577750I0J268750D01*
G01*
X54368000Y35115250D01*
G75*
G02*
X54636750Y35384000I268750J0D01*
G01*
X55599250Y35384000D01*
G75*
G02*
X55868000Y35115250I0J-268750D01*
G01*
X55868000Y34577750D01*
G75*
G02*
X55599250Y34309000I-268750J0D01*
G01*
G37*
%TD*%
%TO.C,R14*%
G36*
G01*
X12593000Y25103000D02*
X11283000Y25103000D01*
G75*
G02*
X11013000Y25373000I0J270000D01*
G01*
X11013000Y26183000D01*
G75*
G02*
X11283000Y26453000I270000J0D01*
G01*
X12593000Y26453000D01*
G75*
G02*
X12863000Y26183000I0J-270000D01*
G01*
X12863000Y25373000D01*
G75*
G02*
X12593000Y25103000I-270000J0D01*
G01*
G37*
G36*
G01*
X12593000Y27903000D02*
X11283000Y27903000D01*
G75*
G02*
X11013000Y28173000I0J270000D01*
G01*
X11013000Y28983000D01*
G75*
G02*
X11283000Y29253000I270000J0D01*
G01*
X12593000Y29253000D01*
G75*
G02*
X12863000Y28983000I0J-270000D01*
G01*
X12863000Y28173000D01*
G75*
G02*
X12593000Y27903000I-270000J0D01*
G01*
G37*
%TD*%
%TO.C,R16*%
G36*
G01*
X18769250Y44880000D02*
X17806750Y44880000D01*
G75*
G02*
X17538000Y45148750I0J268750D01*
G01*
X17538000Y45686250D01*
G75*
G02*
X17806750Y45955000I268750J0D01*
G01*
X18769250Y45955000D01*
G75*
G02*
X19038000Y45686250I0J-268750D01*
G01*
X19038000Y45148750D01*
G75*
G02*
X18769250Y44880000I-268750J0D01*
G01*
G37*
G36*
G01*
X18769250Y46755000D02*
X17806750Y46755000D01*
G75*
G02*
X17538000Y47023750I0J268750D01*
G01*
X17538000Y47561250D01*
G75*
G02*
X17806750Y47830000I268750J0D01*
G01*
X18769250Y47830000D01*
G75*
G02*
X19038000Y47561250I0J-268750D01*
G01*
X19038000Y47023750D01*
G75*
G02*
X18769250Y46755000I-268750J0D01*
G01*
G37*
%TD*%
%TO.C,R17*%
G36*
G01*
X22886750Y45955000D02*
X23849250Y45955000D01*
G75*
G02*
X24118000Y45686250I0J-268750D01*
G01*
X24118000Y45148750D01*
G75*
G02*
X23849250Y44880000I-268750J0D01*
G01*
X22886750Y44880000D01*
G75*
G02*
X22618000Y45148750I0J268750D01*
G01*
X22618000Y45686250D01*
G75*
G02*
X22886750Y45955000I268750J0D01*
G01*
G37*
G36*
G01*
X22886750Y47830000D02*
X23849250Y47830000D01*
G75*
G02*
X24118000Y47561250I0J-268750D01*
G01*
X24118000Y47023750D01*
G75*
G02*
X23849250Y46755000I-268750J0D01*
G01*
X22886750Y46755000D01*
G75*
G02*
X22618000Y47023750I0J268750D01*
G01*
X22618000Y47561250D01*
G75*
G02*
X22886750Y47830000I268750J0D01*
G01*
G37*
%TD*%
%TO.C,R18*%
G36*
G01*
X26389250Y44880000D02*
X25426750Y44880000D01*
G75*
G02*
X25158000Y45148750I0J268750D01*
G01*
X25158000Y45686250D01*
G75*
G02*
X25426750Y45955000I268750J0D01*
G01*
X26389250Y45955000D01*
G75*
G02*
X26658000Y45686250I0J-268750D01*
G01*
X26658000Y45148750D01*
G75*
G02*
X26389250Y44880000I-268750J0D01*
G01*
G37*
G36*
G01*
X26389250Y46755000D02*
X25426750Y46755000D01*
G75*
G02*
X25158000Y47023750I0J268750D01*
G01*
X25158000Y47561250D01*
G75*
G02*
X25426750Y47830000I268750J0D01*
G01*
X26389250Y47830000D01*
G75*
G02*
X26658000Y47561250I0J-268750D01*
G01*
X26658000Y47023750D01*
G75*
G02*
X26389250Y46755000I-268750J0D01*
G01*
G37*
%TD*%
%TO.C,R19*%
G36*
G01*
X12726750Y45955000D02*
X13689250Y45955000D01*
G75*
G02*
X13958000Y45686250I0J-268750D01*
G01*
X13958000Y45148750D01*
G75*
G02*
X13689250Y44880000I-268750J0D01*
G01*
X12726750Y44880000D01*
G75*
G02*
X12458000Y45148750I0J268750D01*
G01*
X12458000Y45686250D01*
G75*
G02*
X12726750Y45955000I268750J0D01*
G01*
G37*
G36*
G01*
X12726750Y47830000D02*
X13689250Y47830000D01*
G75*
G02*
X13958000Y47561250I0J-268750D01*
G01*
X13958000Y47023750D01*
G75*
G02*
X13689250Y46755000I-268750J0D01*
G01*
X12726750Y46755000D01*
G75*
G02*
X12458000Y47023750I0J268750D01*
G01*
X12458000Y47561250D01*
G75*
G02*
X12726750Y47830000I268750J0D01*
G01*
G37*
%TD*%
%TO.C,R20*%
G36*
G01*
X63981250Y48055000D02*
X63018750Y48055000D01*
G75*
G02*
X62750000Y48323750I0J268750D01*
G01*
X62750000Y48861250D01*
G75*
G02*
X63018750Y49130000I268750J0D01*
G01*
X63981250Y49130000D01*
G75*
G02*
X64250000Y48861250I0J-268750D01*
G01*
X64250000Y48323750D01*
G75*
G02*
X63981250Y48055000I-268750J0D01*
G01*
G37*
G36*
G01*
X63981250Y49930000D02*
X63018750Y49930000D01*
G75*
G02*
X62750000Y50198750I0J268750D01*
G01*
X62750000Y50736250D01*
G75*
G02*
X63018750Y51005000I268750J0D01*
G01*
X63981250Y51005000D01*
G75*
G02*
X64250000Y50736250I0J-268750D01*
G01*
X64250000Y50198750D01*
G75*
G02*
X63981250Y49930000I-268750J0D01*
G01*
G37*
%TD*%
%TO.C,R21*%
G36*
G01*
X68218000Y16028750D02*
X68218000Y16991250D01*
G75*
G02*
X68486750Y17260000I268750J0D01*
G01*
X69024250Y17260000D01*
G75*
G02*
X69293000Y16991250I0J-268750D01*
G01*
X69293000Y16028750D01*
G75*
G02*
X69024250Y15760000I-268750J0D01*
G01*
X68486750Y15760000D01*
G75*
G02*
X68218000Y16028750I0J268750D01*
G01*
G37*
G36*
G01*
X66343000Y16028750D02*
X66343000Y16991250D01*
G75*
G02*
X66611750Y17260000I268750J0D01*
G01*
X67149250Y17260000D01*
G75*
G02*
X67418000Y16991250I0J-268750D01*
G01*
X67418000Y16028750D01*
G75*
G02*
X67149250Y15760000I-268750J0D01*
G01*
X66611750Y15760000D01*
G75*
G02*
X66343000Y16028750I0J268750D01*
G01*
G37*
%TD*%
%TO.C,R22*%
G36*
G01*
X59993000Y11329750D02*
X59993000Y12292250D01*
G75*
G02*
X60261750Y12561000I268750J0D01*
G01*
X60799250Y12561000D01*
G75*
G02*
X61068000Y12292250I0J-268750D01*
G01*
X61068000Y11329750D01*
G75*
G02*
X60799250Y11061000I-268750J0D01*
G01*
X60261750Y11061000D01*
G75*
G02*
X59993000Y11329750I0J268750D01*
G01*
G37*
G36*
G01*
X61868000Y11329750D02*
X61868000Y12292250D01*
G75*
G02*
X62136750Y12561000I268750J0D01*
G01*
X62674250Y12561000D01*
G75*
G02*
X62943000Y12292250I0J-268750D01*
G01*
X62943000Y11329750D01*
G75*
G02*
X62674250Y11061000I-268750J0D01*
G01*
X62136750Y11061000D01*
G75*
G02*
X61868000Y11329750I0J268750D01*
G01*
G37*
%TD*%
%TO.C,R23*%
G36*
G01*
X38761750Y27510000D02*
X39724250Y27510000D01*
G75*
G02*
X39993000Y27241250I0J-268750D01*
G01*
X39993000Y26703750D01*
G75*
G02*
X39724250Y26435000I-268750J0D01*
G01*
X38761750Y26435000D01*
G75*
G02*
X38493000Y26703750I0J268750D01*
G01*
X38493000Y27241250D01*
G75*
G02*
X38761750Y27510000I268750J0D01*
G01*
G37*
G36*
G01*
X38761750Y25635000D02*
X39724250Y25635000D01*
G75*
G02*
X39993000Y25366250I0J-268750D01*
G01*
X39993000Y24828750D01*
G75*
G02*
X39724250Y24560000I-268750J0D01*
G01*
X38761750Y24560000D01*
G75*
G02*
X38493000Y24828750I0J268750D01*
G01*
X38493000Y25366250D01*
G75*
G02*
X38761750Y25635000I268750J0D01*
G01*
G37*
%TD*%
%TO.C,R24*%
G36*
G01*
X61868000Y20092750D02*
X61868000Y21055250D01*
G75*
G02*
X62136750Y21324000I268750J0D01*
G01*
X62674250Y21324000D01*
G75*
G02*
X62943000Y21055250I0J-268750D01*
G01*
X62943000Y20092750D01*
G75*
G02*
X62674250Y19824000I-268750J0D01*
G01*
X62136750Y19824000D01*
G75*
G02*
X61868000Y20092750I0J268750D01*
G01*
G37*
G36*
G01*
X59993000Y20092750D02*
X59993000Y21055250D01*
G75*
G02*
X60261750Y21324000I268750J0D01*
G01*
X60799250Y21324000D01*
G75*
G02*
X61068000Y21055250I0J-268750D01*
G01*
X61068000Y20092750D01*
G75*
G02*
X60799250Y19824000I-268750J0D01*
G01*
X60261750Y19824000D01*
G75*
G02*
X59993000Y20092750I0J268750D01*
G01*
G37*
%TD*%
%TO.C,R25*%
G36*
G01*
X38761750Y23446000D02*
X39724250Y23446000D01*
G75*
G02*
X39993000Y23177250I0J-268750D01*
G01*
X39993000Y22639750D01*
G75*
G02*
X39724250Y22371000I-268750J0D01*
G01*
X38761750Y22371000D01*
G75*
G02*
X38493000Y22639750I0J268750D01*
G01*
X38493000Y23177250D01*
G75*
G02*
X38761750Y23446000I268750J0D01*
G01*
G37*
G36*
G01*
X38761750Y21571000D02*
X39724250Y21571000D01*
G75*
G02*
X39993000Y21302250I0J-268750D01*
G01*
X39993000Y20764750D01*
G75*
G02*
X39724250Y20496000I-268750J0D01*
G01*
X38761750Y20496000D01*
G75*
G02*
X38493000Y20764750I0J268750D01*
G01*
X38493000Y21302250D01*
G75*
G02*
X38761750Y21571000I268750J0D01*
G01*
G37*
%TD*%
%TO.C,R26*%
G36*
G01*
X48921750Y25635000D02*
X49884250Y25635000D01*
G75*
G02*
X50153000Y25366250I0J-268750D01*
G01*
X50153000Y24828750D01*
G75*
G02*
X49884250Y24560000I-268750J0D01*
G01*
X48921750Y24560000D01*
G75*
G02*
X48653000Y24828750I0J268750D01*
G01*
X48653000Y25366250D01*
G75*
G02*
X48921750Y25635000I268750J0D01*
G01*
G37*
G36*
G01*
X48921750Y27510000D02*
X49884250Y27510000D01*
G75*
G02*
X50153000Y27241250I0J-268750D01*
G01*
X50153000Y26703750D01*
G75*
G02*
X49884250Y26435000I-268750J0D01*
G01*
X48921750Y26435000D01*
G75*
G02*
X48653000Y26703750I0J268750D01*
G01*
X48653000Y27241250D01*
G75*
G02*
X48921750Y27510000I268750J0D01*
G01*
G37*
%TD*%
%TO.C,U2*%
G36*
G01*
X24221500Y27595000D02*
X24546500Y27595000D01*
G75*
G02*
X24709000Y27432500I0J-162500D01*
G01*
X24709000Y26057500D01*
G75*
G02*
X24546500Y25895000I-162500J0D01*
G01*
X24221500Y25895000D01*
G75*
G02*
X24059000Y26057500I0J162500D01*
G01*
X24059000Y27432500D01*
G75*
G02*
X24221500Y27595000I162500J0D01*
G01*
G37*
G36*
G01*
X21681500Y27595000D02*
X22006500Y27595000D01*
G75*
G02*
X22169000Y27432500I0J-162500D01*
G01*
X22169000Y26057500D01*
G75*
G02*
X22006500Y25895000I-162500J0D01*
G01*
X21681500Y25895000D01*
G75*
G02*
X21519000Y26057500I0J162500D01*
G01*
X21519000Y27432500D01*
G75*
G02*
X21681500Y27595000I162500J0D01*
G01*
G37*
G36*
G01*
X21681500Y21095000D02*
X22006500Y21095000D01*
G75*
G02*
X22169000Y20932500I0J-162500D01*
G01*
X22169000Y19557500D01*
G75*
G02*
X22006500Y19395000I-162500J0D01*
G01*
X21681500Y19395000D01*
G75*
G02*
X21519000Y19557500I0J162500D01*
G01*
X21519000Y20932500D01*
G75*
G02*
X21681500Y21095000I162500J0D01*
G01*
G37*
G36*
G01*
X24221500Y21095000D02*
X24546500Y21095000D01*
G75*
G02*
X24709000Y20932500I0J-162500D01*
G01*
X24709000Y19557500D01*
G75*
G02*
X24546500Y19395000I-162500J0D01*
G01*
X24221500Y19395000D01*
G75*
G02*
X24059000Y19557500I0J162500D01*
G01*
X24059000Y20932500D01*
G75*
G02*
X24221500Y21095000I162500J0D01*
G01*
G37*
%TD*%
%TO.C,U3*%
G36*
G01*
X28666500Y27595000D02*
X28991500Y27595000D01*
G75*
G02*
X29154000Y27432500I0J-162500D01*
G01*
X29154000Y26057500D01*
G75*
G02*
X28991500Y25895000I-162500J0D01*
G01*
X28666500Y25895000D01*
G75*
G02*
X28504000Y26057500I0J162500D01*
G01*
X28504000Y27432500D01*
G75*
G02*
X28666500Y27595000I162500J0D01*
G01*
G37*
G36*
G01*
X26126500Y27595000D02*
X26451500Y27595000D01*
G75*
G02*
X26614000Y27432500I0J-162500D01*
G01*
X26614000Y26057500D01*
G75*
G02*
X26451500Y25895000I-162500J0D01*
G01*
X26126500Y25895000D01*
G75*
G02*
X25964000Y26057500I0J162500D01*
G01*
X25964000Y27432500D01*
G75*
G02*
X26126500Y27595000I162500J0D01*
G01*
G37*
G36*
G01*
X26126500Y21095000D02*
X26451500Y21095000D01*
G75*
G02*
X26614000Y20932500I0J-162500D01*
G01*
X26614000Y19557500D01*
G75*
G02*
X26451500Y19395000I-162500J0D01*
G01*
X26126500Y19395000D01*
G75*
G02*
X25964000Y19557500I0J162500D01*
G01*
X25964000Y20932500D01*
G75*
G02*
X26126500Y21095000I162500J0D01*
G01*
G37*
G36*
G01*
X28666500Y21095000D02*
X28991500Y21095000D01*
G75*
G02*
X29154000Y20932500I0J-162500D01*
G01*
X29154000Y19557500D01*
G75*
G02*
X28991500Y19395000I-162500J0D01*
G01*
X28666500Y19395000D01*
G75*
G02*
X28504000Y19557500I0J162500D01*
G01*
X28504000Y20932500D01*
G75*
G02*
X28666500Y21095000I162500J0D01*
G01*
G37*
%TD*%
%TO.C,U4*%
G36*
G01*
X17561500Y25895000D02*
X17236500Y25895000D01*
G75*
G02*
X17074000Y26057500I0J162500D01*
G01*
X17074000Y27432500D01*
G75*
G02*
X17236500Y27595000I162500J0D01*
G01*
X17561500Y27595000D01*
G75*
G02*
X17724000Y27432500I0J-162500D01*
G01*
X17724000Y26057500D01*
G75*
G02*
X17561500Y25895000I-162500J0D01*
G01*
G37*
G36*
G01*
X20101500Y25895000D02*
X19776500Y25895000D01*
G75*
G02*
X19614000Y26057500I0J162500D01*
G01*
X19614000Y27432500D01*
G75*
G02*
X19776500Y27595000I162500J0D01*
G01*
X20101500Y27595000D01*
G75*
G02*
X20264000Y27432500I0J-162500D01*
G01*
X20264000Y26057500D01*
G75*
G02*
X20101500Y25895000I-162500J0D01*
G01*
G37*
G36*
G01*
X20101500Y19395000D02*
X19776500Y19395000D01*
G75*
G02*
X19614000Y19557500I0J162500D01*
G01*
X19614000Y20932500D01*
G75*
G02*
X19776500Y21095000I162500J0D01*
G01*
X20101500Y21095000D01*
G75*
G02*
X20264000Y20932500I0J-162500D01*
G01*
X20264000Y19557500D01*
G75*
G02*
X20101500Y19395000I-162500J0D01*
G01*
G37*
G36*
G01*
X17561500Y19395000D02*
X17236500Y19395000D01*
G75*
G02*
X17074000Y19557500I0J162500D01*
G01*
X17074000Y20932500D01*
G75*
G02*
X17236500Y21095000I162500J0D01*
G01*
X17561500Y21095000D01*
G75*
G02*
X17724000Y20932500I0J-162500D01*
G01*
X17724000Y19557500D01*
G75*
G02*
X17561500Y19395000I-162500J0D01*
G01*
G37*
%TD*%
%TO.C,U5*%
G36*
G01*
X46180000Y27503000D02*
X46530000Y27503000D01*
G75*
G02*
X46705000Y27328000I0J-175000D01*
G01*
X46705000Y25628000D01*
G75*
G02*
X46530000Y25453000I-175000J0D01*
G01*
X46180000Y25453000D01*
G75*
G02*
X46005000Y25628000I0J175000D01*
G01*
X46005000Y27328000D01*
G75*
G02*
X46180000Y27503000I175000J0D01*
G01*
G37*
G36*
G01*
X44910000Y27503000D02*
X45260000Y27503000D01*
G75*
G02*
X45435000Y27328000I0J-175000D01*
G01*
X45435000Y25628000D01*
G75*
G02*
X45260000Y25453000I-175000J0D01*
G01*
X44910000Y25453000D01*
G75*
G02*
X44735000Y25628000I0J175000D01*
G01*
X44735000Y27328000D01*
G75*
G02*
X44910000Y27503000I175000J0D01*
G01*
G37*
G36*
G01*
X43640000Y27503000D02*
X43990000Y27503000D01*
G75*
G02*
X44165000Y27328000I0J-175000D01*
G01*
X44165000Y25628000D01*
G75*
G02*
X43990000Y25453000I-175000J0D01*
G01*
X43640000Y25453000D01*
G75*
G02*
X43465000Y25628000I0J175000D01*
G01*
X43465000Y27328000D01*
G75*
G02*
X43640000Y27503000I175000J0D01*
G01*
G37*
G36*
G01*
X42370000Y27503000D02*
X42720000Y27503000D01*
G75*
G02*
X42895000Y27328000I0J-175000D01*
G01*
X42895000Y25628000D01*
G75*
G02*
X42720000Y25453000I-175000J0D01*
G01*
X42370000Y25453000D01*
G75*
G02*
X42195000Y25628000I0J175000D01*
G01*
X42195000Y27328000D01*
G75*
G02*
X42370000Y27503000I175000J0D01*
G01*
G37*
G36*
G01*
X42370000Y22553000D02*
X42720000Y22553000D01*
G75*
G02*
X42895000Y22378000I0J-175000D01*
G01*
X42895000Y20678000D01*
G75*
G02*
X42720000Y20503000I-175000J0D01*
G01*
X42370000Y20503000D01*
G75*
G02*
X42195000Y20678000I0J175000D01*
G01*
X42195000Y22378000D01*
G75*
G02*
X42370000Y22553000I175000J0D01*
G01*
G37*
G36*
G01*
X43640000Y22553000D02*
X43990000Y22553000D01*
G75*
G02*
X44165000Y22378000I0J-175000D01*
G01*
X44165000Y20678000D01*
G75*
G02*
X43990000Y20503000I-175000J0D01*
G01*
X43640000Y20503000D01*
G75*
G02*
X43465000Y20678000I0J175000D01*
G01*
X43465000Y22378000D01*
G75*
G02*
X43640000Y22553000I175000J0D01*
G01*
G37*
G36*
G01*
X44910000Y22553000D02*
X45260000Y22553000D01*
G75*
G02*
X45435000Y22378000I0J-175000D01*
G01*
X45435000Y20678000D01*
G75*
G02*
X45260000Y20503000I-175000J0D01*
G01*
X44910000Y20503000D01*
G75*
G02*
X44735000Y20678000I0J175000D01*
G01*
X44735000Y22378000D01*
G75*
G02*
X44910000Y22553000I175000J0D01*
G01*
G37*
G36*
G01*
X46180000Y22553000D02*
X46530000Y22553000D01*
G75*
G02*
X46705000Y22378000I0J-175000D01*
G01*
X46705000Y20678000D01*
G75*
G02*
X46530000Y20503000I-175000J0D01*
G01*
X46180000Y20503000D01*
G75*
G02*
X46005000Y20678000I0J175000D01*
G01*
X46005000Y22378000D01*
G75*
G02*
X46180000Y22553000I175000J0D01*
G01*
G37*
%TD*%
%TO.C,R27*%
G36*
G01*
X65431750Y44177000D02*
X66394250Y44177000D01*
G75*
G02*
X66663000Y43908250I0J-268750D01*
G01*
X66663000Y43370750D01*
G75*
G02*
X66394250Y43102000I-268750J0D01*
G01*
X65431750Y43102000D01*
G75*
G02*
X65163000Y43370750I0J268750D01*
G01*
X65163000Y43908250D01*
G75*
G02*
X65431750Y44177000I268750J0D01*
G01*
G37*
G36*
G01*
X65431750Y46052000D02*
X66394250Y46052000D01*
G75*
G02*
X66663000Y45783250I0J-268750D01*
G01*
X66663000Y45245750D01*
G75*
G02*
X66394250Y44977000I-268750J0D01*
G01*
X65431750Y44977000D01*
G75*
G02*
X65163000Y45245750I0J268750D01*
G01*
X65163000Y45783250D01*
G75*
G02*
X65431750Y46052000I268750J0D01*
G01*
G37*
%TD*%
%TO.C,R28*%
G36*
G01*
X63018750Y46052000D02*
X63981250Y46052000D01*
G75*
G02*
X64250000Y45783250I0J-268750D01*
G01*
X64250000Y45245750D01*
G75*
G02*
X63981250Y44977000I-268750J0D01*
G01*
X63018750Y44977000D01*
G75*
G02*
X62750000Y45245750I0J268750D01*
G01*
X62750000Y45783250D01*
G75*
G02*
X63018750Y46052000I268750J0D01*
G01*
G37*
G36*
G01*
X63018750Y44177000D02*
X63981250Y44177000D01*
G75*
G02*
X64250000Y43908250I0J-268750D01*
G01*
X64250000Y43370750D01*
G75*
G02*
X63981250Y43102000I-268750J0D01*
G01*
X63018750Y43102000D01*
G75*
G02*
X62750000Y43370750I0J268750D01*
G01*
X62750000Y43908250D01*
G75*
G02*
X63018750Y44177000I268750J0D01*
G01*
G37*
%TD*%
%TO.C,C9*%
G36*
G01*
X9807000Y47955375D02*
X9807000Y46786625D01*
G75*
G02*
X9541375Y46521000I-265625J0D01*
G01*
X6472625Y46521000D01*
G75*
G02*
X6207000Y46786625I0J265625D01*
G01*
X6207000Y47955375D01*
G75*
G02*
X6472625Y48221000I265625J0D01*
G01*
X9541375Y48221000D01*
G75*
G02*
X9807000Y47955375I0J-265625D01*
G01*
G37*
G36*
G01*
X4207000Y47955375D02*
X4207000Y46786625D01*
G75*
G02*
X3941375Y46521000I-265625J0D01*
G01*
X872625Y46521000D01*
G75*
G02*
X607000Y46786625I0J265625D01*
G01*
X607000Y47955375D01*
G75*
G02*
X872625Y48221000I265625J0D01*
G01*
X3941375Y48221000D01*
G75*
G02*
X4207000Y47955375I0J-265625D01*
G01*
G37*
%TD*%
%TO.C,U1*%
G36*
G01*
X21551000Y42549000D02*
X21801000Y42549000D01*
G75*
G02*
X21926000Y42424000I0J-125000D01*
G01*
X21926000Y41149000D01*
G75*
G02*
X21801000Y41024000I-125000J0D01*
G01*
X21551000Y41024000D01*
G75*
G02*
X21426000Y41149000I0J125000D01*
G01*
X21426000Y42424000D01*
G75*
G02*
X21551000Y42549000I125000J0D01*
G01*
G37*
G36*
G01*
X20901000Y42549000D02*
X21151000Y42549000D01*
G75*
G02*
X21276000Y42424000I0J-125000D01*
G01*
X21276000Y41149000D01*
G75*
G02*
X21151000Y41024000I-125000J0D01*
G01*
X20901000Y41024000D01*
G75*
G02*
X20776000Y41149000I0J125000D01*
G01*
X20776000Y42424000D01*
G75*
G02*
X20901000Y42549000I125000J0D01*
G01*
G37*
G36*
G01*
X20251000Y42549000D02*
X20501000Y42549000D01*
G75*
G02*
X20626000Y42424000I0J-125000D01*
G01*
X20626000Y41149000D01*
G75*
G02*
X20501000Y41024000I-125000J0D01*
G01*
X20251000Y41024000D01*
G75*
G02*
X20126000Y41149000I0J125000D01*
G01*
X20126000Y42424000D01*
G75*
G02*
X20251000Y42549000I125000J0D01*
G01*
G37*
G36*
G01*
X19601000Y42549000D02*
X19851000Y42549000D01*
G75*
G02*
X19976000Y42424000I0J-125000D01*
G01*
X19976000Y41149000D01*
G75*
G02*
X19851000Y41024000I-125000J0D01*
G01*
X19601000Y41024000D01*
G75*
G02*
X19476000Y41149000I0J125000D01*
G01*
X19476000Y42424000D01*
G75*
G02*
X19601000Y42549000I125000J0D01*
G01*
G37*
G36*
G01*
X19601000Y38224000D02*
X19851000Y38224000D01*
G75*
G02*
X19976000Y38099000I0J-125000D01*
G01*
X19976000Y36824000D01*
G75*
G02*
X19851000Y36699000I-125000J0D01*
G01*
X19601000Y36699000D01*
G75*
G02*
X19476000Y36824000I0J125000D01*
G01*
X19476000Y38099000D01*
G75*
G02*
X19601000Y38224000I125000J0D01*
G01*
G37*
G36*
G01*
X20251000Y38224000D02*
X20501000Y38224000D01*
G75*
G02*
X20626000Y38099000I0J-125000D01*
G01*
X20626000Y36824000D01*
G75*
G02*
X20501000Y36699000I-125000J0D01*
G01*
X20251000Y36699000D01*
G75*
G02*
X20126000Y36824000I0J125000D01*
G01*
X20126000Y38099000D01*
G75*
G02*
X20251000Y38224000I125000J0D01*
G01*
G37*
G36*
G01*
X20901000Y38224000D02*
X21151000Y38224000D01*
G75*
G02*
X21276000Y38099000I0J-125000D01*
G01*
X21276000Y36824000D01*
G75*
G02*
X21151000Y36699000I-125000J0D01*
G01*
X20901000Y36699000D01*
G75*
G02*
X20776000Y36824000I0J125000D01*
G01*
X20776000Y38099000D01*
G75*
G02*
X20901000Y38224000I125000J0D01*
G01*
G37*
G36*
G01*
X21551000Y38224000D02*
X21801000Y38224000D01*
G75*
G02*
X21926000Y38099000I0J-125000D01*
G01*
X21926000Y36824000D01*
G75*
G02*
X21801000Y36699000I-125000J0D01*
G01*
X21551000Y36699000D01*
G75*
G02*
X21426000Y36824000I0J125000D01*
G01*
X21426000Y38099000D01*
G75*
G02*
X21551000Y38224000I125000J0D01*
G01*
G37*
D27*
X20701000Y39624000D03*
%TD*%
M02*
