%TF.GenerationSoftware,KiCad,Pcbnew,(5.1.6-0)*%
%TF.CreationDate,2021-08-25T02:04:09-07:00*%
%TF.ProjectId,mate-net-monitor,6d617465-2d6e-4657-942d-6d6f6e69746f,P1*%
%TF.SameCoordinates,PX6b4f310PY74ffa90*%
%TF.FileFunction,Paste,Top*%
%TF.FilePolarity,Positive*%
%FSLAX46Y46*%
G04 Gerber Fmt 4.6, Leading zero omitted, Abs format (unit mm)*
G04 Created by KiCad (PCBNEW (5.1.6-0)) date 2021-08-25 02:04:09*
%MOMM*%
%LPD*%
G01*
G04 APERTURE LIST*
%ADD10R,1.100000X1.100000*%
%ADD11R,2.500000X1.800000*%
%ADD12R,1.800000X2.500000*%
%ADD13R,2.800000X5.300000*%
%ADD14R,0.800000X0.900000*%
G04 APERTURE END LIST*
%TO.C,C1*%
G36*
G01*
X9913000Y17213000D02*
X9913000Y19363000D01*
G75*
G02*
X10163000Y19613000I250000J0D01*
G01*
X10913000Y19613000D01*
G75*
G02*
X11163000Y19363000I0J-250000D01*
G01*
X11163000Y17213000D01*
G75*
G02*
X10913000Y16963000I-250000J0D01*
G01*
X10163000Y16963000D01*
G75*
G02*
X9913000Y17213000I0J250000D01*
G01*
G37*
G36*
G01*
X12713000Y17213000D02*
X12713000Y19363000D01*
G75*
G02*
X12963000Y19613000I250000J0D01*
G01*
X13713000Y19613000D01*
G75*
G02*
X13963000Y19363000I0J-250000D01*
G01*
X13963000Y17213000D01*
G75*
G02*
X13713000Y16963000I-250000J0D01*
G01*
X12963000Y16963000D01*
G75*
G02*
X12713000Y17213000I0J250000D01*
G01*
G37*
%TD*%
%TO.C,C2*%
G36*
G01*
X12713000Y21404000D02*
X12713000Y23554000D01*
G75*
G02*
X12963000Y23804000I250000J0D01*
G01*
X13713000Y23804000D01*
G75*
G02*
X13963000Y23554000I0J-250000D01*
G01*
X13963000Y21404000D01*
G75*
G02*
X13713000Y21154000I-250000J0D01*
G01*
X12963000Y21154000D01*
G75*
G02*
X12713000Y21404000I0J250000D01*
G01*
G37*
G36*
G01*
X9913000Y21404000D02*
X9913000Y23554000D01*
G75*
G02*
X10163000Y23804000I250000J0D01*
G01*
X10913000Y23804000D01*
G75*
G02*
X11163000Y23554000I0J-250000D01*
G01*
X11163000Y21404000D01*
G75*
G02*
X10913000Y21154000I-250000J0D01*
G01*
X10163000Y21154000D01*
G75*
G02*
X9913000Y21404000I0J250000D01*
G01*
G37*
%TD*%
%TO.C,C3*%
G36*
G01*
X23546750Y37269000D02*
X24459250Y37269000D01*
G75*
G02*
X24703000Y37025250I0J-243750D01*
G01*
X24703000Y36537750D01*
G75*
G02*
X24459250Y36294000I-243750J0D01*
G01*
X23546750Y36294000D01*
G75*
G02*
X23303000Y36537750I0J243750D01*
G01*
X23303000Y37025250D01*
G75*
G02*
X23546750Y37269000I243750J0D01*
G01*
G37*
G36*
G01*
X23546750Y39144000D02*
X24459250Y39144000D01*
G75*
G02*
X24703000Y38900250I0J-243750D01*
G01*
X24703000Y38412750D01*
G75*
G02*
X24459250Y38169000I-243750J0D01*
G01*
X23546750Y38169000D01*
G75*
G02*
X23303000Y38412750I0J243750D01*
G01*
X23303000Y38900250D01*
G75*
G02*
X23546750Y39144000I243750J0D01*
G01*
G37*
%TD*%
%TO.C,C4*%
G36*
G01*
X24459250Y40104000D02*
X23546750Y40104000D01*
G75*
G02*
X23303000Y40347750I0J243750D01*
G01*
X23303000Y40835250D01*
G75*
G02*
X23546750Y41079000I243750J0D01*
G01*
X24459250Y41079000D01*
G75*
G02*
X24703000Y40835250I0J-243750D01*
G01*
X24703000Y40347750D01*
G75*
G02*
X24459250Y40104000I-243750J0D01*
G01*
G37*
G36*
G01*
X24459250Y41979000D02*
X23546750Y41979000D01*
G75*
G02*
X23303000Y42222750I0J243750D01*
G01*
X23303000Y42710250D01*
G75*
G02*
X23546750Y42954000I243750J0D01*
G01*
X24459250Y42954000D01*
G75*
G02*
X24703000Y42710250I0J-243750D01*
G01*
X24703000Y42222750D01*
G75*
G02*
X24459250Y41979000I-243750J0D01*
G01*
G37*
%TD*%
%TO.C,C5*%
G36*
G01*
X20371750Y47780000D02*
X21284250Y47780000D01*
G75*
G02*
X21528000Y47536250I0J-243750D01*
G01*
X21528000Y47048750D01*
G75*
G02*
X21284250Y46805000I-243750J0D01*
G01*
X20371750Y46805000D01*
G75*
G02*
X20128000Y47048750I0J243750D01*
G01*
X20128000Y47536250D01*
G75*
G02*
X20371750Y47780000I243750J0D01*
G01*
G37*
G36*
G01*
X20371750Y45905000D02*
X21284250Y45905000D01*
G75*
G02*
X21528000Y45661250I0J-243750D01*
G01*
X21528000Y45173750D01*
G75*
G02*
X21284250Y44930000I-243750J0D01*
G01*
X20371750Y44930000D01*
G75*
G02*
X20128000Y45173750I0J243750D01*
G01*
X20128000Y45661250D01*
G75*
G02*
X20371750Y45905000I243750J0D01*
G01*
G37*
%TD*%
%TO.C,C6*%
G36*
G01*
X16204250Y46805000D02*
X15291750Y46805000D01*
G75*
G02*
X15048000Y47048750I0J243750D01*
G01*
X15048000Y47536250D01*
G75*
G02*
X15291750Y47780000I243750J0D01*
G01*
X16204250Y47780000D01*
G75*
G02*
X16448000Y47536250I0J-243750D01*
G01*
X16448000Y47048750D01*
G75*
G02*
X16204250Y46805000I-243750J0D01*
G01*
G37*
G36*
G01*
X16204250Y44930000D02*
X15291750Y44930000D01*
G75*
G02*
X15048000Y45173750I0J243750D01*
G01*
X15048000Y45661250D01*
G75*
G02*
X15291750Y45905000I243750J0D01*
G01*
X16204250Y45905000D01*
G75*
G02*
X16448000Y45661250I0J-243750D01*
G01*
X16448000Y45173750D01*
G75*
G02*
X16204250Y44930000I-243750J0D01*
G01*
G37*
%TD*%
%TO.C,C7*%
G36*
G01*
X39507000Y44945000D02*
X40757000Y44945000D01*
G75*
G02*
X41007000Y44695000I0J-250000D01*
G01*
X41007000Y43945000D01*
G75*
G02*
X40757000Y43695000I-250000J0D01*
G01*
X39507000Y43695000D01*
G75*
G02*
X39257000Y43945000I0J250000D01*
G01*
X39257000Y44695000D01*
G75*
G02*
X39507000Y44945000I250000J0D01*
G01*
G37*
G36*
G01*
X39507000Y47745000D02*
X40757000Y47745000D01*
G75*
G02*
X41007000Y47495000I0J-250000D01*
G01*
X41007000Y46745000D01*
G75*
G02*
X40757000Y46495000I-250000J0D01*
G01*
X39507000Y46495000D01*
G75*
G02*
X39257000Y46745000I0J250000D01*
G01*
X39257000Y47495000D01*
G75*
G02*
X39507000Y47745000I250000J0D01*
G01*
G37*
%TD*%
%TO.C,C8*%
G36*
G01*
X36713000Y47745000D02*
X37963000Y47745000D01*
G75*
G02*
X38213000Y47495000I0J-250000D01*
G01*
X38213000Y46745000D01*
G75*
G02*
X37963000Y46495000I-250000J0D01*
G01*
X36713000Y46495000D01*
G75*
G02*
X36463000Y46745000I0J250000D01*
G01*
X36463000Y47495000D01*
G75*
G02*
X36713000Y47745000I250000J0D01*
G01*
G37*
G36*
G01*
X36713000Y44945000D02*
X37963000Y44945000D01*
G75*
G02*
X38213000Y44695000I0J-250000D01*
G01*
X38213000Y43945000D01*
G75*
G02*
X37963000Y43695000I-250000J0D01*
G01*
X36713000Y43695000D01*
G75*
G02*
X36463000Y43945000I0J250000D01*
G01*
X36463000Y44695000D01*
G75*
G02*
X36713000Y44945000I250000J0D01*
G01*
G37*
%TD*%
D10*
%TO.C,D1*%
X2159000Y12189000D03*
X2159000Y14989000D03*
%TD*%
%TO.C,D2*%
X4953000Y14989000D03*
X4953000Y12189000D03*
%TD*%
%TO.C,D3*%
X7747000Y12189000D03*
X7747000Y14989000D03*
%TD*%
D11*
%TO.C,D4*%
X6953000Y20320000D03*
X2953000Y20320000D03*
%TD*%
D12*
%TO.C,D5*%
X16002000Y37624000D03*
X16002000Y41624000D03*
%TD*%
%TO.C,D6*%
G36*
G01*
X10811500Y47755000D02*
X11286500Y47755000D01*
G75*
G02*
X11524000Y47517500I0J-237500D01*
G01*
X11524000Y46942500D01*
G75*
G02*
X11286500Y46705000I-237500J0D01*
G01*
X10811500Y46705000D01*
G75*
G02*
X10574000Y46942500I0J237500D01*
G01*
X10574000Y47517500D01*
G75*
G02*
X10811500Y47755000I237500J0D01*
G01*
G37*
G36*
G01*
X10811500Y46005000D02*
X11286500Y46005000D01*
G75*
G02*
X11524000Y45767500I0J-237500D01*
G01*
X11524000Y45192500D01*
G75*
G02*
X11286500Y44955000I-237500J0D01*
G01*
X10811500Y44955000D01*
G75*
G02*
X10574000Y45192500I0J237500D01*
G01*
X10574000Y45767500D01*
G75*
G02*
X10811500Y46005000I237500J0D01*
G01*
G37*
%TD*%
%TO.C,D7*%
G36*
G01*
X66150500Y49880000D02*
X65675500Y49880000D01*
G75*
G02*
X65438000Y50117500I0J237500D01*
G01*
X65438000Y50692500D01*
G75*
G02*
X65675500Y50930000I237500J0D01*
G01*
X66150500Y50930000D01*
G75*
G02*
X66388000Y50692500I0J-237500D01*
G01*
X66388000Y50117500D01*
G75*
G02*
X66150500Y49880000I-237500J0D01*
G01*
G37*
G36*
G01*
X66150500Y48130000D02*
X65675500Y48130000D01*
G75*
G02*
X65438000Y48367500I0J237500D01*
G01*
X65438000Y48942500D01*
G75*
G02*
X65675500Y49180000I237500J0D01*
G01*
X66150500Y49180000D01*
G75*
G02*
X66388000Y48942500I0J-237500D01*
G01*
X66388000Y48367500D01*
G75*
G02*
X66150500Y48130000I-237500J0D01*
G01*
G37*
%TD*%
%TO.C,D8*%
G36*
G01*
X60068000Y23384500D02*
X60068000Y23859500D01*
G75*
G02*
X60305500Y24097000I237500J0D01*
G01*
X60880500Y24097000D01*
G75*
G02*
X61118000Y23859500I0J-237500D01*
G01*
X61118000Y23384500D01*
G75*
G02*
X60880500Y23147000I-237500J0D01*
G01*
X60305500Y23147000D01*
G75*
G02*
X60068000Y23384500I0J237500D01*
G01*
G37*
G36*
G01*
X61818000Y23384500D02*
X61818000Y23859500D01*
G75*
G02*
X62055500Y24097000I237500J0D01*
G01*
X62630500Y24097000D01*
G75*
G02*
X62868000Y23859500I0J-237500D01*
G01*
X62868000Y23384500D01*
G75*
G02*
X62630500Y23147000I-237500J0D01*
G01*
X62055500Y23147000D01*
G75*
G02*
X61818000Y23384500I0J237500D01*
G01*
G37*
%TD*%
%TO.C,D9*%
G36*
G01*
X60068000Y9414500D02*
X60068000Y9889500D01*
G75*
G02*
X60305500Y10127000I237500J0D01*
G01*
X60880500Y10127000D01*
G75*
G02*
X61118000Y9889500I0J-237500D01*
G01*
X61118000Y9414500D01*
G75*
G02*
X60880500Y9177000I-237500J0D01*
G01*
X60305500Y9177000D01*
G75*
G02*
X60068000Y9414500I0J237500D01*
G01*
G37*
G36*
G01*
X61818000Y9414500D02*
X61818000Y9889500D01*
G75*
G02*
X62055500Y10127000I237500J0D01*
G01*
X62630500Y10127000D01*
G75*
G02*
X62868000Y9889500I0J-237500D01*
G01*
X62868000Y9414500D01*
G75*
G02*
X62630500Y9177000I-237500J0D01*
G01*
X62055500Y9177000D01*
G75*
G02*
X61818000Y9414500I0J237500D01*
G01*
G37*
%TD*%
%TO.C,D10*%
G36*
G01*
X61818000Y18304500D02*
X61818000Y18779500D01*
G75*
G02*
X62055500Y19017000I237500J0D01*
G01*
X62630500Y19017000D01*
G75*
G02*
X62868000Y18779500I0J-237500D01*
G01*
X62868000Y18304500D01*
G75*
G02*
X62630500Y18067000I-237500J0D01*
G01*
X62055500Y18067000D01*
G75*
G02*
X61818000Y18304500I0J237500D01*
G01*
G37*
G36*
G01*
X60068000Y18304500D02*
X60068000Y18779500D01*
G75*
G02*
X60305500Y19017000I237500J0D01*
G01*
X60880500Y19017000D01*
G75*
G02*
X61118000Y18779500I0J-237500D01*
G01*
X61118000Y18304500D01*
G75*
G02*
X60880500Y18067000I-237500J0D01*
G01*
X60305500Y18067000D01*
G75*
G02*
X60068000Y18304500I0J237500D01*
G01*
G37*
%TD*%
D10*
%TO.C,D11*%
X57661000Y20447000D03*
X54861000Y20447000D03*
%TD*%
D11*
%TO.C,D12*%
X71850000Y13081000D03*
X67850000Y13081000D03*
%TD*%
%TO.C,D13*%
X71850000Y19812000D03*
X67850000Y19812000D03*
%TD*%
D13*
%TO.C,L1*%
X2062000Y36322000D03*
X12162000Y36322000D03*
%TD*%
D14*
%TO.C,Q1*%
X16952000Y34020000D03*
X15052000Y34020000D03*
X16002000Y32020000D03*
%TD*%
%TO.C,R1*%
G36*
G01*
X21999000Y18236250D02*
X21999000Y17323750D01*
G75*
G02*
X21755250Y17080000I-243750J0D01*
G01*
X21267750Y17080000D01*
G75*
G02*
X21024000Y17323750I0J243750D01*
G01*
X21024000Y18236250D01*
G75*
G02*
X21267750Y18480000I243750J0D01*
G01*
X21755250Y18480000D01*
G75*
G02*
X21999000Y18236250I0J-243750D01*
G01*
G37*
G36*
G01*
X20124000Y18236250D02*
X20124000Y17323750D01*
G75*
G02*
X19880250Y17080000I-243750J0D01*
G01*
X19392750Y17080000D01*
G75*
G02*
X19149000Y17323750I0J243750D01*
G01*
X19149000Y18236250D01*
G75*
G02*
X19392750Y18480000I243750J0D01*
G01*
X19880250Y18480000D01*
G75*
G02*
X20124000Y18236250I0J-243750D01*
G01*
G37*
%TD*%
%TO.C,R2*%
G36*
G01*
X27490000Y18236250D02*
X27490000Y17323750D01*
G75*
G02*
X27246250Y17080000I-243750J0D01*
G01*
X26758750Y17080000D01*
G75*
G02*
X26515000Y17323750I0J243750D01*
G01*
X26515000Y18236250D01*
G75*
G02*
X26758750Y18480000I243750J0D01*
G01*
X27246250Y18480000D01*
G75*
G02*
X27490000Y18236250I0J-243750D01*
G01*
G37*
G36*
G01*
X29365000Y18236250D02*
X29365000Y17323750D01*
G75*
G02*
X29121250Y17080000I-243750J0D01*
G01*
X28633750Y17080000D01*
G75*
G02*
X28390000Y17323750I0J243750D01*
G01*
X28390000Y18236250D01*
G75*
G02*
X28633750Y18480000I243750J0D01*
G01*
X29121250Y18480000D01*
G75*
G02*
X29365000Y18236250I0J-243750D01*
G01*
G37*
%TD*%
%TO.C,R3*%
G36*
G01*
X26086750Y37269000D02*
X26999250Y37269000D01*
G75*
G02*
X27243000Y37025250I0J-243750D01*
G01*
X27243000Y36537750D01*
G75*
G02*
X26999250Y36294000I-243750J0D01*
G01*
X26086750Y36294000D01*
G75*
G02*
X25843000Y36537750I0J243750D01*
G01*
X25843000Y37025250D01*
G75*
G02*
X26086750Y37269000I243750J0D01*
G01*
G37*
G36*
G01*
X26086750Y39144000D02*
X26999250Y39144000D01*
G75*
G02*
X27243000Y38900250I0J-243750D01*
G01*
X27243000Y38412750D01*
G75*
G02*
X26999250Y38169000I-243750J0D01*
G01*
X26086750Y38169000D01*
G75*
G02*
X25843000Y38412750I0J243750D01*
G01*
X25843000Y38900250D01*
G75*
G02*
X26086750Y39144000I243750J0D01*
G01*
G37*
%TD*%
%TO.C,R4*%
G36*
G01*
X41961750Y35334000D02*
X42874250Y35334000D01*
G75*
G02*
X43118000Y35090250I0J-243750D01*
G01*
X43118000Y34602750D01*
G75*
G02*
X42874250Y34359000I-243750J0D01*
G01*
X41961750Y34359000D01*
G75*
G02*
X41718000Y34602750I0J243750D01*
G01*
X41718000Y35090250D01*
G75*
G02*
X41961750Y35334000I243750J0D01*
G01*
G37*
G36*
G01*
X41961750Y33459000D02*
X42874250Y33459000D01*
G75*
G02*
X43118000Y33215250I0J-243750D01*
G01*
X43118000Y32727750D01*
G75*
G02*
X42874250Y32484000I-243750J0D01*
G01*
X41961750Y32484000D01*
G75*
G02*
X41718000Y32727750I0J243750D01*
G01*
X41718000Y33215250D01*
G75*
G02*
X41961750Y33459000I243750J0D01*
G01*
G37*
%TD*%
%TO.C,R5*%
G36*
G01*
X25682000Y18236250D02*
X25682000Y17323750D01*
G75*
G02*
X25438250Y17080000I-243750J0D01*
G01*
X24950750Y17080000D01*
G75*
G02*
X24707000Y17323750I0J243750D01*
G01*
X24707000Y18236250D01*
G75*
G02*
X24950750Y18480000I243750J0D01*
G01*
X25438250Y18480000D01*
G75*
G02*
X25682000Y18236250I0J-243750D01*
G01*
G37*
G36*
G01*
X23807000Y18236250D02*
X23807000Y17323750D01*
G75*
G02*
X23563250Y17080000I-243750J0D01*
G01*
X23075750Y17080000D01*
G75*
G02*
X22832000Y17323750I0J243750D01*
G01*
X22832000Y18236250D01*
G75*
G02*
X23075750Y18480000I243750J0D01*
G01*
X23563250Y18480000D01*
G75*
G02*
X23807000Y18236250I0J-243750D01*
G01*
G37*
%TD*%
%TO.C,R6*%
G36*
G01*
X16441000Y18236250D02*
X16441000Y17323750D01*
G75*
G02*
X16197250Y17080000I-243750J0D01*
G01*
X15709750Y17080000D01*
G75*
G02*
X15466000Y17323750I0J243750D01*
G01*
X15466000Y18236250D01*
G75*
G02*
X15709750Y18480000I243750J0D01*
G01*
X16197250Y18480000D01*
G75*
G02*
X16441000Y18236250I0J-243750D01*
G01*
G37*
G36*
G01*
X18316000Y18236250D02*
X18316000Y17323750D01*
G75*
G02*
X18072250Y17080000I-243750J0D01*
G01*
X17584750Y17080000D01*
G75*
G02*
X17341000Y17323750I0J243750D01*
G01*
X17341000Y18236250D01*
G75*
G02*
X17584750Y18480000I243750J0D01*
G01*
X18072250Y18480000D01*
G75*
G02*
X18316000Y18236250I0J-243750D01*
G01*
G37*
%TD*%
%TO.C,R7*%
G36*
G01*
X39421750Y33459000D02*
X40334250Y33459000D01*
G75*
G02*
X40578000Y33215250I0J-243750D01*
G01*
X40578000Y32727750D01*
G75*
G02*
X40334250Y32484000I-243750J0D01*
G01*
X39421750Y32484000D01*
G75*
G02*
X39178000Y32727750I0J243750D01*
G01*
X39178000Y33215250D01*
G75*
G02*
X39421750Y33459000I243750J0D01*
G01*
G37*
G36*
G01*
X39421750Y35334000D02*
X40334250Y35334000D01*
G75*
G02*
X40578000Y35090250I0J-243750D01*
G01*
X40578000Y34602750D01*
G75*
G02*
X40334250Y34359000I-243750J0D01*
G01*
X39421750Y34359000D01*
G75*
G02*
X39178000Y34602750I0J243750D01*
G01*
X39178000Y35090250D01*
G75*
G02*
X39421750Y35334000I243750J0D01*
G01*
G37*
%TD*%
%TO.C,R8*%
G36*
G01*
X36881750Y33459000D02*
X37794250Y33459000D01*
G75*
G02*
X38038000Y33215250I0J-243750D01*
G01*
X38038000Y32727750D01*
G75*
G02*
X37794250Y32484000I-243750J0D01*
G01*
X36881750Y32484000D01*
G75*
G02*
X36638000Y32727750I0J243750D01*
G01*
X36638000Y33215250D01*
G75*
G02*
X36881750Y33459000I243750J0D01*
G01*
G37*
G36*
G01*
X36881750Y35334000D02*
X37794250Y35334000D01*
G75*
G02*
X38038000Y35090250I0J-243750D01*
G01*
X38038000Y34602750D01*
G75*
G02*
X37794250Y34359000I-243750J0D01*
G01*
X36881750Y34359000D01*
G75*
G02*
X36638000Y34602750I0J243750D01*
G01*
X36638000Y35090250D01*
G75*
G02*
X36881750Y35334000I243750J0D01*
G01*
G37*
%TD*%
%TO.C,R9*%
G36*
G01*
X34341750Y35334000D02*
X35254250Y35334000D01*
G75*
G02*
X35498000Y35090250I0J-243750D01*
G01*
X35498000Y34602750D01*
G75*
G02*
X35254250Y34359000I-243750J0D01*
G01*
X34341750Y34359000D01*
G75*
G02*
X34098000Y34602750I0J243750D01*
G01*
X34098000Y35090250D01*
G75*
G02*
X34341750Y35334000I243750J0D01*
G01*
G37*
G36*
G01*
X34341750Y33459000D02*
X35254250Y33459000D01*
G75*
G02*
X35498000Y33215250I0J-243750D01*
G01*
X35498000Y32727750D01*
G75*
G02*
X35254250Y32484000I-243750J0D01*
G01*
X34341750Y32484000D01*
G75*
G02*
X34098000Y32727750I0J243750D01*
G01*
X34098000Y33215250D01*
G75*
G02*
X34341750Y33459000I243750J0D01*
G01*
G37*
%TD*%
%TO.C,R10*%
G36*
G01*
X26999250Y41979000D02*
X26086750Y41979000D01*
G75*
G02*
X25843000Y42222750I0J243750D01*
G01*
X25843000Y42710250D01*
G75*
G02*
X26086750Y42954000I243750J0D01*
G01*
X26999250Y42954000D01*
G75*
G02*
X27243000Y42710250I0J-243750D01*
G01*
X27243000Y42222750D01*
G75*
G02*
X26999250Y41979000I-243750J0D01*
G01*
G37*
G36*
G01*
X26999250Y40104000D02*
X26086750Y40104000D01*
G75*
G02*
X25843000Y40347750I0J243750D01*
G01*
X25843000Y40835250D01*
G75*
G02*
X26086750Y41079000I243750J0D01*
G01*
X26999250Y41079000D01*
G75*
G02*
X27243000Y40835250I0J-243750D01*
G01*
X27243000Y40347750D01*
G75*
G02*
X26999250Y40104000I-243750J0D01*
G01*
G37*
%TD*%
%TO.C,R11*%
G36*
G01*
X31571250Y24610000D02*
X30658750Y24610000D01*
G75*
G02*
X30415000Y24853750I0J243750D01*
G01*
X30415000Y25341250D01*
G75*
G02*
X30658750Y25585000I243750J0D01*
G01*
X31571250Y25585000D01*
G75*
G02*
X31815000Y25341250I0J-243750D01*
G01*
X31815000Y24853750D01*
G75*
G02*
X31571250Y24610000I-243750J0D01*
G01*
G37*
G36*
G01*
X31571250Y26485000D02*
X30658750Y26485000D01*
G75*
G02*
X30415000Y26728750I0J243750D01*
G01*
X30415000Y27216250D01*
G75*
G02*
X30658750Y27460000I243750J0D01*
G01*
X31571250Y27460000D01*
G75*
G02*
X31815000Y27216250I0J-243750D01*
G01*
X31815000Y26728750D01*
G75*
G02*
X31571250Y26485000I-243750J0D01*
G01*
G37*
%TD*%
%TO.C,R12*%
G36*
G01*
X33984250Y26485000D02*
X33071750Y26485000D01*
G75*
G02*
X32828000Y26728750I0J243750D01*
G01*
X32828000Y27216250D01*
G75*
G02*
X33071750Y27460000I243750J0D01*
G01*
X33984250Y27460000D01*
G75*
G02*
X34228000Y27216250I0J-243750D01*
G01*
X34228000Y26728750D01*
G75*
G02*
X33984250Y26485000I-243750J0D01*
G01*
G37*
G36*
G01*
X33984250Y24610000D02*
X33071750Y24610000D01*
G75*
G02*
X32828000Y24853750I0J243750D01*
G01*
X32828000Y25341250D01*
G75*
G02*
X33071750Y25585000I243750J0D01*
G01*
X33984250Y25585000D01*
G75*
G02*
X34228000Y25341250I0J-243750D01*
G01*
X34228000Y24853750D01*
G75*
G02*
X33984250Y24610000I-243750J0D01*
G01*
G37*
%TD*%
%TO.C,R13*%
G36*
G01*
X55574250Y32484000D02*
X54661750Y32484000D01*
G75*
G02*
X54418000Y32727750I0J243750D01*
G01*
X54418000Y33215250D01*
G75*
G02*
X54661750Y33459000I243750J0D01*
G01*
X55574250Y33459000D01*
G75*
G02*
X55818000Y33215250I0J-243750D01*
G01*
X55818000Y32727750D01*
G75*
G02*
X55574250Y32484000I-243750J0D01*
G01*
G37*
G36*
G01*
X55574250Y34359000D02*
X54661750Y34359000D01*
G75*
G02*
X54418000Y34602750I0J243750D01*
G01*
X54418000Y35090250D01*
G75*
G02*
X54661750Y35334000I243750J0D01*
G01*
X55574250Y35334000D01*
G75*
G02*
X55818000Y35090250I0J-243750D01*
G01*
X55818000Y34602750D01*
G75*
G02*
X55574250Y34359000I-243750J0D01*
G01*
G37*
%TD*%
%TO.C,R14*%
G36*
G01*
X12563000Y25153000D02*
X11313000Y25153000D01*
G75*
G02*
X11063000Y25403000I0J250000D01*
G01*
X11063000Y26153000D01*
G75*
G02*
X11313000Y26403000I250000J0D01*
G01*
X12563000Y26403000D01*
G75*
G02*
X12813000Y26153000I0J-250000D01*
G01*
X12813000Y25403000D01*
G75*
G02*
X12563000Y25153000I-250000J0D01*
G01*
G37*
G36*
G01*
X12563000Y27953000D02*
X11313000Y27953000D01*
G75*
G02*
X11063000Y28203000I0J250000D01*
G01*
X11063000Y28953000D01*
G75*
G02*
X11313000Y29203000I250000J0D01*
G01*
X12563000Y29203000D01*
G75*
G02*
X12813000Y28953000I0J-250000D01*
G01*
X12813000Y28203000D01*
G75*
G02*
X12563000Y27953000I-250000J0D01*
G01*
G37*
%TD*%
%TO.C,R16*%
G36*
G01*
X18744250Y44930000D02*
X17831750Y44930000D01*
G75*
G02*
X17588000Y45173750I0J243750D01*
G01*
X17588000Y45661250D01*
G75*
G02*
X17831750Y45905000I243750J0D01*
G01*
X18744250Y45905000D01*
G75*
G02*
X18988000Y45661250I0J-243750D01*
G01*
X18988000Y45173750D01*
G75*
G02*
X18744250Y44930000I-243750J0D01*
G01*
G37*
G36*
G01*
X18744250Y46805000D02*
X17831750Y46805000D01*
G75*
G02*
X17588000Y47048750I0J243750D01*
G01*
X17588000Y47536250D01*
G75*
G02*
X17831750Y47780000I243750J0D01*
G01*
X18744250Y47780000D01*
G75*
G02*
X18988000Y47536250I0J-243750D01*
G01*
X18988000Y47048750D01*
G75*
G02*
X18744250Y46805000I-243750J0D01*
G01*
G37*
%TD*%
%TO.C,R17*%
G36*
G01*
X22911750Y45905000D02*
X23824250Y45905000D01*
G75*
G02*
X24068000Y45661250I0J-243750D01*
G01*
X24068000Y45173750D01*
G75*
G02*
X23824250Y44930000I-243750J0D01*
G01*
X22911750Y44930000D01*
G75*
G02*
X22668000Y45173750I0J243750D01*
G01*
X22668000Y45661250D01*
G75*
G02*
X22911750Y45905000I243750J0D01*
G01*
G37*
G36*
G01*
X22911750Y47780000D02*
X23824250Y47780000D01*
G75*
G02*
X24068000Y47536250I0J-243750D01*
G01*
X24068000Y47048750D01*
G75*
G02*
X23824250Y46805000I-243750J0D01*
G01*
X22911750Y46805000D01*
G75*
G02*
X22668000Y47048750I0J243750D01*
G01*
X22668000Y47536250D01*
G75*
G02*
X22911750Y47780000I243750J0D01*
G01*
G37*
%TD*%
%TO.C,R18*%
G36*
G01*
X26364250Y44930000D02*
X25451750Y44930000D01*
G75*
G02*
X25208000Y45173750I0J243750D01*
G01*
X25208000Y45661250D01*
G75*
G02*
X25451750Y45905000I243750J0D01*
G01*
X26364250Y45905000D01*
G75*
G02*
X26608000Y45661250I0J-243750D01*
G01*
X26608000Y45173750D01*
G75*
G02*
X26364250Y44930000I-243750J0D01*
G01*
G37*
G36*
G01*
X26364250Y46805000D02*
X25451750Y46805000D01*
G75*
G02*
X25208000Y47048750I0J243750D01*
G01*
X25208000Y47536250D01*
G75*
G02*
X25451750Y47780000I243750J0D01*
G01*
X26364250Y47780000D01*
G75*
G02*
X26608000Y47536250I0J-243750D01*
G01*
X26608000Y47048750D01*
G75*
G02*
X26364250Y46805000I-243750J0D01*
G01*
G37*
%TD*%
%TO.C,R19*%
G36*
G01*
X12751750Y45905000D02*
X13664250Y45905000D01*
G75*
G02*
X13908000Y45661250I0J-243750D01*
G01*
X13908000Y45173750D01*
G75*
G02*
X13664250Y44930000I-243750J0D01*
G01*
X12751750Y44930000D01*
G75*
G02*
X12508000Y45173750I0J243750D01*
G01*
X12508000Y45661250D01*
G75*
G02*
X12751750Y45905000I243750J0D01*
G01*
G37*
G36*
G01*
X12751750Y47780000D02*
X13664250Y47780000D01*
G75*
G02*
X13908000Y47536250I0J-243750D01*
G01*
X13908000Y47048750D01*
G75*
G02*
X13664250Y46805000I-243750J0D01*
G01*
X12751750Y46805000D01*
G75*
G02*
X12508000Y47048750I0J243750D01*
G01*
X12508000Y47536250D01*
G75*
G02*
X12751750Y47780000I243750J0D01*
G01*
G37*
%TD*%
%TO.C,R20*%
G36*
G01*
X63956250Y48105000D02*
X63043750Y48105000D01*
G75*
G02*
X62800000Y48348750I0J243750D01*
G01*
X62800000Y48836250D01*
G75*
G02*
X63043750Y49080000I243750J0D01*
G01*
X63956250Y49080000D01*
G75*
G02*
X64200000Y48836250I0J-243750D01*
G01*
X64200000Y48348750D01*
G75*
G02*
X63956250Y48105000I-243750J0D01*
G01*
G37*
G36*
G01*
X63956250Y49980000D02*
X63043750Y49980000D01*
G75*
G02*
X62800000Y50223750I0J243750D01*
G01*
X62800000Y50711250D01*
G75*
G02*
X63043750Y50955000I243750J0D01*
G01*
X63956250Y50955000D01*
G75*
G02*
X64200000Y50711250I0J-243750D01*
G01*
X64200000Y50223750D01*
G75*
G02*
X63956250Y49980000I-243750J0D01*
G01*
G37*
%TD*%
%TO.C,R21*%
G36*
G01*
X68268000Y16053750D02*
X68268000Y16966250D01*
G75*
G02*
X68511750Y17210000I243750J0D01*
G01*
X68999250Y17210000D01*
G75*
G02*
X69243000Y16966250I0J-243750D01*
G01*
X69243000Y16053750D01*
G75*
G02*
X68999250Y15810000I-243750J0D01*
G01*
X68511750Y15810000D01*
G75*
G02*
X68268000Y16053750I0J243750D01*
G01*
G37*
G36*
G01*
X66393000Y16053750D02*
X66393000Y16966250D01*
G75*
G02*
X66636750Y17210000I243750J0D01*
G01*
X67124250Y17210000D01*
G75*
G02*
X67368000Y16966250I0J-243750D01*
G01*
X67368000Y16053750D01*
G75*
G02*
X67124250Y15810000I-243750J0D01*
G01*
X66636750Y15810000D01*
G75*
G02*
X66393000Y16053750I0J243750D01*
G01*
G37*
%TD*%
%TO.C,R22*%
G36*
G01*
X60043000Y11354750D02*
X60043000Y12267250D01*
G75*
G02*
X60286750Y12511000I243750J0D01*
G01*
X60774250Y12511000D01*
G75*
G02*
X61018000Y12267250I0J-243750D01*
G01*
X61018000Y11354750D01*
G75*
G02*
X60774250Y11111000I-243750J0D01*
G01*
X60286750Y11111000D01*
G75*
G02*
X60043000Y11354750I0J243750D01*
G01*
G37*
G36*
G01*
X61918000Y11354750D02*
X61918000Y12267250D01*
G75*
G02*
X62161750Y12511000I243750J0D01*
G01*
X62649250Y12511000D01*
G75*
G02*
X62893000Y12267250I0J-243750D01*
G01*
X62893000Y11354750D01*
G75*
G02*
X62649250Y11111000I-243750J0D01*
G01*
X62161750Y11111000D01*
G75*
G02*
X61918000Y11354750I0J243750D01*
G01*
G37*
%TD*%
%TO.C,R23*%
G36*
G01*
X38786750Y27460000D02*
X39699250Y27460000D01*
G75*
G02*
X39943000Y27216250I0J-243750D01*
G01*
X39943000Y26728750D01*
G75*
G02*
X39699250Y26485000I-243750J0D01*
G01*
X38786750Y26485000D01*
G75*
G02*
X38543000Y26728750I0J243750D01*
G01*
X38543000Y27216250D01*
G75*
G02*
X38786750Y27460000I243750J0D01*
G01*
G37*
G36*
G01*
X38786750Y25585000D02*
X39699250Y25585000D01*
G75*
G02*
X39943000Y25341250I0J-243750D01*
G01*
X39943000Y24853750D01*
G75*
G02*
X39699250Y24610000I-243750J0D01*
G01*
X38786750Y24610000D01*
G75*
G02*
X38543000Y24853750I0J243750D01*
G01*
X38543000Y25341250D01*
G75*
G02*
X38786750Y25585000I243750J0D01*
G01*
G37*
%TD*%
%TO.C,R24*%
G36*
G01*
X61918000Y20117750D02*
X61918000Y21030250D01*
G75*
G02*
X62161750Y21274000I243750J0D01*
G01*
X62649250Y21274000D01*
G75*
G02*
X62893000Y21030250I0J-243750D01*
G01*
X62893000Y20117750D01*
G75*
G02*
X62649250Y19874000I-243750J0D01*
G01*
X62161750Y19874000D01*
G75*
G02*
X61918000Y20117750I0J243750D01*
G01*
G37*
G36*
G01*
X60043000Y20117750D02*
X60043000Y21030250D01*
G75*
G02*
X60286750Y21274000I243750J0D01*
G01*
X60774250Y21274000D01*
G75*
G02*
X61018000Y21030250I0J-243750D01*
G01*
X61018000Y20117750D01*
G75*
G02*
X60774250Y19874000I-243750J0D01*
G01*
X60286750Y19874000D01*
G75*
G02*
X60043000Y20117750I0J243750D01*
G01*
G37*
%TD*%
%TO.C,R25*%
G36*
G01*
X38786750Y23396000D02*
X39699250Y23396000D01*
G75*
G02*
X39943000Y23152250I0J-243750D01*
G01*
X39943000Y22664750D01*
G75*
G02*
X39699250Y22421000I-243750J0D01*
G01*
X38786750Y22421000D01*
G75*
G02*
X38543000Y22664750I0J243750D01*
G01*
X38543000Y23152250D01*
G75*
G02*
X38786750Y23396000I243750J0D01*
G01*
G37*
G36*
G01*
X38786750Y21521000D02*
X39699250Y21521000D01*
G75*
G02*
X39943000Y21277250I0J-243750D01*
G01*
X39943000Y20789750D01*
G75*
G02*
X39699250Y20546000I-243750J0D01*
G01*
X38786750Y20546000D01*
G75*
G02*
X38543000Y20789750I0J243750D01*
G01*
X38543000Y21277250D01*
G75*
G02*
X38786750Y21521000I243750J0D01*
G01*
G37*
%TD*%
%TO.C,R26*%
G36*
G01*
X48946750Y25585000D02*
X49859250Y25585000D01*
G75*
G02*
X50103000Y25341250I0J-243750D01*
G01*
X50103000Y24853750D01*
G75*
G02*
X49859250Y24610000I-243750J0D01*
G01*
X48946750Y24610000D01*
G75*
G02*
X48703000Y24853750I0J243750D01*
G01*
X48703000Y25341250D01*
G75*
G02*
X48946750Y25585000I243750J0D01*
G01*
G37*
G36*
G01*
X48946750Y27460000D02*
X49859250Y27460000D01*
G75*
G02*
X50103000Y27216250I0J-243750D01*
G01*
X50103000Y26728750D01*
G75*
G02*
X49859250Y26485000I-243750J0D01*
G01*
X48946750Y26485000D01*
G75*
G02*
X48703000Y26728750I0J243750D01*
G01*
X48703000Y27216250D01*
G75*
G02*
X48946750Y27460000I243750J0D01*
G01*
G37*
%TD*%
%TO.C,U2*%
G36*
G01*
X24246500Y27545000D02*
X24521500Y27545000D01*
G75*
G02*
X24659000Y27407500I0J-137500D01*
G01*
X24659000Y26082500D01*
G75*
G02*
X24521500Y25945000I-137500J0D01*
G01*
X24246500Y25945000D01*
G75*
G02*
X24109000Y26082500I0J137500D01*
G01*
X24109000Y27407500D01*
G75*
G02*
X24246500Y27545000I137500J0D01*
G01*
G37*
G36*
G01*
X21706500Y27545000D02*
X21981500Y27545000D01*
G75*
G02*
X22119000Y27407500I0J-137500D01*
G01*
X22119000Y26082500D01*
G75*
G02*
X21981500Y25945000I-137500J0D01*
G01*
X21706500Y25945000D01*
G75*
G02*
X21569000Y26082500I0J137500D01*
G01*
X21569000Y27407500D01*
G75*
G02*
X21706500Y27545000I137500J0D01*
G01*
G37*
G36*
G01*
X21706500Y21045000D02*
X21981500Y21045000D01*
G75*
G02*
X22119000Y20907500I0J-137500D01*
G01*
X22119000Y19582500D01*
G75*
G02*
X21981500Y19445000I-137500J0D01*
G01*
X21706500Y19445000D01*
G75*
G02*
X21569000Y19582500I0J137500D01*
G01*
X21569000Y20907500D01*
G75*
G02*
X21706500Y21045000I137500J0D01*
G01*
G37*
G36*
G01*
X24246500Y21045000D02*
X24521500Y21045000D01*
G75*
G02*
X24659000Y20907500I0J-137500D01*
G01*
X24659000Y19582500D01*
G75*
G02*
X24521500Y19445000I-137500J0D01*
G01*
X24246500Y19445000D01*
G75*
G02*
X24109000Y19582500I0J137500D01*
G01*
X24109000Y20907500D01*
G75*
G02*
X24246500Y21045000I137500J0D01*
G01*
G37*
%TD*%
%TO.C,U3*%
G36*
G01*
X28691500Y27545000D02*
X28966500Y27545000D01*
G75*
G02*
X29104000Y27407500I0J-137500D01*
G01*
X29104000Y26082500D01*
G75*
G02*
X28966500Y25945000I-137500J0D01*
G01*
X28691500Y25945000D01*
G75*
G02*
X28554000Y26082500I0J137500D01*
G01*
X28554000Y27407500D01*
G75*
G02*
X28691500Y27545000I137500J0D01*
G01*
G37*
G36*
G01*
X26151500Y27545000D02*
X26426500Y27545000D01*
G75*
G02*
X26564000Y27407500I0J-137500D01*
G01*
X26564000Y26082500D01*
G75*
G02*
X26426500Y25945000I-137500J0D01*
G01*
X26151500Y25945000D01*
G75*
G02*
X26014000Y26082500I0J137500D01*
G01*
X26014000Y27407500D01*
G75*
G02*
X26151500Y27545000I137500J0D01*
G01*
G37*
G36*
G01*
X26151500Y21045000D02*
X26426500Y21045000D01*
G75*
G02*
X26564000Y20907500I0J-137500D01*
G01*
X26564000Y19582500D01*
G75*
G02*
X26426500Y19445000I-137500J0D01*
G01*
X26151500Y19445000D01*
G75*
G02*
X26014000Y19582500I0J137500D01*
G01*
X26014000Y20907500D01*
G75*
G02*
X26151500Y21045000I137500J0D01*
G01*
G37*
G36*
G01*
X28691500Y21045000D02*
X28966500Y21045000D01*
G75*
G02*
X29104000Y20907500I0J-137500D01*
G01*
X29104000Y19582500D01*
G75*
G02*
X28966500Y19445000I-137500J0D01*
G01*
X28691500Y19445000D01*
G75*
G02*
X28554000Y19582500I0J137500D01*
G01*
X28554000Y20907500D01*
G75*
G02*
X28691500Y21045000I137500J0D01*
G01*
G37*
%TD*%
%TO.C,U4*%
G36*
G01*
X17536500Y25945000D02*
X17261500Y25945000D01*
G75*
G02*
X17124000Y26082500I0J137500D01*
G01*
X17124000Y27407500D01*
G75*
G02*
X17261500Y27545000I137500J0D01*
G01*
X17536500Y27545000D01*
G75*
G02*
X17674000Y27407500I0J-137500D01*
G01*
X17674000Y26082500D01*
G75*
G02*
X17536500Y25945000I-137500J0D01*
G01*
G37*
G36*
G01*
X20076500Y25945000D02*
X19801500Y25945000D01*
G75*
G02*
X19664000Y26082500I0J137500D01*
G01*
X19664000Y27407500D01*
G75*
G02*
X19801500Y27545000I137500J0D01*
G01*
X20076500Y27545000D01*
G75*
G02*
X20214000Y27407500I0J-137500D01*
G01*
X20214000Y26082500D01*
G75*
G02*
X20076500Y25945000I-137500J0D01*
G01*
G37*
G36*
G01*
X20076500Y19445000D02*
X19801500Y19445000D01*
G75*
G02*
X19664000Y19582500I0J137500D01*
G01*
X19664000Y20907500D01*
G75*
G02*
X19801500Y21045000I137500J0D01*
G01*
X20076500Y21045000D01*
G75*
G02*
X20214000Y20907500I0J-137500D01*
G01*
X20214000Y19582500D01*
G75*
G02*
X20076500Y19445000I-137500J0D01*
G01*
G37*
G36*
G01*
X17536500Y19445000D02*
X17261500Y19445000D01*
G75*
G02*
X17124000Y19582500I0J137500D01*
G01*
X17124000Y20907500D01*
G75*
G02*
X17261500Y21045000I137500J0D01*
G01*
X17536500Y21045000D01*
G75*
G02*
X17674000Y20907500I0J-137500D01*
G01*
X17674000Y19582500D01*
G75*
G02*
X17536500Y19445000I-137500J0D01*
G01*
G37*
%TD*%
%TO.C,U5*%
G36*
G01*
X46205000Y27453000D02*
X46505000Y27453000D01*
G75*
G02*
X46655000Y27303000I0J-150000D01*
G01*
X46655000Y25653000D01*
G75*
G02*
X46505000Y25503000I-150000J0D01*
G01*
X46205000Y25503000D01*
G75*
G02*
X46055000Y25653000I0J150000D01*
G01*
X46055000Y27303000D01*
G75*
G02*
X46205000Y27453000I150000J0D01*
G01*
G37*
G36*
G01*
X44935000Y27453000D02*
X45235000Y27453000D01*
G75*
G02*
X45385000Y27303000I0J-150000D01*
G01*
X45385000Y25653000D01*
G75*
G02*
X45235000Y25503000I-150000J0D01*
G01*
X44935000Y25503000D01*
G75*
G02*
X44785000Y25653000I0J150000D01*
G01*
X44785000Y27303000D01*
G75*
G02*
X44935000Y27453000I150000J0D01*
G01*
G37*
G36*
G01*
X43665000Y27453000D02*
X43965000Y27453000D01*
G75*
G02*
X44115000Y27303000I0J-150000D01*
G01*
X44115000Y25653000D01*
G75*
G02*
X43965000Y25503000I-150000J0D01*
G01*
X43665000Y25503000D01*
G75*
G02*
X43515000Y25653000I0J150000D01*
G01*
X43515000Y27303000D01*
G75*
G02*
X43665000Y27453000I150000J0D01*
G01*
G37*
G36*
G01*
X42395000Y27453000D02*
X42695000Y27453000D01*
G75*
G02*
X42845000Y27303000I0J-150000D01*
G01*
X42845000Y25653000D01*
G75*
G02*
X42695000Y25503000I-150000J0D01*
G01*
X42395000Y25503000D01*
G75*
G02*
X42245000Y25653000I0J150000D01*
G01*
X42245000Y27303000D01*
G75*
G02*
X42395000Y27453000I150000J0D01*
G01*
G37*
G36*
G01*
X42395000Y22503000D02*
X42695000Y22503000D01*
G75*
G02*
X42845000Y22353000I0J-150000D01*
G01*
X42845000Y20703000D01*
G75*
G02*
X42695000Y20553000I-150000J0D01*
G01*
X42395000Y20553000D01*
G75*
G02*
X42245000Y20703000I0J150000D01*
G01*
X42245000Y22353000D01*
G75*
G02*
X42395000Y22503000I150000J0D01*
G01*
G37*
G36*
G01*
X43665000Y22503000D02*
X43965000Y22503000D01*
G75*
G02*
X44115000Y22353000I0J-150000D01*
G01*
X44115000Y20703000D01*
G75*
G02*
X43965000Y20553000I-150000J0D01*
G01*
X43665000Y20553000D01*
G75*
G02*
X43515000Y20703000I0J150000D01*
G01*
X43515000Y22353000D01*
G75*
G02*
X43665000Y22503000I150000J0D01*
G01*
G37*
G36*
G01*
X44935000Y22503000D02*
X45235000Y22503000D01*
G75*
G02*
X45385000Y22353000I0J-150000D01*
G01*
X45385000Y20703000D01*
G75*
G02*
X45235000Y20553000I-150000J0D01*
G01*
X44935000Y20553000D01*
G75*
G02*
X44785000Y20703000I0J150000D01*
G01*
X44785000Y22353000D01*
G75*
G02*
X44935000Y22503000I150000J0D01*
G01*
G37*
G36*
G01*
X46205000Y22503000D02*
X46505000Y22503000D01*
G75*
G02*
X46655000Y22353000I0J-150000D01*
G01*
X46655000Y20703000D01*
G75*
G02*
X46505000Y20553000I-150000J0D01*
G01*
X46205000Y20553000D01*
G75*
G02*
X46055000Y20703000I0J150000D01*
G01*
X46055000Y22353000D01*
G75*
G02*
X46205000Y22503000I150000J0D01*
G01*
G37*
%TD*%
%TO.C,R27*%
G36*
G01*
X65456750Y44127000D02*
X66369250Y44127000D01*
G75*
G02*
X66613000Y43883250I0J-243750D01*
G01*
X66613000Y43395750D01*
G75*
G02*
X66369250Y43152000I-243750J0D01*
G01*
X65456750Y43152000D01*
G75*
G02*
X65213000Y43395750I0J243750D01*
G01*
X65213000Y43883250D01*
G75*
G02*
X65456750Y44127000I243750J0D01*
G01*
G37*
G36*
G01*
X65456750Y46002000D02*
X66369250Y46002000D01*
G75*
G02*
X66613000Y45758250I0J-243750D01*
G01*
X66613000Y45270750D01*
G75*
G02*
X66369250Y45027000I-243750J0D01*
G01*
X65456750Y45027000D01*
G75*
G02*
X65213000Y45270750I0J243750D01*
G01*
X65213000Y45758250D01*
G75*
G02*
X65456750Y46002000I243750J0D01*
G01*
G37*
%TD*%
%TO.C,R28*%
G36*
G01*
X63043750Y46002000D02*
X63956250Y46002000D01*
G75*
G02*
X64200000Y45758250I0J-243750D01*
G01*
X64200000Y45270750D01*
G75*
G02*
X63956250Y45027000I-243750J0D01*
G01*
X63043750Y45027000D01*
G75*
G02*
X62800000Y45270750I0J243750D01*
G01*
X62800000Y45758250D01*
G75*
G02*
X63043750Y46002000I243750J0D01*
G01*
G37*
G36*
G01*
X63043750Y44127000D02*
X63956250Y44127000D01*
G75*
G02*
X64200000Y43883250I0J-243750D01*
G01*
X64200000Y43395750D01*
G75*
G02*
X63956250Y43152000I-243750J0D01*
G01*
X63043750Y43152000D01*
G75*
G02*
X62800000Y43395750I0J243750D01*
G01*
X62800000Y43883250D01*
G75*
G02*
X63043750Y44127000I243750J0D01*
G01*
G37*
%TD*%
%TO.C,C9*%
G36*
G01*
X9757000Y47921000D02*
X9757000Y46821000D01*
G75*
G02*
X9507000Y46571000I-250000J0D01*
G01*
X6507000Y46571000D01*
G75*
G02*
X6257000Y46821000I0J250000D01*
G01*
X6257000Y47921000D01*
G75*
G02*
X6507000Y48171000I250000J0D01*
G01*
X9507000Y48171000D01*
G75*
G02*
X9757000Y47921000I0J-250000D01*
G01*
G37*
G36*
G01*
X4157000Y47921000D02*
X4157000Y46821000D01*
G75*
G02*
X3907000Y46571000I-250000J0D01*
G01*
X907000Y46571000D01*
G75*
G02*
X657000Y46821000I0J250000D01*
G01*
X657000Y47921000D01*
G75*
G02*
X907000Y48171000I250000J0D01*
G01*
X3907000Y48171000D01*
G75*
G02*
X4157000Y47921000I0J-250000D01*
G01*
G37*
%TD*%
%TO.C,U1*%
G36*
G01*
X21576000Y42499000D02*
X21776000Y42499000D01*
G75*
G02*
X21876000Y42399000I0J-100000D01*
G01*
X21876000Y41174000D01*
G75*
G02*
X21776000Y41074000I-100000J0D01*
G01*
X21576000Y41074000D01*
G75*
G02*
X21476000Y41174000I0J100000D01*
G01*
X21476000Y42399000D01*
G75*
G02*
X21576000Y42499000I100000J0D01*
G01*
G37*
G36*
G01*
X20926000Y42499000D02*
X21126000Y42499000D01*
G75*
G02*
X21226000Y42399000I0J-100000D01*
G01*
X21226000Y41174000D01*
G75*
G02*
X21126000Y41074000I-100000J0D01*
G01*
X20926000Y41074000D01*
G75*
G02*
X20826000Y41174000I0J100000D01*
G01*
X20826000Y42399000D01*
G75*
G02*
X20926000Y42499000I100000J0D01*
G01*
G37*
G36*
G01*
X20276000Y42499000D02*
X20476000Y42499000D01*
G75*
G02*
X20576000Y42399000I0J-100000D01*
G01*
X20576000Y41174000D01*
G75*
G02*
X20476000Y41074000I-100000J0D01*
G01*
X20276000Y41074000D01*
G75*
G02*
X20176000Y41174000I0J100000D01*
G01*
X20176000Y42399000D01*
G75*
G02*
X20276000Y42499000I100000J0D01*
G01*
G37*
G36*
G01*
X19626000Y42499000D02*
X19826000Y42499000D01*
G75*
G02*
X19926000Y42399000I0J-100000D01*
G01*
X19926000Y41174000D01*
G75*
G02*
X19826000Y41074000I-100000J0D01*
G01*
X19626000Y41074000D01*
G75*
G02*
X19526000Y41174000I0J100000D01*
G01*
X19526000Y42399000D01*
G75*
G02*
X19626000Y42499000I100000J0D01*
G01*
G37*
G36*
G01*
X19626000Y38174000D02*
X19826000Y38174000D01*
G75*
G02*
X19926000Y38074000I0J-100000D01*
G01*
X19926000Y36849000D01*
G75*
G02*
X19826000Y36749000I-100000J0D01*
G01*
X19626000Y36749000D01*
G75*
G02*
X19526000Y36849000I0J100000D01*
G01*
X19526000Y38074000D01*
G75*
G02*
X19626000Y38174000I100000J0D01*
G01*
G37*
G36*
G01*
X20276000Y38174000D02*
X20476000Y38174000D01*
G75*
G02*
X20576000Y38074000I0J-100000D01*
G01*
X20576000Y36849000D01*
G75*
G02*
X20476000Y36749000I-100000J0D01*
G01*
X20276000Y36749000D01*
G75*
G02*
X20176000Y36849000I0J100000D01*
G01*
X20176000Y38074000D01*
G75*
G02*
X20276000Y38174000I100000J0D01*
G01*
G37*
G36*
G01*
X20926000Y38174000D02*
X21126000Y38174000D01*
G75*
G02*
X21226000Y38074000I0J-100000D01*
G01*
X21226000Y36849000D01*
G75*
G02*
X21126000Y36749000I-100000J0D01*
G01*
X20926000Y36749000D01*
G75*
G02*
X20826000Y36849000I0J100000D01*
G01*
X20826000Y38074000D01*
G75*
G02*
X20926000Y38174000I100000J0D01*
G01*
G37*
G36*
G01*
X21576000Y38174000D02*
X21776000Y38174000D01*
G75*
G02*
X21876000Y38074000I0J-100000D01*
G01*
X21876000Y36849000D01*
G75*
G02*
X21776000Y36749000I-100000J0D01*
G01*
X21576000Y36749000D01*
G75*
G02*
X21476000Y36849000I0J100000D01*
G01*
X21476000Y38074000D01*
G75*
G02*
X21576000Y38174000I100000J0D01*
G01*
G37*
G36*
G01*
X20956000Y40414000D02*
X21366000Y40414000D01*
G75*
G02*
X21546000Y40234000I0J-180000D01*
G01*
X21546000Y39874000D01*
G75*
G02*
X21366000Y39694000I-180000J0D01*
G01*
X20956000Y39694000D01*
G75*
G02*
X20776000Y39874000I0J180000D01*
G01*
X20776000Y40234000D01*
G75*
G02*
X20956000Y40414000I180000J0D01*
G01*
G37*
G36*
G01*
X20036000Y40414000D02*
X20446000Y40414000D01*
G75*
G02*
X20626000Y40234000I0J-180000D01*
G01*
X20626000Y39874000D01*
G75*
G02*
X20446000Y39694000I-180000J0D01*
G01*
X20036000Y39694000D01*
G75*
G02*
X19856000Y39874000I0J180000D01*
G01*
X19856000Y40234000D01*
G75*
G02*
X20036000Y40414000I180000J0D01*
G01*
G37*
G36*
G01*
X20956000Y39554000D02*
X21366000Y39554000D01*
G75*
G02*
X21546000Y39374000I0J-180000D01*
G01*
X21546000Y39014000D01*
G75*
G02*
X21366000Y38834000I-180000J0D01*
G01*
X20956000Y38834000D01*
G75*
G02*
X20776000Y39014000I0J180000D01*
G01*
X20776000Y39374000D01*
G75*
G02*
X20956000Y39554000I180000J0D01*
G01*
G37*
G36*
G01*
X20036000Y39554000D02*
X20446000Y39554000D01*
G75*
G02*
X20626000Y39374000I0J-180000D01*
G01*
X20626000Y39014000D01*
G75*
G02*
X20446000Y38834000I-180000J0D01*
G01*
X20036000Y38834000D01*
G75*
G02*
X19856000Y39014000I0J180000D01*
G01*
X19856000Y39374000D01*
G75*
G02*
X20036000Y39554000I180000J0D01*
G01*
G37*
%TD*%
M02*
